<?xml version="1.0" encoding="UTF-8" standalone="no"?><svg xmlns="http://www.w3.org/2000/svg" xmlns:xlink="http://www.w3.org/1999/xlink" contentStyleType="text/css" height="330px" preserveAspectRatio="none" style="width:1328px;height:330px;background:#FFFFFF;" version="1.1" viewBox="0 0 1328 330" width="1328px" zoomAndPan="magnify"><defs/><g><rect fill="#F1F1F1" height="40.5938" rx="5" ry="5" style="stroke:#F1F1F1;stroke-width:1.5;" width="146" x="10" y="89"/><text fill="#000000" font-family="sans-serif" font-size="14" font-weight="bold" lengthAdjust="spacing" textLength="35" x="15" y="103.9951">type</text><text fill="#000000" font-family="sans-serif" font-size="14" lengthAdjust="spacing" textLength="43" x="108" y="103.9951">object</text><line style="stroke:#000000;stroke-width:1.0;" x1="103" x2="103" y1="89" y2="109.2969"/><line style="stroke:#000000;stroke-width:1.0;" x1="10" x2="156" y1="109.2969" y2="109.2969"/><text fill="#000000" font-family="sans-serif" font-size="14" font-weight="bold" lengthAdjust="spacing" textLength="83" x="15" y="124.292">properties</text><text fill="#000000" font-family="sans-serif" font-size="14" lengthAdjust="spacing" textLength="12" x="108" y="124.292">   </text><line style="stroke:#000000;stroke-width:1.0;" x1="103" x2="103" y1="109.2969" y2="129.5938"/><rect fill="none" height="40.5938" rx="5" ry="5" style="stroke:#000000;stroke-width:1.5;" width="146" x="10" y="89"/><rect fill="#F1F1F1" height="81.1875" rx="5" ry="5" style="stroke:#F1F1F1;stroke-width:1.5;" width="110" x="193" y="79"/><text fill="#000000" font-family="sans-serif" font-size="14" font-weight="bold" lengthAdjust="spacing" textLength="78" x="198" y="93.9951">ipDaemon</text><text fill="#000000" font-family="sans-serif" font-size="14" lengthAdjust="spacing" textLength="12" x="286" y="93.9951">   </text><line style="stroke:#000000;stroke-width:1.0;" x1="281" x2="281" y1="79" y2="99.2969"/><line style="stroke:#000000;stroke-width:1.0;" x1="193" x2="303" y1="99.2969" y2="99.2969"/><text fill="#000000" font-family="sans-serif" font-size="14" font-weight="bold" lengthAdjust="spacing" textLength="62" x="198" y="114.292">records</text><text fill="#000000" font-family="sans-serif" font-size="14" lengthAdjust="spacing" textLength="12" x="286" y="114.292">   </text><line style="stroke:#000000;stroke-width:1.0;" x1="281" x2="281" y1="99.2969" y2="119.5938"/><line style="stroke:#000000;stroke-width:1.0;" x1="193" x2="303" y1="119.5938" y2="119.5938"/><text fill="#000000" font-family="sans-serif" font-size="14" font-weight="bold" lengthAdjust="spacing" textLength="66" x="198" y="134.5889">backups</text><text fill="#000000" font-family="sans-serif" font-size="14" lengthAdjust="spacing" textLength="12" x="286" y="134.5889">   </text><line style="stroke:#000000;stroke-width:1.0;" x1="281" x2="281" y1="119.5938" y2="139.8906"/><line style="stroke:#000000;stroke-width:1.0;" x1="193" x2="303" y1="139.8906" y2="139.8906"/><text fill="#000000" font-family="sans-serif" font-size="14" font-weight="bold" lengthAdjust="spacing" textLength="33" x="198" y="154.8857">jobs</text><text fill="#000000" font-family="sans-serif" font-size="14" lengthAdjust="spacing" textLength="12" x="286" y="154.8857">   </text><line style="stroke:#000000;stroke-width:1.0;" x1="281" x2="281" y1="139.8906" y2="160.1875"/><rect fill="none" height="81.1875" rx="5" ry="5" style="stroke:#000000;stroke-width:1.5;" width="110" x="193" y="79"/><rect fill="#F1F1F1" height="40.5938" rx="5" ry="5" style="stroke:#F1F1F1;stroke-width:1.5;" width="146" x="340" y="10"/><text fill="#000000" font-family="sans-serif" font-size="14" font-weight="bold" lengthAdjust="spacing" textLength="35" x="345" y="24.9951">type</text><text fill="#000000" font-family="sans-serif" font-size="14" lengthAdjust="spacing" textLength="43" x="438" y="24.9951">object</text><line style="stroke:#000000;stroke-width:1.0;" x1="433" x2="433" y1="10" y2="30.2969"/><line style="stroke:#000000;stroke-width:1.0;" x1="340" x2="486" y1="30.2969" y2="30.2969"/><text fill="#000000" font-family="sans-serif" font-size="14" font-weight="bold" lengthAdjust="spacing" textLength="83" x="345" y="45.292">properties</text><text fill="#000000" font-family="sans-serif" font-size="14" lengthAdjust="spacing" textLength="12" x="438" y="45.292">   </text><line style="stroke:#000000;stroke-width:1.0;" x1="433" x2="433" y1="30.2969" y2="50.5938"/><rect fill="none" height="40.5938" rx="5" ry="5" style="stroke:#000000;stroke-width:1.5;" width="146" x="340" y="10"/><rect fill="#F1F1F1" height="20.2969" rx="5" ry="5" style="stroke:#F1F1F1;stroke-width:1.5;" width="46" x="573" y="30.5"/><text fill="#000000" font-family="sans-serif" font-size="14" font-weight="bold" lengthAdjust="spacing" textLength="14" x="578" y="45.4951">ip</text><text fill="#000000" font-family="sans-serif" font-size="14" lengthAdjust="spacing" textLength="12" x="602" y="45.4951">   </text><line style="stroke:#000000;stroke-width:1.0;" x1="597" x2="597" y1="30.5" y2="50.7969"/><rect fill="none" height="20.2969" rx="5" ry="5" style="stroke:#000000;stroke-width:1.5;" width="46" x="573" y="30.5"/><rect fill="#F1F1F1" height="20.2969" rx="5" ry="5" style="stroke:#F1F1F1;stroke-width:1.5;" width="79" x="740.5" y="30.5"/><text fill="#000000" font-family="sans-serif" font-size="14" font-weight="bold" lengthAdjust="spacing" textLength="35" x="745.5" y="45.4951">type</text><text fill="#000000" font-family="sans-serif" font-size="14" lengthAdjust="spacing" textLength="24" x="790.5" y="45.4951">null</text><line style="stroke:#000000;stroke-width:1.0;" x1="785.5" x2="785.5" y1="30.5" y2="50.7969"/><rect fill="none" height="20.2969" rx="5" ry="5" style="stroke:#000000;stroke-width:1.5;" width="79" x="740.5" y="30.5"/><rect fill="#F1F1F1" height="40.5938" rx="5" ry="5" style="stroke:#F1F1F1;stroke-width:1.5;" width="146" x="340" y="69"/><text fill="#000000" font-family="sans-serif" font-size="14" font-weight="bold" lengthAdjust="spacing" textLength="35" x="345" y="83.9951">type</text><text fill="#000000" font-family="sans-serif" font-size="14" lengthAdjust="spacing" textLength="43" x="438" y="83.9951">object</text><line style="stroke:#000000;stroke-width:1.0;" x1="433" x2="433" y1="69" y2="89.2969"/><line style="stroke:#000000;stroke-width:1.0;" x1="340" x2="486" y1="89.2969" y2="89.2969"/><text fill="#000000" font-family="sans-serif" font-size="14" font-weight="bold" lengthAdjust="spacing" textLength="83" x="345" y="104.292">properties</text><text fill="#000000" font-family="sans-serif" font-size="14" lengthAdjust="spacing" textLength="12" x="438" y="104.292">   </text><line style="stroke:#000000;stroke-width:1.0;" x1="433" x2="433" y1="89.2969" y2="109.5938"/><rect fill="none" height="40.5938" rx="5" ry="5" style="stroke:#000000;stroke-width:1.5;" width="146" x="340" y="69"/><rect fill="#F1F1F1" height="20.2969" rx="5" ry="5" style="stroke:#F1F1F1;stroke-width:1.5;" width="43" x="574.5" y="89.5"/><text fill="#000000" font-family="sans-serif" font-size="14" font-weight="bold" lengthAdjust="spacing" textLength="11" x="579.5" y="104.4951">A</text><text fill="#000000" font-family="sans-serif" font-size="14" lengthAdjust="spacing" textLength="12" x="600.5" y="104.4951">   </text><line style="stroke:#000000;stroke-width:1.0;" x1="595.5" x2="595.5" y1="89.5" y2="109.7969"/><rect fill="none" height="20.2969" rx="5" ry="5" style="stroke:#000000;stroke-width:1.5;" width="43" x="574.5" y="89.5"/><rect fill="#F1F1F1" height="40.5938" rx="5" ry="5" style="stroke:#F1F1F1;stroke-width:1.5;" width="96" x="732" y="79"/><text fill="#000000" font-family="sans-serif" font-size="14" font-weight="bold" lengthAdjust="spacing" textLength="35" x="737" y="93.9951">type</text><text fill="#000000" font-family="sans-serif" font-size="14" lengthAdjust="spacing" textLength="33" x="790" y="93.9951">array</text><line style="stroke:#000000;stroke-width:1.0;" x1="785" x2="785" y1="79" y2="99.2969"/><line style="stroke:#000000;stroke-width:1.0;" x1="732" x2="828" y1="99.2969" y2="99.2969"/><text fill="#000000" font-family="sans-serif" font-size="14" font-weight="bold" lengthAdjust="spacing" textLength="43" x="737" y="114.292">items</text><text fill="#000000" font-family="sans-serif" font-size="14" lengthAdjust="spacing" textLength="12" x="790" y="114.292">   </text><line style="stroke:#000000;stroke-width:1.0;" x1="785" x2="785" y1="99.2969" y2="119.5938"/><rect fill="none" height="40.5938" rx="5" ry="5" style="stroke:#000000;stroke-width:1.5;" width="96" x="732" y="79"/><rect fill="#F1F1F1" height="40.5938" rx="5" ry="5" style="stroke:#F1F1F1;stroke-width:1.5;" width="146" x="891" y="89"/><text fill="#000000" font-family="sans-serif" font-size="14" font-weight="bold" lengthAdjust="spacing" textLength="35" x="896" y="103.9951">type</text><text fill="#000000" font-family="sans-serif" font-size="14" lengthAdjust="spacing" textLength="43" x="989" y="103.9951">object</text><line style="stroke:#000000;stroke-width:1.0;" x1="984" x2="984" y1="89" y2="109.2969"/><line style="stroke:#000000;stroke-width:1.0;" x1="891" x2="1037" y1="109.2969" y2="109.2969"/><text fill="#000000" font-family="sans-serif" font-size="14" font-weight="bold" lengthAdjust="spacing" textLength="83" x="896" y="124.292">properties</text><text fill="#000000" font-family="sans-serif" font-size="14" lengthAdjust="spacing" textLength="12" x="989" y="124.292">   </text><line style="stroke:#000000;stroke-width:1.0;" x1="984" x2="984" y1="109.2969" y2="129.5938"/><rect fill="none" height="40.5938" rx="5" ry="5" style="stroke:#000000;stroke-width:1.5;" width="146" x="891" y="89"/><rect fill="#F1F1F1" height="81.1875" rx="5" ry="5" style="stroke:#F1F1F1;stroke-width:1.5;" width="90" x="1084.5" y="79"/><text fill="#000000" font-family="sans-serif" font-size="14" font-weight="bold" lengthAdjust="spacing" textLength="35" x="1089.5" y="93.9951">host</text><text fill="#000000" font-family="sans-serif" font-size="14" lengthAdjust="spacing" textLength="12" x="1157.5" y="93.9951">   </text><line style="stroke:#000000;stroke-width:1.0;" x1="1152.5" x2="1152.5" y1="79" y2="99.2969"/><line style="stroke:#000000;stroke-width:1.0;" x1="1084.5" x2="1174.5" y1="99.2969" y2="99.2969"/><text fill="#000000" font-family="sans-serif" font-size="14" font-weight="bold" lengthAdjust="spacing" textLength="29" x="1089.5" y="114.292">dns</text><text fill="#000000" font-family="sans-serif" font-size="14" lengthAdjust="spacing" textLength="12" x="1157.5" y="114.292">   </text><line style="stroke:#000000;stroke-width:1.0;" x1="1152.5" x2="1152.5" y1="99.2969" y2="119.5938"/><line style="stroke:#000000;stroke-width:1.0;" x1="1084.5" x2="1174.5" y1="119.5938" y2="119.5938"/><text fill="#000000" font-family="sans-serif" font-size="14" font-weight="bold" lengthAdjust="spacing" textLength="58" x="1089.5" y="134.5889">api_key</text><text fill="#000000" font-family="sans-serif" font-size="14" lengthAdjust="spacing" textLength="12" x="1157.5" y="134.5889">   </text><line style="stroke:#000000;stroke-width:1.0;" x1="1152.5" x2="1152.5" y1="119.5938" y2="139.8906"/><line style="stroke:#000000;stroke-width:1.0;" x1="1084.5" x2="1174.5" y1="139.8906" y2="139.8906"/><text fill="#000000" font-family="sans-serif" font-size="14" font-weight="bold" lengthAdjust="spacing" textLength="36" x="1089.5" y="154.8857">user</text><text fill="#000000" font-family="sans-serif" font-size="14" lengthAdjust="spacing" textLength="12" x="1157.5" y="154.8857">   </text><line style="stroke:#000000;stroke-width:1.0;" x1="1152.5" x2="1152.5" y1="139.8906" y2="160.1875"/><rect fill="none" height="81.1875" rx="5" ry="5" style="stroke:#000000;stroke-width:1.5;" width="90" x="1084.5" y="79"/><rect fill="#F1F1F1" height="20.2969" rx="5" ry="5" style="stroke:#F1F1F1;stroke-width:1.5;" width="94" x="1222" y="52.5"/><text fill="#000000" font-family="sans-serif" font-size="14" font-weight="bold" lengthAdjust="spacing" textLength="35" x="1227" y="67.4951">type</text><text fill="#000000" font-family="sans-serif" font-size="14" lengthAdjust="spacing" textLength="39" x="1272" y="67.4951">string</text><line style="stroke:#000000;stroke-width:1.0;" x1="1267" x2="1267" y1="52.5" y2="72.7969"/><rect fill="none" height="20.2969" rx="5" ry="5" style="stroke:#000000;stroke-width:1.5;" width="94" x="1222" y="52.5"/><rect fill="#F1F1F1" height="20.2969" rx="5" ry="5" style="stroke:#F1F1F1;stroke-width:1.5;" width="94" x="1222" y="90.5"/><text fill="#000000" font-family="sans-serif" font-size="14" font-weight="bold" lengthAdjust="spacing" textLength="35" x="1227" y="105.4951">type</text><text fill="#000000" font-family="sans-serif" font-size="14" lengthAdjust="spacing" textLength="39" x="1272" y="105.4951">string</text><line style="stroke:#000000;stroke-width:1.0;" x1="1267" x2="1267" y1="90.5" y2="110.7969"/><rect fill="none" height="20.2969" rx="5" ry="5" style="stroke:#000000;stroke-width:1.5;" width="94" x="1222" y="90.5"/><rect fill="#F1F1F1" height="20.2969" rx="5" ry="5" style="stroke:#F1F1F1;stroke-width:1.5;" width="94" x="1222" y="128.5"/><text fill="#000000" font-family="sans-serif" font-size="14" font-weight="bold" lengthAdjust="spacing" textLength="35" x="1227" y="143.4951">type</text><text fill="#000000" font-family="sans-serif" font-size="14" lengthAdjust="spacing" textLength="39" x="1272" y="143.4951">string</text><line style="stroke:#000000;stroke-width:1.0;" x1="1267" x2="1267" y1="128.5" y2="148.7969"/><rect fill="none" height="20.2969" rx="5" ry="5" style="stroke:#000000;stroke-width:1.5;" width="94" x="1222" y="128.5"/><rect fill="#F1F1F1" height="20.2969" rx="5" ry="5" style="stroke:#F1F1F1;stroke-width:1.5;" width="94" x="1222" y="166.5"/><text fill="#000000" font-family="sans-serif" font-size="14" font-weight="bold" lengthAdjust="spacing" textLength="35" x="1227" y="181.4951">type</text><text fill="#000000" font-family="sans-serif" font-size="14" lengthAdjust="spacing" textLength="39" x="1272" y="181.4951">string</text><line style="stroke:#000000;stroke-width:1.0;" x1="1267" x2="1267" y1="166.5" y2="186.7969"/><rect fill="none" height="20.2969" rx="5" ry="5" style="stroke:#000000;stroke-width:1.5;" width="94" x="1222" y="166.5"/><rect fill="#F1F1F1" height="40.5938" rx="5" ry="5" style="stroke:#F1F1F1;stroke-width:1.5;" width="96" x="365" y="128"/><text fill="#000000" font-family="sans-serif" font-size="14" font-weight="bold" lengthAdjust="spacing" textLength="35" x="370" y="142.9951">type</text><text fill="#000000" font-family="sans-serif" font-size="14" lengthAdjust="spacing" textLength="33" x="423" y="142.9951">array</text><line style="stroke:#000000;stroke-width:1.0;" x1="418" x2="418" y1="128" y2="148.2969"/><line style="stroke:#000000;stroke-width:1.0;" x1="365" x2="461" y1="148.2969" y2="148.2969"/><text fill="#000000" font-family="sans-serif" font-size="14" font-weight="bold" lengthAdjust="spacing" textLength="43" x="370" y="163.292">items</text><text fill="#000000" font-family="sans-serif" font-size="14" lengthAdjust="spacing" textLength="12" x="423" y="163.292">   </text><line style="stroke:#000000;stroke-width:1.0;" x1="418" x2="418" y1="148.2969" y2="168.5938"/><rect fill="none" height="40.5938" rx="5" ry="5" style="stroke:#000000;stroke-width:1.5;" width="96" x="365" y="128"/><rect fill="#F1F1F1" height="40.5938" rx="5" ry="5" style="stroke:#F1F1F1;stroke-width:1.5;" width="146" x="523" y="136"/><text fill="#000000" font-family="sans-serif" font-size="14" font-weight="bold" lengthAdjust="spacing" textLength="35" x="528" y="150.9951">type</text><text fill="#000000" font-family="sans-serif" font-size="14" lengthAdjust="spacing" textLength="43" x="621" y="150.9951">object</text><line style="stroke:#000000;stroke-width:1.0;" x1="616" x2="616" y1="136" y2="156.2969"/><line style="stroke:#000000;stroke-width:1.0;" x1="523" x2="669" y1="156.2969" y2="156.2969"/><text fill="#000000" font-family="sans-serif" font-size="14" font-weight="bold" lengthAdjust="spacing" textLength="83" x="528" y="171.292">properties</text><text fill="#000000" font-family="sans-serif" font-size="14" lengthAdjust="spacing" textLength="12" x="621" y="171.292">   </text><line style="stroke:#000000;stroke-width:1.0;" x1="616" x2="616" y1="156.2969" y2="176.5938"/><rect fill="none" height="40.5938" rx="5" ry="5" style="stroke:#000000;stroke-width:1.5;" width="146" x="523" y="136"/><rect fill="#F1F1F1" height="20.2969" rx="5" ry="5" style="stroke:#F1F1F1;stroke-width:1.5;" width="148" x="706" y="153.5"/><text fill="#000000" font-family="sans-serif" font-size="14" font-weight="bold" lengthAdjust="spacing" textLength="116" x="711" y="168.4951">deployGroupId</text><text fill="#000000" font-family="sans-serif" font-size="14" lengthAdjust="spacing" textLength="12" x="837" y="168.4951">   </text><line style="stroke:#000000;stroke-width:1.0;" x1="832" x2="832" y1="153.5" y2="173.7969"/><rect fill="none" height="20.2969" rx="5" ry="5" style="stroke:#000000;stroke-width:1.5;" width="148" x="706" y="153.5"/><rect fill="#F1F1F1" height="20.2969" rx="5" ry="5" style="stroke:#F1F1F1;stroke-width:1.5;" width="94" x="917" y="153.5"/><text fill="#000000" font-family="sans-serif" font-size="14" font-weight="bold" lengthAdjust="spacing" textLength="35" x="922" y="168.4951">type</text><text fill="#000000" font-family="sans-serif" font-size="14" lengthAdjust="spacing" textLength="39" x="967" y="168.4951">string</text><line style="stroke:#000000;stroke-width:1.0;" x1="962" x2="962" y1="153.5" y2="173.7969"/><rect fill="none" height="20.2969" rx="5" ry="5" style="stroke:#000000;stroke-width:1.5;" width="94" x="917" y="153.5"/><rect fill="#F1F1F1" height="40.5938" rx="5" ry="5" style="stroke:#F1F1F1;stroke-width:1.5;" width="146" x="340" y="190"/><text fill="#000000" font-family="sans-serif" font-size="14" font-weight="bold" lengthAdjust="spacing" textLength="35" x="345" y="204.9951">type</text><text fill="#000000" font-family="sans-serif" font-size="14" lengthAdjust="spacing" textLength="43" x="438" y="204.9951">object</text><line style="stroke:#000000;stroke-width:1.0;" x1="433" x2="433" y1="190" y2="210.2969"/><line style="stroke:#000000;stroke-width:1.0;" x1="340" x2="486" y1="210.2969" y2="210.2969"/><text fill="#000000" font-family="sans-serif" font-size="14" font-weight="bold" lengthAdjust="spacing" textLength="83" x="345" y="225.292">properties</text><text fill="#000000" font-family="sans-serif" font-size="14" lengthAdjust="spacing" textLength="12" x="438" y="225.292">   </text><line style="stroke:#000000;stroke-width:1.0;" x1="433" x2="433" y1="210.2969" y2="230.5938"/><rect fill="none" height="40.5938" rx="5" ry="5" style="stroke:#000000;stroke-width:1.5;" width="146" x="340" y="190"/><rect fill="#F1F1F1" height="40.5938" rx="5" ry="5" style="stroke:#F1F1F1;stroke-width:1.5;" width="98" x="547" y="203"/><text fill="#000000" font-family="sans-serif" font-size="14" font-weight="bold" lengthAdjust="spacing" textLength="29" x="552" y="217.9951">dns</text><text fill="#000000" font-family="sans-serif" font-size="14" lengthAdjust="spacing" textLength="12" x="628" y="217.9951">   </text><line style="stroke:#000000;stroke-width:1.0;" x1="623" x2="623" y1="203" y2="223.2969"/><line style="stroke:#000000;stroke-width:1.0;" x1="547" x2="645" y1="223.2969" y2="223.2969"/><text fill="#000000" font-family="sans-serif" font-size="14" font-weight="bold" lengthAdjust="spacing" textLength="66" x="552" y="238.292">backups</text><text fill="#000000" font-family="sans-serif" font-size="14" lengthAdjust="spacing" textLength="12" x="628" y="238.292">   </text><line style="stroke:#000000;stroke-width:1.0;" x1="623" x2="623" y1="223.2969" y2="243.5938"/><rect fill="none" height="40.5938" rx="5" ry="5" style="stroke:#000000;stroke-width:1.5;" width="98" x="547" y="203"/><rect fill="#F1F1F1" height="40.5938" rx="5" ry="5" style="stroke:#F1F1F1;stroke-width:1.5;" width="146" x="707" y="192"/><text fill="#000000" font-family="sans-serif" font-size="14" font-weight="bold" lengthAdjust="spacing" textLength="35" x="712" y="206.9951">type</text><text fill="#000000" font-family="sans-serif" font-size="14" lengthAdjust="spacing" textLength="43" x="805" y="206.9951">object</text><line style="stroke:#000000;stroke-width:1.0;" x1="800" x2="800" y1="192" y2="212.2969"/><line style="stroke:#000000;stroke-width:1.0;" x1="707" x2="853" y1="212.2969" y2="212.2969"/><text fill="#000000" font-family="sans-serif" font-size="14" font-weight="bold" lengthAdjust="spacing" textLength="83" x="712" y="227.292">properties</text><text fill="#000000" font-family="sans-serif" font-size="14" lengthAdjust="spacing" textLength="12" x="805" y="227.292">   </text><line style="stroke:#000000;stroke-width:1.0;" x1="800" x2="800" y1="212.2969" y2="232.5938"/><rect fill="none" height="40.5938" rx="5" ry="5" style="stroke:#000000;stroke-width:1.5;" width="146" x="707" y="192"/><rect fill="#F1F1F1" height="40.5938" rx="5" ry="5" style="stroke:#F1F1F1;stroke-width:1.5;" width="120" x="904" y="202"/><text fill="#000000" font-family="sans-serif" font-size="14" font-weight="bold" lengthAdjust="spacing" textLength="88" x="909" y="216.9951">expression</text><text fill="#000000" font-family="sans-serif" font-size="14" lengthAdjust="spacing" textLength="12" x="1007" y="216.9951">   </text><line style="stroke:#000000;stroke-width:1.0;" x1="1002" x2="1002" y1="202" y2="222.2969"/><line style="stroke:#000000;stroke-width:1.0;" x1="904" x2="1024" y1="222.2969" y2="222.2969"/><text fill="#000000" font-family="sans-serif" font-size="14" font-weight="bold" lengthAdjust="spacing" textLength="63" x="909" y="237.292">enabled</text><text fill="#000000" font-family="sans-serif" font-size="14" lengthAdjust="spacing" textLength="12" x="1007" y="237.292">   </text><line style="stroke:#000000;stroke-width:1.0;" x1="1002" x2="1002" y1="222.2969" y2="242.5938"/><rect fill="none" height="40.5938" rx="5" ry="5" style="stroke:#000000;stroke-width:1.5;" width="120" x="904" y="202"/><rect fill="#F1F1F1" height="20.2969" rx="5" ry="5" style="stroke:#F1F1F1;stroke-width:1.5;" width="94" x="1082.5" y="184.5"/><text fill="#000000" font-family="sans-serif" font-size="14" font-weight="bold" lengthAdjust="spacing" textLength="35" x="1087.5" y="199.4951">type</text><text fill="#000000" font-family="sans-serif" font-size="14" lengthAdjust="spacing" textLength="39" x="1132.5" y="199.4951">string</text><line style="stroke:#000000;stroke-width:1.0;" x1="1127.5" x2="1127.5" y1="184.5" y2="204.7969"/><rect fill="none" height="20.2969" rx="5" ry="5" style="stroke:#000000;stroke-width:1.5;" width="94" x="1082.5" y="184.5"/><rect fill="#F1F1F1" height="20.2969" rx="5" ry="5" style="stroke:#F1F1F1;stroke-width:1.5;" width="111" x="1074" y="222.5"/><text fill="#000000" font-family="sans-serif" font-size="14" font-weight="bold" lengthAdjust="spacing" textLength="35" x="1079" y="237.4951">type</text><text fill="#000000" font-family="sans-serif" font-size="14" lengthAdjust="spacing" textLength="56" x="1124" y="237.4951">boolean</text><line style="stroke:#000000;stroke-width:1.0;" x1="1119" x2="1119" y1="222.5" y2="242.7969"/><rect fill="none" height="20.2969" rx="5" ry="5" style="stroke:#000000;stroke-width:1.5;" width="111" x="1074" y="222.5"/><rect fill="#F1F1F1" height="40.5938" rx="5" ry="5" style="stroke:#F1F1F1;stroke-width:1.5;" width="146" x="707" y="251"/><text fill="#000000" font-family="sans-serif" font-size="14" font-weight="bold" lengthAdjust="spacing" textLength="35" x="712" y="265.9951">type</text><text fill="#000000" font-family="sans-serif" font-size="14" lengthAdjust="spacing" textLength="43" x="805" y="265.9951">object</text><line style="stroke:#000000;stroke-width:1.0;" x1="800" x2="800" y1="251" y2="271.2969"/><line style="stroke:#000000;stroke-width:1.0;" x1="707" x2="853" y1="271.2969" y2="271.2969"/><text fill="#000000" font-family="sans-serif" font-size="14" font-weight="bold" lengthAdjust="spacing" textLength="83" x="712" y="286.292">properties</text><text fill="#000000" font-family="sans-serif" font-size="14" lengthAdjust="spacing" textLength="12" x="805" y="286.292">   </text><line style="stroke:#000000;stroke-width:1.0;" x1="800" x2="800" y1="271.2969" y2="291.5938"/><rect fill="none" height="40.5938" rx="5" ry="5" style="stroke:#000000;stroke-width:1.5;" width="146" x="707" y="251"/><rect fill="#F1F1F1" height="40.5938" rx="5" ry="5" style="stroke:#F1F1F1;stroke-width:1.5;" width="120" x="904" y="261"/><text fill="#000000" font-family="sans-serif" font-size="14" font-weight="bold" lengthAdjust="spacing" textLength="88" x="909" y="275.9951">expression</text><text fill="#000000" font-family="sans-serif" font-size="14" lengthAdjust="spacing" textLength="12" x="1007" y="275.9951">   </text><line style="stroke:#000000;stroke-width:1.0;" x1="1002" x2="1002" y1="261" y2="281.2969"/><line style="stroke:#000000;stroke-width:1.0;" x1="904" x2="1024" y1="281.2969" y2="281.2969"/><text fill="#000000" font-family="sans-serif" font-size="14" font-weight="bold" lengthAdjust="spacing" textLength="63" x="909" y="296.292">enabled</text><text fill="#000000" font-family="sans-serif" font-size="14" lengthAdjust="spacing" textLength="12" x="1007" y="296.292">   </text><line style="stroke:#000000;stroke-width:1.0;" x1="1002" x2="1002" y1="281.2969" y2="301.5938"/><rect fill="none" height="40.5938" rx="5" ry="5" style="stroke:#000000;stroke-width:1.5;" width="120" x="904" y="261"/><rect fill="#F1F1F1" height="20.2969" rx="5" ry="5" style="stroke:#F1F1F1;stroke-width:1.5;" width="94" x="1082.5" y="260.5"/><text fill="#000000" font-family="sans-serif" font-size="14" font-weight="bold" lengthAdjust="spacing" textLength="35" x="1087.5" y="275.4951">type</text><text fill="#000000" font-family="sans-serif" font-size="14" lengthAdjust="spacing" textLength="39" x="1132.5" y="275.4951">string</text><line style="stroke:#000000;stroke-width:1.0;" x1="1127.5" x2="1127.5" y1="260.5" y2="280.7969"/><rect fill="none" height="20.2969" rx="5" ry="5" style="stroke:#000000;stroke-width:1.5;" width="94" x="1082.5" y="260.5"/><rect fill="#F1F1F1" height="20.2969" rx="5" ry="5" style="stroke:#F1F1F1;stroke-width:1.5;" width="111" x="1074" y="298.5"/><text fill="#000000" font-family="sans-serif" font-size="14" font-weight="bold" lengthAdjust="spacing" textLength="35" x="1079" y="313.4951">type</text><text fill="#000000" font-family="sans-serif" font-size="14" lengthAdjust="spacing" textLength="56" x="1124" y="313.4951">boolean</text><line style="stroke:#000000;stroke-width:1.0;" x1="1119" x2="1119" y1="298.5" y2="318.7969"/><rect fill="none" height="20.2969" rx="5" ry="5" style="stroke:#000000;stroke-width:1.5;" width="111" x="1074" y="298.5"/><path d="M607.5,40.5 L620.5,40.5 C658.4169,40.5 701.42,40.5 733.135,40.5 " fill="none" style="stroke:#000000;stroke-width:1.0;stroke-dasharray:3.0,3.0;"/><path d="M733.135,43.624 L735.478,40.5 L733.135,37.376 L740.945,40.5 L733.135,43.624 " fill="#000000" style="stroke:#000000;stroke-width:1.0;"/><ellipse cx="607.5" cy="40.5" fill="#000000" rx="3" ry="3" style="stroke:#000000;stroke-width:1.0;"/><path d="M474,40.5 L487,40.5 C513.6747,40.5 544.0382,40.5 565.8474,40.5 " fill="none" style="stroke:#000000;stroke-width:1.0;stroke-dasharray:3.0,3.0;"/><path d="M565.8474,43.5501 L568.135,40.5 L565.8474,37.4499 L573.4727,40.5 L565.8474,43.5501 " fill="#000000" style="stroke:#000000;stroke-width:1.0;"/><ellipse cx="474" cy="40.5" fill="#000000" rx="3" ry="3" style="stroke:#000000;stroke-width:1.0;"/><path d="M291,88.5 L304,88.5 C324.5456,88.5 322.2659,69.8743 340,59.5 C343.057,57.7117 346.245,55.9864 349.5056,54.3298 " fill="none" style="stroke:#000000;stroke-width:1.0;stroke-dasharray:3.0,3.0;"/><path d="M350.8264,57.0401 L351.5384,53.3392 L348.1848,51.6195 L356.2815,51.0279 L350.8264,57.0401 " fill="#000000" style="stroke:#000000;stroke-width:1.0;"/><ellipse cx="291" cy="88.5" fill="#000000" rx="3" ry="3" style="stroke:#000000;stroke-width:1.0;"/><path d="M1163,88.5 L1176,88.5 C1197.4564,88.5 1220.703,81.9364 1238.5243,75.4048 " fill="none" style="stroke:#000000;stroke-width:1.0;stroke-dasharray:3.0,3.0;"/><path d="M1239.6355,78.3186 L1240.7096,74.5714 L1237.413,72.491 L1245.8088,72.6267 L1239.6355,78.3186 " fill="#000000" style="stroke:#000000;stroke-width:1.0;"/><ellipse cx="1163" cy="88.5" fill="#000000" rx="3" ry="3" style="stroke:#000000;stroke-width:1.0;"/><path d="M1163,108.5 L1176,108.5 C1188.5476,108.5 1202.0172,107.7603 1214.6878,106.7307 " fill="none" style="stroke:#000000;stroke-width:1.0;stroke-dasharray:3.0,3.0;"/><path d="M1214.9576,109.839 L1217.019,106.5284 L1214.418,103.6225 L1222.4584,106.0563 L1214.9576,109.839 " fill="#000000" style="stroke:#000000;stroke-width:1.0;"/><ellipse cx="1163" cy="108.5" fill="#000000" rx="3" ry="3" style="stroke:#000000;stroke-width:1.0;"/><path d="M1163,129.5 L1176,129.5 C1188.56,129.5 1202.0344,130.3322 1214.7057,131.4904 " fill="none" style="stroke:#000000;stroke-width:1.0;stroke-dasharray:3.0,3.0;"/><path d="M1214.4022,134.5987 L1217.0369,131.718 L1215.0093,128.3822 L1222.4763,132.2492 L1214.4022,134.5987 " fill="#000000" style="stroke:#000000;stroke-width:1.0;"/><ellipse cx="1163" cy="129.5" fill="#000000" rx="3" ry="3" style="stroke:#000000;stroke-width:1.0;"/><path d="M1163,149.5 L1176,149.5 C1187.2236,149.5 1212.0935,156.9175 1233.2212,163.9769 " fill="none" style="stroke:#000000;stroke-width:1.0;stroke-dasharray:3.0,3.0;"/><path d="M1232.2335,166.8923 L1235.4078,164.7177 L1234.209,161.0615 L1240.5098,166.4462 L1232.2335,166.8923 " fill="#000000" style="stroke:#000000;stroke-width:1.0;"/><ellipse cx="1163" cy="149.5" fill="#000000" rx="3" ry="3" style="stroke:#000000;stroke-width:1.0;"/><path d="M1025,119.5 L1038,119.5 C1050.5599,119.5 1064.0949,119.5 1076.7881,119.5 " fill="none" style="stroke:#000000;stroke-width:1.0;stroke-dasharray:3.0,3.0;"/><path d="M1076.7881,122.6113 L1079.1216,119.5 L1076.7881,116.3887 L1084.5664,119.5 L1076.7881,122.6113 " fill="#000000" style="stroke:#000000;stroke-width:1.0;"/><ellipse cx="1025" cy="119.5" fill="#000000" rx="3" ry="3" style="stroke:#000000;stroke-width:1.0;"/><path d="M816.5,109.5 L829.5,109.5 C847.0061,109.5 865.7986,109.5 883.6087,109.5 " fill="none" style="stroke:#000000;stroke-width:1.0;stroke-dasharray:3.0,3.0;"/><path d="M883.6087,112.5265 L885.8786,109.5 L883.6087,106.4735 L891.1748,109.5 L883.6087,112.5265 " fill="#000000" style="stroke:#000000;stroke-width:1.0;"/><ellipse cx="816.5" cy="109.5" fill="#000000" rx="3" ry="3" style="stroke:#000000;stroke-width:1.0;"/><path d="M606.5,99.5 L619.5,99.5 C654.4544,99.5 693.7043,99.5 724.5811,99.5 " fill="none" style="stroke:#000000;stroke-width:1.0;stroke-dasharray:3.0,3.0;"/><path d="M724.5811,102.5648 L726.8797,99.5 L724.5811,96.4352 L732.2431,99.5 L724.5811,102.5648 " fill="#000000" style="stroke:#000000;stroke-width:1.0;"/><ellipse cx="606.5" cy="99.5" fill="#000000" rx="3" ry="3" style="stroke:#000000;stroke-width:1.0;"/><path d="M474,99.5 L487,99.5 C514.178,99.5 545.1853,99.5 567.0727,99.5 " fill="none" style="stroke:#000000;stroke-width:1.0;stroke-dasharray:3.0,3.0;"/><path d="M567.0727,102.5509 L569.3608,99.5 L567.0727,96.4491 L574.6998,99.5 L567.0727,102.5509 " fill="#000000" style="stroke:#000000;stroke-width:1.0;"/><ellipse cx="474" cy="99.5" fill="#000000" rx="3" ry="3" style="stroke:#000000;stroke-width:1.0;"/><path d="M291,108.5 L304,108.5 C313.3555,108.5 323.0978,107.8061 332.7372,106.6836 " fill="none" style="stroke:#000000;stroke-width:1.0;stroke-dasharray:3.0,3.0;"/><path d="M333.132,109.7633 L335.047,106.3875 L332.3424,103.6039 L340.4365,105.6965 L333.132,109.7633 " fill="#000000" style="stroke:#000000;stroke-width:1.0;"/><ellipse cx="291" cy="108.5" fill="#000000" rx="3" ry="3" style="stroke:#000000;stroke-width:1.0;"/><path d="M842,163.5 L855,163.5 C872.7235,163.5 892.0756,163.5 909.4649,163.5 " fill="none" style="stroke:#000000;stroke-width:1.0;stroke-dasharray:3.0,3.0;"/><path d="M909.4649,166.6355 L911.8165,163.5 L909.4649,160.3645 L917.3035,163.5 L909.4649,166.6355 " fill="#000000" style="stroke:#000000;stroke-width:1.0;"/><ellipse cx="842" cy="163.5" fill="#000000" rx="3" ry="3" style="stroke:#000000;stroke-width:1.0;"/><path d="M657,166.5 L670,166.5 C679.3037,166.5 689.0505,166.3904 698.7311,166.2132 " fill="none" style="stroke:#000000;stroke-width:1.0;stroke-dasharray:3.0,3.0;"/><path d="M698.7935,169.3091 L701.053,166.1664 L698.6688,163.1173 L706.4709,166.0573 L698.7935,169.3091 " fill="#000000" style="stroke:#000000;stroke-width:1.0;"/><ellipse cx="657" cy="166.5" fill="#000000" rx="3" ry="3" style="stroke:#000000;stroke-width:1.0;"/><path d="M449.5,158.5 L462.5,158.5 C479.6221,158.5 497.9827,158.3322 515.4282,158.0939 " fill="none" style="stroke:#000000;stroke-width:1.0;stroke-dasharray:3.0,3.0;"/><path d="M515.4738,161.2712 L517.8112,158.0596 L515.3825,154.9165 L523.3715,157.9797 L515.4738,161.2712 " fill="#000000" style="stroke:#000000;stroke-width:1.0;"/><ellipse cx="449.5" cy="158.5" fill="#000000" rx="3" ry="3" style="stroke:#000000;stroke-width:1.0;"/><path d="M291,129.5 L304,129.5 C321.5786,129.5 340.5224,131.9497 357.5845,135.0899 " fill="none" style="stroke:#000000;stroke-width:1.0;stroke-dasharray:3.0,3.0;"/><path d="M356.9904,138.168 L359.893,135.5354 L358.1785,132.0117 L365.2797,136.5749 L356.9904,138.168 " fill="#000000" style="stroke:#000000;stroke-width:1.0;"/><ellipse cx="291" cy="129.5" fill="#000000" rx="3" ry="3" style="stroke:#000000;stroke-width:1.0;"/><path d="M1012.5,211.5 L1025.5,211.5 C1043.186,211.5 1062.3499,209.053 1079.3245,206.0158 " fill="none" style="stroke:#000000;stroke-width:1.0;stroke-dasharray:3.0,3.0;"/><path d="M1079.8966,209.0686 L1081.6141,205.5867 L1078.7523,202.963 L1086.9564,204.5854 L1079.8966,209.0686 " fill="#000000" style="stroke:#000000;stroke-width:1.0;"/><ellipse cx="1012.5" cy="211.5" fill="#000000" rx="3" ry="3" style="stroke:#000000;stroke-width:1.0;"/><path d="M1012.5,232.5 L1025.5,232.5 C1038.9176,232.5 1053.3136,232.5 1066.9757,232.5 " fill="none" style="stroke:#000000;stroke-width:1.0;stroke-dasharray:3.0,3.0;"/><path d="M1066.9757,235.5015 L1069.2268,232.5 L1066.9757,229.4985 L1074.4794,232.5 L1066.9757,235.5015 " fill="#000000" style="stroke:#000000;stroke-width:1.0;"/><ellipse cx="1012.5" cy="232.5" fill="#000000" rx="3" ry="3" style="stroke:#000000;stroke-width:1.0;"/><path d="M841.5,222.5 L854.5,222.5 C868.1516,222.5 882.765,222.5 896.714,222.5 " fill="none" style="stroke:#000000;stroke-width:1.0;stroke-dasharray:3.0,3.0;"/><path d="M896.714,225.5683 L899.0152,222.5 L896.714,219.4317 L904.3847,222.5 L896.714,225.5683 " fill="#000000" style="stroke:#000000;stroke-width:1.0;"/><ellipse cx="841.5" cy="222.5" fill="#000000" rx="3" ry="3" style="stroke:#000000;stroke-width:1.0;"/><path d="M633.5,212.5 L646.5,212.5 C663.6202,212.5 681.98,212.5 699.4252,212.5 " fill="none" style="stroke:#000000;stroke-width:1.0;stroke-dasharray:3.0,3.0;"/><path d="M699.4252,215.6773 L701.8082,212.5 L699.4252,209.3227 L707.3685,212.5 L699.4252,215.6773 " fill="#000000" style="stroke:#000000;stroke-width:1.0;"/><ellipse cx="633.5" cy="212.5" fill="#000000" rx="3" ry="3" style="stroke:#000000;stroke-width:1.0;"/><path d="M1012.5,270.5 L1025.5,270.5 C1041.6368,270.5 1059.1888,270.5 1075.1772,270.5 " fill="none" style="stroke:#000000;stroke-width:1.0;stroke-dasharray:3.0,3.0;"/><path d="M1075.1772,273.5841 L1077.4903,270.5 L1075.1772,267.4159 L1082.8875,270.5 L1075.1772,273.5841 " fill="#000000" style="stroke:#000000;stroke-width:1.0;"/><ellipse cx="1012.5" cy="270.5" fill="#000000" rx="3" ry="3" style="stroke:#000000;stroke-width:1.0;"/><path d="M1012.5,291.5 L1025.5,291.5 C1043.186,291.5 1062.3499,293.947 1079.3245,296.9842 " fill="none" style="stroke:#000000;stroke-width:1.0;stroke-dasharray:3.0,3.0;"/><path d="M1078.7523,300.037 L1081.6141,297.4133 L1079.8966,293.9314 L1086.9564,298.4146 L1078.7523,300.037 " fill="#000000" style="stroke:#000000;stroke-width:1.0;"/><ellipse cx="1012.5" cy="291.5" fill="#000000" rx="3" ry="3" style="stroke:#000000;stroke-width:1.0;"/><path d="M841.5,281.5 L854.5,281.5 C868.1516,281.5 882.765,281.5 896.714,281.5 " fill="none" style="stroke:#000000;stroke-width:1.0;stroke-dasharray:3.0,3.0;"/><path d="M896.714,284.5683 L899.0152,281.5 L896.714,278.4317 L904.3847,281.5 L896.714,284.5683 " fill="#000000" style="stroke:#000000;stroke-width:1.0;"/><ellipse cx="841.5" cy="281.5" fill="#000000" rx="3" ry="3" style="stroke:#000000;stroke-width:1.0;"/><path d="M633.5,233.5 L646.5,233.5 C672.8331,233.5 701.0097,240.4722 724.6188,248.4436 " fill="none" style="stroke:#000000;stroke-width:1.0;stroke-dasharray:3.0,3.0;"/><path d="M723.6191,251.3129 L726.7708,249.1934 L725.6186,245.5743 L731.7921,250.943 L723.6191,251.3129 " fill="#000000" style="stroke:#000000;stroke-width:1.0;"/><ellipse cx="633.5" cy="233.5" fill="#000000" rx="3" ry="3" style="stroke:#000000;stroke-width:1.0;"/><path d="M474,220.5 L487,220.5 C504.1583,220.5 522.8372,220.8795 539.7842,221.3686 " fill="none" style="stroke:#000000;stroke-width:1.0;stroke-dasharray:3.0,3.0;"/><path d="M539.6916,224.4298 L542.0801,221.438 L539.8768,218.3074 L547.4371,221.6001 L539.6916,224.4298 " fill="#000000" style="stroke:#000000;stroke-width:1.0;"/><ellipse cx="474" cy="220.5" fill="#000000" rx="3" ry="3" style="stroke:#000000;stroke-width:1.0;"/><path d="M291,149.5 L304,149.5 C324.2698,149.5 322.6573,167.0075 340,177.5 C345.075,180.5704 350.4845,183.5383 355.974,186.3518 " fill="none" style="stroke:#000000;stroke-width:1.0;stroke-dasharray:3.0,3.0;"/><path d="M354.5831,189.1426 L358.0671,187.395 L357.3649,183.561 L362.951,189.8291 L354.5831,189.1426 " fill="#000000" style="stroke:#000000;stroke-width:1.0;"/><ellipse cx="291" cy="149.5" fill="#000000" rx="3" ry="3" style="stroke:#000000;stroke-width:1.0;"/><path d="M144,119.5 L157,119.5 C166.2982,119.5 176.1338,119.5 185.7614,119.5 " fill="none" style="stroke:#000000;stroke-width:1.0;stroke-dasharray:3.0,3.0;"/><path d="M185.7614,122.5649 L188.06,119.5 L185.7614,116.4351 L193.4237,119.5 L185.7614,122.5649 " fill="#000000" style="stroke:#000000;stroke-width:1.0;"/><ellipse cx="144" cy="119.5" fill="#000000" rx="3" ry="3" style="stroke:#000000;stroke-width:1.0;"/></g></svg>