<?xml version="1.0" encoding="UTF-8" standalone="no"?><svg xmlns="http://www.w3.org/2000/svg" xmlns:xlink="http://www.w3.org/1999/xlink" contentStyleType="text/css" height="181px" preserveAspectRatio="none" style="width:409px;height:181px;background:#FFFFFF;" version="1.1" viewBox="0 0 409 181" width="409px" zoomAndPan="magnify"><defs/><g><rect fill="#F1F1F1" height="20.2969" rx="5" ry="5" style="stroke:#F1F1F1;stroke-width:1.5;" width="88" x="10" y="95.5"/><text fill="#000000" font-family="sans-serif" font-size="14" font-weight="bold" lengthAdjust="spacing" textLength="56" x="15" y="110.4951">Default</text><text fill="#000000" font-family="sans-serif" font-size="14" lengthAdjust="spacing" textLength="12" x="81" y="110.4951">   </text><line style="stroke:#000000;stroke-width:1.0;" x1="76" x2="76" y1="95.5" y2="115.7969"/><rect fill="none" height="20.2969" rx="5" ry="5" style="stroke:#000000;stroke-width:1.5;" width="88" x="10" y="95.5"/><rect fill="#F1F1F1" height="40.5938" rx="5" ry="5" style="stroke:#F1F1F1;stroke-width:1.5;" width="71" x="135" y="85"/><text fill="#000000" font-family="sans-serif" font-size="14" font-weight="bold" lengthAdjust="spacing" textLength="39" x="140" y="99.9951">head</text><text fill="#000000" font-family="sans-serif" font-size="14" lengthAdjust="spacing" textLength="12" x="189" y="99.9951">   </text><line style="stroke:#000000;stroke-width:1.0;" x1="184" x2="184" y1="85" y2="105.2969"/><line style="stroke:#000000;stroke-width:1.0;" x1="135" x2="206" y1="105.2969" y2="105.2969"/><text fill="#000000" font-family="sans-serif" font-size="14" font-weight="bold" lengthAdjust="spacing" textLength="39" x="140" y="120.292">body</text><text fill="#000000" font-family="sans-serif" font-size="14" lengthAdjust="spacing" textLength="12" x="189" y="120.292">   </text><line style="stroke:#000000;stroke-width:1.0;" x1="184" x2="184" y1="105.2969" y2="125.5938"/><rect fill="none" height="40.5938" rx="5" ry="5" style="stroke:#000000;stroke-width:1.5;" width="71" x="135" y="85"/><rect fill="#F1F1F1" height="101.4844" rx="5" ry="5" style="stroke:#F1F1F1;stroke-width:1.5;" width="106" x="267" y="10"/><text fill="#000000" font-family="sans-serif" font-size="14" lengthAdjust="spacing" textLength="27" x="272" y="24.9951">Seo</text><line style="stroke:#000000;stroke-width:1.0;" x1="267" x2="373" y1="30.2969" y2="30.2969"/><text fill="#000000" font-family="sans-serif" font-size="14" lengthAdjust="spacing" textLength="28" x="272" y="45.292">Pwa</text><line style="stroke:#000000;stroke-width:1.0;" x1="267" x2="373" y1="50.5938" y2="50.5938"/><text fill="#000000" font-family="sans-serif" font-size="14" lengthAdjust="spacing" textLength="26" x="272" y="65.5889">Css</text><line style="stroke:#000000;stroke-width:1.0;" x1="267" x2="373" y1="70.8906" y2="70.8906"/><text fill="#000000" font-family="sans-serif" font-size="14" lengthAdjust="spacing" textLength="96" x="272" y="85.8857">DefaultScripts</text><line style="stroke:#000000;stroke-width:1.0;" x1="267" x2="373" y1="91.1875" y2="91.1875"/><text fill="#000000" font-family="sans-serif" font-size="14" lengthAdjust="spacing" textLength="75" x="272" y="106.1826">Production</text><rect fill="none" height="101.4844" rx="5" ry="5" style="stroke:#000000;stroke-width:1.5;" width="106" x="267" y="10"/><rect fill="#F1F1F1" height="40.5938" rx="5" ry="5" style="stroke:#F1F1F1;stroke-width:1.5;" width="154" x="243" y="129"/><text fill="#000000" font-family="sans-serif" font-size="14" lengthAdjust="spacing" textLength="94" x="248" y="143.9951">CacheControl</text><line style="stroke:#000000;stroke-width:1.0;" x1="243" x2="397" y1="149.2969" y2="149.2969"/><text fill="#000000" font-family="sans-serif" font-size="14" lengthAdjust="spacing" textLength="144" x="248" y="164.292">DefaultSplashScreen</text><rect fill="none" height="40.5938" rx="5" ry="5" style="stroke:#000000;stroke-width:1.5;" width="154" x="243" y="129"/><path d="M194,94.5 L207,94.5 C224.5169,94.5 242.9373,90.6762 259.6851,85.5933 " fill="none" style="stroke:#000000;stroke-width:1.0;stroke-dasharray:3.0,3.0;"/><path d="M260.651,88.6205 L261.9554,84.8688 L258.7191,82.5661 L267.253,83.1785 L260.651,88.6205 " fill="#000000" style="stroke:#000000;stroke-width:1.0;"/><ellipse cx="194" cy="94.5" fill="#000000" rx="3" ry="3" style="stroke:#000000;stroke-width:1.0;"/><path d="M194,115.5 L207,115.5 C216.9946,115.5 235.8154,120.4794 255.2433,126.627 " fill="none" style="stroke:#000000;stroke-width:1.0;stroke-dasharray:3.0,3.0;"/><path d="M254.319,129.4949 L257.3942,127.3202 L256.1675,123.759 L262.4131,128.9377 L254.319,129.4949 " fill="#000000" style="stroke:#000000;stroke-width:1.0;"/><ellipse cx="194" cy="115.5" fill="#000000" rx="3" ry="3" style="stroke:#000000;stroke-width:1.0;"/><path d="M86,105.5 L99,105.5 C108.2448,105.5 118.1667,105.5 127.5755,105.5 " fill="none" style="stroke:#000000;stroke-width:1.0;stroke-dasharray:3.0,3.0;"/><path d="M127.5755,108.6026 L129.9024,105.5 L127.5755,102.3974 L135.332,105.5 L127.5755,108.6026 " fill="#000000" style="stroke:#000000;stroke-width:1.0;"/><ellipse cx="86" cy="105.5" fill="#000000" rx="3" ry="3" style="stroke:#000000;stroke-width:1.0;"/></g></svg>