<?xml version="1.0" encoding="UTF-8" standalone="no"?><svg xmlns="http://www.w3.org/2000/svg" xmlns:xlink="http://www.w3.org/1999/xlink" contentStyleType="text/css" height="121px" preserveAspectRatio="none" style="width:848px;height:121px;background:#FFFFFF;" version="1.1" viewBox="0 0 848 121" width="848px" zoomAndPan="magnify"><defs/><g><rect fill="#F1F1F1" height="40.5938" rx="5" ry="5" style="stroke:#F1F1F1;stroke-width:1.5;" width="146" x="10" y="20"/><text fill="#000000" font-family="sans-serif" font-size="14" font-weight="bold" lengthAdjust="spacing" textLength="35" x="15" y="34.9951">type</text><text fill="#000000" font-family="sans-serif" font-size="14" lengthAdjust="spacing" textLength="43" x="108" y="34.9951">object</text><line style="stroke:#000000;stroke-width:1.0;" x1="103" x2="103" y1="20" y2="40.2969"/><line style="stroke:#000000;stroke-width:1.0;" x1="10" x2="156" y1="40.2969" y2="40.2969"/><text fill="#000000" font-family="sans-serif" font-size="14" font-weight="bold" lengthAdjust="spacing" textLength="83" x="15" y="55.292">properties</text><text fill="#000000" font-family="sans-serif" font-size="14" lengthAdjust="spacing" textLength="12" x="108" y="55.292">   </text><line style="stroke:#000000;stroke-width:1.0;" x1="103" x2="103" y1="40.2969" y2="60.5938"/><rect fill="none" height="40.5938" rx="5" ry="5" style="stroke:#000000;stroke-width:1.5;" width="146" x="10" y="20"/><rect fill="#F1F1F1" height="20.2969" rx="5" ry="5" style="stroke:#F1F1F1;stroke-width:1.5;" width="88" x="193" y="40.5"/><text fill="#000000" font-family="sans-serif" font-size="14" font-weight="bold" lengthAdjust="spacing" textLength="56" x="198" y="55.4951">Default</text><text fill="#000000" font-family="sans-serif" font-size="14" lengthAdjust="spacing" textLength="12" x="264" y="55.4951">   </text><line style="stroke:#000000;stroke-width:1.0;" x1="259" x2="259" y1="40.5" y2="60.7969"/><rect fill="none" height="20.2969" rx="5" ry="5" style="stroke:#000000;stroke-width:1.5;" width="88" x="193" y="40.5"/><rect fill="#F1F1F1" height="40.5938" rx="5" ry="5" style="stroke:#F1F1F1;stroke-width:1.5;" width="146" x="318" y="30"/><text fill="#000000" font-family="sans-serif" font-size="14" font-weight="bold" lengthAdjust="spacing" textLength="35" x="323" y="44.9951">type</text><text fill="#000000" font-family="sans-serif" font-size="14" lengthAdjust="spacing" textLength="43" x="416" y="44.9951">object</text><line style="stroke:#000000;stroke-width:1.0;" x1="411" x2="411" y1="30" y2="50.2969"/><line style="stroke:#000000;stroke-width:1.0;" x1="318" x2="464" y1="50.2969" y2="50.2969"/><text fill="#000000" font-family="sans-serif" font-size="14" font-weight="bold" lengthAdjust="spacing" textLength="83" x="323" y="65.292">properties</text><text fill="#000000" font-family="sans-serif" font-size="14" lengthAdjust="spacing" textLength="12" x="416" y="65.292">   </text><line style="stroke:#000000;stroke-width:1.0;" x1="411" x2="411" y1="50.2969" y2="70.5938"/><rect fill="none" height="40.5938" rx="5" ry="5" style="stroke:#000000;stroke-width:1.5;" width="146" x="318" y="30"/><rect fill="#F1F1F1" height="40.5938" rx="5" ry="5" style="stroke:#F1F1F1;stroke-width:1.5;" width="71" x="501" y="40"/><text fill="#000000" font-family="sans-serif" font-size="14" font-weight="bold" lengthAdjust="spacing" textLength="39" x="506" y="54.9951">head</text><text fill="#000000" font-family="sans-serif" font-size="14" lengthAdjust="spacing" textLength="12" x="555" y="54.9951">   </text><line style="stroke:#000000;stroke-width:1.0;" x1="550" x2="550" y1="40" y2="60.2969"/><line style="stroke:#000000;stroke-width:1.0;" x1="501" x2="572" y1="60.2969" y2="60.2969"/><text fill="#000000" font-family="sans-serif" font-size="14" font-weight="bold" lengthAdjust="spacing" textLength="39" x="506" y="75.292">body</text><text fill="#000000" font-family="sans-serif" font-size="14" lengthAdjust="spacing" textLength="12" x="555" y="75.292">   </text><line style="stroke:#000000;stroke-width:1.0;" x1="550" x2="550" y1="60.2969" y2="80.5938"/><rect fill="none" height="40.5938" rx="5" ry="5" style="stroke:#000000;stroke-width:1.5;" width="71" x="501" y="40"/><rect fill="#F1F1F1" height="40.5938" rx="5" ry="5" style="stroke:#F1F1F1;stroke-width:1.5;" width="96" x="609" y="10"/><text fill="#000000" font-family="sans-serif" font-size="14" font-weight="bold" lengthAdjust="spacing" textLength="35" x="614" y="24.9951">type</text><text fill="#000000" font-family="sans-serif" font-size="14" lengthAdjust="spacing" textLength="33" x="667" y="24.9951">array</text><line style="stroke:#000000;stroke-width:1.0;" x1="662" x2="662" y1="10" y2="30.2969"/><line style="stroke:#000000;stroke-width:1.0;" x1="609" x2="705" y1="30.2969" y2="30.2969"/><text fill="#000000" font-family="sans-serif" font-size="14" font-weight="bold" lengthAdjust="spacing" textLength="43" x="614" y="45.292">items</text><text fill="#000000" font-family="sans-serif" font-size="14" lengthAdjust="spacing" textLength="12" x="667" y="45.292">   </text><line style="stroke:#000000;stroke-width:1.0;" x1="662" x2="662" y1="30.2969" y2="50.5938"/><rect fill="none" height="40.5938" rx="5" ry="5" style="stroke:#000000;stroke-width:1.5;" width="96" x="609" y="10"/><rect fill="#F1F1F1" height="20.2969" rx="5" ry="5" style="stroke:#F1F1F1;stroke-width:1.5;" width="94" x="742" y="30.5"/><text fill="#000000" font-family="sans-serif" font-size="14" font-weight="bold" lengthAdjust="spacing" textLength="35" x="747" y="45.4951">type</text><text fill="#000000" font-family="sans-serif" font-size="14" lengthAdjust="spacing" textLength="39" x="792" y="45.4951">string</text><line style="stroke:#000000;stroke-width:1.0;" x1="787" x2="787" y1="30.5" y2="50.7969"/><rect fill="none" height="20.2969" rx="5" ry="5" style="stroke:#000000;stroke-width:1.5;" width="94" x="742" y="30.5"/><rect fill="#F1F1F1" height="40.5938" rx="5" ry="5" style="stroke:#F1F1F1;stroke-width:1.5;" width="96" x="609" y="69"/><text fill="#000000" font-family="sans-serif" font-size="14" font-weight="bold" lengthAdjust="spacing" textLength="35" x="614" y="83.9951">type</text><text fill="#000000" font-family="sans-serif" font-size="14" lengthAdjust="spacing" textLength="33" x="667" y="83.9951">array</text><line style="stroke:#000000;stroke-width:1.0;" x1="662" x2="662" y1="69" y2="89.2969"/><line style="stroke:#000000;stroke-width:1.0;" x1="609" x2="705" y1="89.2969" y2="89.2969"/><text fill="#000000" font-family="sans-serif" font-size="14" font-weight="bold" lengthAdjust="spacing" textLength="43" x="614" y="104.292">items</text><text fill="#000000" font-family="sans-serif" font-size="14" lengthAdjust="spacing" textLength="12" x="667" y="104.292">   </text><line style="stroke:#000000;stroke-width:1.0;" x1="662" x2="662" y1="89.2969" y2="109.5938"/><rect fill="none" height="40.5938" rx="5" ry="5" style="stroke:#000000;stroke-width:1.5;" width="96" x="609" y="69"/><rect fill="#F1F1F1" height="20.2969" rx="5" ry="5" style="stroke:#F1F1F1;stroke-width:1.5;" width="94" x="742" y="89.5"/><text fill="#000000" font-family="sans-serif" font-size="14" font-weight="bold" lengthAdjust="spacing" textLength="35" x="747" y="104.4951">type</text><text fill="#000000" font-family="sans-serif" font-size="14" lengthAdjust="spacing" textLength="39" x="792" y="104.4951">string</text><line style="stroke:#000000;stroke-width:1.0;" x1="787" x2="787" y1="89.5" y2="109.7969"/><rect fill="none" height="20.2969" rx="5" ry="5" style="stroke:#000000;stroke-width:1.5;" width="94" x="742" y="89.5"/><path d="M693,40.5 L706,40.5 C715.2674,40.5 725.1203,40.5 734.6708,40.5 " fill="none" style="stroke:#000000;stroke-width:1.0;stroke-dasharray:3.0,3.0;"/><path d="M734.6708,43.531 L736.9441,40.5 L734.6708,37.469 L742.2484,40.5 L734.6708,43.531 " fill="#000000" style="stroke:#000000;stroke-width:1.0;"/><ellipse cx="693" cy="40.5" fill="#000000" rx="3" ry="3" style="stroke:#000000;stroke-width:1.0;"/><path d="M560,49.5 L573,49.5 C582.3848,49.5 592.2184,48.3447 601.7089,46.604 " fill="none" style="stroke:#000000;stroke-width:1.0;stroke-dasharray:3.0,3.0;"/><path d="M602.3132,49.6129 L603.9656,46.1508 L601.1046,43.595 L609.2313,45.0933 L602.3132,49.6129 " fill="#000000" style="stroke:#000000;stroke-width:1.0;"/><ellipse cx="560" cy="49.5" fill="#000000" rx="3" ry="3" style="stroke:#000000;stroke-width:1.0;"/><path d="M693,99.5 L706,99.5 C715.2674,99.5 725.1203,99.5 734.6708,99.5 " fill="none" style="stroke:#000000;stroke-width:1.0;stroke-dasharray:3.0,3.0;"/><path d="M734.6708,102.531 L736.9441,99.5 L734.6708,96.469 L742.2484,99.5 L734.6708,102.531 " fill="#000000" style="stroke:#000000;stroke-width:1.0;"/><ellipse cx="693" cy="99.5" fill="#000000" rx="3" ry="3" style="stroke:#000000;stroke-width:1.0;"/><path d="M560,70.5 L573,70.5 C582.3848,70.5 592.2184,71.6553 601.7089,73.396 " fill="none" style="stroke:#000000;stroke-width:1.0;stroke-dasharray:3.0,3.0;"/><path d="M601.1046,76.405 L603.9656,73.8492 L602.3132,70.3871 L609.2313,74.9067 L601.1046,76.405 " fill="#000000" style="stroke:#000000;stroke-width:1.0;"/><ellipse cx="560" cy="70.5" fill="#000000" rx="3" ry="3" style="stroke:#000000;stroke-width:1.0;"/><path d="M452,60.5 L465,60.5 C474.2448,60.5 484.1667,60.5 493.5755,60.5 " fill="none" style="stroke:#000000;stroke-width:1.0;stroke-dasharray:3.0,3.0;"/><path d="M493.5755,63.6026 L495.9024,60.5 L493.5755,57.3974 L501.332,60.5 L493.5755,63.6026 " fill="#000000" style="stroke:#000000;stroke-width:1.0;"/><ellipse cx="452" cy="60.5" fill="#000000" rx="3" ry="3" style="stroke:#000000;stroke-width:1.0;"/><path d="M269,50.5 L282,50.5 C291.2896,50.5 301.0267,50.5 310.694,50.5 " fill="none" style="stroke:#000000;stroke-width:1.0;stroke-dasharray:3.0,3.0;"/><path d="M310.694,53.5913 L313.0124,50.5 L310.694,47.4087 L318.4221,50.5 L310.694,53.5913 " fill="#000000" style="stroke:#000000;stroke-width:1.0;"/><ellipse cx="269" cy="50.5" fill="#000000" rx="3" ry="3" style="stroke:#000000;stroke-width:1.0;"/><path d="M144,50.5 L157,50.5 C166.2571,50.5 176.1205,50.5 185.6372,50.5 " fill="none" style="stroke:#000000;stroke-width:1.0;stroke-dasharray:3.0,3.0;"/><path d="M185.6372,53.5158 L187.899,50.5 L185.6372,47.4842 L193.1767,50.5 L185.6372,53.5158 " fill="#000000" style="stroke:#000000;stroke-width:1.0;"/><ellipse cx="144" cy="50.5" fill="#000000" rx="3" ry="3" style="stroke:#000000;stroke-width:1.0;"/></g></svg>