<?xml version="1.0" standalone="no"?>
<!DOCTYPE svg PUBLIC "-//W3C//DTD SVG 20010904//EN"
 "http://www.w3.org/TR/2001/REC-SVG-20010904/DTD/svg10.dtd">
<svg version="1.0" xmlns="http://www.w3.org/2000/svg"
 width="282.000000pt" height="282.000000pt" viewBox="0 0 282.000000 282.000000"
 preserveAspectRatio="xMidYMid meet">
<metadata>
Created by potrace 1.14, written by Peter Selinger 2001-2017
</metadata>
<g transform="translate(0.000000,282.000000) scale(0.100000,-0.100000)"
fill="#000000" stroke="none">
<path d="M1660 2411 c-11 -8 -12 -14 -2 -33 6 -13 27 -68 47 -123 20 -55 40
-108 45 -117 6 -10 10 -24 10 -33 0 -8 8 -29 18 -47 10 -18 21 -42 25 -53 10
-36 48 -139 59 -161 7 -15 6 -33 -6 -65 -34 -97 -67 -184 -81 -212 -8 -17 -15
-34 -15 -39 0 -4 -9 -27 -19 -51 -11 -23 -27 -64 -36 -92 -10 -27 -23 -63 -30
-80 -8 -16 -21 -50 -30 -75 -10 -25 -26 -64 -36 -87 -10 -24 -19 -47 -19 -53
0 -5 -6 -24 -14 -42 -8 -18 -21 -49 -30 -70 -9 -20 -16 -39 -16 -43 0 -4 -7
-23 -16 -43 -21 -47 -35 -82 -44 -107 -4 -11 -15 -37 -24 -58 -9 -21 -16 -42
-16 -47 0 -6 -9 -32 -21 -58 -30 -67 -33 -76 -74 -187 -21 -55 -44 -115 -52
-133 -8 -18 -11 -37 -8 -42 4 -6 90 -10 221 -10 l214 0 11 27 c6 15 16 41 24
58 7 16 19 48 25 70 7 22 18 54 25 70 16 37 43 109 90 240 20 55 40 109 44
120 5 11 14 36 21 55 7 19 19 50 27 68 8 18 35 94 60 170 25 75 48 143 52 149
4 7 24 -38 45 -100 45 -129 103 -292 117 -324 22 -53 29 -73 64 -168 21 -55
46 -119 56 -142 10 -24 19 -47 19 -53 0 -6 4 -18 9 -28 6 -9 22 -51 36 -92 48
-135 21 -120 205 -120 l160 0 0 170 c0 170 -8 219 -50 292 -6 10 -10 22 -10
28 0 6 -8 29 -19 53 -30 70 -68 164 -101 252 -10 27 -24 62 -44 107 -9 20 -16
39 -16 43 0 3 -8 25 -18 48 -11 23 -29 69 -42 102 -12 33 -28 74 -35 90 -7 17
-21 50 -30 75 -10 25 -23 59 -31 77 -8 17 -14 36 -14 42 0 6 -4 19 -9 29 -5 9
-13 28 -19 42 -5 14 -19 45 -30 70 -11 25 -37 90 -57 145 -20 55 -43 114 -50
130 -7 17 -21 50 -30 75 -10 25 -23 59 -30 75 -6 17 -18 46 -25 65 -21 59 -27
74 -47 115 l-19 40 -199 2 c-111 2 -206 -1 -215 -6z"/>
<path d="M30 1225 l0 -725 119 0 c99 0 120 3 125 16 3 9 6 109 6 222 l0 207
102 103 c55 56 104 102 108 102 6 0 35 -47 81 -131 9 -16 29 -48 43 -70 15
-22 31 -50 37 -62 5 -12 23 -42 39 -67 16 -25 38 -61 48 -80 29 -54 85 -151
115 -197 l27 -43 188 0 c104 0 191 3 195 6 8 8 -16 54 -54 107 -16 22 -29 46
-29 53 0 7 -3 14 -7 16 -8 3 -78 104 -98 140 -5 10 -26 42 -46 70 -46 67 -152
229 -159 243 -6 13 -93 146 -133 203 l-29 44 119 121 c66 67 175 180 244 251
68 71 134 138 147 149 48 44 36 47 -182 47 -188 0 -206 -1 -218 -19 -11 -15
-191 -211 -253 -275 -11 -12 -76 -82 -143 -156 -68 -74 -128 -136 -133 -138
-5 -2 -9 113 -9 276 0 154 -3 287 -6 296 -5 13 -26 16 -125 16 l-119 0 0 -725z"/>
</g>
</svg>
