<?xml version="1.0" encoding="UTF-8" standalone="no"?><svg xmlns="http://www.w3.org/2000/svg" xmlns:xlink="http://www.w3.org/1999/xlink" contentStyleType="text/css" height="605px" preserveAspectRatio="none" style="width:1314px;height:605px;background:#FFFFFF;" version="1.1" viewBox="0 0 1314 605" width="1314px" zoomAndPan="magnify"><defs/><g><rect fill="#F1F1F1" height="40.5938" rx="5" ry="5" style="stroke:#F1F1F1;stroke-width:1.5;" width="146" x="10" y="415.5"/><text fill="#000000" font-family="sans-serif" font-size="14" font-weight="bold" lengthAdjust="spacing" textLength="35" x="15" y="430.4951">type</text><text fill="#000000" font-family="sans-serif" font-size="14" lengthAdjust="spacing" textLength="43" x="108" y="430.4951">object</text><line style="stroke:#000000;stroke-width:1.0;" x1="103" x2="103" y1="415.5" y2="435.7969"/><line style="stroke:#000000;stroke-width:1.0;" x1="10" x2="156" y1="435.7969" y2="435.7969"/><text fill="#000000" font-family="sans-serif" font-size="14" font-weight="bold" lengthAdjust="spacing" textLength="83" x="15" y="450.792">properties</text><text fill="#000000" font-family="sans-serif" font-size="14" lengthAdjust="spacing" textLength="12" x="108" y="450.792">   </text><line style="stroke:#000000;stroke-width:1.0;" x1="103" x2="103" y1="435.7969" y2="456.0938"/><rect fill="none" height="40.5938" rx="5" ry="5" style="stroke:#000000;stroke-width:1.5;" width="146" x="10" y="415.5"/><rect fill="#F1F1F1" height="20.2969" rx="5" ry="5" style="stroke:#F1F1F1;stroke-width:1.5;" width="87" x="193" y="436"/><text fill="#000000" font-family="sans-serif" font-size="14" font-weight="bold" lengthAdjust="spacing" textLength="55" x="198" y="450.9951">default</text><text fill="#000000" font-family="sans-serif" font-size="14" lengthAdjust="spacing" textLength="12" x="263" y="450.9951">   </text><line style="stroke:#000000;stroke-width:1.0;" x1="258" x2="258" y1="436" y2="456.2969"/><rect fill="none" height="20.2969" rx="5" ry="5" style="stroke:#000000;stroke-width:1.5;" width="87" x="193" y="436"/><rect fill="#F1F1F1" height="40.5938" rx="5" ry="5" style="stroke:#F1F1F1;stroke-width:1.5;" width="146" x="317" y="425.5"/><text fill="#000000" font-family="sans-serif" font-size="14" font-weight="bold" lengthAdjust="spacing" textLength="35" x="322" y="440.4951">type</text><text fill="#000000" font-family="sans-serif" font-size="14" lengthAdjust="spacing" textLength="43" x="415" y="440.4951">object</text><line style="stroke:#000000;stroke-width:1.0;" x1="410" x2="410" y1="425.5" y2="445.7969"/><line style="stroke:#000000;stroke-width:1.0;" x1="317" x2="463" y1="445.7969" y2="445.7969"/><text fill="#000000" font-family="sans-serif" font-size="14" font-weight="bold" lengthAdjust="spacing" textLength="83" x="322" y="460.792">properties</text><text fill="#000000" font-family="sans-serif" font-size="14" lengthAdjust="spacing" textLength="12" x="415" y="460.792">   </text><line style="stroke:#000000;stroke-width:1.0;" x1="410" x2="410" y1="445.7969" y2="466.0938"/><rect fill="none" height="40.5938" rx="5" ry="5" style="stroke:#000000;stroke-width:1.5;" width="146" x="317" y="425.5"/><rect fill="#F1F1F1" height="101.4844" rx="5" ry="5" style="stroke:#F1F1F1;stroke-width:1.5;" width="130" x="500" y="405.5"/><text fill="#000000" font-family="sans-serif" font-size="14" font-weight="bold" lengthAdjust="spacing" textLength="73" x="505" y="420.4951">metadata</text><text fill="#000000" font-family="sans-serif" font-size="14" lengthAdjust="spacing" textLength="12" x="613" y="420.4951">   </text><line style="stroke:#000000;stroke-width:1.0;" x1="608" x2="608" y1="405.5" y2="425.7969"/><line style="stroke:#000000;stroke-width:1.0;" x1="500" x2="630" y1="425.7969" y2="425.7969"/><text fill="#000000" font-family="sans-serif" font-size="14" font-weight="bold" lengthAdjust="spacing" textLength="98" x="505" y="440.792">components</text><text fill="#000000" font-family="sans-serif" font-size="14" lengthAdjust="spacing" textLength="12" x="613" y="440.792">   </text><line style="stroke:#000000;stroke-width:1.0;" x1="608" x2="608" y1="425.7969" y2="446.0938"/><line style="stroke:#000000;stroke-width:1.0;" x1="500" x2="630" y1="446.0938" y2="446.0938"/><text fill="#000000" font-family="sans-serif" font-size="14" font-weight="bold" lengthAdjust="spacing" textLength="46" x="505" y="461.0889">views</text><text fill="#000000" font-family="sans-serif" font-size="14" lengthAdjust="spacing" textLength="12" x="613" y="461.0889">   </text><line style="stroke:#000000;stroke-width:1.0;" x1="608" x2="608" y1="446.0938" y2="466.3906"/><line style="stroke:#000000;stroke-width:1.0;" x1="500" x2="630" y1="466.3906" y2="466.3906"/><text fill="#000000" font-family="sans-serif" font-size="14" font-weight="bold" lengthAdjust="spacing" textLength="38" x="505" y="481.3857">dists</text><text fill="#000000" font-family="sans-serif" font-size="14" lengthAdjust="spacing" textLength="12" x="613" y="481.3857">   </text><line style="stroke:#000000;stroke-width:1.0;" x1="608" x2="608" y1="466.3906" y2="486.6875"/><line style="stroke:#000000;stroke-width:1.0;" x1="500" x2="630" y1="486.6875" y2="486.6875"/><text fill="#000000" font-family="sans-serif" font-size="14" font-weight="bold" lengthAdjust="spacing" textLength="67" x="505" y="501.6826">services</text><text fill="#000000" font-family="sans-serif" font-size="14" lengthAdjust="spacing" textLength="12" x="613" y="501.6826">   </text><line style="stroke:#000000;stroke-width:1.0;" x1="608" x2="608" y1="486.6875" y2="506.9844"/><rect fill="none" height="101.4844" rx="5" ry="5" style="stroke:#000000;stroke-width:1.5;" width="130" x="500" y="405.5"/><rect fill="#F1F1F1" height="40.5938" rx="5" ry="5" style="stroke:#F1F1F1;stroke-width:1.5;" width="146" x="667" y="237.5"/><text fill="#000000" font-family="sans-serif" font-size="14" font-weight="bold" lengthAdjust="spacing" textLength="35" x="672" y="252.4951">type</text><text fill="#000000" font-family="sans-serif" font-size="14" lengthAdjust="spacing" textLength="43" x="765" y="252.4951">object</text><line style="stroke:#000000;stroke-width:1.0;" x1="760" x2="760" y1="237.5" y2="257.7969"/><line style="stroke:#000000;stroke-width:1.0;" x1="667" x2="813" y1="257.7969" y2="257.7969"/><text fill="#000000" font-family="sans-serif" font-size="14" font-weight="bold" lengthAdjust="spacing" textLength="83" x="672" y="272.792">properties</text><text fill="#000000" font-family="sans-serif" font-size="14" lengthAdjust="spacing" textLength="12" x="765" y="272.792">   </text><line style="stroke:#000000;stroke-width:1.0;" x1="760" x2="760" y1="257.7969" y2="278.0938"/><rect fill="none" height="40.5938" rx="5" ry="5" style="stroke:#000000;stroke-width:1.5;" width="146" x="667" y="237.5"/><rect fill="#F1F1F1" height="162.375" rx="5" ry="5" style="stroke:#F1F1F1;stroke-width:1.5;" width="173" x="850" y="113"/><text fill="#000000" font-family="sans-serif" font-size="14" font-weight="bold" lengthAdjust="spacing" textLength="30" x="855" y="127.9951">title</text><text fill="#000000" font-family="sans-serif" font-size="14" lengthAdjust="spacing" textLength="12" x="1006" y="127.9951">   </text><line style="stroke:#000000;stroke-width:1.0;" x1="1001" x2="1001" y1="113" y2="133.2969"/><line style="stroke:#000000;stroke-width:1.0;" x1="850" x2="1023" y1="133.2969" y2="133.2969"/><text fill="#000000" font-family="sans-serif" font-size="14" font-weight="bold" lengthAdjust="spacing" textLength="141" x="855" y="148.292">backgroundImage</text><text fill="#000000" font-family="sans-serif" font-size="14" lengthAdjust="spacing" textLength="12" x="1006" y="148.292">   </text><line style="stroke:#000000;stroke-width:1.0;" x1="1001" x2="1001" y1="133.2969" y2="153.5938"/><line style="stroke:#000000;stroke-width:1.0;" x1="850" x2="1023" y1="153.5938" y2="153.5938"/><text fill="#000000" font-family="sans-serif" font-size="14" font-weight="bold" lengthAdjust="spacing" textLength="89" x="855" y="168.5889">description</text><text fill="#000000" font-family="sans-serif" font-size="14" lengthAdjust="spacing" textLength="12" x="1006" y="168.5889">   </text><line style="stroke:#000000;stroke-width:1.0;" x1="1001" x2="1001" y1="153.5938" y2="173.8906"/><line style="stroke:#000000;stroke-width:1.0;" x1="850" x2="1023" y1="173.8906" y2="173.8906"/><text fill="#000000" font-family="sans-serif" font-size="14" font-weight="bold" lengthAdjust="spacing" textLength="78" x="855" y="188.8857">keywords</text><text fill="#000000" font-family="sans-serif" font-size="14" lengthAdjust="spacing" textLength="12" x="1006" y="188.8857">   </text><line style="stroke:#000000;stroke-width:1.0;" x1="1001" x2="1001" y1="173.8906" y2="194.1875"/><line style="stroke:#000000;stroke-width:1.0;" x1="850" x2="1023" y1="194.1875" y2="194.1875"/><text fill="#000000" font-family="sans-serif" font-size="14" font-weight="bold" lengthAdjust="spacing" textLength="52" x="855" y="209.1826">author</text><text fill="#000000" font-family="sans-serif" font-size="14" lengthAdjust="spacing" textLength="12" x="1006" y="209.1826">   </text><line style="stroke:#000000;stroke-width:1.0;" x1="1001" x2="1001" y1="194.1875" y2="214.4844"/><line style="stroke:#000000;stroke-width:1.0;" x1="850" x2="1023" y1="214.4844" y2="214.4844"/><text fill="#000000" font-family="sans-serif" font-size="14" font-weight="bold" lengthAdjust="spacing" textLength="77" x="855" y="229.4795">thumbnail</text><text fill="#000000" font-family="sans-serif" font-size="14" lengthAdjust="spacing" textLength="12" x="1006" y="229.4795">   </text><line style="stroke:#000000;stroke-width:1.0;" x1="1001" x2="1001" y1="214.4844" y2="234.7813"/><line style="stroke:#000000;stroke-width:1.0;" x1="850" x2="1023" y1="234.7813" y2="234.7813"/><text fill="#000000" font-family="sans-serif" font-size="14" font-weight="bold" lengthAdjust="spacing" textLength="92" x="855" y="249.7764">themeColor</text><text fill="#000000" font-family="sans-serif" font-size="14" lengthAdjust="spacing" textLength="12" x="1006" y="249.7764">   </text><line style="stroke:#000000;stroke-width:1.0;" x1="1001" x2="1001" y1="234.7813" y2="255.0781"/><line style="stroke:#000000;stroke-width:1.0;" x1="850" x2="1023" y1="255.0781" y2="255.0781"/><text fill="#000000" font-family="sans-serif" font-size="14" font-weight="bold" lengthAdjust="spacing" textLength="122" x="855" y="270.0732">pwaAssetsPath</text><text fill="#000000" font-family="sans-serif" font-size="14" lengthAdjust="spacing" textLength="12" x="1006" y="270.0732">   </text><line style="stroke:#000000;stroke-width:1.0;" x1="1001" x2="1001" y1="255.0781" y2="275.375"/><rect fill="none" height="162.375" rx="5" ry="5" style="stroke:#000000;stroke-width:1.5;" width="173" x="850" y="113"/><rect fill="#F1F1F1" height="20.2969" rx="5" ry="5" style="stroke:#F1F1F1;stroke-width:1.5;" width="94" x="1068.5" y="10"/><text fill="#000000" font-family="sans-serif" font-size="14" font-weight="bold" lengthAdjust="spacing" textLength="35" x="1073.5" y="24.9951">type</text><text fill="#000000" font-family="sans-serif" font-size="14" lengthAdjust="spacing" textLength="39" x="1118.5" y="24.9951">string</text><line style="stroke:#000000;stroke-width:1.0;" x1="1113.5" x2="1113.5" y1="10" y2="30.2969"/><rect fill="none" height="20.2969" rx="5" ry="5" style="stroke:#000000;stroke-width:1.5;" width="94" x="1068.5" y="10"/><rect fill="#F1F1F1" height="20.2969" rx="5" ry="5" style="stroke:#F1F1F1;stroke-width:1.5;" width="94" x="1068.5" y="48"/><text fill="#000000" font-family="sans-serif" font-size="14" font-weight="bold" lengthAdjust="spacing" textLength="35" x="1073.5" y="62.9951">type</text><text fill="#000000" font-family="sans-serif" font-size="14" lengthAdjust="spacing" textLength="39" x="1118.5" y="62.9951">string</text><line style="stroke:#000000;stroke-width:1.0;" x1="1113.5" x2="1113.5" y1="48" y2="68.2969"/><rect fill="none" height="20.2969" rx="5" ry="5" style="stroke:#000000;stroke-width:1.5;" width="94" x="1068.5" y="48"/><rect fill="#F1F1F1" height="20.2969" rx="5" ry="5" style="stroke:#F1F1F1;stroke-width:1.5;" width="94" x="1068.5" y="86"/><text fill="#000000" font-family="sans-serif" font-size="14" font-weight="bold" lengthAdjust="spacing" textLength="35" x="1073.5" y="100.9951">type</text><text fill="#000000" font-family="sans-serif" font-size="14" lengthAdjust="spacing" textLength="39" x="1118.5" y="100.9951">string</text><line style="stroke:#000000;stroke-width:1.0;" x1="1113.5" x2="1113.5" y1="86" y2="106.2969"/><rect fill="none" height="20.2969" rx="5" ry="5" style="stroke:#000000;stroke-width:1.5;" width="94" x="1068.5" y="86"/><rect fill="#F1F1F1" height="40.5938" rx="5" ry="5" style="stroke:#F1F1F1;stroke-width:1.5;" width="96" x="1067.5" y="124.5"/><text fill="#000000" font-family="sans-serif" font-size="14" font-weight="bold" lengthAdjust="spacing" textLength="35" x="1072.5" y="139.4951">type</text><text fill="#000000" font-family="sans-serif" font-size="14" lengthAdjust="spacing" textLength="33" x="1125.5" y="139.4951">array</text><line style="stroke:#000000;stroke-width:1.0;" x1="1120.5" x2="1120.5" y1="124.5" y2="144.7969"/><line style="stroke:#000000;stroke-width:1.0;" x1="1067.5" x2="1163.5" y1="144.7969" y2="144.7969"/><text fill="#000000" font-family="sans-serif" font-size="14" font-weight="bold" lengthAdjust="spacing" textLength="43" x="1072.5" y="159.792">items</text><text fill="#000000" font-family="sans-serif" font-size="14" lengthAdjust="spacing" textLength="12" x="1125.5" y="159.792">   </text><line style="stroke:#000000;stroke-width:1.0;" x1="1120.5" x2="1120.5" y1="144.7969" y2="165.0938"/><rect fill="none" height="40.5938" rx="5" ry="5" style="stroke:#000000;stroke-width:1.5;" width="96" x="1067.5" y="124.5"/><rect fill="#F1F1F1" height="20.2969" rx="5" ry="5" style="stroke:#F1F1F1;stroke-width:1.5;" width="94" x="1208" y="145"/><text fill="#000000" font-family="sans-serif" font-size="14" font-weight="bold" lengthAdjust="spacing" textLength="35" x="1213" y="159.9951">type</text><text fill="#000000" font-family="sans-serif" font-size="14" lengthAdjust="spacing" textLength="39" x="1258" y="159.9951">string</text><line style="stroke:#000000;stroke-width:1.0;" x1="1253" x2="1253" y1="145" y2="165.2969"/><rect fill="none" height="20.2969" rx="5" ry="5" style="stroke:#000000;stroke-width:1.5;" width="94" x="1208" y="145"/><rect fill="#F1F1F1" height="40.5938" rx="5" ry="5" style="stroke:#F1F1F1;stroke-width:1.5;" width="111" x="1060" y="183.5"/><text fill="#000000" font-family="sans-serif" font-size="14" font-weight="bold" lengthAdjust="spacing" textLength="35" x="1065" y="198.4951">type</text><text fill="#000000" font-family="sans-serif" font-size="14" lengthAdjust="spacing" textLength="39" x="1127" y="198.4951">string</text><line style="stroke:#000000;stroke-width:1.0;" x1="1122" x2="1122" y1="183.5" y2="203.7969"/><line style="stroke:#000000;stroke-width:1.0;" x1="1060" x2="1171" y1="203.7969" y2="203.7969"/><text fill="#000000" font-family="sans-serif" font-size="14" font-weight="bold" lengthAdjust="spacing" textLength="52" x="1065" y="218.792">format</text><text fill="#000000" font-family="sans-serif" font-size="14" lengthAdjust="spacing" textLength="17" x="1127" y="218.792">uri</text><line style="stroke:#000000;stroke-width:1.0;" x1="1122" x2="1122" y1="203.7969" y2="224.0938"/><rect fill="none" height="40.5938" rx="5" ry="5" style="stroke:#000000;stroke-width:1.5;" width="111" x="1060" y="183.5"/><rect fill="#F1F1F1" height="20.2969" rx="5" ry="5" style="stroke:#F1F1F1;stroke-width:1.5;" width="94" x="1068.5" y="243"/><text fill="#000000" font-family="sans-serif" font-size="14" font-weight="bold" lengthAdjust="spacing" textLength="35" x="1073.5" y="257.9951">type</text><text fill="#000000" font-family="sans-serif" font-size="14" lengthAdjust="spacing" textLength="39" x="1118.5" y="257.9951">string</text><line style="stroke:#000000;stroke-width:1.0;" x1="1113.5" x2="1113.5" y1="243" y2="263.2969"/><rect fill="none" height="20.2969" rx="5" ry="5" style="stroke:#000000;stroke-width:1.5;" width="94" x="1068.5" y="243"/><rect fill="#F1F1F1" height="40.5938" rx="5" ry="5" style="stroke:#F1F1F1;stroke-width:1.5;" width="111" x="1060" y="281.5"/><text fill="#000000" font-family="sans-serif" font-size="14" font-weight="bold" lengthAdjust="spacing" textLength="35" x="1065" y="296.4951">type</text><text fill="#000000" font-family="sans-serif" font-size="14" lengthAdjust="spacing" textLength="39" x="1127" y="296.4951">string</text><line style="stroke:#000000;stroke-width:1.0;" x1="1122" x2="1122" y1="281.5" y2="301.7969"/><line style="stroke:#000000;stroke-width:1.0;" x1="1060" x2="1171" y1="301.7969" y2="301.7969"/><text fill="#000000" font-family="sans-serif" font-size="14" font-weight="bold" lengthAdjust="spacing" textLength="52" x="1065" y="316.792">format</text><text fill="#000000" font-family="sans-serif" font-size="14" lengthAdjust="spacing" textLength="34" x="1127" y="316.792">color</text><line style="stroke:#000000;stroke-width:1.0;" x1="1122" x2="1122" y1="301.7969" y2="322.0938"/><rect fill="none" height="40.5938" rx="5" ry="5" style="stroke:#000000;stroke-width:1.5;" width="111" x="1060" y="281.5"/><rect fill="#F1F1F1" height="20.2969" rx="5" ry="5" style="stroke:#F1F1F1;stroke-width:1.5;" width="94" x="1068.5" y="341"/><text fill="#000000" font-family="sans-serif" font-size="14" font-weight="bold" lengthAdjust="spacing" textLength="35" x="1073.5" y="355.9951">type</text><text fill="#000000" font-family="sans-serif" font-size="14" lengthAdjust="spacing" textLength="39" x="1118.5" y="355.9951">string</text><line style="stroke:#000000;stroke-width:1.0;" x1="1113.5" x2="1113.5" y1="341" y2="361.2969"/><rect fill="none" height="20.2969" rx="5" ry="5" style="stroke:#000000;stroke-width:1.5;" width="94" x="1068.5" y="341"/><rect fill="#F1F1F1" height="40.5938" rx="5" ry="5" style="stroke:#F1F1F1;stroke-width:1.5;" width="146" x="667" y="375.5"/><text fill="#000000" font-family="sans-serif" font-size="14" font-weight="bold" lengthAdjust="spacing" textLength="35" x="672" y="390.4951">type</text><text fill="#000000" font-family="sans-serif" font-size="14" lengthAdjust="spacing" textLength="43" x="765" y="390.4951">object</text><line style="stroke:#000000;stroke-width:1.0;" x1="760" x2="760" y1="375.5" y2="395.7969"/><line style="stroke:#000000;stroke-width:1.0;" x1="667" x2="813" y1="395.7969" y2="395.7969"/><text fill="#000000" font-family="sans-serif" font-size="14" font-weight="bold" lengthAdjust="spacing" textLength="83" x="672" y="410.792">properties</text><text fill="#000000" font-family="sans-serif" font-size="14" lengthAdjust="spacing" textLength="12" x="765" y="410.792">   </text><line style="stroke:#000000;stroke-width:1.0;" x1="760" x2="760" y1="395.7969" y2="416.0938"/><rect fill="none" height="40.5938" rx="5" ry="5" style="stroke:#000000;stroke-width:1.5;" width="146" x="667" y="375.5"/><rect fill="#F1F1F1" height="40.5938" rx="5" ry="5" style="stroke:#F1F1F1;stroke-width:1.5;" width="87" x="893" y="390.5"/><text fill="#000000" font-family="sans-serif" font-size="14" font-weight="bold" lengthAdjust="spacing" textLength="36" x="898" y="405.4951">core</text><text fill="#000000" font-family="sans-serif" font-size="14" lengthAdjust="spacing" textLength="12" x="963" y="405.4951">   </text><line style="stroke:#000000;stroke-width:1.0;" x1="958" x2="958" y1="390.5" y2="410.7969"/><line style="stroke:#000000;stroke-width:1.0;" x1="893" x2="980" y1="410.7969" y2="410.7969"/><text fill="#000000" font-family="sans-serif" font-size="14" font-weight="bold" lengthAdjust="spacing" textLength="55" x="898" y="425.792">default</text><text fill="#000000" font-family="sans-serif" font-size="14" lengthAdjust="spacing" textLength="12" x="963" y="425.792">   </text><line style="stroke:#000000;stroke-width:1.0;" x1="958" x2="958" y1="410.7969" y2="431.0938"/><rect fill="none" height="40.5938" rx="5" ry="5" style="stroke:#000000;stroke-width:1.5;" width="87" x="893" y="390.5"/><rect fill="#F1F1F1" height="40.5938" rx="5" ry="5" style="stroke:#F1F1F1;stroke-width:1.5;" width="96" x="1067.5" y="379.5"/><text fill="#000000" font-family="sans-serif" font-size="14" font-weight="bold" lengthAdjust="spacing" textLength="35" x="1072.5" y="394.4951">type</text><text fill="#000000" font-family="sans-serif" font-size="14" lengthAdjust="spacing" textLength="33" x="1125.5" y="394.4951">array</text><line style="stroke:#000000;stroke-width:1.0;" x1="1120.5" x2="1120.5" y1="379.5" y2="399.7969"/><line style="stroke:#000000;stroke-width:1.0;" x1="1067.5" x2="1163.5" y1="399.7969" y2="399.7969"/><text fill="#000000" font-family="sans-serif" font-size="14" font-weight="bold" lengthAdjust="spacing" textLength="43" x="1072.5" y="414.792">items</text><text fill="#000000" font-family="sans-serif" font-size="14" lengthAdjust="spacing" textLength="12" x="1125.5" y="414.792">   </text><line style="stroke:#000000;stroke-width:1.0;" x1="1120.5" x2="1120.5" y1="399.7969" y2="420.0938"/><rect fill="none" height="40.5938" rx="5" ry="5" style="stroke:#000000;stroke-width:1.5;" width="96" x="1067.5" y="379.5"/><rect fill="#F1F1F1" height="20.2969" rx="5" ry="5" style="stroke:#F1F1F1;stroke-width:1.5;" width="94" x="1208" y="400"/><text fill="#000000" font-family="sans-serif" font-size="14" font-weight="bold" lengthAdjust="spacing" textLength="35" x="1213" y="414.9951">type</text><text fill="#000000" font-family="sans-serif" font-size="14" lengthAdjust="spacing" textLength="39" x="1258" y="414.9951">string</text><line style="stroke:#000000;stroke-width:1.0;" x1="1253" x2="1253" y1="400" y2="420.2969"/><rect fill="none" height="20.2969" rx="5" ry="5" style="stroke:#000000;stroke-width:1.5;" width="94" x="1208" y="400"/><rect fill="#F1F1F1" height="40.5938" rx="5" ry="5" style="stroke:#F1F1F1;stroke-width:1.5;" width="96" x="1067.5" y="438.5"/><text fill="#000000" font-family="sans-serif" font-size="14" font-weight="bold" lengthAdjust="spacing" textLength="35" x="1072.5" y="453.4951">type</text><text fill="#000000" font-family="sans-serif" font-size="14" lengthAdjust="spacing" textLength="33" x="1125.5" y="453.4951">array</text><line style="stroke:#000000;stroke-width:1.0;" x1="1120.5" x2="1120.5" y1="438.5" y2="458.7969"/><line style="stroke:#000000;stroke-width:1.0;" x1="1067.5" x2="1163.5" y1="458.7969" y2="458.7969"/><text fill="#000000" font-family="sans-serif" font-size="14" font-weight="bold" lengthAdjust="spacing" textLength="43" x="1072.5" y="473.792">items</text><text fill="#000000" font-family="sans-serif" font-size="14" lengthAdjust="spacing" textLength="12" x="1125.5" y="473.792">   </text><line style="stroke:#000000;stroke-width:1.0;" x1="1120.5" x2="1120.5" y1="458.7969" y2="479.0938"/><rect fill="none" height="40.5938" rx="5" ry="5" style="stroke:#000000;stroke-width:1.5;" width="96" x="1067.5" y="438.5"/><rect fill="#F1F1F1" height="20.2969" rx="5" ry="5" style="stroke:#F1F1F1;stroke-width:1.5;" width="94" x="1208" y="459"/><text fill="#000000" font-family="sans-serif" font-size="14" font-weight="bold" lengthAdjust="spacing" textLength="35" x="1213" y="473.9951">type</text><text fill="#000000" font-family="sans-serif" font-size="14" lengthAdjust="spacing" textLength="39" x="1258" y="473.9951">string</text><line style="stroke:#000000;stroke-width:1.0;" x1="1253" x2="1253" y1="459" y2="479.2969"/><rect fill="none" height="20.2969" rx="5" ry="5" style="stroke:#000000;stroke-width:1.5;" width="94" x="1208" y="459"/><rect fill="#F1F1F1" height="40.5938" rx="5" ry="5" style="stroke:#F1F1F1;stroke-width:1.5;" width="96" x="692" y="434.5"/><text fill="#000000" font-family="sans-serif" font-size="14" font-weight="bold" lengthAdjust="spacing" textLength="35" x="697" y="449.4951">type</text><text fill="#000000" font-family="sans-serif" font-size="14" lengthAdjust="spacing" textLength="33" x="750" y="449.4951">array</text><line style="stroke:#000000;stroke-width:1.0;" x1="745" x2="745" y1="434.5" y2="454.7969"/><line style="stroke:#000000;stroke-width:1.0;" x1="692" x2="788" y1="454.7969" y2="454.7969"/><text fill="#000000" font-family="sans-serif" font-size="14" font-weight="bold" lengthAdjust="spacing" textLength="43" x="697" y="469.792">items</text><text fill="#000000" font-family="sans-serif" font-size="14" lengthAdjust="spacing" textLength="12" x="750" y="469.792">   </text><line style="stroke:#000000;stroke-width:1.0;" x1="745" x2="745" y1="454.7969" y2="475.0938"/><rect fill="none" height="40.5938" rx="5" ry="5" style="stroke:#000000;stroke-width:1.5;" width="96" x="692" y="434.5"/><rect fill="#F1F1F1" height="20.2969" rx="5" ry="5" style="stroke:#F1F1F1;stroke-width:1.5;" width="98" x="887.5" y="455"/><text fill="#000000" font-family="sans-serif" font-size="14" font-weight="bold" lengthAdjust="spacing" textLength="35" x="892.5" y="469.9951">type</text><text fill="#000000" font-family="sans-serif" font-size="14" lengthAdjust="spacing" textLength="43" x="937.5" y="469.9951">object</text><line style="stroke:#000000;stroke-width:1.0;" x1="932.5" x2="932.5" y1="455" y2="475.2969"/><rect fill="none" height="20.2969" rx="5" ry="5" style="stroke:#000000;stroke-width:1.5;" width="98" x="887.5" y="455"/><rect fill="#F1F1F1" height="40.5938" rx="5" ry="5" style="stroke:#F1F1F1;stroke-width:1.5;" width="96" x="692" y="493.5"/><text fill="#000000" font-family="sans-serif" font-size="14" font-weight="bold" lengthAdjust="spacing" textLength="35" x="697" y="508.4951">type</text><text fill="#000000" font-family="sans-serif" font-size="14" lengthAdjust="spacing" textLength="33" x="750" y="508.4951">array</text><line style="stroke:#000000;stroke-width:1.0;" x1="745" x2="745" y1="493.5" y2="513.7969"/><line style="stroke:#000000;stroke-width:1.0;" x1="692" x2="788" y1="513.7969" y2="513.7969"/><text fill="#000000" font-family="sans-serif" font-size="14" font-weight="bold" lengthAdjust="spacing" textLength="43" x="697" y="528.792">items</text><text fill="#000000" font-family="sans-serif" font-size="14" lengthAdjust="spacing" textLength="12" x="750" y="528.792">   </text><line style="stroke:#000000;stroke-width:1.0;" x1="745" x2="745" y1="513.7969" y2="534.0938"/><rect fill="none" height="40.5938" rx="5" ry="5" style="stroke:#000000;stroke-width:1.5;" width="96" x="692" y="493.5"/><rect fill="#F1F1F1" height="20.2969" rx="5" ry="5" style="stroke:#F1F1F1;stroke-width:1.5;" width="98" x="887.5" y="514"/><text fill="#000000" font-family="sans-serif" font-size="14" font-weight="bold" lengthAdjust="spacing" textLength="35" x="892.5" y="528.9951">type</text><text fill="#000000" font-family="sans-serif" font-size="14" lengthAdjust="spacing" textLength="43" x="937.5" y="528.9951">object</text><line style="stroke:#000000;stroke-width:1.0;" x1="932.5" x2="932.5" y1="514" y2="534.2969"/><rect fill="none" height="20.2969" rx="5" ry="5" style="stroke:#000000;stroke-width:1.5;" width="98" x="887.5" y="514"/><rect fill="#F1F1F1" height="40.5938" rx="5" ry="5" style="stroke:#F1F1F1;stroke-width:1.5;" width="96" x="692" y="552.5"/><text fill="#000000" font-family="sans-serif" font-size="14" font-weight="bold" lengthAdjust="spacing" textLength="35" x="697" y="567.4951">type</text><text fill="#000000" font-family="sans-serif" font-size="14" lengthAdjust="spacing" textLength="33" x="750" y="567.4951">array</text><line style="stroke:#000000;stroke-width:1.0;" x1="745" x2="745" y1="552.5" y2="572.7969"/><line style="stroke:#000000;stroke-width:1.0;" x1="692" x2="788" y1="572.7969" y2="572.7969"/><text fill="#000000" font-family="sans-serif" font-size="14" font-weight="bold" lengthAdjust="spacing" textLength="43" x="697" y="587.792">items</text><text fill="#000000" font-family="sans-serif" font-size="14" lengthAdjust="spacing" textLength="12" x="750" y="587.792">   </text><line style="stroke:#000000;stroke-width:1.0;" x1="745" x2="745" y1="572.7969" y2="593.0938"/><rect fill="none" height="40.5938" rx="5" ry="5" style="stroke:#000000;stroke-width:1.5;" width="96" x="692" y="552.5"/><rect fill="#F1F1F1" height="20.2969" rx="5" ry="5" style="stroke:#F1F1F1;stroke-width:1.5;" width="94" x="889.5" y="573"/><text fill="#000000" font-family="sans-serif" font-size="14" font-weight="bold" lengthAdjust="spacing" textLength="35" x="894.5" y="587.9951">type</text><text fill="#000000" font-family="sans-serif" font-size="14" lengthAdjust="spacing" textLength="39" x="939.5" y="587.9951">string</text><line style="stroke:#000000;stroke-width:1.0;" x1="934.5" x2="934.5" y1="573" y2="593.2969"/><rect fill="none" height="20.2969" rx="5" ry="5" style="stroke:#000000;stroke-width:1.5;" width="94" x="889.5" y="573"/><path d="M1011,123 L1024,123 C1064.6175,123 1030.2602,66.6645 1060,39 C1062.0827,37.0627 1064.3725,35.3216 1066.7988,33.7572 " fill="none" style="stroke:#000000;stroke-width:1.0;stroke-dasharray:3.0,3.0;"/><path d="M1068.2958,36.4342 L1068.8066,32.6345 L1065.3019,31.0802 L1073.4914,30.0148 L1068.2958,36.4342 " fill="#000000" style="stroke:#000000;stroke-width:1.0;"/><ellipse cx="1011" cy="123" fill="#000000" rx="3" ry="3" style="stroke:#000000;stroke-width:1.0;"/><path d="M1011,143 L1024,143 C1057.4132,143 1034.488,98.5774 1060,77 C1062.2538,75.0938 1064.7095,73.3753 1067.2919,71.8263 " fill="none" style="stroke:#000000;stroke-width:1.0;stroke-dasharray:3.0,3.0;"/><path d="M1068.7784,74.658 L1069.4156,70.7114 L1065.8053,68.9946 L1074.3711,68.11 L1068.7784,74.658 " fill="#000000" style="stroke:#000000;stroke-width:1.0;"/><ellipse cx="1011" cy="143" fill="#000000" rx="3" ry="3" style="stroke:#000000;stroke-width:1.0;"/><path d="M1011,163 L1024,163 C1050.6667,163 1038.4519,130.7096 1060,115 C1062.9081,112.8798 1066.072,110.9818 1069.3641,109.2851 " fill="none" style="stroke:#000000;stroke-width:1.0;stroke-dasharray:3.0,3.0;"/><path d="M1070.6466,112.0438 L1071.4331,108.3232 L1068.0815,106.5265 L1076.2607,106.0787 L1070.6466,112.0438 " fill="#000000" style="stroke:#000000;stroke-width:1.0;"/><ellipse cx="1011" cy="163" fill="#000000" rx="3" ry="3" style="stroke:#000000;stroke-width:1.0;"/><path d="M1152,155 L1165,155 C1176.4716,155 1188.7702,155 1200.4648,155 " fill="none" style="stroke:#000000;stroke-width:1.0;stroke-dasharray:3.0,3.0;"/><path d="M1200.4648,158.0332 L1202.7397,155 L1200.4648,151.9668 L1208.0478,155 L1200.4648,158.0332 " fill="#000000" style="stroke:#000000;stroke-width:1.0;"/><ellipse cx="1152" cy="155" fill="#000000" rx="3" ry="3" style="stroke:#000000;stroke-width:1.0;"/><path d="M1011,183 L1024,183 C1033.0633,183 1050.1949,176.5003 1067.1708,168.8772 " fill="none" style="stroke:#000000;stroke-width:1.0;stroke-dasharray:3.0,3.0;"/><path d="M1068.4989,171.774 L1069.3434,167.8812 L1065.8428,165.9804 L1074.4127,165.557 L1068.4989,171.774 " fill="#000000" style="stroke:#000000;stroke-width:1.0;"/><ellipse cx="1011" cy="183" fill="#000000" rx="3" ry="3" style="stroke:#000000;stroke-width:1.0;"/><path d="M1011,204 L1024,204 C1033.2249,204 1042.9758,204 1052.5329,204 " fill="none" style="stroke:#000000;stroke-width:1.0;stroke-dasharray:3.0,3.0;"/><path d="M1052.5329,207.0437 L1054.8157,204 L1052.5329,200.9563 L1060.1422,204 L1052.5329,207.0437 " fill="#000000" style="stroke:#000000;stroke-width:1.0;"/><ellipse cx="1011" cy="204" fill="#000000" rx="3" ry="3" style="stroke:#000000;stroke-width:1.0;"/><path d="M1011,224 L1024,224 C1029.7604,224 1056.0802,232.5448 1078.9422,240.358 " fill="none" style="stroke:#000000;stroke-width:1.0;stroke-dasharray:3.0,3.0;"/><path d="M1077.9425,243.2663 L1081.1234,241.1077 L1079.9419,237.4496 L1086.213,242.8572 L1077.9425,243.2663 " fill="#000000" style="stroke:#000000;stroke-width:1.0;"/><ellipse cx="1011" cy="224" fill="#000000" rx="3" ry="3" style="stroke:#000000;stroke-width:1.0;"/><path d="M1011,244 L1024,244 C1044.2698,244 1043.0472,260.8884 1060,272 C1062.7632,273.8111 1065.6449,275.6148 1068.5782,277.3873 " fill="none" style="stroke:#000000;stroke-width:1.0;stroke-dasharray:3.0,3.0;"/><path d="M1066.951,280.1498 L1070.6501,278.6077 L1070.2055,274.6247 L1075.4846,281.4554 L1066.951,280.1498 " fill="#000000" style="stroke:#000000;stroke-width:1.0;"/><ellipse cx="1011" cy="244" fill="#000000" rx="3" ry="3" style="stroke:#000000;stroke-width:1.0;"/><path d="M1011,265 L1024,265 C1057.4132,265 1034.6631,309.2173 1060,331 C1062.7905,333.399 1065.8922,335.5195 1069.1614,337.3924 " fill="none" style="stroke:#000000;stroke-width:1.0;stroke-dasharray:3.0,3.0;"/><path d="M1067.7589,340.1521 L1071.2312,338.4442 L1070.5639,334.6326 L1076.0607,340.8985 L1067.7589,340.1521 " fill="#000000" style="stroke:#000000;stroke-width:1.0;"/><ellipse cx="1011" cy="265" fill="#000000" rx="3" ry="3" style="stroke:#000000;stroke-width:1.0;"/><path d="M801,268 L814,268 C823.8702,268 833.6233,266.2074 843.0567,263.1803 " fill="none" style="stroke:#000000;stroke-width:1.0;stroke-dasharray:3.0,3.0;"/><path d="M844.0752,266.0396 L845.2011,262.4164 L842.0382,260.3211 L850.2048,260.6341 L844.0752,266.0396 " fill="#000000" style="stroke:#000000;stroke-width:1.0;"/><ellipse cx="801" cy="268" fill="#000000" rx="3" ry="3" style="stroke:#000000;stroke-width:1.0;"/><path d="M619.5,417 L619.5,404 C619.5,352.2631 665.0287,308.8686 699.9984,283.1686 " fill="none" style="stroke:#000000;stroke-width:1.0;stroke-dasharray:3.0,3.0;"/><path d="M701.8348,285.726 L701.9164,281.7913 L698.1621,280.6113 L706.3918,278.5778 L701.8348,285.726 " fill="#000000" style="stroke:#000000;stroke-width:1.0;"/><ellipse cx="619.5" cy="417" fill="#000000" rx="3" ry="3" style="stroke:#000000;stroke-width:1.0;"/><path d="M1152,410 L1165,410 C1176.4716,410 1188.7702,410 1200.4648,410 " fill="none" style="stroke:#000000;stroke-width:1.0;stroke-dasharray:3.0,3.0;"/><path d="M1200.4648,413.0332 L1202.7397,410 L1200.4648,406.9668 L1208.0478,410 L1200.4648,413.0332 " fill="#000000" style="stroke:#000000;stroke-width:1.0;"/><ellipse cx="1152" cy="410" fill="#000000" rx="3" ry="3" style="stroke:#000000;stroke-width:1.0;"/><path d="M969,400 L982,400 C1007.7317,400 1036.2637,400 1060.2819,400 " fill="none" style="stroke:#000000;stroke-width:1.0;stroke-dasharray:3.0,3.0;"/><path d="M1060.2819,403.0521 L1062.571,400 L1060.2819,396.9479 L1067.9122,400 L1060.2819,403.0521 " fill="#000000" style="stroke:#000000;stroke-width:1.0;"/><ellipse cx="969" cy="400" fill="#000000" rx="3" ry="3" style="stroke:#000000;stroke-width:1.0;"/><path d="M1152,469 L1165,469 C1176.4716,469 1188.7702,469 1200.4648,469 " fill="none" style="stroke:#000000;stroke-width:1.0;stroke-dasharray:3.0,3.0;"/><path d="M1200.4648,472.0332 L1202.7397,469 L1200.4648,465.9668 L1208.0478,469 L1200.4648,472.0332 " fill="#000000" style="stroke:#000000;stroke-width:1.0;"/><ellipse cx="1152" cy="469" fill="#000000" rx="3" ry="3" style="stroke:#000000;stroke-width:1.0;"/><path d="M969,421 L982,421 C1008.5508,421 1036.9755,428.0879 1060.7032,436.1415 " fill="none" style="stroke:#000000;stroke-width:1.0;stroke-dasharray:3.0,3.0;"/><path d="M1059.6938,439.0237 L1062.8649,436.8985 L1061.7127,433.2592 L1067.9089,438.665 L1059.6938,439.0237 " fill="#000000" style="stroke:#000000;stroke-width:1.0;"/><ellipse cx="969" cy="421" fill="#000000" rx="3" ry="3" style="stroke:#000000;stroke-width:1.0;"/><path d="M801,406 L814,406 C837.6084,406 863.7651,406.9463 885.7848,408.0155 " fill="none" style="stroke:#000000;stroke-width:1.0;stroke-dasharray:3.0,3.0;"/><path d="M885.632,411.0576 L888.0663,408.1301 L885.9375,404.9735 L893.3899,408.3975 L885.632,411.0576 " fill="#000000" style="stroke:#000000;stroke-width:1.0;"/><ellipse cx="801" cy="406" fill="#000000" rx="3" ry="3" style="stroke:#000000;stroke-width:1.0;"/><path d="M618,435 L631,435 C636.5766,435 657.8584,427.6097 680.1152,419.2632 " fill="none" style="stroke:#000000;stroke-width:1.0;stroke-dasharray:3.0,3.0;"/><path d="M681.2094,422.16 L682.2878,418.4426 L679.0211,416.3665 L687.3571,416.5279 L681.2094,422.16 " fill="#000000" style="stroke:#000000;stroke-width:1.0;"/><ellipse cx="618" cy="435" fill="#000000" rx="3" ry="3" style="stroke:#000000;stroke-width:1.0;"/><path d="M776.5,465 L789.5,465 C819.4903,465 852.934,465 880.2872,465 " fill="none" style="stroke:#000000;stroke-width:1.0;stroke-dasharray:3.0,3.0;"/><path d="M880.2872,468.0182 L882.5509,465 L880.2872,461.9818 L887.8328,465 L880.2872,468.0182 " fill="#000000" style="stroke:#000000;stroke-width:1.0;"/><ellipse cx="776.5" cy="465" fill="#000000" rx="3" ry="3" style="stroke:#000000;stroke-width:1.0;"/><path d="M618,455 L631,455 C648.3968,455 667.3627,455 684.5013,455 " fill="none" style="stroke:#000000;stroke-width:1.0;stroke-dasharray:3.0,3.0;"/><path d="M684.5013,458.0935 L686.8214,455 L684.5013,451.9065 L692.235,455 L684.5013,458.0935 " fill="#000000" style="stroke:#000000;stroke-width:1.0;"/><ellipse cx="618" cy="455" fill="#000000" rx="3" ry="3" style="stroke:#000000;stroke-width:1.0;"/><path d="M776.5,524 L789.5,524 C819.4903,524 852.934,524 880.2872,524 " fill="none" style="stroke:#000000;stroke-width:1.0;stroke-dasharray:3.0,3.0;"/><path d="M880.2872,527.0182 L882.5509,524 L880.2872,520.9818 L887.8328,524 L880.2872,527.0182 " fill="#000000" style="stroke:#000000;stroke-width:1.0;"/><ellipse cx="776.5" cy="524" fill="#000000" rx="3" ry="3" style="stroke:#000000;stroke-width:1.0;"/><path d="M618,476 L631,476 C642.0728,476 663.9297,483.1386 685.1424,491.2277 " fill="none" style="stroke:#000000;stroke-width:1.0;stroke-dasharray:3.0,3.0;"/><path d="M684.0341,494.0888 L687.2882,492.0589 L686.2507,488.3666 L692.295,493.9985 L684.0341,494.0888 " fill="#000000" style="stroke:#000000;stroke-width:1.0;"/><ellipse cx="618" cy="476" fill="#000000" rx="3" ry="3" style="stroke:#000000;stroke-width:1.0;"/><path d="M776.5,583 L789.5,583 C820.1877,583 854.4914,583 882.1856,583 " fill="none" style="stroke:#000000;stroke-width:1.0;stroke-dasharray:3.0,3.0;"/><path d="M882.1856,586.051 L884.4738,583 L882.1856,579.949 L889.813,583 L882.1856,586.051 " fill="#000000" style="stroke:#000000;stroke-width:1.0;"/><ellipse cx="776.5" cy="583" fill="#000000" rx="3" ry="3" style="stroke:#000000;stroke-width:1.0;"/><path d="M618,496 L631,496 C657.3125,496 646.129,526.9767 667,543 C672.5544,547.2642 678.8014,551.0256 685.2391,554.3141 " fill="none" style="stroke:#000000;stroke-width:1.0;stroke-dasharray:3.0,3.0;"/><path d="M683.8854,557.1287 L687.35,555.3293 L686.5927,551.4995 L692.2756,557.6983 L683.8854,557.1287 " fill="#000000" style="stroke:#000000;stroke-width:1.0;"/><ellipse cx="618" cy="496" fill="#000000" rx="3" ry="3" style="stroke:#000000;stroke-width:1.0;"/><path d="M451,456 L464,456 C473.2931,456 483.0695,456 492.7259,456 " fill="none" style="stroke:#000000;stroke-width:1.0;stroke-dasharray:3.0,3.0;"/><path d="M492.7259,459.0828 L495.038,456 L492.7259,452.9172 L500.4329,456 L492.7259,459.0828 " fill="#000000" style="stroke:#000000;stroke-width:1.0;"/><ellipse cx="451" cy="456" fill="#000000" rx="3" ry="3" style="stroke:#000000;stroke-width:1.0;"/><path d="M268,446 L281,446 C290.2896,446 300.0267,446 309.694,446 " fill="none" style="stroke:#000000;stroke-width:1.0;stroke-dasharray:3.0,3.0;"/><path d="M309.694,449.0913 L312.0124,446 L309.694,442.9087 L317.4221,446 L309.694,449.0913 " fill="#000000" style="stroke:#000000;stroke-width:1.0;"/><ellipse cx="268" cy="446" fill="#000000" rx="3" ry="3" style="stroke:#000000;stroke-width:1.0;"/><path d="M144,446 L157,446 C166.3071,446 176.231,446 185.7907,446 " fill="none" style="stroke:#000000;stroke-width:1.0;stroke-dasharray:3.0,3.0;"/><path d="M185.7907,449.0279 L188.0616,446 L185.7907,442.9721 L193.3605,446 L185.7907,449.0279 " fill="#000000" style="stroke:#000000;stroke-width:1.0;"/><ellipse cx="144" cy="446" fill="#000000" rx="3" ry="3" style="stroke:#000000;stroke-width:1.0;"/></g></svg>