<?xml version="1.0" encoding="UTF-8" standalone="no"?><svg xmlns="http://www.w3.org/2000/svg" xmlns:xlink="http://www.w3.org/1999/xlink" contentStyleType="text/css" height="323px" preserveAspectRatio="none" style="width:1194px;height:323px;background:#FFFFFF;" version="1.1" viewBox="0 0 1194 323" width="1194px" zoomAndPan="magnify"><defs/><g><rect fill="#F1F1F1" height="43.2188" rx="5" ry="5" style="stroke:#F1F1F1;stroke-width:1.5;" width="128" x="10" y="125.5"/><text fill="#000000" font-family="sans-serif" font-size="14" font-weight="bold" lengthAdjust="spacing" textLength="30" x="15" y="142.0332">type</text><text fill="#000000" font-family="sans-serif" font-size="14" lengthAdjust="spacing" textLength="38" x="95" y="142.0332">object</text><line style="stroke:#000000;stroke-width:1.0;" x1="90" x2="90" y1="125.5" y2="147.1094"/><line style="stroke:#000000;stroke-width:1.0;" x1="10" x2="138" y1="147.1094" y2="147.1094"/><text fill="#000000" font-family="sans-serif" font-size="14" font-weight="bold" lengthAdjust="spacing" textLength="70" x="15" y="163.6426">properties</text><text fill="#000000" font-family="sans-serif" font-size="14" lengthAdjust="spacing" textLength="12" x="95" y="163.6426">   </text><line style="stroke:#000000;stroke-width:1.0;" x1="90" x2="90" y1="147.1094" y2="168.7188"/><rect fill="none" height="43.2188" rx="5" ry="5" style="stroke:#000000;stroke-width:1.5;" width="128" x="10" y="125.5"/><rect fill="#F1F1F1" height="21.6094" rx="5" ry="5" style="stroke:#F1F1F1;stroke-width:1.5;" width="80" x="175" y="147"/><text fill="#000000" font-family="sans-serif" font-size="14" font-weight="bold" lengthAdjust="spacing" textLength="48" x="180" y="163.5332">default</text><text fill="#000000" font-family="sans-serif" font-size="14" lengthAdjust="spacing" textLength="12" x="238" y="163.5332">   </text><line style="stroke:#000000;stroke-width:1.0;" x1="233" x2="233" y1="147" y2="168.6094"/><rect fill="none" height="21.6094" rx="5" ry="5" style="stroke:#000000;stroke-width:1.5;" width="80" x="175" y="147"/><rect fill="#F1F1F1" height="43.2188" rx="5" ry="5" style="stroke:#F1F1F1;stroke-width:1.5;" width="128" x="292" y="136.5"/><text fill="#000000" font-family="sans-serif" font-size="14" font-weight="bold" lengthAdjust="spacing" textLength="30" x="297" y="153.0332">type</text><text fill="#000000" font-family="sans-serif" font-size="14" lengthAdjust="spacing" textLength="38" x="377" y="153.0332">object</text><line style="stroke:#000000;stroke-width:1.0;" x1="372" x2="372" y1="136.5" y2="158.1094"/><line style="stroke:#000000;stroke-width:1.0;" x1="292" x2="420" y1="158.1094" y2="158.1094"/><text fill="#000000" font-family="sans-serif" font-size="14" font-weight="bold" lengthAdjust="spacing" textLength="70" x="297" y="174.6426">properties</text><text fill="#000000" font-family="sans-serif" font-size="14" lengthAdjust="spacing" textLength="12" x="377" y="174.6426">   </text><line style="stroke:#000000;stroke-width:1.0;" x1="372" x2="372" y1="158.1094" y2="179.7188"/><rect fill="none" height="43.2188" rx="5" ry="5" style="stroke:#000000;stroke-width:1.5;" width="128" x="292" y="136.5"/><rect fill="#F1F1F1" height="108.0469" rx="5" ry="5" style="stroke:#F1F1F1;stroke-width:1.5;" width="118" x="457" y="115"/><text fill="#000000" font-family="sans-serif" font-size="14" font-weight="bold" lengthAdjust="spacing" textLength="63" x="462" y="131.5332">metadata</text><text fill="#000000" font-family="sans-serif" font-size="14" lengthAdjust="spacing" textLength="12" x="558" y="131.5332">   </text><line style="stroke:#000000;stroke-width:1.0;" x1="553" x2="553" y1="115" y2="136.6094"/><line style="stroke:#000000;stroke-width:1.0;" x1="457" x2="575" y1="136.6094" y2="136.6094"/><text fill="#000000" font-family="sans-serif" font-size="14" font-weight="bold" lengthAdjust="spacing" textLength="86" x="462" y="153.1426">components</text><text fill="#000000" font-family="sans-serif" font-size="14" lengthAdjust="spacing" textLength="12" x="558" y="153.1426">   </text><line style="stroke:#000000;stroke-width:1.0;" x1="553" x2="553" y1="136.6094" y2="158.2188"/><line style="stroke:#000000;stroke-width:1.0;" x1="457" x2="575" y1="158.2188" y2="158.2188"/><text fill="#000000" font-family="sans-serif" font-size="14" font-weight="bold" lengthAdjust="spacing" textLength="39" x="462" y="174.752">views</text><text fill="#000000" font-family="sans-serif" font-size="14" lengthAdjust="spacing" textLength="12" x="558" y="174.752">   </text><line style="stroke:#000000;stroke-width:1.0;" x1="553" x2="553" y1="158.2188" y2="179.8281"/><line style="stroke:#000000;stroke-width:1.0;" x1="457" x2="575" y1="179.8281" y2="179.8281"/><text fill="#000000" font-family="sans-serif" font-size="14" font-weight="bold" lengthAdjust="spacing" textLength="34" x="462" y="196.3613">dists</text><text fill="#000000" font-family="sans-serif" font-size="14" lengthAdjust="spacing" textLength="12" x="558" y="196.3613">   </text><line style="stroke:#000000;stroke-width:1.0;" x1="553" x2="553" y1="179.8281" y2="201.4375"/><line style="stroke:#000000;stroke-width:1.0;" x1="457" x2="575" y1="201.4375" y2="201.4375"/><text fill="#000000" font-family="sans-serif" font-size="14" font-weight="bold" lengthAdjust="spacing" textLength="57" x="462" y="217.9707">services</text><text fill="#000000" font-family="sans-serif" font-size="14" lengthAdjust="spacing" textLength="12" x="558" y="217.9707">   </text><line style="stroke:#000000;stroke-width:1.0;" x1="553" x2="553" y1="201.4375" y2="223.0469"/><rect fill="none" height="108.0469" rx="5" ry="5" style="stroke:#000000;stroke-width:1.5;" width="118" x="457" y="115"/><rect fill="#F1F1F1" height="43.2188" rx="5" ry="5" style="stroke:#F1F1F1;stroke-width:1.5;" width="128" x="612" y="21.5"/><text fill="#000000" font-family="sans-serif" font-size="14" font-weight="bold" lengthAdjust="spacing" textLength="30" x="617" y="38.0332">type</text><text fill="#000000" font-family="sans-serif" font-size="14" lengthAdjust="spacing" textLength="38" x="697" y="38.0332">object</text><line style="stroke:#000000;stroke-width:1.0;" x1="692" x2="692" y1="21.5" y2="43.1094"/><line style="stroke:#000000;stroke-width:1.0;" x1="612" x2="740" y1="43.1094" y2="43.1094"/><text fill="#000000" font-family="sans-serif" font-size="14" font-weight="bold" lengthAdjust="spacing" textLength="70" x="617" y="59.6426">properties</text><text fill="#000000" font-family="sans-serif" font-size="14" lengthAdjust="spacing" textLength="12" x="697" y="59.6426">   </text><line style="stroke:#000000;stroke-width:1.0;" x1="692" x2="692" y1="43.1094" y2="64.7188"/><rect fill="none" height="43.2188" rx="5" ry="5" style="stroke:#000000;stroke-width:1.5;" width="128" x="612" y="21.5"/><rect fill="#F1F1F1" height="43.2188" rx="5" ry="5" style="stroke:#F1F1F1;stroke-width:1.5;" width="156" x="777" y="28.5"/><text fill="#000000" font-family="sans-serif" font-size="14" font-weight="bold" lengthAdjust="spacing" textLength="26" x="782" y="45.0332">title</text><text fill="#000000" font-family="sans-serif" font-size="14" lengthAdjust="spacing" textLength="12" x="916" y="45.0332">   </text><line style="stroke:#000000;stroke-width:1.0;" x1="911" x2="911" y1="28.5" y2="50.1094"/><line style="stroke:#000000;stroke-width:1.0;" x1="777" x2="933" y1="50.1094" y2="50.1094"/><text fill="#000000" font-family="sans-serif" font-size="14" font-weight="bold" lengthAdjust="spacing" textLength="124" x="782" y="66.6426">backgroundImage</text><text fill="#000000" font-family="sans-serif" font-size="14" lengthAdjust="spacing" textLength="12" x="916" y="66.6426">   </text><line style="stroke:#000000;stroke-width:1.0;" x1="911" x2="911" y1="50.1094" y2="71.7188"/><rect fill="none" height="43.2188" rx="5" ry="5" style="stroke:#000000;stroke-width:1.5;" width="156" x="777" y="28.5"/><rect fill="#F1F1F1" height="21.6094" rx="5" ry="5" style="stroke:#F1F1F1;stroke-width:1.5;" width="85" x="972.5" y="10"/><text fill="#000000" font-family="sans-serif" font-size="14" font-weight="bold" lengthAdjust="spacing" textLength="30" x="977.5" y="26.5332">type</text><text fill="#000000" font-family="sans-serif" font-size="14" lengthAdjust="spacing" textLength="35" x="1017.5" y="26.5332">string</text><line style="stroke:#000000;stroke-width:1.0;" x1="1012.5" x2="1012.5" y1="10" y2="31.6094"/><rect fill="none" height="21.6094" rx="5" ry="5" style="stroke:#000000;stroke-width:1.5;" width="85" x="972.5" y="10"/><rect fill="#F1F1F1" height="21.6094" rx="5" ry="5" style="stroke:#F1F1F1;stroke-width:1.5;" width="85" x="972.5" y="50"/><text fill="#000000" font-family="sans-serif" font-size="14" font-weight="bold" lengthAdjust="spacing" textLength="30" x="977.5" y="66.5332">type</text><text fill="#000000" font-family="sans-serif" font-size="14" lengthAdjust="spacing" textLength="35" x="1017.5" y="66.5332">string</text><line style="stroke:#000000;stroke-width:1.0;" x1="1012.5" x2="1012.5" y1="50" y2="71.6094"/><rect fill="none" height="21.6094" rx="5" ry="5" style="stroke:#000000;stroke-width:1.5;" width="85" x="972.5" y="50"/><rect fill="#F1F1F1" height="43.2188" rx="5" ry="5" style="stroke:#F1F1F1;stroke-width:1.5;" width="128" x="612" y="85.5"/><text fill="#000000" font-family="sans-serif" font-size="14" font-weight="bold" lengthAdjust="spacing" textLength="30" x="617" y="102.0332">type</text><text fill="#000000" font-family="sans-serif" font-size="14" lengthAdjust="spacing" textLength="38" x="697" y="102.0332">object</text><line style="stroke:#000000;stroke-width:1.0;" x1="692" x2="692" y1="85.5" y2="107.1094"/><line style="stroke:#000000;stroke-width:1.0;" x1="612" x2="740" y1="107.1094" y2="107.1094"/><text fill="#000000" font-family="sans-serif" font-size="14" font-weight="bold" lengthAdjust="spacing" textLength="70" x="617" y="123.6426">properties</text><text fill="#000000" font-family="sans-serif" font-size="14" lengthAdjust="spacing" textLength="12" x="697" y="123.6426">   </text><line style="stroke:#000000;stroke-width:1.0;" x1="692" x2="692" y1="107.1094" y2="128.7188"/><rect fill="none" height="43.2188" rx="5" ry="5" style="stroke:#000000;stroke-width:1.5;" width="128" x="612" y="85.5"/><rect fill="#F1F1F1" height="43.2188" rx="5" ry="5" style="stroke:#F1F1F1;stroke-width:1.5;" width="80" x="815" y="101.5"/><text fill="#000000" font-family="sans-serif" font-size="14" font-weight="bold" lengthAdjust="spacing" textLength="30" x="820" y="118.0332">core</text><text fill="#000000" font-family="sans-serif" font-size="14" lengthAdjust="spacing" textLength="12" x="878" y="118.0332">   </text><line style="stroke:#000000;stroke-width:1.0;" x1="873" x2="873" y1="101.5" y2="123.1094"/><line style="stroke:#000000;stroke-width:1.0;" x1="815" x2="895" y1="123.1094" y2="123.1094"/><text fill="#000000" font-family="sans-serif" font-size="14" font-weight="bold" lengthAdjust="spacing" textLength="48" x="820" y="139.6426">default</text><text fill="#000000" font-family="sans-serif" font-size="14" lengthAdjust="spacing" textLength="12" x="878" y="139.6426">   </text><line style="stroke:#000000;stroke-width:1.0;" x1="873" x2="873" y1="123.1094" y2="144.7188"/><rect fill="none" height="43.2188" rx="5" ry="5" style="stroke:#000000;stroke-width:1.5;" width="80" x="815" y="101.5"/><rect fill="#F1F1F1" height="43.2188" rx="5" ry="5" style="stroke:#F1F1F1;stroke-width:1.5;" width="90" x="970" y="90.5"/><text fill="#000000" font-family="sans-serif" font-size="14" font-weight="bold" lengthAdjust="spacing" textLength="30" x="975" y="107.0332">type</text><text fill="#000000" font-family="sans-serif" font-size="14" lengthAdjust="spacing" textLength="33" x="1022" y="107.0332">array</text><line style="stroke:#000000;stroke-width:1.0;" x1="1017" x2="1017" y1="90.5" y2="112.1094"/><line style="stroke:#000000;stroke-width:1.0;" x1="970" x2="1060" y1="112.1094" y2="112.1094"/><text fill="#000000" font-family="sans-serif" font-size="14" font-weight="bold" lengthAdjust="spacing" textLength="37" x="975" y="128.6426">items</text><text fill="#000000" font-family="sans-serif" font-size="14" lengthAdjust="spacing" textLength="12" x="1022" y="128.6426">   </text><line style="stroke:#000000;stroke-width:1.0;" x1="1017" x2="1017" y1="112.1094" y2="133.7188"/><rect fill="none" height="43.2188" rx="5" ry="5" style="stroke:#000000;stroke-width:1.5;" width="90" x="970" y="90.5"/><rect fill="#F1F1F1" height="21.6094" rx="5" ry="5" style="stroke:#F1F1F1;stroke-width:1.5;" width="85" x="1097" y="112"/><text fill="#000000" font-family="sans-serif" font-size="14" font-weight="bold" lengthAdjust="spacing" textLength="30" x="1102" y="128.5332">type</text><text fill="#000000" font-family="sans-serif" font-size="14" lengthAdjust="spacing" textLength="35" x="1142" y="128.5332">string</text><line style="stroke:#000000;stroke-width:1.0;" x1="1137" x2="1137" y1="112" y2="133.6094"/><rect fill="none" height="21.6094" rx="5" ry="5" style="stroke:#000000;stroke-width:1.5;" width="85" x="1097" y="112"/><rect fill="#F1F1F1" height="43.2188" rx="5" ry="5" style="stroke:#F1F1F1;stroke-width:1.5;" width="90" x="970" y="151.5"/><text fill="#000000" font-family="sans-serif" font-size="14" font-weight="bold" lengthAdjust="spacing" textLength="30" x="975" y="168.0332">type</text><text fill="#000000" font-family="sans-serif" font-size="14" lengthAdjust="spacing" textLength="33" x="1022" y="168.0332">array</text><line style="stroke:#000000;stroke-width:1.0;" x1="1017" x2="1017" y1="151.5" y2="173.1094"/><line style="stroke:#000000;stroke-width:1.0;" x1="970" x2="1060" y1="173.1094" y2="173.1094"/><text fill="#000000" font-family="sans-serif" font-size="14" font-weight="bold" lengthAdjust="spacing" textLength="37" x="975" y="189.6426">items</text><text fill="#000000" font-family="sans-serif" font-size="14" lengthAdjust="spacing" textLength="12" x="1022" y="189.6426">   </text><line style="stroke:#000000;stroke-width:1.0;" x1="1017" x2="1017" y1="173.1094" y2="194.7188"/><rect fill="none" height="43.2188" rx="5" ry="5" style="stroke:#000000;stroke-width:1.5;" width="90" x="970" y="151.5"/><rect fill="#F1F1F1" height="21.6094" rx="5" ry="5" style="stroke:#F1F1F1;stroke-width:1.5;" width="85" x="1097" y="173"/><text fill="#000000" font-family="sans-serif" font-size="14" font-weight="bold" lengthAdjust="spacing" textLength="30" x="1102" y="189.5332">type</text><text fill="#000000" font-family="sans-serif" font-size="14" lengthAdjust="spacing" textLength="35" x="1142" y="189.5332">string</text><line style="stroke:#000000;stroke-width:1.0;" x1="1137" x2="1137" y1="173" y2="194.6094"/><rect fill="none" height="21.6094" rx="5" ry="5" style="stroke:#000000;stroke-width:1.5;" width="85" x="1097" y="173"/><rect fill="#F1F1F1" height="43.2188" rx="5" ry="5" style="stroke:#F1F1F1;stroke-width:1.5;" width="90" x="631" y="146.5"/><text fill="#000000" font-family="sans-serif" font-size="14" font-weight="bold" lengthAdjust="spacing" textLength="30" x="636" y="163.0332">type</text><text fill="#000000" font-family="sans-serif" font-size="14" lengthAdjust="spacing" textLength="33" x="683" y="163.0332">array</text><line style="stroke:#000000;stroke-width:1.0;" x1="678" x2="678" y1="146.5" y2="168.1094"/><line style="stroke:#000000;stroke-width:1.0;" x1="631" x2="721" y1="168.1094" y2="168.1094"/><text fill="#000000" font-family="sans-serif" font-size="14" font-weight="bold" lengthAdjust="spacing" textLength="37" x="636" y="184.6426">items</text><text fill="#000000" font-family="sans-serif" font-size="14" lengthAdjust="spacing" textLength="12" x="683" y="184.6426">   </text><line style="stroke:#000000;stroke-width:1.0;" x1="678" x2="678" y1="168.1094" y2="189.7188"/><rect fill="none" height="43.2188" rx="5" ry="5" style="stroke:#000000;stroke-width:1.5;" width="90" x="631" y="146.5"/><rect fill="#F1F1F1" height="21.6094" rx="5" ry="5" style="stroke:#F1F1F1;stroke-width:1.5;" width="88" x="811" y="168"/><text fill="#000000" font-family="sans-serif" font-size="14" font-weight="bold" lengthAdjust="spacing" textLength="30" x="816" y="184.5332">type</text><text fill="#000000" font-family="sans-serif" font-size="14" lengthAdjust="spacing" textLength="38" x="856" y="184.5332">object</text><line style="stroke:#000000;stroke-width:1.0;" x1="851" x2="851" y1="168" y2="189.6094"/><rect fill="none" height="21.6094" rx="5" ry="5" style="stroke:#000000;stroke-width:1.5;" width="88" x="811" y="168"/><rect fill="#F1F1F1" height="43.2188" rx="5" ry="5" style="stroke:#F1F1F1;stroke-width:1.5;" width="90" x="631" y="207.5"/><text fill="#000000" font-family="sans-serif" font-size="14" font-weight="bold" lengthAdjust="spacing" textLength="30" x="636" y="224.0332">type</text><text fill="#000000" font-family="sans-serif" font-size="14" lengthAdjust="spacing" textLength="33" x="683" y="224.0332">array</text><line style="stroke:#000000;stroke-width:1.0;" x1="678" x2="678" y1="207.5" y2="229.1094"/><line style="stroke:#000000;stroke-width:1.0;" x1="631" x2="721" y1="229.1094" y2="229.1094"/><text fill="#000000" font-family="sans-serif" font-size="14" font-weight="bold" lengthAdjust="spacing" textLength="37" x="636" y="245.6426">items</text><text fill="#000000" font-family="sans-serif" font-size="14" lengthAdjust="spacing" textLength="12" x="683" y="245.6426">   </text><line style="stroke:#000000;stroke-width:1.0;" x1="678" x2="678" y1="229.1094" y2="250.7188"/><rect fill="none" height="43.2188" rx="5" ry="5" style="stroke:#000000;stroke-width:1.5;" width="90" x="631" y="207.5"/><rect fill="#F1F1F1" height="21.6094" rx="5" ry="5" style="stroke:#F1F1F1;stroke-width:1.5;" width="88" x="811" y="229"/><text fill="#000000" font-family="sans-serif" font-size="14" font-weight="bold" lengthAdjust="spacing" textLength="30" x="816" y="245.5332">type</text><text fill="#000000" font-family="sans-serif" font-size="14" lengthAdjust="spacing" textLength="38" x="856" y="245.5332">object</text><line style="stroke:#000000;stroke-width:1.0;" x1="851" x2="851" y1="229" y2="250.6094"/><rect fill="none" height="21.6094" rx="5" ry="5" style="stroke:#000000;stroke-width:1.5;" width="88" x="811" y="229"/><rect fill="#F1F1F1" height="43.2188" rx="5" ry="5" style="stroke:#F1F1F1;stroke-width:1.5;" width="90" x="631" y="268.5"/><text fill="#000000" font-family="sans-serif" font-size="14" font-weight="bold" lengthAdjust="spacing" textLength="30" x="636" y="285.0332">type</text><text fill="#000000" font-family="sans-serif" font-size="14" lengthAdjust="spacing" textLength="33" x="683" y="285.0332">array</text><line style="stroke:#000000;stroke-width:1.0;" x1="678" x2="678" y1="268.5" y2="290.1094"/><line style="stroke:#000000;stroke-width:1.0;" x1="631" x2="721" y1="290.1094" y2="290.1094"/><text fill="#000000" font-family="sans-serif" font-size="14" font-weight="bold" lengthAdjust="spacing" textLength="37" x="636" y="306.6426">items</text><text fill="#000000" font-family="sans-serif" font-size="14" lengthAdjust="spacing" textLength="12" x="683" y="306.6426">   </text><line style="stroke:#000000;stroke-width:1.0;" x1="678" x2="678" y1="290.1094" y2="311.7188"/><rect fill="none" height="43.2188" rx="5" ry="5" style="stroke:#000000;stroke-width:1.5;" width="90" x="631" y="268.5"/><rect fill="#F1F1F1" height="21.6094" rx="5" ry="5" style="stroke:#F1F1F1;stroke-width:1.5;" width="85" x="812.5" y="290"/><text fill="#000000" font-family="sans-serif" font-size="14" font-weight="bold" lengthAdjust="spacing" textLength="30" x="817.5" y="306.5332">type</text><text fill="#000000" font-family="sans-serif" font-size="14" lengthAdjust="spacing" textLength="35" x="857.5" y="306.5332">string</text><line style="stroke:#000000;stroke-width:1.0;" x1="852.5" x2="852.5" y1="290" y2="311.6094"/><rect fill="none" height="21.6094" rx="5" ry="5" style="stroke:#000000;stroke-width:1.5;" width="85" x="812.5" y="290"/><path d="M921,39 L934,39 C946.8082,39 960.4924,36.803 972.8772,33.9441 " fill="none" style="stroke:#000000;stroke-width:1.0;stroke-dasharray:3.0,3.0;"/><path d="M973.618,36.9537 L975.1344,33.3885 L972.1365,30.9345 L980.4012,32.0922 L973.618,36.9537 " fill="#000000" style="stroke:#000000;stroke-width:1.0;"/><ellipse cx="921" cy="39" fill="#000000" rx="3" ry="3" style="stroke:#000000;stroke-width:1.0;"/><path d="M921,61 L934,61 C944.0232,61 954.7484,61 964.9956,61 " fill="none" style="stroke:#000000;stroke-width:1.0;stroke-dasharray:3.0,3.0;"/><path d="M964.9956,64.0893 L967.3126,61 L964.9956,57.9107 L972.719,61 L964.9956,64.0893 " fill="#000000" style="stroke:#000000;stroke-width:1.0;"/><ellipse cx="921" cy="61" fill="#000000" rx="3" ry="3" style="stroke:#000000;stroke-width:1.0;"/><path d="M728,54 L741,54 C750.257,54 759.9361,53.8655 769.5711,53.6457 " fill="none" style="stroke:#000000;stroke-width:1.0;stroke-dasharray:3.0,3.0;"/><path d="M769.6485,56.7292 L771.8837,53.5877 L769.4937,50.5623 L777.2798,53.4522 L769.6485,56.7292 " fill="#000000" style="stroke:#000000;stroke-width:1.0;"/><ellipse cx="728" cy="54" fill="#000000" rx="3" ry="3" style="stroke:#000000;stroke-width:1.0;"/><path d="M563,125 L576,125 C603.0235,125 591.475,93.5783 612,76 C614.9327,73.4884 618.0891,71.1002 621.3718,68.8426 " fill="none" style="stroke:#000000;stroke-width:1.0;stroke-dasharray:3.0,3.0;"/><path d="M623.0434,71.4197 L623.3047,67.5889 L619.7003,66.2655 L627.8146,64.6637 L623.0434,71.4197 " fill="#000000" style="stroke:#000000;stroke-width:1.0;"/><ellipse cx="563" cy="125" fill="#000000" rx="3" ry="3" style="stroke:#000000;stroke-width:1.0;"/><path d="M1048,123 L1061,123 C1070.2961,123 1080.2155,123 1089.7553,123 " fill="none" style="stroke:#000000;stroke-width:1.0;stroke-dasharray:3.0,3.0;"/><path d="M1089.7553,126.0201 L1092.0204,123 L1089.7553,119.9799 L1097.3056,123 L1089.7553,126.0201 " fill="#000000" style="stroke:#000000;stroke-width:1.0;"/><ellipse cx="1048" cy="123" fill="#000000" rx="3" ry="3" style="stroke:#000000;stroke-width:1.0;"/><path d="M883.5,112 L896.5,112 C918.1168,112 941.9612,112 962.5242,112 " fill="none" style="stroke:#000000;stroke-width:1.0;stroke-dasharray:3.0,3.0;"/><path d="M962.5242,115.0835 L964.8368,112 L962.5242,108.9165 L970.233,112 L962.5242,115.0835 " fill="#000000" style="stroke:#000000;stroke-width:1.0;"/><ellipse cx="883.5" cy="112" fill="#000000" rx="3" ry="3" style="stroke:#000000;stroke-width:1.0;"/><path d="M1048,184 L1061,184 C1070.2961,184 1080.2155,184 1089.7553,184 " fill="none" style="stroke:#000000;stroke-width:1.0;stroke-dasharray:3.0,3.0;"/><path d="M1089.7553,187.0201 L1092.0204,184 L1089.7553,180.9799 L1097.3056,184 L1089.7553,187.0201 " fill="#000000" style="stroke:#000000;stroke-width:1.0;"/><ellipse cx="1048" cy="184" fill="#000000" rx="3" ry="3" style="stroke:#000000;stroke-width:1.0;"/><path d="M883.5,134 L896.5,134 C919.4675,134 943.7371,140.7433 964.2548,148.6218 " fill="none" style="stroke:#000000;stroke-width:1.0;stroke-dasharray:3.0,3.0;"/><path d="M963.1248,151.4589 L966.3826,149.4693 L965.3847,145.7848 L971.3474,151.4467 L963.1248,151.4589 " fill="#000000" style="stroke:#000000;stroke-width:1.0;"/><ellipse cx="883.5" cy="134" fill="#000000" rx="3" ry="3" style="stroke:#000000;stroke-width:1.0;"/><path d="M728,118 L741,118 C762.9495,118 787.2635,118.9448 807.7387,120.013 " fill="none" style="stroke:#000000;stroke-width:1.0;stroke-dasharray:3.0,3.0;"/><path d="M807.5732,123.0716 L810.0326,120.1372 L807.9042,116.9545 L815.3851,120.4268 L807.5732,123.0716 " fill="#000000" style="stroke:#000000;stroke-width:1.0;"/><ellipse cx="728" cy="118" fill="#000000" rx="3" ry="3" style="stroke:#000000;stroke-width:1.0;"/><path d="M563,147 L576,147 C586.0733,147 605.4088,139.853 624.3763,131.6011 " fill="none" style="stroke:#000000;stroke-width:1.0;stroke-dasharray:3.0,3.0;"/><path d="M625.6079,134.3825 L626.4624,130.6774 L623.1447,128.8197 L631.3299,128.5221 L625.6079,134.3825 " fill="#000000" style="stroke:#000000;stroke-width:1.0;"/><ellipse cx="563" cy="147" fill="#000000" rx="3" ry="3" style="stroke:#000000;stroke-width:1.0;"/><path d="M709.5,179 L722.5,179 C749.2789,179 779.1137,179 803.6351,179 " fill="none" style="stroke:#000000;stroke-width:1.0;stroke-dasharray:3.0,3.0;"/><path d="M803.6351,182.1057 L805.9644,179 L803.6351,175.8943 L811.3993,179 L803.6351,182.1057 " fill="#000000" style="stroke:#000000;stroke-width:1.0;"/><ellipse cx="709.5" cy="179" fill="#000000" rx="3" ry="3" style="stroke:#000000;stroke-width:1.0;"/><path d="M563,168 L576,168 C591.4457,168 608.24,168 623.5567,168 " fill="none" style="stroke:#000000;stroke-width:1.0;stroke-dasharray:3.0,3.0;"/><path d="M623.5567,171.144 L625.9147,168 L623.5567,164.856 L631.4166,168 L623.5567,171.144 " fill="#000000" style="stroke:#000000;stroke-width:1.0;"/><ellipse cx="563" cy="168" fill="#000000" rx="3" ry="3" style="stroke:#000000;stroke-width:1.0;"/><path d="M709.5,240 L722.5,240 C749.2789,240 779.1137,240 803.6351,240 " fill="none" style="stroke:#000000;stroke-width:1.0;stroke-dasharray:3.0,3.0;"/><path d="M803.6351,243.1057 L805.9644,240 L803.6351,236.8943 L811.3993,240 L803.6351,243.1057 " fill="#000000" style="stroke:#000000;stroke-width:1.0;"/><ellipse cx="709.5" cy="240" fill="#000000" rx="3" ry="3" style="stroke:#000000;stroke-width:1.0;"/><path d="M563,190 L576,190 C586.0387,190 605.3688,196.9683 624.3417,205.0139 " fill="none" style="stroke:#000000;stroke-width:1.0;stroke-dasharray:3.0,3.0;"/><path d="M623.1409,207.7963 L626.4285,205.9145 L625.5425,202.2315 L631.2977,208.0159 L623.1409,207.7963 " fill="#000000" style="stroke:#000000;stroke-width:1.0;"/><ellipse cx="563" cy="190" fill="#000000" rx="3" ry="3" style="stroke:#000000;stroke-width:1.0;"/><path d="M709.5,301 L722.5,301 C749.9141,301 780.5307,301 805.3708,301 " fill="none" style="stroke:#000000;stroke-width:1.0;stroke-dasharray:3.0,3.0;"/><path d="M805.3708,304.0054 L807.6249,301 L805.3708,297.9946 L812.8844,301 L805.3708,304.0054 " fill="#000000" style="stroke:#000000;stroke-width:1.0;"/><ellipse cx="709.5" cy="301" fill="#000000" rx="3" ry="3" style="stroke:#000000;stroke-width:1.0;"/><path d="M563,212 L576,212 C602.6667,212 591.3375,243.1426 612,260 C615.9355,263.2107 620.2715,266.1709 624.7735,268.877 " fill="none" style="stroke:#000000;stroke-width:1.0;stroke-dasharray:3.0,3.0;"/><path d="M623.2605,271.552 L626.7798,270.0118 L626.2866,266.202 L631.461,272.6596 L623.2605,271.552 " fill="#000000" style="stroke:#000000;stroke-width:1.0;"/><ellipse cx="563" cy="212" fill="#000000" rx="3" ry="3" style="stroke:#000000;stroke-width:1.0;"/><path d="M408,169 L421,169 C430.2561,169 440.0221,169 449.6238,169 " fill="none" style="stroke:#000000;stroke-width:1.0;stroke-dasharray:3.0,3.0;"/><path d="M449.6238,172.0609 L451.9195,169 L449.6238,165.9391 L457.276,169 L449.6238,172.0609 " fill="#000000" style="stroke:#000000;stroke-width:1.0;"/><ellipse cx="408" cy="169" fill="#000000" rx="3" ry="3" style="stroke:#000000;stroke-width:1.0;"/><path d="M243,158 L256,158 C265.2687,158 275.0232,158 284.6525,158 " fill="none" style="stroke:#000000;stroke-width:1.0;stroke-dasharray:3.0,3.0;"/><path d="M284.6525,161.0736 L286.9577,158 L284.6525,154.9264 L292.3365,158 L284.6525,161.0736 " fill="#000000" style="stroke:#000000;stroke-width:1.0;"/><ellipse cx="243" cy="158" fill="#000000" rx="3" ry="3" style="stroke:#000000;stroke-width:1.0;"/><path d="M126,158 L139,158 C148.3085,158 158.2625,158 167.7876,158 " fill="none" style="stroke:#000000;stroke-width:1.0;stroke-dasharray:3.0,3.0;"/><path d="M167.7876,161.0106 L170.0455,158 L167.7876,154.9894 L175.3141,158 L167.7876,161.0106 " fill="#000000" style="stroke:#000000;stroke-width:1.0;"/><ellipse cx="126" cy="158" fill="#000000" rx="3" ry="3" style="stroke:#000000;stroke-width:1.0;"/></g></svg>