<?xml version="1.0" encoding="UTF-8" standalone="no"?><svg xmlns="http://www.w3.org/2000/svg" xmlns:xlink="http://www.w3.org/1999/xlink" contentStyleType="text/css" height="448px" preserveAspectRatio="none" style="width:1328px;height:448px;background:#FFFFFF;" version="1.1" viewBox="0 0 1328 448" width="1328px" zoomAndPan="magnify"><defs/><g><rect fill="#F1F1F1" height="60.8906" rx="5" ry="5" style="stroke:#F1F1F1;stroke-width:1.5;" width="146" x="10" y="81"/><text fill="#000000" font-family="sans-serif" font-size="14" font-weight="bold" lengthAdjust="spacing" textLength="35" x="15" y="95.9951">type</text><text fill="#000000" font-family="sans-serif" font-size="14" lengthAdjust="spacing" textLength="43" x="108" y="95.9951">object</text><line style="stroke:#000000;stroke-width:1.0;" x1="103" x2="103" y1="81" y2="101.2969"/><line style="stroke:#000000;stroke-width:1.0;" x1="10" x2="156" y1="101.2969" y2="101.2969"/><text fill="#000000" font-family="sans-serif" font-size="14" font-weight="bold" lengthAdjust="spacing" textLength="68" x="15" y="116.292">required</text><text fill="#000000" font-family="sans-serif" font-size="14" lengthAdjust="spacing" textLength="12" x="108" y="116.292">   </text><line style="stroke:#000000;stroke-width:1.0;" x1="103" x2="103" y1="101.2969" y2="121.5938"/><line style="stroke:#000000;stroke-width:1.0;" x1="10" x2="156" y1="121.5938" y2="121.5938"/><text fill="#000000" font-family="sans-serif" font-size="14" font-weight="bold" lengthAdjust="spacing" textLength="83" x="15" y="136.5889">properties</text><text fill="#000000" font-family="sans-serif" font-size="14" lengthAdjust="spacing" textLength="12" x="108" y="136.5889">   </text><line style="stroke:#000000;stroke-width:1.0;" x1="103" x2="103" y1="121.5938" y2="141.8906"/><rect fill="none" height="60.8906" rx="5" ry="5" style="stroke:#000000;stroke-width:1.5;" width="146" x="10" y="81"/><rect fill="#F1F1F1" height="15" rx="5" ry="5" style="stroke:#F1F1F1;stroke-width:1.5;" width="30" x="236" y="79.5"/><rect fill="none" height="15" rx="5" ry="5" style="stroke:#000000;stroke-width:1.5;" width="30" x="236" y="79.5"/><rect fill="#F1F1F1" height="81.1875" rx="5" ry="5" style="stroke:#F1F1F1;stroke-width:1.5;" width="110" x="193" y="114"/><text fill="#000000" font-family="sans-serif" font-size="14" font-weight="bold" lengthAdjust="spacing" textLength="78" x="198" y="128.9951">ipDaemon</text><text fill="#000000" font-family="sans-serif" font-size="14" lengthAdjust="spacing" textLength="12" x="286" y="128.9951">   </text><line style="stroke:#000000;stroke-width:1.0;" x1="281" x2="281" y1="114" y2="134.2969"/><line style="stroke:#000000;stroke-width:1.0;" x1="193" x2="303" y1="134.2969" y2="134.2969"/><text fill="#000000" font-family="sans-serif" font-size="14" font-weight="bold" lengthAdjust="spacing" textLength="62" x="198" y="149.292">records</text><text fill="#000000" font-family="sans-serif" font-size="14" lengthAdjust="spacing" textLength="12" x="286" y="149.292">   </text><line style="stroke:#000000;stroke-width:1.0;" x1="281" x2="281" y1="134.2969" y2="154.5938"/><line style="stroke:#000000;stroke-width:1.0;" x1="193" x2="303" y1="154.5938" y2="154.5938"/><text fill="#000000" font-family="sans-serif" font-size="14" font-weight="bold" lengthAdjust="spacing" textLength="66" x="198" y="169.5889">backups</text><text fill="#000000" font-family="sans-serif" font-size="14" lengthAdjust="spacing" textLength="12" x="286" y="169.5889">   </text><line style="stroke:#000000;stroke-width:1.0;" x1="281" x2="281" y1="154.5938" y2="174.8906"/><line style="stroke:#000000;stroke-width:1.0;" x1="193" x2="303" y1="174.8906" y2="174.8906"/><text fill="#000000" font-family="sans-serif" font-size="14" font-weight="bold" lengthAdjust="spacing" textLength="33" x="198" y="189.8857">jobs</text><text fill="#000000" font-family="sans-serif" font-size="14" lengthAdjust="spacing" textLength="12" x="286" y="189.8857">   </text><line style="stroke:#000000;stroke-width:1.0;" x1="281" x2="281" y1="174.8906" y2="195.1875"/><rect fill="none" height="81.1875" rx="5" ry="5" style="stroke:#000000;stroke-width:1.5;" width="110" x="193" y="114"/><rect fill="#F1F1F1" height="60.8906" rx="5" ry="5" style="stroke:#F1F1F1;stroke-width:1.5;" width="146" x="340" y="10"/><text fill="#000000" font-family="sans-serif" font-size="14" font-weight="bold" lengthAdjust="spacing" textLength="35" x="345" y="24.9951">type</text><text fill="#000000" font-family="sans-serif" font-size="14" lengthAdjust="spacing" textLength="43" x="438" y="24.9951">object</text><line style="stroke:#000000;stroke-width:1.0;" x1="433" x2="433" y1="10" y2="30.2969"/><line style="stroke:#000000;stroke-width:1.0;" x1="340" x2="486" y1="30.2969" y2="30.2969"/><text fill="#000000" font-family="sans-serif" font-size="14" font-weight="bold" lengthAdjust="spacing" textLength="68" x="345" y="45.292">required</text><text fill="#000000" font-family="sans-serif" font-size="14" lengthAdjust="spacing" textLength="12" x="438" y="45.292">   </text><line style="stroke:#000000;stroke-width:1.0;" x1="433" x2="433" y1="30.2969" y2="50.5938"/><line style="stroke:#000000;stroke-width:1.0;" x1="340" x2="486" y1="50.5938" y2="50.5938"/><text fill="#000000" font-family="sans-serif" font-size="14" font-weight="bold" lengthAdjust="spacing" textLength="83" x="345" y="65.5889">properties</text><text fill="#000000" font-family="sans-serif" font-size="14" lengthAdjust="spacing" textLength="12" x="438" y="65.5889">   </text><line style="stroke:#000000;stroke-width:1.0;" x1="433" x2="433" y1="50.5938" y2="70.8906"/><rect fill="none" height="60.8906" rx="5" ry="5" style="stroke:#000000;stroke-width:1.5;" width="146" x="340" y="10"/><rect fill="#F1F1F1" height="15" rx="5" ry="5" style="stroke:#F1F1F1;stroke-width:1.5;" width="30" x="584" y="20.5"/><rect fill="none" height="15" rx="5" ry="5" style="stroke:#000000;stroke-width:1.5;" width="30" x="584" y="20.5"/><rect fill="#F1F1F1" height="20.2969" rx="5" ry="5" style="stroke:#F1F1F1;stroke-width:1.5;" width="46" x="573" y="54.5"/><text fill="#000000" font-family="sans-serif" font-size="14" font-weight="bold" lengthAdjust="spacing" textLength="14" x="578" y="69.4951">ip</text><text fill="#000000" font-family="sans-serif" font-size="14" lengthAdjust="spacing" textLength="12" x="602" y="69.4951">   </text><line style="stroke:#000000;stroke-width:1.0;" x1="597" x2="597" y1="54.5" y2="74.7969"/><rect fill="none" height="20.2969" rx="5" ry="5" style="stroke:#000000;stroke-width:1.5;" width="46" x="573" y="54.5"/><rect fill="#F1F1F1" height="20.2969" rx="5" ry="5" style="stroke:#F1F1F1;stroke-width:1.5;" width="94" x="733" y="54.5"/><text fill="#000000" font-family="sans-serif" font-size="14" font-weight="bold" lengthAdjust="spacing" textLength="35" x="738" y="69.4951">type</text><text fill="#000000" font-family="sans-serif" font-size="14" lengthAdjust="spacing" textLength="39" x="783" y="69.4951">string</text><line style="stroke:#000000;stroke-width:1.0;" x1="778" x2="778" y1="54.5" y2="74.7969"/><rect fill="none" height="20.2969" rx="5" ry="5" style="stroke:#000000;stroke-width:1.5;" width="94" x="733" y="54.5"/><rect fill="#F1F1F1" height="60.8906" rx="5" ry="5" style="stroke:#F1F1F1;stroke-width:1.5;" width="146" x="340" y="89"/><text fill="#000000" font-family="sans-serif" font-size="14" font-weight="bold" lengthAdjust="spacing" textLength="35" x="345" y="103.9951">type</text><text fill="#000000" font-family="sans-serif" font-size="14" lengthAdjust="spacing" textLength="43" x="438" y="103.9951">object</text><line style="stroke:#000000;stroke-width:1.0;" x1="433" x2="433" y1="89" y2="109.2969"/><line style="stroke:#000000;stroke-width:1.0;" x1="340" x2="486" y1="109.2969" y2="109.2969"/><text fill="#000000" font-family="sans-serif" font-size="14" font-weight="bold" lengthAdjust="spacing" textLength="68" x="345" y="124.292">required</text><text fill="#000000" font-family="sans-serif" font-size="14" lengthAdjust="spacing" textLength="12" x="438" y="124.292">   </text><line style="stroke:#000000;stroke-width:1.0;" x1="433" x2="433" y1="109.2969" y2="129.5938"/><line style="stroke:#000000;stroke-width:1.0;" x1="340" x2="486" y1="129.5938" y2="129.5938"/><text fill="#000000" font-family="sans-serif" font-size="14" font-weight="bold" lengthAdjust="spacing" textLength="83" x="345" y="144.5889">properties</text><text fill="#000000" font-family="sans-serif" font-size="14" lengthAdjust="spacing" textLength="12" x="438" y="144.5889">   </text><line style="stroke:#000000;stroke-width:1.0;" x1="433" x2="433" y1="129.5938" y2="149.8906"/><rect fill="none" height="60.8906" rx="5" ry="5" style="stroke:#000000;stroke-width:1.5;" width="146" x="340" y="89"/><rect fill="#F1F1F1" height="15" rx="5" ry="5" style="stroke:#F1F1F1;stroke-width:1.5;" width="30" x="584" y="95.5"/><rect fill="none" height="15" rx="5" ry="5" style="stroke:#000000;stroke-width:1.5;" width="30" x="584" y="95.5"/><rect fill="#F1F1F1" height="20.2969" rx="5" ry="5" style="stroke:#F1F1F1;stroke-width:1.5;" width="43" x="574.5" y="129.5"/><text fill="#000000" font-family="sans-serif" font-size="14" font-weight="bold" lengthAdjust="spacing" textLength="11" x="579.5" y="144.4951">A</text><text fill="#000000" font-family="sans-serif" font-size="14" lengthAdjust="spacing" textLength="12" x="600.5" y="144.4951">   </text><line style="stroke:#000000;stroke-width:1.0;" x1="595.5" x2="595.5" y1="129.5" y2="149.7969"/><rect fill="none" height="20.2969" rx="5" ry="5" style="stroke:#000000;stroke-width:1.5;" width="43" x="574.5" y="129.5"/><rect fill="#F1F1F1" height="40.5938" rx="5" ry="5" style="stroke:#F1F1F1;stroke-width:1.5;" width="96" x="732" y="119"/><text fill="#000000" font-family="sans-serif" font-size="14" font-weight="bold" lengthAdjust="spacing" textLength="35" x="737" y="133.9951">type</text><text fill="#000000" font-family="sans-serif" font-size="14" lengthAdjust="spacing" textLength="33" x="790" y="133.9951">array</text><line style="stroke:#000000;stroke-width:1.0;" x1="785" x2="785" y1="119" y2="139.2969"/><line style="stroke:#000000;stroke-width:1.0;" x1="732" x2="828" y1="139.2969" y2="139.2969"/><text fill="#000000" font-family="sans-serif" font-size="14" font-weight="bold" lengthAdjust="spacing" textLength="43" x="737" y="154.292">items</text><text fill="#000000" font-family="sans-serif" font-size="14" lengthAdjust="spacing" textLength="12" x="790" y="154.292">   </text><line style="stroke:#000000;stroke-width:1.0;" x1="785" x2="785" y1="139.2969" y2="159.5938"/><rect fill="none" height="40.5938" rx="5" ry="5" style="stroke:#000000;stroke-width:1.5;" width="96" x="732" y="119"/><rect fill="#F1F1F1" height="60.8906" rx="5" ry="5" style="stroke:#F1F1F1;stroke-width:1.5;" width="146" x="891" y="119"/><text fill="#000000" font-family="sans-serif" font-size="14" font-weight="bold" lengthAdjust="spacing" textLength="35" x="896" y="133.9951">type</text><text fill="#000000" font-family="sans-serif" font-size="14" lengthAdjust="spacing" textLength="43" x="989" y="133.9951">object</text><line style="stroke:#000000;stroke-width:1.0;" x1="984" x2="984" y1="119" y2="139.2969"/><line style="stroke:#000000;stroke-width:1.0;" x1="891" x2="1037" y1="139.2969" y2="139.2969"/><text fill="#000000" font-family="sans-serif" font-size="14" font-weight="bold" lengthAdjust="spacing" textLength="68" x="896" y="154.292">required</text><text fill="#000000" font-family="sans-serif" font-size="14" lengthAdjust="spacing" textLength="12" x="989" y="154.292">   </text><line style="stroke:#000000;stroke-width:1.0;" x1="984" x2="984" y1="139.2969" y2="159.5938"/><line style="stroke:#000000;stroke-width:1.0;" x1="891" x2="1037" y1="159.5938" y2="159.5938"/><text fill="#000000" font-family="sans-serif" font-size="14" font-weight="bold" lengthAdjust="spacing" textLength="83" x="896" y="174.5889">properties</text><text fill="#000000" font-family="sans-serif" font-size="14" lengthAdjust="spacing" textLength="12" x="989" y="174.5889">   </text><line style="stroke:#000000;stroke-width:1.0;" x1="984" x2="984" y1="159.5938" y2="179.8906"/><rect fill="none" height="60.8906" rx="5" ry="5" style="stroke:#000000;stroke-width:1.5;" width="146" x="891" y="119"/><rect fill="#F1F1F1" height="15" rx="5" ry="5" style="stroke:#F1F1F1;stroke-width:1.5;" width="30" x="1117.5" y="117.5"/><rect fill="none" height="15" rx="5" ry="5" style="stroke:#000000;stroke-width:1.5;" width="30" x="1117.5" y="117.5"/><rect fill="#F1F1F1" height="81.1875" rx="5" ry="5" style="stroke:#F1F1F1;stroke-width:1.5;" width="90" x="1084.5" y="152"/><text fill="#000000" font-family="sans-serif" font-size="14" font-weight="bold" lengthAdjust="spacing" textLength="35" x="1089.5" y="166.9951">host</text><text fill="#000000" font-family="sans-serif" font-size="14" lengthAdjust="spacing" textLength="12" x="1157.5" y="166.9951">   </text><line style="stroke:#000000;stroke-width:1.0;" x1="1152.5" x2="1152.5" y1="152" y2="172.2969"/><line style="stroke:#000000;stroke-width:1.0;" x1="1084.5" x2="1174.5" y1="172.2969" y2="172.2969"/><text fill="#000000" font-family="sans-serif" font-size="14" font-weight="bold" lengthAdjust="spacing" textLength="29" x="1089.5" y="187.292">dns</text><text fill="#000000" font-family="sans-serif" font-size="14" lengthAdjust="spacing" textLength="12" x="1157.5" y="187.292">   </text><line style="stroke:#000000;stroke-width:1.0;" x1="1152.5" x2="1152.5" y1="172.2969" y2="192.5938"/><line style="stroke:#000000;stroke-width:1.0;" x1="1084.5" x2="1174.5" y1="192.5938" y2="192.5938"/><text fill="#000000" font-family="sans-serif" font-size="14" font-weight="bold" lengthAdjust="spacing" textLength="58" x="1089.5" y="207.5889">api_key</text><text fill="#000000" font-family="sans-serif" font-size="14" lengthAdjust="spacing" textLength="12" x="1157.5" y="207.5889">   </text><line style="stroke:#000000;stroke-width:1.0;" x1="1152.5" x2="1152.5" y1="192.5938" y2="212.8906"/><line style="stroke:#000000;stroke-width:1.0;" x1="1084.5" x2="1174.5" y1="212.8906" y2="212.8906"/><text fill="#000000" font-family="sans-serif" font-size="14" font-weight="bold" lengthAdjust="spacing" textLength="36" x="1089.5" y="227.8857">user</text><text fill="#000000" font-family="sans-serif" font-size="14" lengthAdjust="spacing" textLength="12" x="1157.5" y="227.8857">   </text><line style="stroke:#000000;stroke-width:1.0;" x1="1152.5" x2="1152.5" y1="212.8906" y2="233.1875"/><rect fill="none" height="81.1875" rx="5" ry="5" style="stroke:#000000;stroke-width:1.5;" width="90" x="1084.5" y="152"/><rect fill="#F1F1F1" height="20.2969" rx="5" ry="5" style="stroke:#F1F1F1;stroke-width:1.5;" width="94" x="1222" y="125.5"/><text fill="#000000" font-family="sans-serif" font-size="14" font-weight="bold" lengthAdjust="spacing" textLength="35" x="1227" y="140.4951">type</text><text fill="#000000" font-family="sans-serif" font-size="14" lengthAdjust="spacing" textLength="39" x="1272" y="140.4951">string</text><line style="stroke:#000000;stroke-width:1.0;" x1="1267" x2="1267" y1="125.5" y2="145.7969"/><rect fill="none" height="20.2969" rx="5" ry="5" style="stroke:#000000;stroke-width:1.5;" width="94" x="1222" y="125.5"/><rect fill="#F1F1F1" height="20.2969" rx="5" ry="5" style="stroke:#F1F1F1;stroke-width:1.5;" width="94" x="1222" y="163.5"/><text fill="#000000" font-family="sans-serif" font-size="14" font-weight="bold" lengthAdjust="spacing" textLength="35" x="1227" y="178.4951">type</text><text fill="#000000" font-family="sans-serif" font-size="14" lengthAdjust="spacing" textLength="39" x="1272" y="178.4951">string</text><line style="stroke:#000000;stroke-width:1.0;" x1="1267" x2="1267" y1="163.5" y2="183.7969"/><rect fill="none" height="20.2969" rx="5" ry="5" style="stroke:#000000;stroke-width:1.5;" width="94" x="1222" y="163.5"/><rect fill="#F1F1F1" height="20.2969" rx="5" ry="5" style="stroke:#F1F1F1;stroke-width:1.5;" width="94" x="1222" y="201.5"/><text fill="#000000" font-family="sans-serif" font-size="14" font-weight="bold" lengthAdjust="spacing" textLength="35" x="1227" y="216.4951">type</text><text fill="#000000" font-family="sans-serif" font-size="14" lengthAdjust="spacing" textLength="39" x="1272" y="216.4951">string</text><line style="stroke:#000000;stroke-width:1.0;" x1="1267" x2="1267" y1="201.5" y2="221.7969"/><rect fill="none" height="20.2969" rx="5" ry="5" style="stroke:#000000;stroke-width:1.5;" width="94" x="1222" y="201.5"/><rect fill="#F1F1F1" height="20.2969" rx="5" ry="5" style="stroke:#F1F1F1;stroke-width:1.5;" width="94" x="1222" y="239.5"/><text fill="#000000" font-family="sans-serif" font-size="14" font-weight="bold" lengthAdjust="spacing" textLength="35" x="1227" y="254.4951">type</text><text fill="#000000" font-family="sans-serif" font-size="14" lengthAdjust="spacing" textLength="39" x="1272" y="254.4951">string</text><line style="stroke:#000000;stroke-width:1.0;" x1="1267" x2="1267" y1="239.5" y2="259.7969"/><rect fill="none" height="20.2969" rx="5" ry="5" style="stroke:#000000;stroke-width:1.5;" width="94" x="1222" y="239.5"/><rect fill="#F1F1F1" height="40.5938" rx="5" ry="5" style="stroke:#F1F1F1;stroke-width:1.5;" width="96" x="365" y="168"/><text fill="#000000" font-family="sans-serif" font-size="14" font-weight="bold" lengthAdjust="spacing" textLength="35" x="370" y="182.9951">type</text><text fill="#000000" font-family="sans-serif" font-size="14" lengthAdjust="spacing" textLength="33" x="423" y="182.9951">array</text><line style="stroke:#000000;stroke-width:1.0;" x1="418" x2="418" y1="168" y2="188.2969"/><line style="stroke:#000000;stroke-width:1.0;" x1="365" x2="461" y1="188.2969" y2="188.2969"/><text fill="#000000" font-family="sans-serif" font-size="14" font-weight="bold" lengthAdjust="spacing" textLength="43" x="370" y="203.292">items</text><text fill="#000000" font-family="sans-serif" font-size="14" lengthAdjust="spacing" textLength="12" x="423" y="203.292">   </text><line style="stroke:#000000;stroke-width:1.0;" x1="418" x2="418" y1="188.2969" y2="208.5938"/><rect fill="none" height="40.5938" rx="5" ry="5" style="stroke:#000000;stroke-width:1.5;" width="96" x="365" y="168"/><rect fill="#F1F1F1" height="60.8906" rx="5" ry="5" style="stroke:#F1F1F1;stroke-width:1.5;" width="146" x="523" y="168"/><text fill="#000000" font-family="sans-serif" font-size="14" font-weight="bold" lengthAdjust="spacing" textLength="35" x="528" y="182.9951">type</text><text fill="#000000" font-family="sans-serif" font-size="14" lengthAdjust="spacing" textLength="43" x="621" y="182.9951">object</text><line style="stroke:#000000;stroke-width:1.0;" x1="616" x2="616" y1="168" y2="188.2969"/><line style="stroke:#000000;stroke-width:1.0;" x1="523" x2="669" y1="188.2969" y2="188.2969"/><text fill="#000000" font-family="sans-serif" font-size="14" font-weight="bold" lengthAdjust="spacing" textLength="68" x="528" y="203.292">required</text><text fill="#000000" font-family="sans-serif" font-size="14" lengthAdjust="spacing" textLength="12" x="621" y="203.292">   </text><line style="stroke:#000000;stroke-width:1.0;" x1="616" x2="616" y1="188.2969" y2="208.5938"/><line style="stroke:#000000;stroke-width:1.0;" x1="523" x2="669" y1="208.5938" y2="208.5938"/><text fill="#000000" font-family="sans-serif" font-size="14" font-weight="bold" lengthAdjust="spacing" textLength="83" x="528" y="223.5889">properties</text><text fill="#000000" font-family="sans-serif" font-size="14" lengthAdjust="spacing" textLength="12" x="621" y="223.5889">   </text><line style="stroke:#000000;stroke-width:1.0;" x1="616" x2="616" y1="208.5938" y2="228.8906"/><rect fill="none" height="60.8906" rx="5" ry="5" style="stroke:#000000;stroke-width:1.5;" width="146" x="523" y="168"/><rect fill="#F1F1F1" height="15" rx="5" ry="5" style="stroke:#F1F1F1;stroke-width:1.5;" width="30" x="768" y="182.5"/><rect fill="none" height="15" rx="5" ry="5" style="stroke:#000000;stroke-width:1.5;" width="30" x="768" y="182.5"/><rect fill="#F1F1F1" height="20.2969" rx="5" ry="5" style="stroke:#F1F1F1;stroke-width:1.5;" width="148" x="706" y="216.5"/><text fill="#000000" font-family="sans-serif" font-size="14" font-weight="bold" lengthAdjust="spacing" textLength="116" x="711" y="231.4951">deployGroupId</text><text fill="#000000" font-family="sans-serif" font-size="14" lengthAdjust="spacing" textLength="12" x="837" y="231.4951">   </text><line style="stroke:#000000;stroke-width:1.0;" x1="832" x2="832" y1="216.5" y2="236.7969"/><rect fill="none" height="20.2969" rx="5" ry="5" style="stroke:#000000;stroke-width:1.5;" width="148" x="706" y="216.5"/><rect fill="#F1F1F1" height="20.2969" rx="5" ry="5" style="stroke:#F1F1F1;stroke-width:1.5;" width="94" x="917" y="216.5"/><text fill="#000000" font-family="sans-serif" font-size="14" font-weight="bold" lengthAdjust="spacing" textLength="35" x="922" y="231.4951">type</text><text fill="#000000" font-family="sans-serif" font-size="14" lengthAdjust="spacing" textLength="39" x="967" y="231.4951">string</text><line style="stroke:#000000;stroke-width:1.0;" x1="962" x2="962" y1="216.5" y2="236.7969"/><rect fill="none" height="20.2969" rx="5" ry="5" style="stroke:#000000;stroke-width:1.5;" width="94" x="917" y="216.5"/><rect fill="#F1F1F1" height="60.8906" rx="5" ry="5" style="stroke:#F1F1F1;stroke-width:1.5;" width="146" x="340" y="227"/><text fill="#000000" font-family="sans-serif" font-size="14" font-weight="bold" lengthAdjust="spacing" textLength="35" x="345" y="241.9951">type</text><text fill="#000000" font-family="sans-serif" font-size="14" lengthAdjust="spacing" textLength="43" x="438" y="241.9951">object</text><line style="stroke:#000000;stroke-width:1.0;" x1="433" x2="433" y1="227" y2="247.2969"/><line style="stroke:#000000;stroke-width:1.0;" x1="340" x2="486" y1="247.2969" y2="247.2969"/><text fill="#000000" font-family="sans-serif" font-size="14" font-weight="bold" lengthAdjust="spacing" textLength="68" x="345" y="262.292">required</text><text fill="#000000" font-family="sans-serif" font-size="14" lengthAdjust="spacing" textLength="12" x="438" y="262.292">   </text><line style="stroke:#000000;stroke-width:1.0;" x1="433" x2="433" y1="247.2969" y2="267.5938"/><line style="stroke:#000000;stroke-width:1.0;" x1="340" x2="486" y1="267.5938" y2="267.5938"/><text fill="#000000" font-family="sans-serif" font-size="14" font-weight="bold" lengthAdjust="spacing" textLength="83" x="345" y="282.5889">properties</text><text fill="#000000" font-family="sans-serif" font-size="14" lengthAdjust="spacing" textLength="12" x="438" y="282.5889">   </text><line style="stroke:#000000;stroke-width:1.0;" x1="433" x2="433" y1="267.5938" y2="287.8906"/><rect fill="none" height="60.8906" rx="5" ry="5" style="stroke:#000000;stroke-width:1.5;" width="146" x="340" y="227"/><rect fill="#F1F1F1" height="15" rx="5" ry="5" style="stroke:#F1F1F1;stroke-width:1.5;" width="30" x="584" y="248.5"/><rect fill="none" height="15" rx="5" ry="5" style="stroke:#000000;stroke-width:1.5;" width="30" x="584" y="248.5"/><rect fill="#F1F1F1" height="40.5938" rx="5" ry="5" style="stroke:#F1F1F1;stroke-width:1.5;" width="98" x="547" y="283"/><text fill="#000000" font-family="sans-serif" font-size="14" font-weight="bold" lengthAdjust="spacing" textLength="29" x="552" y="297.9951">dns</text><text fill="#000000" font-family="sans-serif" font-size="14" lengthAdjust="spacing" textLength="12" x="628" y="297.9951">   </text><line style="stroke:#000000;stroke-width:1.0;" x1="623" x2="623" y1="283" y2="303.2969"/><line style="stroke:#000000;stroke-width:1.0;" x1="547" x2="645" y1="303.2969" y2="303.2969"/><text fill="#000000" font-family="sans-serif" font-size="14" font-weight="bold" lengthAdjust="spacing" textLength="66" x="552" y="318.292">backups</text><text fill="#000000" font-family="sans-serif" font-size="14" lengthAdjust="spacing" textLength="12" x="628" y="318.292">   </text><line style="stroke:#000000;stroke-width:1.0;" x1="623" x2="623" y1="303.2969" y2="323.5938"/><rect fill="none" height="40.5938" rx="5" ry="5" style="stroke:#000000;stroke-width:1.5;" width="98" x="547" y="283"/><rect fill="#F1F1F1" height="60.8906" rx="5" ry="5" style="stroke:#F1F1F1;stroke-width:1.5;" width="146" x="707" y="258"/><text fill="#000000" font-family="sans-serif" font-size="14" font-weight="bold" lengthAdjust="spacing" textLength="35" x="712" y="272.9951">type</text><text fill="#000000" font-family="sans-serif" font-size="14" lengthAdjust="spacing" textLength="43" x="805" y="272.9951">object</text><line style="stroke:#000000;stroke-width:1.0;" x1="800" x2="800" y1="258" y2="278.2969"/><line style="stroke:#000000;stroke-width:1.0;" x1="707" x2="853" y1="278.2969" y2="278.2969"/><text fill="#000000" font-family="sans-serif" font-size="14" font-weight="bold" lengthAdjust="spacing" textLength="68" x="712" y="293.292">required</text><text fill="#000000" font-family="sans-serif" font-size="14" lengthAdjust="spacing" textLength="12" x="805" y="293.292">   </text><line style="stroke:#000000;stroke-width:1.0;" x1="800" x2="800" y1="278.2969" y2="298.5938"/><line style="stroke:#000000;stroke-width:1.0;" x1="707" x2="853" y1="298.5938" y2="298.5938"/><text fill="#000000" font-family="sans-serif" font-size="14" font-weight="bold" lengthAdjust="spacing" textLength="83" x="712" y="313.5889">properties</text><text fill="#000000" font-family="sans-serif" font-size="14" lengthAdjust="spacing" textLength="12" x="805" y="313.5889">   </text><line style="stroke:#000000;stroke-width:1.0;" x1="800" x2="800" y1="298.5938" y2="318.8906"/><rect fill="none" height="60.8906" rx="5" ry="5" style="stroke:#000000;stroke-width:1.5;" width="146" x="707" y="258"/><rect fill="#F1F1F1" height="15" rx="5" ry="5" style="stroke:#F1F1F1;stroke-width:1.5;" width="30" x="952" y="256.5"/><rect fill="none" height="15" rx="5" ry="5" style="stroke:#000000;stroke-width:1.5;" width="30" x="952" y="256.5"/><rect fill="#F1F1F1" height="40.5938" rx="5" ry="5" style="stroke:#F1F1F1;stroke-width:1.5;" width="120" x="904" y="291"/><text fill="#000000" font-family="sans-serif" font-size="14" font-weight="bold" lengthAdjust="spacing" textLength="88" x="909" y="305.9951">expression</text><text fill="#000000" font-family="sans-serif" font-size="14" lengthAdjust="spacing" textLength="12" x="1007" y="305.9951">   </text><line style="stroke:#000000;stroke-width:1.0;" x1="1002" x2="1002" y1="291" y2="311.2969"/><line style="stroke:#000000;stroke-width:1.0;" x1="904" x2="1024" y1="311.2969" y2="311.2969"/><text fill="#000000" font-family="sans-serif" font-size="14" font-weight="bold" lengthAdjust="spacing" textLength="63" x="909" y="326.292">enabled</text><text fill="#000000" font-family="sans-serif" font-size="14" lengthAdjust="spacing" textLength="12" x="1007" y="326.292">   </text><line style="stroke:#000000;stroke-width:1.0;" x1="1002" x2="1002" y1="311.2969" y2="331.5938"/><rect fill="none" height="40.5938" rx="5" ry="5" style="stroke:#000000;stroke-width:1.5;" width="120" x="904" y="291"/><rect fill="#F1F1F1" height="20.2969" rx="5" ry="5" style="stroke:#F1F1F1;stroke-width:1.5;" width="94" x="1082.5" y="282.5"/><text fill="#000000" font-family="sans-serif" font-size="14" font-weight="bold" lengthAdjust="spacing" textLength="35" x="1087.5" y="297.4951">type</text><text fill="#000000" font-family="sans-serif" font-size="14" lengthAdjust="spacing" textLength="39" x="1132.5" y="297.4951">string</text><line style="stroke:#000000;stroke-width:1.0;" x1="1127.5" x2="1127.5" y1="282.5" y2="302.7969"/><rect fill="none" height="20.2969" rx="5" ry="5" style="stroke:#000000;stroke-width:1.5;" width="94" x="1082.5" y="282.5"/><rect fill="#F1F1F1" height="20.2969" rx="5" ry="5" style="stroke:#F1F1F1;stroke-width:1.5;" width="111" x="1074" y="320.5"/><text fill="#000000" font-family="sans-serif" font-size="14" font-weight="bold" lengthAdjust="spacing" textLength="35" x="1079" y="335.4951">type</text><text fill="#000000" font-family="sans-serif" font-size="14" lengthAdjust="spacing" textLength="56" x="1124" y="335.4951">boolean</text><line style="stroke:#000000;stroke-width:1.0;" x1="1119" x2="1119" y1="320.5" y2="340.7969"/><rect fill="none" height="20.2969" rx="5" ry="5" style="stroke:#000000;stroke-width:1.5;" width="111" x="1074" y="320.5"/><rect fill="#F1F1F1" height="60.8906" rx="5" ry="5" style="stroke:#F1F1F1;stroke-width:1.5;" width="146" x="707" y="337"/><text fill="#000000" font-family="sans-serif" font-size="14" font-weight="bold" lengthAdjust="spacing" textLength="35" x="712" y="351.9951">type</text><text fill="#000000" font-family="sans-serif" font-size="14" lengthAdjust="spacing" textLength="43" x="805" y="351.9951">object</text><line style="stroke:#000000;stroke-width:1.0;" x1="800" x2="800" y1="337" y2="357.2969"/><line style="stroke:#000000;stroke-width:1.0;" x1="707" x2="853" y1="357.2969" y2="357.2969"/><text fill="#000000" font-family="sans-serif" font-size="14" font-weight="bold" lengthAdjust="spacing" textLength="68" x="712" y="372.292">required</text><text fill="#000000" font-family="sans-serif" font-size="14" lengthAdjust="spacing" textLength="12" x="805" y="372.292">   </text><line style="stroke:#000000;stroke-width:1.0;" x1="800" x2="800" y1="357.2969" y2="377.5938"/><line style="stroke:#000000;stroke-width:1.0;" x1="707" x2="853" y1="377.5938" y2="377.5938"/><text fill="#000000" font-family="sans-serif" font-size="14" font-weight="bold" lengthAdjust="spacing" textLength="83" x="712" y="392.5889">properties</text><text fill="#000000" font-family="sans-serif" font-size="14" lengthAdjust="spacing" textLength="12" x="805" y="392.5889">   </text><line style="stroke:#000000;stroke-width:1.0;" x1="800" x2="800" y1="377.5938" y2="397.8906"/><rect fill="none" height="60.8906" rx="5" ry="5" style="stroke:#000000;stroke-width:1.5;" width="146" x="707" y="337"/><rect fill="#F1F1F1" height="15" rx="5" ry="5" style="stroke:#F1F1F1;stroke-width:1.5;" width="30" x="952" y="353.5"/><rect fill="none" height="15" rx="5" ry="5" style="stroke:#000000;stroke-width:1.5;" width="30" x="952" y="353.5"/><rect fill="#F1F1F1" height="40.5938" rx="5" ry="5" style="stroke:#F1F1F1;stroke-width:1.5;" width="120" x="904" y="388"/><text fill="#000000" font-family="sans-serif" font-size="14" font-weight="bold" lengthAdjust="spacing" textLength="88" x="909" y="402.9951">expression</text><text fill="#000000" font-family="sans-serif" font-size="14" lengthAdjust="spacing" textLength="12" x="1007" y="402.9951">   </text><line style="stroke:#000000;stroke-width:1.0;" x1="1002" x2="1002" y1="388" y2="408.2969"/><line style="stroke:#000000;stroke-width:1.0;" x1="904" x2="1024" y1="408.2969" y2="408.2969"/><text fill="#000000" font-family="sans-serif" font-size="14" font-weight="bold" lengthAdjust="spacing" textLength="63" x="909" y="423.292">enabled</text><text fill="#000000" font-family="sans-serif" font-size="14" lengthAdjust="spacing" textLength="12" x="1007" y="423.292">   </text><line style="stroke:#000000;stroke-width:1.0;" x1="1002" x2="1002" y1="408.2969" y2="428.5938"/><rect fill="none" height="40.5938" rx="5" ry="5" style="stroke:#000000;stroke-width:1.5;" width="120" x="904" y="388"/><rect fill="#F1F1F1" height="20.2969" rx="5" ry="5" style="stroke:#F1F1F1;stroke-width:1.5;" width="94" x="1082.5" y="378.5"/><text fill="#000000" font-family="sans-serif" font-size="14" font-weight="bold" lengthAdjust="spacing" textLength="35" x="1087.5" y="393.4951">type</text><text fill="#000000" font-family="sans-serif" font-size="14" lengthAdjust="spacing" textLength="39" x="1132.5" y="393.4951">string</text><line style="stroke:#000000;stroke-width:1.0;" x1="1127.5" x2="1127.5" y1="378.5" y2="398.7969"/><rect fill="none" height="20.2969" rx="5" ry="5" style="stroke:#000000;stroke-width:1.5;" width="94" x="1082.5" y="378.5"/><rect fill="#F1F1F1" height="20.2969" rx="5" ry="5" style="stroke:#F1F1F1;stroke-width:1.5;" width="111" x="1074" y="416.5"/><text fill="#000000" font-family="sans-serif" font-size="14" font-weight="bold" lengthAdjust="spacing" textLength="35" x="1079" y="431.4951">type</text><text fill="#000000" font-family="sans-serif" font-size="14" lengthAdjust="spacing" textLength="56" x="1124" y="431.4951">boolean</text><line style="stroke:#000000;stroke-width:1.0;" x1="1119" x2="1119" y1="416.5" y2="436.7969"/><rect fill="none" height="20.2969" rx="5" ry="5" style="stroke:#000000;stroke-width:1.5;" width="111" x="1074" y="416.5"/><path d="M144,110.5 L157,110.5 C170.9214,110.5 206.8976,100.1476 229.0694,93.3336 " fill="none" style="stroke:#000000;stroke-width:1.0;stroke-dasharray:3.0,3.0;"/><path d="M229.9654,96.2168 L231.2318,92.6616 L228.1735,90.4504 L236.2774,91.0938 L229.9654,96.2168 " fill="#000000" style="stroke:#000000;stroke-width:1.0;"/><ellipse cx="144" cy="110.5" fill="#000000" rx="3" ry="3" style="stroke:#000000;stroke-width:1.0;"/><path d="M474,39.5 L487,39.5 C518.7304,39.5 555.4155,34.7858 576.9696,31.5297 " fill="none" style="stroke:#000000;stroke-width:1.0;stroke-dasharray:3.0,3.0;"/><path d="M577.4351,34.5209 L579.2131,31.1806 L576.5042,28.5384 L584.4477,30.366 L577.4351,34.5209 " fill="#000000" style="stroke:#000000;stroke-width:1.0;"/><ellipse cx="474" cy="39.5" fill="#000000" rx="3" ry="3" style="stroke:#000000;stroke-width:1.0;"/><path d="M607.5,64.5 L620.5,64.5 C655.4904,64.5 694.8122,64.5 725.5974,64.5 " fill="none" style="stroke:#000000;stroke-width:1.0;stroke-dasharray:3.0,3.0;"/><path d="M725.5974,67.554 L727.8879,64.5 L725.5974,61.446 L733.2324,64.5 L725.5974,67.554 " fill="#000000" style="stroke:#000000;stroke-width:1.0;"/><ellipse cx="607.5" cy="64.5" fill="#000000" rx="3" ry="3" style="stroke:#000000;stroke-width:1.0;"/><path d="M474,60.5 L487,60.5 C513.6928,60.5 544.0544,61.724 565.8583,62.8178 " fill="none" style="stroke:#000000;stroke-width:1.0;stroke-dasharray:3.0,3.0;"/><path d="M565.7004,65.867 L568.1452,62.9361 L566.0161,59.7685 L573.4814,63.2124 L565.7004,65.867 " fill="#000000" style="stroke:#000000;stroke-width:1.0;"/><ellipse cx="474" cy="60.5" fill="#000000" rx="3" ry="3" style="stroke:#000000;stroke-width:1.0;"/><path d="M291,123.5 L304,123.5 C329.267,123.5 320.5017,95.5697 340,79.5 C341.5441,78.2274 343.1361,76.9774 344.7663,75.7512 " fill="none" style="stroke:#000000;stroke-width:1.0;stroke-dasharray:3.0,3.0;"/><path d="M346.6095,78.3334 L346.7029,74.3688 L342.923,73.169 L351.2218,71.1431 L346.6095,78.3334 " fill="#000000" style="stroke:#000000;stroke-width:1.0;"/><ellipse cx="291" cy="123.5" fill="#000000" rx="3" ry="3" style="stroke:#000000;stroke-width:1.0;"/><path d="M474,118.5 L487,118.5 C518.8688,118.5 555.5111,112.0715 577.0192,107.6314 " fill="none" style="stroke:#000000;stroke-width:1.0;stroke-dasharray:3.0,3.0;"/><path d="M577.6539,110.6156 L579.2573,107.1553 L576.3844,104.6471 L584.4798,106.0445 L577.6539,110.6156 " fill="#000000" style="stroke:#000000;stroke-width:1.0;"/><ellipse cx="474" cy="118.5" fill="#000000" rx="3" ry="3" style="stroke:#000000;stroke-width:1.0;"/><path d="M1025,148.5 L1038,148.5 C1051.9937,148.5 1088.1702,138.1476 1110.4661,131.3336 " fill="none" style="stroke:#000000;stroke-width:1.0;stroke-dasharray:3.0,3.0;"/><path d="M1111.362,134.2329 L1112.6406,130.6616 L1109.5702,128.4343 L1117.7144,129.0938 L1111.362,134.2329 " fill="#000000" style="stroke:#000000;stroke-width:1.0;"/><ellipse cx="1025" cy="148.5" fill="#000000" rx="3" ry="3" style="stroke:#000000;stroke-width:1.0;"/><path d="M1163,161.5 L1176,161.5 C1197.4564,161.5 1220.703,154.9364 1238.5243,148.4048 " fill="none" style="stroke:#000000;stroke-width:1.0;stroke-dasharray:3.0,3.0;"/><path d="M1239.6355,151.3186 L1240.7096,147.5714 L1237.413,145.491 L1245.8088,145.6267 L1239.6355,151.3186 " fill="#000000" style="stroke:#000000;stroke-width:1.0;"/><ellipse cx="1163" cy="161.5" fill="#000000" rx="3" ry="3" style="stroke:#000000;stroke-width:1.0;"/><path d="M1163,181.5 L1176,181.5 C1188.5476,181.5 1202.0172,180.7603 1214.6878,179.7307 " fill="none" style="stroke:#000000;stroke-width:1.0;stroke-dasharray:3.0,3.0;"/><path d="M1214.9576,182.839 L1217.019,179.5284 L1214.418,176.6225 L1222.4584,179.0563 L1214.9576,182.839 " fill="#000000" style="stroke:#000000;stroke-width:1.0;"/><ellipse cx="1163" cy="181.5" fill="#000000" rx="3" ry="3" style="stroke:#000000;stroke-width:1.0;"/><path d="M1163,202.5 L1176,202.5 C1188.56,202.5 1202.0344,203.3322 1214.7057,204.4904 " fill="none" style="stroke:#000000;stroke-width:1.0;stroke-dasharray:3.0,3.0;"/><path d="M1214.4022,207.5987 L1217.0369,204.718 L1215.0093,201.3822 L1222.4763,205.2492 L1214.4022,207.5987 " fill="#000000" style="stroke:#000000;stroke-width:1.0;"/><ellipse cx="1163" cy="202.5" fill="#000000" rx="3" ry="3" style="stroke:#000000;stroke-width:1.0;"/><path d="M1163,222.5 L1176,222.5 C1187.2236,222.5 1212.0935,229.9175 1233.2212,236.9769 " fill="none" style="stroke:#000000;stroke-width:1.0;stroke-dasharray:3.0,3.0;"/><path d="M1232.2335,239.8923 L1235.4078,237.7177 L1234.209,234.0615 L1240.5098,239.4462 L1232.2335,239.8923 " fill="#000000" style="stroke:#000000;stroke-width:1.0;"/><ellipse cx="1163" cy="222.5" fill="#000000" rx="3" ry="3" style="stroke:#000000;stroke-width:1.0;"/><path d="M1025,169.5 L1038,169.5 C1050.9409,169.5 1064.6099,171.7133 1077.3101,174.7667 " fill="none" style="stroke:#000000;stroke-width:1.0;stroke-dasharray:3.0,3.0;"/><path d="M1076.5563,177.7079 L1079.516,175.3321 L1078.0639,171.8256 L1084.663,176.6513 L1076.5563,177.7079 " fill="#000000" style="stroke:#000000;stroke-width:1.0;"/><ellipse cx="1025" cy="169.5" fill="#000000" rx="3" ry="3" style="stroke:#000000;stroke-width:1.0;"/><path d="M816.5,149.5 L829.5,149.5 C847.0061,149.5 865.7986,149.5 883.6087,149.5 " fill="none" style="stroke:#000000;stroke-width:1.0;stroke-dasharray:3.0,3.0;"/><path d="M883.6087,152.5265 L885.8786,149.5 L883.6087,146.4735 L891.1748,149.5 L883.6087,152.5265 " fill="#000000" style="stroke:#000000;stroke-width:1.0;"/><ellipse cx="816.5" cy="149.5" fill="#000000" rx="3" ry="3" style="stroke:#000000;stroke-width:1.0;"/><path d="M606.5,139.5 L619.5,139.5 C654.4544,139.5 693.7043,139.5 724.5811,139.5 " fill="none" style="stroke:#000000;stroke-width:1.0;stroke-dasharray:3.0,3.0;"/><path d="M724.5811,142.5648 L726.8797,139.5 L724.5811,136.4352 L732.2431,139.5 L724.5811,142.5648 " fill="#000000" style="stroke:#000000;stroke-width:1.0;"/><ellipse cx="606.5" cy="139.5" fill="#000000" rx="3" ry="3" style="stroke:#000000;stroke-width:1.0;"/><path d="M474,139.5 L487,139.5 C514.178,139.5 545.1853,139.5 567.0727,139.5 " fill="none" style="stroke:#000000;stroke-width:1.0;stroke-dasharray:3.0,3.0;"/><path d="M567.0727,142.5509 L569.3608,139.5 L567.0727,136.4491 L574.6998,139.5 L567.0727,142.5509 " fill="#000000" style="stroke:#000000;stroke-width:1.0;"/><ellipse cx="474" cy="139.5" fill="#000000" rx="3" ry="3" style="stroke:#000000;stroke-width:1.0;"/><path d="M291,143.5 L304,143.5 C313.362,143.5 323.0733,142.6376 332.6653,141.2398 " fill="none" style="stroke:#000000;stroke-width:1.0;stroke-dasharray:3.0,3.0;"/><path d="M333.1571,144.303 L334.9627,140.8709 L332.1734,138.1766 L340.3232,140.0102 L333.1571,144.303 " fill="#000000" style="stroke:#000000;stroke-width:1.0;"/><ellipse cx="291" cy="143.5" fill="#000000" rx="3" ry="3" style="stroke:#000000;stroke-width:1.0;"/><path d="M657,197.5 L670,197.5 C701.9246,197.5 738.9782,194.5001 760.7637,192.428 " fill="none" style="stroke:#000000;stroke-width:1.0;stroke-dasharray:3.0,3.0;"/><path d="M761.0599,195.4517 L763.0315,192.2058 L760.4675,189.4042 L768.3231,191.6875 L761.0599,195.4517 " fill="#000000" style="stroke:#000000;stroke-width:1.0;"/><ellipse cx="657" cy="197.5" fill="#000000" rx="3" ry="3" style="stroke:#000000;stroke-width:1.0;"/><path d="M842,226.5 L855,226.5 C872.7235,226.5 892.0756,226.5 909.4649,226.5 " fill="none" style="stroke:#000000;stroke-width:1.0;stroke-dasharray:3.0,3.0;"/><path d="M909.4649,229.6355 L911.8165,226.5 L909.4649,223.3645 L917.3035,226.5 L909.4649,229.6355 " fill="#000000" style="stroke:#000000;stroke-width:1.0;"/><ellipse cx="842" cy="226.5" fill="#000000" rx="3" ry="3" style="stroke:#000000;stroke-width:1.0;"/><path d="M657,218.5 L670,218.5 C679.2498,218.5 688.9275,218.7875 698.5385,219.2534 " fill="none" style="stroke:#000000;stroke-width:1.0;stroke-dasharray:3.0,3.0;"/><path d="M698.3746,222.327 L700.8437,219.3764 L698.7025,216.1798 L706.2226,219.6633 L698.3746,222.327 " fill="#000000" style="stroke:#000000;stroke-width:1.0;"/><ellipse cx="657" cy="218.5" fill="#000000" rx="3" ry="3" style="stroke:#000000;stroke-width:1.0;"/><path d="M449.5,198.5 L462.5,198.5 C479.6202,198.5 497.98,198.5 515.4252,198.5 " fill="none" style="stroke:#000000;stroke-width:1.0;stroke-dasharray:3.0,3.0;"/><path d="M515.4252,201.6773 L517.8082,198.5 L515.4252,195.3227 L523.3685,198.5 L515.4252,201.6773 " fill="#000000" style="stroke:#000000;stroke-width:1.0;"/><ellipse cx="449.5" cy="198.5" fill="#000000" rx="3" ry="3" style="stroke:#000000;stroke-width:1.0;"/><path d="M291,164.5 L304,164.5 C321.7337,164.5 340.7211,167.5943 357.7756,171.5609 " fill="none" style="stroke:#000000;stroke-width:1.0;stroke-dasharray:3.0,3.0;"/><path d="M357.0252,174.6362 L360.0821,172.1236 L358.5259,168.4855 L365.4639,173.4367 L357.0252,174.6362 " fill="#000000" style="stroke:#000000;stroke-width:1.0;"/><ellipse cx="291" cy="164.5" fill="#000000" rx="3" ry="3" style="stroke:#000000;stroke-width:1.0;"/><path d="M474,256.5 L487,256.5 C518.4295,256.5 554.9802,256.5 576.6253,256.5 " fill="none" style="stroke:#000000;stroke-width:1.0;stroke-dasharray:3.0,3.0;"/><path d="M576.6253,259.614 L578.9608,256.5 L576.6253,253.386 L584.4102,256.5 L576.6253,259.614 " fill="#000000" style="stroke:#000000;stroke-width:1.0;"/><ellipse cx="474" cy="256.5" fill="#000000" rx="3" ry="3" style="stroke:#000000;stroke-width:1.0;"/><path d="M841.5,287.5 L854.5,287.5 C863.4275,287.5 916.1794,275.5353 944.8946,268.865 " fill="none" style="stroke:#000000;stroke-width:1.0;stroke-dasharray:3.0,3.0;"/><path d="M945.5853,271.8272 L947.1163,268.347 L944.204,265.9029 L952.3,267.1384 L945.5853,271.8272 " fill="#000000" style="stroke:#000000;stroke-width:1.0;"/><ellipse cx="841.5" cy="287.5" fill="#000000" rx="3" ry="3" style="stroke:#000000;stroke-width:1.0;"/><path d="M1012.5,300.5 L1025.5,300.5 C1041.6849,300.5 1059.2512,299.5155 1075.2381,298.2373 " fill="none" style="stroke:#000000;stroke-width:1.0;stroke-dasharray:3.0,3.0;"/><path d="M1075.4973,301.3206 L1077.5506,298.0428 L1074.9789,295.154 L1082.9463,297.5892 L1075.4973,301.3206 " fill="#000000" style="stroke:#000000;stroke-width:1.0;"/><ellipse cx="1012.5" cy="300.5" fill="#000000" rx="3" ry="3" style="stroke:#000000;stroke-width:1.0;"/><path d="M1012.5,321.5 L1025.5,321.5 C1038.7681,321.5 1052.9572,322.2431 1066.4423,323.3024 " fill="none" style="stroke:#000000;stroke-width:1.0;stroke-dasharray:3.0,3.0;"/><path d="M1066.1796,326.4408 L1068.7962,323.4994 L1066.7051,320.1639 L1074.2885,323.9593 L1066.1796,326.4408 " fill="#000000" style="stroke:#000000;stroke-width:1.0;"/><ellipse cx="1012.5" cy="321.5" fill="#000000" rx="3" ry="3" style="stroke:#000000;stroke-width:1.0;"/><path d="M841.5,308.5 L854.5,308.5 C868.1568,308.5 882.7724,308.7382 896.722,309.0804 " fill="none" style="stroke:#000000;stroke-width:1.0;stroke-dasharray:3.0,3.0;"/><path d="M896.642,312.1488 L899.0232,309.1404 L896.8019,306.0121 L904.3929,309.2804 L896.642,312.1488 " fill="#000000" style="stroke:#000000;stroke-width:1.0;"/><ellipse cx="841.5" cy="308.5" fill="#000000" rx="3" ry="3" style="stroke:#000000;stroke-width:1.0;"/><path d="M633.5,292.5 L646.5,292.5 C663.6279,292.5 681.991,292.1645 699.4369,291.6878 " fill="none" style="stroke:#000000;stroke-width:1.0;stroke-dasharray:3.0,3.0;"/><path d="M699.5283,294.8651 L701.82,291.6193 L699.3456,288.5104 L707.3804,291.4595 L699.5283,294.8651 " fill="#000000" style="stroke:#000000;stroke-width:1.0;"/><ellipse cx="633.5" cy="292.5" fill="#000000" rx="3" ry="3" style="stroke:#000000;stroke-width:1.0;"/><path d="M841.5,366.5 L854.5,366.5 C886.2474,366.5 923.1415,364.3572 944.838,362.8771 " fill="none" style="stroke:#000000;stroke-width:1.0;stroke-dasharray:3.0,3.0;"/><path d="M945.0496,365.8887 L947.0966,362.7184 L944.6264,359.8656 L952.3668,362.3482 L945.0496,365.8887 " fill="#000000" style="stroke:#000000;stroke-width:1.0;"/><ellipse cx="841.5" cy="366.5" fill="#000000" rx="3" ry="3" style="stroke:#000000;stroke-width:1.0;"/><path d="M1012.5,397.5 L1025.5,397.5 C1041.6977,397.5 1059.2678,396.3925 1075.2542,394.9544 " fill="none" style="stroke:#000000;stroke-width:1.0;stroke-dasharray:3.0,3.0;"/><path d="M1075.5459,398.0375 L1077.5665,394.7357 L1074.9626,391.8713 L1082.9619,394.2253 L1075.5459,398.0375 " fill="#000000" style="stroke:#000000;stroke-width:1.0;"/><ellipse cx="1012.5" cy="397.5" fill="#000000" rx="3" ry="3" style="stroke:#000000;stroke-width:1.0;"/><path d="M1012.5,418.5 L1025.5,418.5 C1038.7577,418.5 1052.9423,419.1606 1066.4264,420.1021 " fill="none" style="stroke:#000000;stroke-width:1.0;stroke-dasharray:3.0,3.0;"/><path d="M1066.1928,423.2405 L1068.7802,420.2773 L1066.66,416.9637 L1074.2724,420.686 L1066.1928,423.2405 " fill="#000000" style="stroke:#000000;stroke-width:1.0;"/><ellipse cx="1012.5" cy="418.5" fill="#000000" rx="3" ry="3" style="stroke:#000000;stroke-width:1.0;"/><path d="M841.5,387.5 L854.5,387.5 C868.3214,387.5 882.9534,389.1482 896.8572,391.5211 " fill="none" style="stroke:#000000;stroke-width:1.0;stroke-dasharray:3.0,3.0;"/><path d="M896.3024,394.5769 L899.1491,391.9371 L897.412,388.4652 L904.4968,392.908 L896.3024,394.5769 " fill="#000000" style="stroke:#000000;stroke-width:1.0;"/><ellipse cx="841.5" cy="387.5" fill="#000000" rx="3" ry="3" style="stroke:#000000;stroke-width:1.0;"/><path d="M633.5,313.5 L646.5,313.5 C659.7689,313.5 685.012,322.8437 709.9716,333.7576 " fill="none" style="stroke:#000000;stroke-width:1.0;stroke-dasharray:3.0,3.0;"/><path d="M708.7262,336.5665 L712.0782,334.6917 L711.2169,330.9488 L716.9937,336.8711 L708.7262,336.5665 " fill="#000000" style="stroke:#000000;stroke-width:1.0;"/><ellipse cx="633.5" cy="313.5" fill="#000000" rx="3" ry="3" style="stroke:#000000;stroke-width:1.0;"/><path d="M474,277.5 L487,277.5 C504.4694,277.5 523.0962,280.7269 539.8967,284.9071 " fill="none" style="stroke:#000000;stroke-width:1.0;stroke-dasharray:3.0,3.0;"/><path d="M539.1048,287.939 L542.1706,285.5009 L540.6885,281.8751 L547.4766,286.8866 L539.1048,287.939 " fill="#000000" style="stroke:#000000;stroke-width:1.0;"/><ellipse cx="474" cy="277.5" fill="#000000" rx="3" ry="3" style="stroke:#000000;stroke-width:1.0;"/><path d="M291,184.5 L304,184.5 C325.7051,184.5 322.3733,204.8346 340,217.5 C342.3567,219.1934 344.7926,220.8685 347.2805,222.5176 " fill="none" style="stroke:#000000;stroke-width:1.0;stroke-dasharray:3.0,3.0;"/><path d="M345.5608,225.1929 L349.2871,223.8074 L349.0003,219.8422 L353.969,226.8169 L345.5608,225.1929 " fill="#000000" style="stroke:#000000;stroke-width:1.0;"/><ellipse cx="291" cy="184.5" fill="#000000" rx="3" ry="3" style="stroke:#000000;stroke-width:1.0;"/><path d="M144,131.5 L157,131.5 C166.3379,131.5 176.0555,132.6644 185.5091,134.4693 " fill="none" style="stroke:#000000;stroke-width:1.0;stroke-dasharray:3.0,3.0;"/><path d="M184.8792,137.4744 L187.7629,134.9417 L186.139,131.4642 L193.0218,136.0441 L184.8792,137.4744 " fill="#000000" style="stroke:#000000;stroke-width:1.0;"/><ellipse cx="144" cy="131.5" fill="#000000" rx="3" ry="3" style="stroke:#000000;stroke-width:1.0;"/></g></svg>