<?xml version="1.0" encoding="UTF-8" standalone="no"?><svg xmlns="http://www.w3.org/2000/svg" xmlns:xlink="http://www.w3.org/1999/xlink" contentStyleType="text/css" height="256px" preserveAspectRatio="none" style="width:1242px;height:256px;background:#FFFFFF;" version="1.1" viewBox="0 0 1242 256" width="1242px" zoomAndPan="magnify"><defs/><g><rect fill="#F1F1F1" height="43.2188" rx="5" ry="5" style="stroke:#F1F1F1;stroke-width:1.5;" width="128" x="10" y="101.5"/><text fill="#000000" font-family="sans-serif" font-size="14" font-weight="bold" lengthAdjust="spacing" textLength="30" x="15" y="118.0332">type</text><text fill="#000000" font-family="sans-serif" font-size="14" lengthAdjust="spacing" textLength="38" x="95" y="118.0332">object</text><line style="stroke:#000000;stroke-width:1.0;" x1="90" x2="90" y1="101.5" y2="123.1094"/><line style="stroke:#000000;stroke-width:1.0;" x1="10" x2="138" y1="123.1094" y2="123.1094"/><text fill="#000000" font-family="sans-serif" font-size="14" font-weight="bold" lengthAdjust="spacing" textLength="70" x="15" y="139.6426">properties</text><text fill="#000000" font-family="sans-serif" font-size="14" lengthAdjust="spacing" textLength="12" x="95" y="139.6426">   </text><line style="stroke:#000000;stroke-width:1.0;" x1="90" x2="90" y1="123.1094" y2="144.7188"/><rect fill="none" height="43.2188" rx="5" ry="5" style="stroke:#000000;stroke-width:1.5;" width="128" x="10" y="101.5"/><rect fill="#F1F1F1" height="64.8281" rx="5" ry="5" style="stroke:#F1F1F1;stroke-width:1.5;" width="101" x="175" y="101.5"/><text fill="#000000" font-family="sans-serif" font-size="14" font-weight="bold" lengthAdjust="spacing" textLength="69" x="180" y="118.0332">ipDaemon</text><text fill="#000000" font-family="sans-serif" font-size="14" lengthAdjust="spacing" textLength="12" x="259" y="118.0332">   </text><line style="stroke:#000000;stroke-width:1.0;" x1="254" x2="254" y1="101.5" y2="123.1094"/><line style="stroke:#000000;stroke-width:1.0;" x1="175" x2="276" y1="123.1094" y2="123.1094"/><text fill="#000000" font-family="sans-serif" font-size="14" font-weight="bold" lengthAdjust="spacing" textLength="52" x="180" y="139.6426">records</text><text fill="#000000" font-family="sans-serif" font-size="14" lengthAdjust="spacing" textLength="12" x="259" y="139.6426">   </text><line style="stroke:#000000;stroke-width:1.0;" x1="254" x2="254" y1="123.1094" y2="144.7188"/><line style="stroke:#000000;stroke-width:1.0;" x1="175" x2="276" y1="144.7188" y2="144.7188"/><text fill="#000000" font-family="sans-serif" font-size="14" font-weight="bold" lengthAdjust="spacing" textLength="59" x="180" y="161.252">backups</text><text fill="#000000" font-family="sans-serif" font-size="14" lengthAdjust="spacing" textLength="12" x="259" y="161.252">   </text><line style="stroke:#000000;stroke-width:1.0;" x1="254" x2="254" y1="144.7188" y2="166.3281"/><rect fill="none" height="64.8281" rx="5" ry="5" style="stroke:#000000;stroke-width:1.5;" width="101" x="175" y="101.5"/><rect fill="#F1F1F1" height="43.2188" rx="5" ry="5" style="stroke:#F1F1F1;stroke-width:1.5;" width="128" x="313" y="41.5"/><text fill="#000000" font-family="sans-serif" font-size="14" font-weight="bold" lengthAdjust="spacing" textLength="30" x="318" y="58.0332">type</text><text fill="#000000" font-family="sans-serif" font-size="14" lengthAdjust="spacing" textLength="38" x="398" y="58.0332">object</text><line style="stroke:#000000;stroke-width:1.0;" x1="393" x2="393" y1="41.5" y2="63.1094"/><line style="stroke:#000000;stroke-width:1.0;" x1="313" x2="441" y1="63.1094" y2="63.1094"/><text fill="#000000" font-family="sans-serif" font-size="14" font-weight="bold" lengthAdjust="spacing" textLength="70" x="318" y="79.6426">properties</text><text fill="#000000" font-family="sans-serif" font-size="14" lengthAdjust="spacing" textLength="12" x="398" y="79.6426">   </text><line style="stroke:#000000;stroke-width:1.0;" x1="393" x2="393" y1="63.1094" y2="84.7188"/><rect fill="none" height="43.2188" rx="5" ry="5" style="stroke:#000000;stroke-width:1.5;" width="128" x="313" y="41.5"/><rect fill="#F1F1F1" height="64.8281" rx="5" ry="5" style="stroke:#F1F1F1;stroke-width:1.5;" width="171" x="478" y="34.5"/><text fill="#000000" font-family="sans-serif" font-size="14" font-weight="bold" lengthAdjust="spacing" textLength="13" x="483" y="51.0332">ip</text><text fill="#000000" font-family="sans-serif" font-size="14" lengthAdjust="spacing" textLength="12" x="632" y="51.0332">   </text><line style="stroke:#000000;stroke-width:1.0;" x1="627" x2="627" y1="34.5" y2="56.1094"/><line style="stroke:#000000;stroke-width:1.0;" x1="478" x2="649" y1="56.1094" y2="56.1094"/><text fill="#000000" font-family="sans-serif" font-size="14" font-weight="bold" lengthAdjust="spacing" textLength="139" x="483" y="72.6426">minutesTimeInterval</text><text fill="#000000" font-family="sans-serif" font-size="14" lengthAdjust="spacing" textLength="12" x="632" y="72.6426">   </text><line style="stroke:#000000;stroke-width:1.0;" x1="627" x2="627" y1="56.1094" y2="77.7188"/><line style="stroke:#000000;stroke-width:1.0;" x1="478" x2="649" y1="77.7188" y2="77.7188"/><text fill="#000000" font-family="sans-serif" font-size="14" font-weight="bold" lengthAdjust="spacing" textLength="59" x="483" y="94.252">disabled</text><text fill="#000000" font-family="sans-serif" font-size="14" lengthAdjust="spacing" textLength="12" x="632" y="94.252">   </text><line style="stroke:#000000;stroke-width:1.0;" x1="627" x2="627" y1="77.7188" y2="99.3281"/><rect fill="none" height="64.8281" rx="5" ry="5" style="stroke:#000000;stroke-width:1.5;" width="171" x="478" y="34.5"/><rect fill="#F1F1F1" height="21.6094" rx="5" ry="5" style="stroke:#F1F1F1;stroke-width:1.5;" width="72" x="717.5" y="10"/><text fill="#000000" font-family="sans-serif" font-size="14" font-weight="bold" lengthAdjust="spacing" textLength="30" x="722.5" y="26.5332">type</text><text fill="#000000" font-family="sans-serif" font-size="14" lengthAdjust="spacing" textLength="22" x="762.5" y="26.5332">null</text><line style="stroke:#000000;stroke-width:1.0;" x1="757.5" x2="757.5" y1="10" y2="31.6094"/><rect fill="none" height="21.6094" rx="5" ry="5" style="stroke:#000000;stroke-width:1.5;" width="72" x="717.5" y="10"/><rect fill="#F1F1F1" height="21.6094" rx="5" ry="5" style="stroke:#F1F1F1;stroke-width:1.5;" width="94" x="706.5" y="50"/><text fill="#000000" font-family="sans-serif" font-size="14" font-weight="bold" lengthAdjust="spacing" textLength="30" x="711.5" y="66.5332">type</text><text fill="#000000" font-family="sans-serif" font-size="14" lengthAdjust="spacing" textLength="44" x="751.5" y="66.5332">integer</text><line style="stroke:#000000;stroke-width:1.0;" x1="746.5" x2="746.5" y1="50" y2="71.6094"/><rect fill="none" height="21.6094" rx="5" ry="5" style="stroke:#000000;stroke-width:1.5;" width="94" x="706.5" y="50"/><rect fill="#F1F1F1" height="21.6094" rx="5" ry="5" style="stroke:#F1F1F1;stroke-width:1.5;" width="101" x="703" y="90"/><text fill="#000000" font-family="sans-serif" font-size="14" font-weight="bold" lengthAdjust="spacing" textLength="30" x="708" y="106.5332">type</text><text fill="#000000" font-family="sans-serif" font-size="14" lengthAdjust="spacing" textLength="51" x="748" y="106.5332">boolean</text><line style="stroke:#000000;stroke-width:1.0;" x1="743" x2="743" y1="90" y2="111.6094"/><rect fill="none" height="21.6094" rx="5" ry="5" style="stroke:#000000;stroke-width:1.5;" width="101" x="703" y="90"/><rect fill="#F1F1F1" height="43.2188" rx="5" ry="5" style="stroke:#F1F1F1;stroke-width:1.5;" width="128" x="313" y="111.5"/><text fill="#000000" font-family="sans-serif" font-size="14" font-weight="bold" lengthAdjust="spacing" textLength="30" x="318" y="128.0332">type</text><text fill="#000000" font-family="sans-serif" font-size="14" lengthAdjust="spacing" textLength="38" x="398" y="128.0332">object</text><line style="stroke:#000000;stroke-width:1.0;" x1="393" x2="393" y1="111.5" y2="133.1094"/><line style="stroke:#000000;stroke-width:1.0;" x1="313" x2="441" y1="133.1094" y2="133.1094"/><text fill="#000000" font-family="sans-serif" font-size="14" font-weight="bold" lengthAdjust="spacing" textLength="70" x="318" y="149.6426">properties</text><text fill="#000000" font-family="sans-serif" font-size="14" lengthAdjust="spacing" textLength="12" x="398" y="149.6426">   </text><line style="stroke:#000000;stroke-width:1.0;" x1="393" x2="393" y1="133.1094" y2="154.7188"/><rect fill="none" height="43.2188" rx="5" ry="5" style="stroke:#000000;stroke-width:1.5;" width="128" x="313" y="111.5"/><rect fill="#F1F1F1" height="21.6094" rx="5" ry="5" style="stroke:#F1F1F1;stroke-width:1.5;" width="42" x="542.5" y="136"/><text fill="#000000" font-family="sans-serif" font-size="14" font-weight="bold" lengthAdjust="spacing" textLength="10" x="547.5" y="152.5332">A</text><text fill="#000000" font-family="sans-serif" font-size="14" lengthAdjust="spacing" textLength="12" x="567.5" y="152.5332">   </text><line style="stroke:#000000;stroke-width:1.0;" x1="562.5" x2="562.5" y1="136" y2="157.6094"/><rect fill="none" height="21.6094" rx="5" ry="5" style="stroke:#000000;stroke-width:1.5;" width="42" x="542.5" y="136"/><rect fill="#F1F1F1" height="43.2188" rx="5" ry="5" style="stroke:#F1F1F1;stroke-width:1.5;" width="90" x="708.5" y="130.5"/><text fill="#000000" font-family="sans-serif" font-size="14" font-weight="bold" lengthAdjust="spacing" textLength="30" x="713.5" y="147.0332">type</text><text fill="#000000" font-family="sans-serif" font-size="14" lengthAdjust="spacing" textLength="33" x="760.5" y="147.0332">array</text><line style="stroke:#000000;stroke-width:1.0;" x1="755.5" x2="755.5" y1="130.5" y2="152.1094"/><line style="stroke:#000000;stroke-width:1.0;" x1="708.5" x2="798.5" y1="152.1094" y2="152.1094"/><text fill="#000000" font-family="sans-serif" font-size="14" font-weight="bold" lengthAdjust="spacing" textLength="37" x="713.5" y="168.6426">items</text><text fill="#000000" font-family="sans-serif" font-size="14" lengthAdjust="spacing" textLength="12" x="760.5" y="168.6426">   </text><line style="stroke:#000000;stroke-width:1.0;" x1="755.5" x2="755.5" y1="152.1094" y2="173.7188"/><rect fill="none" height="43.2188" rx="5" ry="5" style="stroke:#000000;stroke-width:1.5;" width="90" x="708.5" y="130.5"/><rect fill="#F1F1F1" height="43.2188" rx="5" ry="5" style="stroke:#F1F1F1;stroke-width:1.5;" width="128" x="858" y="141.5"/><text fill="#000000" font-family="sans-serif" font-size="14" font-weight="bold" lengthAdjust="spacing" textLength="30" x="863" y="158.0332">type</text><text fill="#000000" font-family="sans-serif" font-size="14" lengthAdjust="spacing" textLength="38" x="943" y="158.0332">object</text><line style="stroke:#000000;stroke-width:1.0;" x1="938" x2="938" y1="141.5" y2="163.1094"/><line style="stroke:#000000;stroke-width:1.0;" x1="858" x2="986" y1="163.1094" y2="163.1094"/><text fill="#000000" font-family="sans-serif" font-size="14" font-weight="bold" lengthAdjust="spacing" textLength="70" x="863" y="179.6426">properties</text><text fill="#000000" font-family="sans-serif" font-size="14" lengthAdjust="spacing" textLength="12" x="943" y="179.6426">   </text><line style="stroke:#000000;stroke-width:1.0;" x1="938" x2="938" y1="163.1094" y2="184.7188"/><rect fill="none" height="43.2188" rx="5" ry="5" style="stroke:#000000;stroke-width:1.5;" width="128" x="858" y="141.5"/><rect fill="#F1F1F1" height="86.4375" rx="5" ry="5" style="stroke:#F1F1F1;stroke-width:1.5;" width="85" x="1023" y="131"/><text fill="#000000" font-family="sans-serif" font-size="14" font-weight="bold" lengthAdjust="spacing" textLength="31" x="1028" y="147.5332">host</text><text fill="#000000" font-family="sans-serif" font-size="14" lengthAdjust="spacing" textLength="12" x="1091" y="147.5332">   </text><line style="stroke:#000000;stroke-width:1.0;" x1="1086" x2="1086" y1="131" y2="152.6094"/><line style="stroke:#000000;stroke-width:1.0;" x1="1023" x2="1108" y1="152.6094" y2="152.6094"/><text fill="#000000" font-family="sans-serif" font-size="14" font-weight="bold" lengthAdjust="spacing" textLength="26" x="1028" y="169.1426">dns</text><text fill="#000000" font-family="sans-serif" font-size="14" lengthAdjust="spacing" textLength="12" x="1091" y="169.1426">   </text><line style="stroke:#000000;stroke-width:1.0;" x1="1086" x2="1086" y1="152.6094" y2="174.2188"/><line style="stroke:#000000;stroke-width:1.0;" x1="1023" x2="1108" y1="174.2188" y2="174.2188"/><text fill="#000000" font-family="sans-serif" font-size="14" font-weight="bold" lengthAdjust="spacing" textLength="53" x="1028" y="190.752">api_key</text><text fill="#000000" font-family="sans-serif" font-size="14" lengthAdjust="spacing" textLength="12" x="1091" y="190.752">   </text><line style="stroke:#000000;stroke-width:1.0;" x1="1086" x2="1086" y1="174.2188" y2="195.8281"/><line style="stroke:#000000;stroke-width:1.0;" x1="1023" x2="1108" y1="195.8281" y2="195.8281"/><text fill="#000000" font-family="sans-serif" font-size="14" font-weight="bold" lengthAdjust="spacing" textLength="30" x="1028" y="212.3613">user</text><text fill="#000000" font-family="sans-serif" font-size="14" lengthAdjust="spacing" textLength="12" x="1091" y="212.3613">   </text><line style="stroke:#000000;stroke-width:1.0;" x1="1086" x2="1086" y1="195.8281" y2="217.4375"/><rect fill="none" height="86.4375" rx="5" ry="5" style="stroke:#000000;stroke-width:1.5;" width="85" x="1023" y="131"/><rect fill="#F1F1F1" height="21.6094" rx="5" ry="5" style="stroke:#F1F1F1;stroke-width:1.5;" width="85" x="1145" y="103"/><text fill="#000000" font-family="sans-serif" font-size="14" font-weight="bold" lengthAdjust="spacing" textLength="30" x="1150" y="119.5332">type</text><text fill="#000000" font-family="sans-serif" font-size="14" lengthAdjust="spacing" textLength="35" x="1190" y="119.5332">string</text><line style="stroke:#000000;stroke-width:1.0;" x1="1185" x2="1185" y1="103" y2="124.6094"/><rect fill="none" height="21.6094" rx="5" ry="5" style="stroke:#000000;stroke-width:1.5;" width="85" x="1145" y="103"/><rect fill="#F1F1F1" height="21.6094" rx="5" ry="5" style="stroke:#F1F1F1;stroke-width:1.5;" width="85" x="1145" y="143"/><text fill="#000000" font-family="sans-serif" font-size="14" font-weight="bold" lengthAdjust="spacing" textLength="30" x="1150" y="159.5332">type</text><text fill="#000000" font-family="sans-serif" font-size="14" lengthAdjust="spacing" textLength="35" x="1190" y="159.5332">string</text><line style="stroke:#000000;stroke-width:1.0;" x1="1185" x2="1185" y1="143" y2="164.6094"/><rect fill="none" height="21.6094" rx="5" ry="5" style="stroke:#000000;stroke-width:1.5;" width="85" x="1145" y="143"/><rect fill="#F1F1F1" height="21.6094" rx="5" ry="5" style="stroke:#F1F1F1;stroke-width:1.5;" width="85" x="1145" y="183"/><text fill="#000000" font-family="sans-serif" font-size="14" font-weight="bold" lengthAdjust="spacing" textLength="30" x="1150" y="199.5332">type</text><text fill="#000000" font-family="sans-serif" font-size="14" lengthAdjust="spacing" textLength="35" x="1190" y="199.5332">string</text><line style="stroke:#000000;stroke-width:1.0;" x1="1185" x2="1185" y1="183" y2="204.6094"/><rect fill="none" height="21.6094" rx="5" ry="5" style="stroke:#000000;stroke-width:1.5;" width="85" x="1145" y="183"/><rect fill="#F1F1F1" height="21.6094" rx="5" ry="5" style="stroke:#F1F1F1;stroke-width:1.5;" width="85" x="1145" y="223"/><text fill="#000000" font-family="sans-serif" font-size="14" font-weight="bold" lengthAdjust="spacing" textLength="30" x="1150" y="239.5332">type</text><text fill="#000000" font-family="sans-serif" font-size="14" lengthAdjust="spacing" textLength="35" x="1190" y="239.5332">string</text><line style="stroke:#000000;stroke-width:1.0;" x1="1185" x2="1185" y1="223" y2="244.6094"/><rect fill="none" height="21.6094" rx="5" ry="5" style="stroke:#000000;stroke-width:1.5;" width="85" x="1145" y="223"/><rect fill="#F1F1F1" height="43.2188" rx="5" ry="5" style="stroke:#F1F1F1;stroke-width:1.5;" width="90" x="332" y="172.5"/><text fill="#000000" font-family="sans-serif" font-size="14" font-weight="bold" lengthAdjust="spacing" textLength="30" x="337" y="189.0332">type</text><text fill="#000000" font-family="sans-serif" font-size="14" lengthAdjust="spacing" textLength="33" x="384" y="189.0332">array</text><line style="stroke:#000000;stroke-width:1.0;" x1="379" x2="379" y1="172.5" y2="194.1094"/><line style="stroke:#000000;stroke-width:1.0;" x1="332" x2="422" y1="194.1094" y2="194.1094"/><text fill="#000000" font-family="sans-serif" font-size="14" font-weight="bold" lengthAdjust="spacing" textLength="37" x="337" y="210.6426">items</text><text fill="#000000" font-family="sans-serif" font-size="14" lengthAdjust="spacing" textLength="12" x="384" y="210.6426">   </text><line style="stroke:#000000;stroke-width:1.0;" x1="379" x2="379" y1="194.1094" y2="215.7188"/><rect fill="none" height="43.2188" rx="5" ry="5" style="stroke:#000000;stroke-width:1.5;" width="90" x="332" y="172.5"/><rect fill="#F1F1F1" height="43.2188" rx="5" ry="5" style="stroke:#F1F1F1;stroke-width:1.5;" width="128" x="499.5" y="183.5"/><text fill="#000000" font-family="sans-serif" font-size="14" font-weight="bold" lengthAdjust="spacing" textLength="30" x="504.5" y="200.0332">type</text><text fill="#000000" font-family="sans-serif" font-size="14" lengthAdjust="spacing" textLength="38" x="584.5" y="200.0332">object</text><line style="stroke:#000000;stroke-width:1.0;" x1="579.5" x2="579.5" y1="183.5" y2="205.1094"/><line style="stroke:#000000;stroke-width:1.0;" x1="499.5" x2="627.5" y1="205.1094" y2="205.1094"/><text fill="#000000" font-family="sans-serif" font-size="14" font-weight="bold" lengthAdjust="spacing" textLength="70" x="504.5" y="221.6426">properties</text><text fill="#000000" font-family="sans-serif" font-size="14" lengthAdjust="spacing" textLength="12" x="584.5" y="221.6426">   </text><line style="stroke:#000000;stroke-width:1.0;" x1="579.5" x2="579.5" y1="205.1094" y2="226.7188"/><rect fill="none" height="43.2188" rx="5" ry="5" style="stroke:#000000;stroke-width:1.5;" width="128" x="499.5" y="183.5"/><rect fill="#F1F1F1" height="21.6094" rx="5" ry="5" style="stroke:#F1F1F1;stroke-width:1.5;" width="135" x="686" y="205"/><text fill="#000000" font-family="sans-serif" font-size="14" font-weight="bold" lengthAdjust="spacing" textLength="103" x="691" y="221.5332">deployGroupId</text><text fill="#000000" font-family="sans-serif" font-size="14" lengthAdjust="spacing" textLength="12" x="804" y="221.5332">   </text><line style="stroke:#000000;stroke-width:1.0;" x1="799" x2="799" y1="205" y2="226.6094"/><rect fill="none" height="21.6094" rx="5" ry="5" style="stroke:#000000;stroke-width:1.5;" width="135" x="686" y="205"/><rect fill="#F1F1F1" height="21.6094" rx="5" ry="5" style="stroke:#F1F1F1;stroke-width:1.5;" width="85" x="879.5" y="205"/><text fill="#000000" font-family="sans-serif" font-size="14" font-weight="bold" lengthAdjust="spacing" textLength="30" x="884.5" y="221.5332">type</text><text fill="#000000" font-family="sans-serif" font-size="14" lengthAdjust="spacing" textLength="35" x="924.5" y="221.5332">string</text><line style="stroke:#000000;stroke-width:1.0;" x1="919.5" x2="919.5" y1="205" y2="226.6094"/><rect fill="none" height="21.6094" rx="5" ry="5" style="stroke:#000000;stroke-width:1.5;" width="85" x="879.5" y="205"/><path d="M637,45 L650,45 C661.8046,45 687.7363,38.9451 710.6253,32.9179 " fill="none" style="stroke:#000000;stroke-width:1.0;stroke-dasharray:3.0,3.0;"/><path d="M711.4046,35.839 L712.8162,32.3334 L709.846,29.9967 L717.9281,30.9697 L711.4046,35.839 " fill="#000000" style="stroke:#000000;stroke-width:1.0;"/><ellipse cx="637" cy="45" fill="#000000" rx="3" ry="3" style="stroke:#000000;stroke-width:1.0;"/><path d="M637,66 L650,66 C666.0008,66 683.3834,65.3906 699.2327,64.5972 " fill="none" style="stroke:#000000;stroke-width:1.0;stroke-dasharray:3.0,3.0;"/><path d="M699.3936,67.6551 L701.526,64.4765 L699.0717,61.5394 L706.8773,64.1949 L699.3936,67.6551 " fill="#000000" style="stroke:#000000;stroke-width:1.0;"/><ellipse cx="637" cy="66" fill="#000000" rx="3" ry="3" style="stroke:#000000;stroke-width:1.0;"/><path d="M637,89 L650,89 C664.8707,89 680.8684,90.2493 695.7176,91.9418 " fill="none" style="stroke:#000000;stroke-width:1.0;stroke-dasharray:3.0,3.0;"/><path d="M695.3491,95.0012 L698.0121,92.2181 L696.086,88.8824 L703.366,92.8629 L695.3491,95.0012 " fill="#000000" style="stroke:#000000;stroke-width:1.0;"/><ellipse cx="637" cy="89" fill="#000000" rx="3" ry="3" style="stroke:#000000;stroke-width:1.0;"/><path d="M429,74 L442,74 C451.298,74 460.9911,73.7914 470.666,73.4463 " fill="none" style="stroke:#000000;stroke-width:1.0;stroke-dasharray:3.0,3.0;"/><path d="M470.7879,76.5452 L472.9902,73.3549 L470.5442,70.3474 L478.4133,73.1417 L470.7879,76.5452 " fill="#000000" style="stroke:#000000;stroke-width:1.0;"/><ellipse cx="429" cy="74" fill="#000000" rx="3" ry="3" style="stroke:#000000;stroke-width:1.0;"/><path d="M264,112 L277,112 C289.0406,112 313.0633,100.3058 334.4874,88.3432 " fill="none" style="stroke:#000000;stroke-width:1.0;stroke-dasharray:3.0,3.0;"/><path d="M335.9708,90.963 L336.4522,87.2307 L333.004,85.7235 L341.0367,84.6347 L335.9708,90.963 " fill="#000000" style="stroke:#000000;stroke-width:1.0;"/><ellipse cx="264" cy="112" fill="#000000" rx="3" ry="3" style="stroke:#000000;stroke-width:1.0;"/><path d="M1096,141 L1109,141 C1117.9652,141 1136.8004,134.5498 1153.7156,127.9548 " fill="none" style="stroke:#000000;stroke-width:1.0;stroke-dasharray:3.0,3.0;"/><path d="M1154.8424,130.7937 L1155.8448,127.1097 L1152.5888,125.1158 L1160.813,125.1378 L1154.8424,130.7937 " fill="#000000" style="stroke:#000000;stroke-width:1.0;"/><ellipse cx="1096" cy="141" fill="#000000" rx="3" ry="3" style="stroke:#000000;stroke-width:1.0;"/><path d="M1096,163 L1109,163 C1118.3578,163 1128.3058,162.3528 1137.8544,161.4056 " fill="none" style="stroke:#000000;stroke-width:1.0;stroke-dasharray:3.0,3.0;"/><path d="M1138.1814,164.4269 L1140.1205,161.1603 L1137.5275,158.3842 L1145.4078,160.5882 L1138.1814,164.4269 " fill="#000000" style="stroke:#000000;stroke-width:1.0;"/><ellipse cx="1096" cy="163" fill="#000000" rx="3" ry="3" style="stroke:#000000;stroke-width:1.0;"/><path d="M1096,185 L1109,185 C1118.3578,185 1128.3058,185.6472 1137.8544,186.5944 " fill="none" style="stroke:#000000;stroke-width:1.0;stroke-dasharray:3.0,3.0;"/><path d="M1137.5275,189.6158 L1140.1205,186.8397 L1138.1814,183.5731 L1145.4078,187.4118 L1137.5275,189.6158 " fill="#000000" style="stroke:#000000;stroke-width:1.0;"/><ellipse cx="1096" cy="185" fill="#000000" rx="3" ry="3" style="stroke:#000000;stroke-width:1.0;"/><path d="M1096,206 L1109,206 C1118.1902,206 1137.632,212.9727 1154.8053,219.959 " fill="none" style="stroke:#000000;stroke-width:1.0;stroke-dasharray:3.0,3.0;"/><path d="M1153.6155,222.8328 L1156.9607,220.8514 L1155.9952,217.0851 L1161.9899,222.9337 L1153.6155,222.8328 " fill="#000000" style="stroke:#000000;stroke-width:1.0;"/><ellipse cx="1096" cy="206" fill="#000000" rx="3" ry="3" style="stroke:#000000;stroke-width:1.0;"/><path d="M974,174 L987,174 C996.2961,174 1006.2155,174 1015.7553,174 " fill="none" style="stroke:#000000;stroke-width:1.0;stroke-dasharray:3.0,3.0;"/><path d="M1015.7553,177.0201 L1018.0204,174 L1015.7553,170.9799 L1023.3056,174 L1015.7553,177.0201 " fill="#000000" style="stroke:#000000;stroke-width:1.0;"/><ellipse cx="974" cy="174" fill="#000000" rx="3" ry="3" style="stroke:#000000;stroke-width:1.0;"/><path d="M787,163 L800,163 C816.463,163 834.1808,163 850.8581,163 " fill="none" style="stroke:#000000;stroke-width:1.0;stroke-dasharray:3.0,3.0;"/><path d="M850.8581,166.0324 L853.1324,163 L850.8581,159.9676 L858.4392,163 L850.8581,166.0324 " fill="#000000" style="stroke:#000000;stroke-width:1.0;"/><ellipse cx="787" cy="163" fill="#000000" rx="3" ry="3" style="stroke:#000000;stroke-width:1.0;"/><path d="M573,147 L586,147 C624.5344,147 668.048,148.3465 700.9955,149.642 " fill="none" style="stroke:#000000;stroke-width:1.0;stroke-dasharray:3.0,3.0;"/><path d="M700.8715,152.7269 L703.3092,149.735 L701.1194,146.5571 L708.7078,149.9519 L700.8715,152.7269 " fill="#000000" style="stroke:#000000;stroke-width:1.0;"/><ellipse cx="573" cy="147" fill="#000000" rx="3" ry="3" style="stroke:#000000;stroke-width:1.0;"/><path d="M429,144 L442,144 C474.0446,144 510.8482,145.0645 535.3702,145.9253 " fill="none" style="stroke:#000000;stroke-width:1.0;stroke-dasharray:3.0,3.0;"/><path d="M535.2619,148.9288 L537.6227,146.0066 L535.4784,142.9219 L542.8787,146.1961 L535.2619,148.9288 " fill="#000000" style="stroke:#000000;stroke-width:1.0;"/><ellipse cx="429" cy="144" fill="#000000" rx="3" ry="3" style="stroke:#000000;stroke-width:1.0;"/><path d="M264,133 L277,133 C286.2687,133 296.0232,133 305.6525,133 " fill="none" style="stroke:#000000;stroke-width:1.0;stroke-dasharray:3.0,3.0;"/><path d="M305.6525,136.0736 L307.9577,133 L305.6525,129.9264 L313.3365,133 L305.6525,136.0736 " fill="#000000" style="stroke:#000000;stroke-width:1.0;"/><ellipse cx="264" cy="133" fill="#000000" rx="3" ry="3" style="stroke:#000000;stroke-width:1.0;"/><path d="M809,216 L822,216 C838.3296,216 856.1667,216 872.1714,216 " fill="none" style="stroke:#000000;stroke-width:1.0;stroke-dasharray:3.0,3.0;"/><path d="M872.1714,219.078 L874.4798,216 L872.1714,212.922 L879.8663,216 L872.1714,219.078 " fill="#000000" style="stroke:#000000;stroke-width:1.0;"/><ellipse cx="809" cy="216" fill="#000000" rx="3" ry="3" style="stroke:#000000;stroke-width:1.0;"/><path d="M616,216 L629,216 C645.0029,216 662.1675,216 678.4698,216 " fill="none" style="stroke:#000000;stroke-width:1.0;stroke-dasharray:3.0,3.0;"/><path d="M678.4698,219.1699 L680.8472,216 L678.4698,212.8301 L686.3946,216 L678.4698,219.1699 " fill="#000000" style="stroke:#000000;stroke-width:1.0;"/><ellipse cx="616" cy="216" fill="#000000" rx="3" ry="3" style="stroke:#000000;stroke-width:1.0;"/><path d="M410.5,205 L423.5,205 C445.8144,205 470.1365,205 492.1307,205 " fill="none" style="stroke:#000000;stroke-width:1.0;stroke-dasharray:3.0,3.0;"/><path d="M492.1307,208.0702 L494.4333,205 L492.1307,201.9298 L499.8061,205 L492.1307,208.0702 " fill="#000000" style="stroke:#000000;stroke-width:1.0;"/><ellipse cx="410.5" cy="205" fill="#000000" rx="3" ry="3" style="stroke:#000000;stroke-width:1.0;"/><path d="M264,156 L277,156 C287.0048,156 306.3296,162.7896 325.3078,170.6289 " fill="none" style="stroke:#000000;stroke-width:1.0;stroke-dasharray:3.0,3.0;"/><path d="M324.1378,173.4123 L327.3953,171.5065 L326.4778,167.8456 L332.2662,173.554 L324.1378,173.4123 " fill="#000000" style="stroke:#000000;stroke-width:1.0;"/><ellipse cx="264" cy="156" fill="#000000" rx="3" ry="3" style="stroke:#000000;stroke-width:1.0;"/><path d="M126,134 L139,134 C148.3071,134 158.1808,134 167.7933,134 " fill="none" style="stroke:#000000;stroke-width:1.0;stroke-dasharray:3.0,3.0;"/><path d="M167.7933,137.0549 L170.0844,134 L167.7933,130.9451 L175.4305,134 L167.7933,137.0549 " fill="#000000" style="stroke:#000000;stroke-width:1.0;"/><ellipse cx="126" cy="134" fill="#000000" rx="3" ry="3" style="stroke:#000000;stroke-width:1.0;"/></g></svg>