<?xml version="1.0" encoding="UTF-8" standalone="no"?><svg xmlns="http://www.w3.org/2000/svg" xmlns:xlink="http://www.w3.org/1999/xlink" contentStyleType="text/css" height="236px" preserveAspectRatio="none" style="width:740px;height:236px;background:#FFFFFF;" version="1.1" viewBox="0 0 740 236" width="740px" zoomAndPan="magnify"><defs/><g><rect fill="#F1F1F1" height="81.1875" rx="5" ry="5" style="stroke:#F1F1F1;stroke-width:1.5;" width="110" x="10" y="36.5"/><text fill="#000000" font-family="sans-serif" font-size="14" font-weight="bold" lengthAdjust="spacing" textLength="78" x="15" y="51.4951">ipDaemon</text><text fill="#000000" font-family="sans-serif" font-size="14" lengthAdjust="spacing" textLength="12" x="103" y="51.4951">   </text><line style="stroke:#000000;stroke-width:1.0;" x1="98" x2="98" y1="36.5" y2="56.7969"/><line style="stroke:#000000;stroke-width:1.0;" x1="10" x2="120" y1="56.7969" y2="56.7969"/><text fill="#000000" font-family="sans-serif" font-size="14" font-weight="bold" lengthAdjust="spacing" textLength="62" x="15" y="71.792">records</text><text fill="#000000" font-family="sans-serif" font-size="14" lengthAdjust="spacing" textLength="12" x="103" y="71.792">   </text><line style="stroke:#000000;stroke-width:1.0;" x1="98" x2="98" y1="56.7969" y2="77.0938"/><line style="stroke:#000000;stroke-width:1.0;" x1="10" x2="120" y1="77.0938" y2="77.0938"/><text fill="#000000" font-family="sans-serif" font-size="14" font-weight="bold" lengthAdjust="spacing" textLength="66" x="15" y="92.0889">backups</text><text fill="#000000" font-family="sans-serif" font-size="14" lengthAdjust="spacing" textLength="12" x="103" y="92.0889">   </text><line style="stroke:#000000;stroke-width:1.0;" x1="98" x2="98" y1="77.0938" y2="97.3906"/><line style="stroke:#000000;stroke-width:1.0;" x1="10" x2="120" y1="97.3906" y2="97.3906"/><text fill="#000000" font-family="sans-serif" font-size="14" font-weight="bold" lengthAdjust="spacing" textLength="33" x="15" y="112.3857">jobs</text><text fill="#000000" font-family="sans-serif" font-size="14" lengthAdjust="spacing" textLength="12" x="103" y="112.3857">   </text><line style="stroke:#000000;stroke-width:1.0;" x1="98" x2="98" y1="97.3906" y2="117.6875"/><rect fill="none" height="81.1875" rx="5" ry="5" style="stroke:#000000;stroke-width:1.5;" width="110" x="10" y="36.5"/><rect fill="#F1F1F1" height="20.2969" rx="5" ry="5" style="stroke:#F1F1F1;stroke-width:1.5;" width="45" x="183.5" y="10"/><text fill="#000000" font-family="sans-serif" font-size="14" font-weight="bold" lengthAdjust="spacing" textLength="14" x="188.5" y="24.9951">ip</text><text fill="#000000" font-family="sans-serif" font-size="14" lengthAdjust="spacing" textLength="11" x="212.5" y="24.9951">␀</text><line style="stroke:#000000;stroke-width:1.0;" x1="207.5" x2="207.5" y1="10" y2="30.2969"/><rect fill="none" height="20.2969" rx="5" ry="5" style="stroke:#000000;stroke-width:1.5;" width="45" x="183.5" y="10"/><rect fill="#F1F1F1" height="20.2969" rx="5" ry="5" style="stroke:#F1F1F1;stroke-width:1.5;" width="43" x="184.5" y="48"/><text fill="#000000" font-family="sans-serif" font-size="14" font-weight="bold" lengthAdjust="spacing" textLength="11" x="189.5" y="62.9951">A</text><text fill="#000000" font-family="sans-serif" font-size="14" lengthAdjust="spacing" textLength="12" x="210.5" y="62.9951">   </text><line style="stroke:#000000;stroke-width:1.0;" x1="205.5" x2="205.5" y1="48" y2="68.2969"/><rect fill="none" height="20.2969" rx="5" ry="5" style="stroke:#000000;stroke-width:1.5;" width="43" x="184.5" y="48"/><rect fill="#F1F1F1" height="20.2969" rx="5" ry="5" style="stroke:#F1F1F1;stroke-width:1.5;" width="22" x="394.5" y="48"/><text fill="#000000" font-family="sans-serif" font-size="14" lengthAdjust="spacing" textLength="12" x="399.5" y="62.9951">   </text><rect fill="none" height="20.2969" rx="5" ry="5" style="stroke:#000000;stroke-width:1.5;" width="22" x="394.5" y="48"/><rect fill="#F1F1F1" height="81.1875" rx="5" ry="5" style="stroke:#F1F1F1;stroke-width:1.5;" width="170" x="558" y="17.5"/><text fill="#000000" font-family="sans-serif" font-size="14" font-weight="bold" lengthAdjust="spacing" textLength="35" x="563" y="32.4951">host</text><text fill="#000000" font-family="sans-serif" font-size="14" lengthAdjust="spacing" textLength="92" x="631" y="32.4951">example.com</text><line style="stroke:#000000;stroke-width:1.0;" x1="626" x2="626" y1="17.5" y2="37.7969"/><line style="stroke:#000000;stroke-width:1.0;" x1="558" x2="728" y1="37.7969" y2="37.7969"/><text fill="#000000" font-family="sans-serif" font-size="14" font-weight="bold" lengthAdjust="spacing" textLength="29" x="563" y="52.792">dns</text><text fill="#000000" font-family="sans-serif" font-size="14" lengthAdjust="spacing" textLength="82" x="631" y="52.792">dondominio</text><line style="stroke:#000000;stroke-width:1.0;" x1="626" x2="626" y1="37.7969" y2="58.0938"/><line style="stroke:#000000;stroke-width:1.0;" x1="558" x2="728" y1="58.0938" y2="58.0938"/><text fill="#000000" font-family="sans-serif" font-size="14" font-weight="bold" lengthAdjust="spacing" textLength="58" x="563" y="73.0889">api_key</text><text fill="#000000" font-family="sans-serif" font-size="14" lengthAdjust="spacing" textLength="21" x="631" y="73.0889">???</text><line style="stroke:#000000;stroke-width:1.0;" x1="626" x2="626" y1="58.0938" y2="78.3906"/><line style="stroke:#000000;stroke-width:1.0;" x1="558" x2="728" y1="78.3906" y2="78.3906"/><text fill="#000000" font-family="sans-serif" font-size="14" font-weight="bold" lengthAdjust="spacing" textLength="36" x="563" y="93.3857">user</text><text fill="#000000" font-family="sans-serif" font-size="14" lengthAdjust="spacing" textLength="21" x="631" y="93.3857">???</text><line style="stroke:#000000;stroke-width:1.0;" x1="626" x2="626" y1="78.3906" y2="98.6875"/><rect fill="none" height="81.1875" rx="5" ry="5" style="stroke:#000000;stroke-width:1.5;" width="170" x="558" y="17.5"/><rect fill="#F1F1F1" height="20.2969" rx="5" ry="5" style="stroke:#F1F1F1;stroke-width:1.5;" width="22" x="194" y="86"/><text fill="#000000" font-family="sans-serif" font-size="14" lengthAdjust="spacing" textLength="12" x="199" y="100.9951">   </text><rect fill="none" height="20.2969" rx="5" ry="5" style="stroke:#000000;stroke-width:1.5;" width="22" x="194" y="86"/><rect fill="#F1F1F1" height="20.2969" rx="5" ry="5" style="stroke:#F1F1F1;stroke-width:1.5;" width="229" x="292" y="86"/><text fill="#000000" font-family="sans-serif" font-size="14" font-weight="bold" lengthAdjust="spacing" textLength="116" x="297" y="100.9951">deployGroupId</text><text fill="#000000" font-family="sans-serif" font-size="14" lengthAdjust="spacing" textLength="93" x="423" y="100.9951">default-group</text><line style="stroke:#000000;stroke-width:1.0;" x1="418" x2="418" y1="86" y2="106.2969"/><rect fill="none" height="20.2969" rx="5" ry="5" style="stroke:#000000;stroke-width:1.5;" width="229" x="292" y="86"/><rect fill="#F1F1F1" height="40.5938" rx="5" ry="5" style="stroke:#F1F1F1;stroke-width:1.5;" width="98" x="157" y="135.5"/><text fill="#000000" font-family="sans-serif" font-size="14" font-weight="bold" lengthAdjust="spacing" textLength="29" x="162" y="150.4951">dns</text><text fill="#000000" font-family="sans-serif" font-size="14" lengthAdjust="spacing" textLength="12" x="238" y="150.4951">   </text><line style="stroke:#000000;stroke-width:1.0;" x1="233" x2="233" y1="135.5" y2="155.7969"/><line style="stroke:#000000;stroke-width:1.0;" x1="157" x2="255" y1="155.7969" y2="155.7969"/><text fill="#000000" font-family="sans-serif" font-size="14" font-weight="bold" lengthAdjust="spacing" textLength="66" x="162" y="170.792">backups</text><text fill="#000000" font-family="sans-serif" font-size="14" lengthAdjust="spacing" textLength="12" x="238" y="170.792">   </text><line style="stroke:#000000;stroke-width:1.0;" x1="233" x2="233" y1="155.7969" y2="176.0938"/><rect fill="none" height="40.5938" rx="5" ry="5" style="stroke:#000000;stroke-width:1.5;" width="98" x="157" y="135.5"/><rect fill="#F1F1F1" height="40.5938" rx="5" ry="5" style="stroke:#F1F1F1;stroke-width:1.5;" width="159" x="327" y="124.5"/><text fill="#000000" font-family="sans-serif" font-size="14" font-weight="bold" lengthAdjust="spacing" textLength="88" x="332" y="139.4951">expression</text><text fill="#000000" font-family="sans-serif" font-size="14" lengthAdjust="spacing" textLength="51" x="430" y="139.4951">* * * * *</text><line style="stroke:#000000;stroke-width:1.0;" x1="425" x2="425" y1="124.5" y2="144.7969"/><line style="stroke:#000000;stroke-width:1.0;" x1="327" x2="486" y1="144.7969" y2="144.7969"/><text fill="#000000" font-family="sans-serif" font-size="14" font-weight="bold" lengthAdjust="spacing" textLength="63" x="332" y="159.792">enabled</text><text fill="#000000" font-family="sans-serif" font-size="14" lengthAdjust="spacing" textLength="45" x="430" y="159.792">☑ true</text><line style="stroke:#000000;stroke-width:1.0;" x1="425" x2="425" y1="144.7969" y2="165.0938"/><rect fill="none" height="40.5938" rx="5" ry="5" style="stroke:#000000;stroke-width:1.5;" width="159" x="327" y="124.5"/><rect fill="#F1F1F1" height="40.5938" rx="5" ry="5" style="stroke:#F1F1F1;stroke-width:1.5;" width="163" x="325" y="183.5"/><text fill="#000000" font-family="sans-serif" font-size="14" font-weight="bold" lengthAdjust="spacing" textLength="88" x="330" y="198.4951">expression</text><text fill="#000000" font-family="sans-serif" font-size="14" lengthAdjust="spacing" textLength="55" x="428" y="198.4951">0 1 * * *</text><line style="stroke:#000000;stroke-width:1.0;" x1="423" x2="423" y1="183.5" y2="203.7969"/><line style="stroke:#000000;stroke-width:1.0;" x1="325" x2="488" y1="203.7969" y2="203.7969"/><text fill="#000000" font-family="sans-serif" font-size="14" font-weight="bold" lengthAdjust="spacing" textLength="63" x="330" y="218.792">enabled</text><text fill="#000000" font-family="sans-serif" font-size="14" lengthAdjust="spacing" textLength="45" x="428" y="218.792">☑ true</text><line style="stroke:#000000;stroke-width:1.0;" x1="423" x2="423" y1="203.7969" y2="224.0938"/><rect fill="none" height="40.5938" rx="5" ry="5" style="stroke:#000000;stroke-width:1.5;" width="163" x="325" y="183.5"/><path d="M108,46 L121,46 C131.9361,46 156.8794,37.9439 176.8475,30.8005 " fill="none" style="stroke:#000000;stroke-width:1.0;stroke-dasharray:3.0,3.0;"/><path d="M177.8771,33.639 L178.9764,30.0283 L175.818,27.9619 L183.9439,28.2266 L177.8771,33.639 " fill="#000000" style="stroke:#000000;stroke-width:1.0;"/><ellipse cx="108" cy="46" fill="#000000" rx="3" ry="3" style="stroke:#000000;stroke-width:1.0;"/><path d="M406.0022,58 L419.0022,58 C443.2968,58 500.2712,58 550.6116,58 " fill="none" style="stroke:#000000;stroke-width:1.0;stroke-dasharray:3.0,3.0;"/><path d="M550.6116,61.0779 L552.9201,58 L550.6116,54.9221 L558.3065,58 L550.6116,61.0779 " fill="#000000" style="stroke:#000000;stroke-width:1.0;"/><ellipse cx="406.0022" cy="58" fill="#000000" rx="3" ry="3" style="stroke:#000000;stroke-width:1.0;"/><path d="M216.5,58 L229.5,58 C286.8826,58 354.7592,58 387.0714,58 " fill="none" style="stroke:#000000;stroke-width:1.0;stroke-dasharray:3.0,3.0;"/><path d="M387.0714,61.111 L389.4046,58 L387.0714,54.889 L394.8489,58 L387.0714,61.111 " fill="#000000" style="stroke:#000000;stroke-width:1.0;"/><ellipse cx="216.5" cy="58" fill="#000000" rx="3" ry="3" style="stroke:#000000;stroke-width:1.0;"/><path d="M108,66 L121,66 C139.742,66 160.7186,64.0253 177.0833,62.0381 " fill="none" style="stroke:#000000;stroke-width:1.0;stroke-dasharray:3.0,3.0;"/><path d="M177.4704,65.0913 L179.3732,61.7477 L176.6961,58.9849 L184.7163,61.0701 L177.4704,65.0913 " fill="#000000" style="stroke:#000000;stroke-width:1.0;"/><ellipse cx="108" cy="66" fill="#000000" rx="3" ry="3" style="stroke:#000000;stroke-width:1.0;"/><path d="M205.6793,96 L218.6793,96 C232.753,96 257.4572,96 284.3978,96 " fill="none" style="stroke:#000000;stroke-width:1.0;stroke-dasharray:3.0,3.0;"/><path d="M284.3978,99.0604 L286.6931,96 L284.3978,92.9396 L292.0488,96 L284.3978,99.0604 " fill="#000000" style="stroke:#000000;stroke-width:1.0;"/><ellipse cx="205.6793" cy="96" fill="#000000" rx="3" ry="3" style="stroke:#000000;stroke-width:1.0;"/><path d="M108,87 L121,87 C143.6944,87 169.6255,90.2496 186.7092,92.8435 " fill="none" style="stroke:#000000;stroke-width:1.0;stroke-dasharray:3.0,3.0;"/><path d="M186.2278,95.8927 L188.9961,93.2046 L187.1907,89.7944 L194.3321,94.0471 L186.2278,95.8927 " fill="#000000" style="stroke:#000000;stroke-width:1.0;"/><ellipse cx="108" cy="87" fill="#000000" rx="3" ry="3" style="stroke:#000000;stroke-width:1.0;"/><path d="M243,145 L256,145 C276.6421,145 298.882,145 319.7514,145 " fill="none" style="stroke:#000000;stroke-width:1.0;stroke-dasharray:3.0,3.0;"/><path d="M319.7514,148.0485 L322.0377,145 L319.7514,141.9515 L327.3726,145 L319.7514,148.0485 " fill="#000000" style="stroke:#000000;stroke-width:1.0;"/><ellipse cx="243" cy="145" fill="#000000" rx="3" ry="3" style="stroke:#000000;stroke-width:1.0;"/><path d="M243,166 L256,166 C256.4722,166 285.4932,173.3375 317.8819,181.564 " fill="none" style="stroke:#000000;stroke-width:1.0;stroke-dasharray:3.0,3.0;"/><path d="M317.1303,184.5222 L320.1006,182.1277 L318.6335,178.6057 L325.2775,183.443 L317.1303,184.5222 " fill="#000000" style="stroke:#000000;stroke-width:1.0;"/><ellipse cx="243" cy="166" fill="#000000" rx="3" ry="3" style="stroke:#000000;stroke-width:1.0;"/><path d="M108,107 L121,107 C142.109,107 162.6681,118.5849 178.2213,130.4886 " fill="none" style="stroke:#000000;stroke-width:1.0;stroke-dasharray:3.0,3.0;"/><path d="M176.3289,132.8561 L179.9969,131.9079 L180.1137,128.1212 L184.14,135.2196 L176.3289,132.8561 " fill="#000000" style="stroke:#000000;stroke-width:1.0;"/><ellipse cx="108" cy="107" fill="#000000" rx="3" ry="3" style="stroke:#000000;stroke-width:1.0;"/></g></svg>