<?xml version="1.0" encoding="UTF-8" standalone="no"?><svg xmlns="http://www.w3.org/2000/svg" xmlns:xlink="http://www.w3.org/1999/xlink" contentStyleType="text/css" height="167px" preserveAspectRatio="none" style="width:805px;height:167px;background:#FFFFFF;" version="1.1" viewBox="0 0 805 167" width="805px" zoomAndPan="magnify"><defs/><g><rect fill="#F1F1F1" height="64.8281" rx="5" ry="5" style="stroke:#F1F1F1;stroke-width:1.5;" width="101" x="10" y="73"/><text fill="#000000" font-family="sans-serif" font-size="14" font-weight="bold" lengthAdjust="spacing" textLength="69" x="15" y="89.5332">ipDaemon</text><text fill="#000000" font-family="sans-serif" font-size="14" lengthAdjust="spacing" textLength="12" x="94" y="89.5332">   </text><line style="stroke:#000000;stroke-width:1.0;" x1="89" x2="89" y1="73" y2="94.6094"/><line style="stroke:#000000;stroke-width:1.0;" x1="10" x2="111" y1="94.6094" y2="94.6094"/><text fill="#000000" font-family="sans-serif" font-size="14" font-weight="bold" lengthAdjust="spacing" textLength="52" x="15" y="111.1426">records</text><text fill="#000000" font-family="sans-serif" font-size="14" lengthAdjust="spacing" textLength="12" x="94" y="111.1426">   </text><line style="stroke:#000000;stroke-width:1.0;" x1="89" x2="89" y1="94.6094" y2="116.2188"/><line style="stroke:#000000;stroke-width:1.0;" x1="10" x2="111" y1="116.2188" y2="116.2188"/><text fill="#000000" font-family="sans-serif" font-size="14" font-weight="bold" lengthAdjust="spacing" textLength="59" x="15" y="132.752">backups</text><text fill="#000000" font-family="sans-serif" font-size="14" lengthAdjust="spacing" textLength="12" x="94" y="132.752">   </text><line style="stroke:#000000;stroke-width:1.0;" x1="89" x2="89" y1="116.2188" y2="137.8281"/><rect fill="none" height="64.8281" rx="5" ry="5" style="stroke:#000000;stroke-width:1.5;" width="101" x="10" y="73"/><rect fill="#F1F1F1" height="64.8281" rx="5" ry="5" style="stroke:#F1F1F1;stroke-width:1.5;" width="205" x="148" y="10"/><text fill="#000000" font-family="sans-serif" font-size="14" font-weight="bold" lengthAdjust="spacing" textLength="13" x="153" y="26.5332">ip</text><text fill="#000000" font-family="sans-serif" font-size="14" lengthAdjust="spacing" textLength="8" x="302" y="26.5332">␀</text><line style="stroke:#000000;stroke-width:1.0;" x1="297" x2="297" y1="10" y2="31.6094"/><line style="stroke:#000000;stroke-width:1.0;" x1="148" x2="353" y1="31.6094" y2="31.6094"/><text fill="#000000" font-family="sans-serif" font-size="14" font-weight="bold" lengthAdjust="spacing" textLength="139" x="153" y="48.1426">minutesTimeInterval</text><text fill="#000000" font-family="sans-serif" font-size="14" lengthAdjust="spacing" textLength="8" x="302" y="48.1426">3</text><line style="stroke:#000000;stroke-width:1.0;" x1="297" x2="297" y1="31.6094" y2="53.2188"/><line style="stroke:#000000;stroke-width:1.0;" x1="148" x2="353" y1="53.2188" y2="53.2188"/><text fill="#000000" font-family="sans-serif" font-size="14" font-weight="bold" lengthAdjust="spacing" textLength="59" x="153" y="69.752">disabled</text><text fill="#000000" font-family="sans-serif" font-size="14" lengthAdjust="spacing" textLength="46" x="302" y="69.752">☐ false</text><line style="stroke:#000000;stroke-width:1.0;" x1="297" x2="297" y1="53.2188" y2="74.8281"/><rect fill="none" height="64.8281" rx="5" ry="5" style="stroke:#000000;stroke-width:1.5;" width="205" x="148" y="10"/><rect fill="#F1F1F1" height="21.6094" rx="5" ry="5" style="stroke:#F1F1F1;stroke-width:1.5;" width="42" x="229.5" y="93.5"/><text fill="#000000" font-family="sans-serif" font-size="14" font-weight="bold" lengthAdjust="spacing" textLength="10" x="234.5" y="110.0332">A</text><text fill="#000000" font-family="sans-serif" font-size="14" lengthAdjust="spacing" textLength="12" x="254.5" y="110.0332">   </text><line style="stroke:#000000;stroke-width:1.0;" x1="249.5" x2="249.5" y1="93.5" y2="115.1094"/><rect fill="none" height="21.6094" rx="5" ry="5" style="stroke:#000000;stroke-width:1.5;" width="42" x="229.5" y="93.5"/><rect fill="#F1F1F1" height="21.6094" rx="5" ry="5" style="stroke:#F1F1F1;stroke-width:1.5;" width="22" x="482" y="93.5"/><text fill="#000000" font-family="sans-serif" font-size="14" lengthAdjust="spacing" textLength="12" x="487" y="110.0332">   </text><rect fill="none" height="21.6094" rx="5" ry="5" style="stroke:#000000;stroke-width:1.5;" width="22" x="482" y="93.5"/><rect fill="#F1F1F1" height="86.4375" rx="5" ry="5" style="stroke:#F1F1F1;stroke-width:1.5;" width="158" x="635" y="61.5"/><text fill="#000000" font-family="sans-serif" font-size="14" font-weight="bold" lengthAdjust="spacing" textLength="31" x="640" y="78.0332">host</text><text fill="#000000" font-family="sans-serif" font-size="14" lengthAdjust="spacing" textLength="85" x="703" y="78.0332">example.com</text><line style="stroke:#000000;stroke-width:1.0;" x1="698" x2="698" y1="61.5" y2="83.1094"/><line style="stroke:#000000;stroke-width:1.0;" x1="635" x2="793" y1="83.1094" y2="83.1094"/><text fill="#000000" font-family="sans-serif" font-size="14" font-weight="bold" lengthAdjust="spacing" textLength="26" x="640" y="99.6426">dns</text><text fill="#000000" font-family="sans-serif" font-size="14" lengthAdjust="spacing" textLength="74" x="703" y="99.6426">dondominio</text><line style="stroke:#000000;stroke-width:1.0;" x1="698" x2="698" y1="83.1094" y2="104.7188"/><line style="stroke:#000000;stroke-width:1.0;" x1="635" x2="793" y1="104.7188" y2="104.7188"/><text fill="#000000" font-family="sans-serif" font-size="14" font-weight="bold" lengthAdjust="spacing" textLength="53" x="640" y="121.252">api_key</text><text fill="#000000" font-family="sans-serif" font-size="14" lengthAdjust="spacing" textLength="24" x="703" y="121.252">???</text><line style="stroke:#000000;stroke-width:1.0;" x1="698" x2="698" y1="104.7188" y2="126.3281"/><line style="stroke:#000000;stroke-width:1.0;" x1="635" x2="793" y1="126.3281" y2="126.3281"/><text fill="#000000" font-family="sans-serif" font-size="14" font-weight="bold" lengthAdjust="spacing" textLength="30" x="640" y="142.8613">user</text><text fill="#000000" font-family="sans-serif" font-size="14" lengthAdjust="spacing" textLength="24" x="703" y="142.8613">???</text><line style="stroke:#000000;stroke-width:1.0;" x1="698" x2="698" y1="126.3281" y2="147.9375"/><rect fill="none" height="86.4375" rx="5" ry="5" style="stroke:#000000;stroke-width:1.5;" width="158" x="635" y="61.5"/><rect fill="#F1F1F1" height="21.6094" rx="5" ry="5" style="stroke:#F1F1F1;stroke-width:1.5;" width="22" x="238.5" y="133.5"/><text fill="#000000" font-family="sans-serif" font-size="14" lengthAdjust="spacing" textLength="12" x="243.5" y="150.0332">   </text><rect fill="none" height="21.6094" rx="5" ry="5" style="stroke:#000000;stroke-width:1.5;" width="22" x="238.5" y="133.5"/><rect fill="#F1F1F1" height="21.6094" rx="5" ry="5" style="stroke:#F1F1F1;stroke-width:1.5;" width="208" x="390" y="133.5"/><text fill="#000000" font-family="sans-serif" font-size="14" font-weight="bold" lengthAdjust="spacing" textLength="103" x="395" y="150.0332">deployGroupId</text><text fill="#000000" font-family="sans-serif" font-size="14" lengthAdjust="spacing" textLength="85" x="508" y="150.0332">default-group</text><line style="stroke:#000000;stroke-width:1.0;" x1="503" x2="503" y1="133.5" y2="155.1094"/><rect fill="none" height="21.6094" rx="5" ry="5" style="stroke:#000000;stroke-width:1.5;" width="208" x="390" y="133.5"/><path d="M99,83.5 L112,83.5 C128.2555,83.5 145.1586,80.8536 161.331,76.9055 " fill="none" style="stroke:#000000;stroke-width:1.0;stroke-dasharray:3.0,3.0;"/><path d="M162.0913,79.8552 L163.5433,76.3353 L160.5707,73.9558 L168.7052,75.0048 L162.0913,79.8552 " fill="#000000" style="stroke:#000000;stroke-width:1.0;"/><ellipse cx="99" cy="83.5" fill="#000000" rx="3" ry="3" style="stroke:#000000;stroke-width:1.0;"/><path d="M493.5863,104.5 L506.5863,104.5 C529.6054,104.5 581.557,104.5 627.6417,104.5 " fill="none" style="stroke:#000000;stroke-width:1.0;stroke-dasharray:3.0,3.0;"/><path d="M627.6417,107.5544 L629.9326,104.5 L627.6417,101.4456 L635.2778,104.5 L627.6417,107.5544 " fill="#000000" style="stroke:#000000;stroke-width:1.0;"/><ellipse cx="493.5863" cy="104.5" fill="#000000" rx="3" ry="3" style="stroke:#000000;stroke-width:1.0;"/><path d="M260,104.5 L273,104.5 C347.7382,104.5 436.7258,104.5 474.7601,104.5 " fill="none" style="stroke:#000000;stroke-width:1.0;stroke-dasharray:3.0,3.0;"/><path d="M474.7601,107.5908 L477.0782,104.5 L474.7601,101.4092 L482.4872,104.5 L474.7601,107.5908 " fill="#000000" style="stroke:#000000;stroke-width:1.0;"/><ellipse cx="260" cy="104.5" fill="#000000" rx="3" ry="3" style="stroke:#000000;stroke-width:1.0;"/><path d="M99,104.5 L112,104.5 C150.1602,104.5 194.256,104.5 222.1294,104.5 " fill="none" style="stroke:#000000;stroke-width:1.0;stroke-dasharray:3.0,3.0;"/><path d="M222.1294,107.6035 L224.4571,104.5 L222.1294,101.3965 L229.8883,104.5 L222.1294,107.6035 " fill="#000000" style="stroke:#000000;stroke-width:1.0;"/><ellipse cx="99" cy="104.5" fill="#000000" rx="3" ry="3" style="stroke:#000000;stroke-width:1.0;"/><path d="M250.0256,144.5 L263.0256,144.5 C285.2964,144.5 335.0384,144.5 382.6314,144.5 " fill="none" style="stroke:#000000;stroke-width:1.0;stroke-dasharray:3.0,3.0;"/><path d="M382.6314,147.5462 L384.916,144.5 L382.6314,141.4538 L390.2468,144.5 L382.6314,147.5462 " fill="#000000" style="stroke:#000000;stroke-width:1.0;"/><ellipse cx="250.0256" cy="144.5" fill="#000000" rx="3" ry="3" style="stroke:#000000;stroke-width:1.0;"/><path d="M99,127.5 L112,127.5 C155.0964,127.5 205.1993,135.7679 231.5762,140.7719 " fill="none" style="stroke:#000000;stroke-width:1.0;stroke-dasharray:3.0,3.0;"/><path d="M231.0021,143.728 L233.7933,141.2025 L232.1504,137.8158 L238.9664,142.2073 L231.0021,143.728 " fill="#000000" style="stroke:#000000;stroke-width:1.0;"/><ellipse cx="99" cy="127.5" fill="#000000" rx="3" ry="3" style="stroke:#000000;stroke-width:1.0;"/></g></svg>