<?xml version="1.0" encoding="UTF-8" standalone="no"?><svg xmlns="http://www.w3.org/2000/svg" xmlns:xlink="http://www.w3.org/1999/xlink" contentStyleType="text/css" height="159px" preserveAspectRatio="none" style="width:623px;height:159px;background:#FFFFFF;" version="1.1" viewBox="0 0 623 159" width="623px" zoomAndPan="magnify"><defs/><g><rect fill="#F1F1F1" height="43.2188" rx="5" ry="5" style="stroke:#F1F1F1;stroke-width:1.5;" width="102" x="10" y="52"/><text fill="#000000" font-family="sans-serif" font-size="14" font-weight="bold" lengthAdjust="spacing" textLength="70" x="15" y="68.5332">ipDaemon</text><text fill="#000000" font-family="sans-serif" font-size="14" lengthAdjust="spacing" textLength="12" x="95" y="68.5332">   </text><line style="stroke:#000000;stroke-width:1.0;" x1="90" x2="90" y1="52" y2="73.6094"/><line style="stroke:#000000;stroke-width:1.0;" x1="10" x2="112" y1="73.6094" y2="73.6094"/><text fill="#000000" font-family="sans-serif" font-size="14" font-weight="bold" lengthAdjust="spacing" textLength="55" x="15" y="90.1426">records</text><text fill="#000000" font-family="sans-serif" font-size="14" lengthAdjust="spacing" textLength="12" x="95" y="90.1426">   </text><line style="stroke:#000000;stroke-width:1.0;" x1="90" x2="90" y1="73.6094" y2="95.2188"/><rect fill="none" height="43.2188" rx="5" ry="5" style="stroke:#000000;stroke-width:1.5;" width="102" x="10" y="52"/><rect fill="#F1F1F1" height="64.8281" rx="5" ry="5" style="stroke:#F1F1F1;stroke-width:1.5;" width="209" x="149" y="10"/><text fill="#000000" font-family="sans-serif" font-size="14" font-weight="bold" lengthAdjust="spacing" textLength="13" x="154" y="26.5332">ip</text><text fill="#000000" font-family="sans-serif" font-size="14" lengthAdjust="spacing" textLength="8" x="307" y="26.5332">␀</text><line style="stroke:#000000;stroke-width:1.0;" x1="302" x2="302" y1="10" y2="31.6094"/><line style="stroke:#000000;stroke-width:1.0;" x1="149" x2="358" y1="31.6094" y2="31.6094"/><text fill="#000000" font-family="sans-serif" font-size="14" font-weight="bold" lengthAdjust="spacing" textLength="143" x="154" y="48.1426">minutesTimeInterval</text><text fill="#000000" font-family="sans-serif" font-size="14" lengthAdjust="spacing" textLength="8" x="307" y="48.1426">3</text><line style="stroke:#000000;stroke-width:1.0;" x1="302" x2="302" y1="31.6094" y2="53.2188"/><line style="stroke:#000000;stroke-width:1.0;" x1="149" x2="358" y1="53.2188" y2="53.2188"/><text fill="#000000" font-family="sans-serif" font-size="14" font-weight="bold" lengthAdjust="spacing" textLength="60" x="154" y="69.752">disabled</text><text fill="#000000" font-family="sans-serif" font-size="14" lengthAdjust="spacing" textLength="46" x="307" y="69.752">☐ false</text><line style="stroke:#000000;stroke-width:1.0;" x1="302" x2="302" y1="53.2188" y2="74.8281"/><rect fill="none" height="64.8281" rx="5" ry="5" style="stroke:#000000;stroke-width:1.5;" width="209" x="149" y="10"/><rect fill="#F1F1F1" height="21.6094" rx="5" ry="5" style="stroke:#F1F1F1;stroke-width:1.5;" width="41" x="233" y="93.5"/><text fill="#000000" font-family="sans-serif" font-size="14" font-weight="bold" lengthAdjust="spacing" textLength="9" x="238" y="110.0332">A</text><text fill="#000000" font-family="sans-serif" font-size="14" lengthAdjust="spacing" textLength="12" x="257" y="110.0332">   </text><line style="stroke:#000000;stroke-width:1.0;" x1="252" x2="252" y1="93.5" y2="115.1094"/><rect fill="none" height="21.6094" rx="5" ry="5" style="stroke:#000000;stroke-width:1.5;" width="41" x="233" y="93.5"/><rect fill="#F1F1F1" height="21.6094" rx="5" ry="5" style="stroke:#F1F1F1;stroke-width:1.5;" width="22" x="395" y="93.5"/><text fill="#000000" font-family="sans-serif" font-size="14" lengthAdjust="spacing" textLength="12" x="400" y="110.0332">   </text><rect fill="none" height="21.6094" rx="5" ry="5" style="stroke:#000000;stroke-width:1.5;" width="22" x="395" y="93.5"/><rect fill="#F1F1F1" height="86.4375" rx="5" ry="5" style="stroke:#F1F1F1;stroke-width:1.5;" width="155" x="456" y="61.5"/><text fill="#000000" font-family="sans-serif" font-size="14" font-weight="bold" lengthAdjust="spacing" textLength="31" x="461" y="78.0332">host</text><text fill="#000000" font-family="sans-serif" font-size="14" lengthAdjust="spacing" textLength="82" x="524" y="78.0332">example.com</text><line style="stroke:#000000;stroke-width:1.0;" x1="519" x2="519" y1="61.5" y2="83.1094"/><line style="stroke:#000000;stroke-width:1.0;" x1="456" x2="611" y1="83.1094" y2="83.1094"/><text fill="#000000" font-family="sans-serif" font-size="14" font-weight="bold" lengthAdjust="spacing" textLength="26" x="461" y="99.6426">dns</text><text fill="#000000" font-family="sans-serif" font-size="14" lengthAdjust="spacing" textLength="73" x="524" y="99.6426">dondominio</text><line style="stroke:#000000;stroke-width:1.0;" x1="519" x2="519" y1="83.1094" y2="104.7188"/><line style="stroke:#000000;stroke-width:1.0;" x1="456" x2="611" y1="104.7188" y2="104.7188"/><text fill="#000000" font-family="sans-serif" font-size="14" font-weight="bold" lengthAdjust="spacing" textLength="53" x="461" y="121.252">api_key</text><text fill="#000000" font-family="sans-serif" font-size="14" lengthAdjust="spacing" textLength="24" x="524" y="121.252">???</text><line style="stroke:#000000;stroke-width:1.0;" x1="519" x2="519" y1="104.7188" y2="126.3281"/><line style="stroke:#000000;stroke-width:1.0;" x1="456" x2="611" y1="126.3281" y2="126.3281"/><text fill="#000000" font-family="sans-serif" font-size="14" font-weight="bold" lengthAdjust="spacing" textLength="32" x="461" y="142.8613">user</text><text fill="#000000" font-family="sans-serif" font-size="14" lengthAdjust="spacing" textLength="24" x="524" y="142.8613">???</text><line style="stroke:#000000;stroke-width:1.0;" x1="519" x2="519" y1="126.3281" y2="147.9375"/><rect fill="none" height="86.4375" rx="5" ry="5" style="stroke:#000000;stroke-width:1.5;" width="155" x="456" y="61.5"/><path d="M100,62.5 L113,62.5 C122.2992,62.5 131.9112,62.0622 141.54,61.3162 " fill="none" style="stroke:#000000;stroke-width:1.0;stroke-dasharray:3.0,3.0;"/><path d="M141.8047,64.4042 L143.856,61.1176 L141.2752,58.2282 L149.26,60.6543 L141.8047,64.4042 " fill="#000000" style="stroke:#000000;stroke-width:1.0;"/><ellipse cx="100" cy="62.5" fill="#000000" rx="3" ry="3" style="stroke:#000000;stroke-width:1.0;"/><path d="M406.5335,104.5 L419.5335,104.5 C426.9818,104.5 437.2777,104.5 448.6519,104.5 " fill="none" style="stroke:#000000;stroke-width:1.0;stroke-dasharray:3.0,3.0;"/><path d="M448.6519,107.5444 L450.9352,104.5 L448.6519,101.4556 L456.263,104.5 L448.6519,107.5444 " fill="#000000" style="stroke:#000000;stroke-width:1.0;"/><ellipse cx="406.5335" cy="104.5" fill="#000000" rx="3" ry="3" style="stroke:#000000;stroke-width:1.0;"/><path d="M263,104.5 L276,104.5 C315.6927,104.5 362.1764,104.5 387.5663,104.5 " fill="none" style="stroke:#000000;stroke-width:1.0;stroke-dasharray:3.0,3.0;"/><path d="M387.5663,107.6046 L389.8947,104.5 L387.5663,101.3954 L395.3278,104.5 L387.5663,107.6046 " fill="#000000" style="stroke:#000000;stroke-width:1.0;"/><ellipse cx="263" cy="104.5" fill="#000000" rx="3" ry="3" style="stroke:#000000;stroke-width:1.0;"/><path d="M100,84.5 L113,84.5 C152.4985,84.5 197.6412,92.3982 225.7359,98.2678 " fill="none" style="stroke:#000000;stroke-width:1.0;stroke-dasharray:3.0,3.0;"/><path d="M225.0985,101.2491 L227.9718,98.7459 L226.3733,95.2865 L233.1891,99.8613 L225.0985,101.2491 " fill="#000000" style="stroke:#000000;stroke-width:1.0;"/><ellipse cx="100" cy="84.5" fill="#000000" rx="3" ry="3" style="stroke:#000000;stroke-width:1.0;"/></g></svg>