<?xml version="1.0" encoding="UTF-8" standalone="no"?><svg xmlns="http://www.w3.org/2000/svg" xmlns:xlink="http://www.w3.org/1999/xlink" contentStyleType="text/css" height="526px" preserveAspectRatio="none" style="width:1347px;height:526px;background:#FFFFFF;" version="1.1" viewBox="0 0 1347 526" width="1347px" zoomAndPan="magnify"><defs/><g><rect fill="#F1F1F1" height="40.5938" rx="5" ry="5" style="stroke:#F1F1F1;stroke-width:1.5;" width="165" x="10" y="324"/><text fill="#000000" font-family="sans-serif" font-size="14" font-weight="bold" lengthAdjust="spacing" textLength="86" x="15" y="338.9951">default.net</text><text fill="#000000" font-family="sans-serif" font-size="14" lengthAdjust="spacing" textLength="12" x="158" y="338.9951">   </text><line style="stroke:#000000;stroke-width:1.0;" x1="153" x2="153" y1="324" y2="344.2969"/><line style="stroke:#000000;stroke-width:1.0;" x1="10" x2="175" y1="344.2969" y2="344.2969"/><text fill="#000000" font-family="sans-serif" font-size="14" font-weight="bold" lengthAdjust="spacing" textLength="133" x="15" y="359.292">www.default.net</text><text fill="#000000" font-family="sans-serif" font-size="14" lengthAdjust="spacing" textLength="12" x="158" y="359.292">   </text><line style="stroke:#000000;stroke-width:1.0;" x1="153" x2="153" y1="344.2969" y2="364.5938"/><rect fill="none" height="40.5938" rx="5" ry="5" style="stroke:#000000;stroke-width:1.5;" width="165" x="10" y="324"/><rect fill="#F1F1F1" height="20.2969" rx="5" ry="5" style="stroke:#F1F1F1;stroke-width:1.5;" width="37" x="212" y="287.5"/><text fill="#000000" font-family="sans-serif" font-size="14" font-weight="bold" lengthAdjust="spacing" textLength="5" x="217" y="302.4951">/</text><text fill="#000000" font-family="sans-serif" font-size="14" lengthAdjust="spacing" textLength="12" x="232" y="302.4951">   </text><line style="stroke:#000000;stroke-width:1.0;" x1="227" x2="227" y1="287.5" y2="307.7969"/><rect fill="none" height="20.2969" rx="5" ry="5" style="stroke:#000000;stroke-width:1.5;" width="37" x="212" y="287.5"/><rect fill="#F1F1F1" height="263.8594" rx="5" ry="5" style="stroke:#F1F1F1;stroke-width:1.5;" width="154" x="286" y="55.5"/><text fill="#000000" font-family="sans-serif" font-size="14" font-weight="bold" lengthAdjust="spacing" textLength="43" x="291" y="70.4951">client</text><text fill="#000000" font-family="sans-serif" font-size="14" lengthAdjust="spacing" textLength="47" x="386" y="70.4951">default</text><line style="stroke:#000000;stroke-width:1.0;" x1="381" x2="381" y1="55.5" y2="75.7969"/><line style="stroke:#000000;stroke-width:1.0;" x1="286" x2="440" y1="75.7969" y2="75.7969"/><text fill="#000000" font-family="sans-serif" font-size="14" font-weight="bold" lengthAdjust="spacing" textLength="61" x="291" y="90.792">runtime</text><text fill="#000000" font-family="sans-serif" font-size="14" lengthAdjust="spacing" textLength="47" x="386" y="90.792">nodejs</text><line style="stroke:#000000;stroke-width:1.0;" x1="381" x2="381" y1="75.7969" y2="96.0938"/><line style="stroke:#000000;stroke-width:1.0;" x1="286" x2="440" y1="96.0938" y2="96.0938"/><text fill="#000000" font-family="sans-serif" font-size="14" font-weight="bold" lengthAdjust="spacing" textLength="32" x="291" y="111.0889">apis</text><text fill="#000000" font-family="sans-serif" font-size="14" lengthAdjust="spacing" textLength="12" x="386" y="111.0889">   </text><line style="stroke:#000000;stroke-width:1.0;" x1="381" x2="381" y1="96.0938" y2="116.3906"/><line style="stroke:#000000;stroke-width:1.0;" x1="286" x2="440" y1="116.3906" y2="116.3906"/><text fill="#000000" font-family="sans-serif" font-size="14" font-weight="bold" lengthAdjust="spacing" textLength="54" x="291" y="131.3857">origins</text><text fill="#000000" font-family="sans-serif" font-size="14" lengthAdjust="spacing" textLength="12" x="386" y="131.3857">   </text><line style="stroke:#000000;stroke-width:1.0;" x1="381" x2="381" y1="116.3906" y2="136.6875"/><line style="stroke:#000000;stroke-width:1.0;" x1="286" x2="440" y1="136.6875" y2="136.6875"/><text fill="#000000" font-family="sans-serif" font-size="14" font-weight="bold" lengthAdjust="spacing" textLength="85" x="291" y="151.6826">minifyBuild</text><text fill="#000000" font-family="sans-serif" font-size="14" lengthAdjust="spacing" textLength="49" x="386" y="151.6826">☐ false</text><line style="stroke:#000000;stroke-width:1.0;" x1="381" x2="381" y1="136.6875" y2="156.9844"/><line style="stroke:#000000;stroke-width:1.0;" x1="286" x2="440" y1="156.9844" y2="156.9844"/><text fill="#000000" font-family="sans-serif" font-size="14" font-weight="bold" lengthAdjust="spacing" textLength="80" x="291" y="171.9795">iconsBuild</text><text fill="#000000" font-family="sans-serif" font-size="14" lengthAdjust="spacing" textLength="45" x="386" y="171.9795">☑ true</text><line style="stroke:#000000;stroke-width:1.0;" x1="381" x2="381" y1="156.9844" y2="177.2813"/><line style="stroke:#000000;stroke-width:1.0;" x1="286" x2="440" y1="177.2813" y2="177.2813"/><text fill="#000000" font-family="sans-serif" font-size="14" font-weight="bold" lengthAdjust="spacing" textLength="62" x="291" y="192.2764">liteBuild</text><text fill="#000000" font-family="sans-serif" font-size="14" lengthAdjust="spacing" textLength="49" x="386" y="192.2764">☐ false</text><line style="stroke:#000000;stroke-width:1.0;" x1="381" x2="381" y1="177.2813" y2="197.5781"/><line style="stroke:#000000;stroke-width:1.0;" x1="286" x2="440" y1="197.5781" y2="197.5781"/><text fill="#000000" font-family="sans-serif" font-size="14" font-weight="bold" lengthAdjust="spacing" textLength="76" x="291" y="212.5732">docsBuild</text><text fill="#000000" font-family="sans-serif" font-size="14" lengthAdjust="spacing" textLength="49" x="386" y="212.5732">☐ false</text><line style="stroke:#000000;stroke-width:1.0;" x1="381" x2="381" y1="197.5781" y2="217.875"/><line style="stroke:#000000;stroke-width:1.0;" x1="286" x2="440" y1="217.875" y2="217.875"/><text fill="#000000" font-family="sans-serif" font-size="14" font-weight="bold" lengthAdjust="spacing" textLength="23" x="291" y="232.8701">ws</text><text fill="#000000" font-family="sans-serif" font-size="14" lengthAdjust="spacing" textLength="31" x="386" y="232.8701">core</text><line style="stroke:#000000;stroke-width:1.0;" x1="381" x2="381" y1="217.875" y2="238.1719"/><line style="stroke:#000000;stroke-width:1.0;" x1="286" x2="440" y1="238.1719" y2="238.1719"/><text fill="#000000" font-family="sans-serif" font-size="14" font-weight="bold" lengthAdjust="spacing" textLength="37" x="291" y="253.167">peer</text><text fill="#000000" font-family="sans-serif" font-size="14" lengthAdjust="spacing" textLength="45" x="386" y="253.167">☑ true</text><line style="stroke:#000000;stroke-width:1.0;" x1="381" x2="381" y1="238.1719" y2="258.4688"/><line style="stroke:#000000;stroke-width:1.0;" x1="286" x2="440" y1="258.4688" y2="258.4688"/><text fill="#000000" font-family="sans-serif" font-size="14" font-weight="bold" lengthAdjust="spacing" textLength="45" x="291" y="273.4639">proxy</text><text fill="#000000" font-family="sans-serif" font-size="14" lengthAdjust="spacing" textLength="12" x="386" y="273.4639">   </text><line style="stroke:#000000;stroke-width:1.0;" x1="381" x2="381" y1="258.4688" y2="278.7656"/><line style="stroke:#000000;stroke-width:1.0;" x1="286" x2="440" y1="278.7656" y2="278.7656"/><text fill="#000000" font-family="sans-serif" font-size="14" font-weight="bold" lengthAdjust="spacing" textLength="20" x="291" y="293.7607">db</text><text fill="#000000" font-family="sans-serif" font-size="14" lengthAdjust="spacing" textLength="12" x="386" y="293.7607">   </text><line style="stroke:#000000;stroke-width:1.0;" x1="381" x2="381" y1="278.7656" y2="299.0625"/><line style="stroke:#000000;stroke-width:1.0;" x1="286" x2="440" y1="299.0625" y2="299.0625"/><text fill="#000000" font-family="sans-serif" font-size="14" font-weight="bold" lengthAdjust="spacing" textLength="48" x="291" y="314.0576">mailer</text><text fill="#000000" font-family="sans-serif" font-size="14" lengthAdjust="spacing" textLength="12" x="386" y="314.0576">   </text><line style="stroke:#000000;stroke-width:1.0;" x1="381" x2="381" y1="299.0625" y2="319.3594"/><rect fill="none" height="263.8594" rx="5" ry="5" style="stroke:#000000;stroke-width:1.5;" width="154" x="286" y="55.5"/><rect fill="#F1F1F1" height="101.4844" rx="5" ry="5" style="stroke:#F1F1F1;stroke-width:1.5;" width="57" x="591" y="10"/><text fill="#000000" font-family="sans-serif" font-size="14" lengthAdjust="spacing" textLength="47" x="596" y="24.9951">default</text><line style="stroke:#000000;stroke-width:1.0;" x1="591" x2="648" y1="30.2969" y2="30.2969"/><text fill="#000000" font-family="sans-serif" font-size="14" lengthAdjust="spacing" textLength="31" x="596" y="45.292">core</text><line style="stroke:#000000;stroke-width:1.0;" x1="591" x2="648" y1="50.5938" y2="50.5938"/><text fill="#000000" font-family="sans-serif" font-size="14" lengthAdjust="spacing" textLength="31" x="596" y="65.5889">user</text><line style="stroke:#000000;stroke-width:1.0;" x1="591" x2="648" y1="70.8906" y2="70.8906"/><text fill="#000000" font-family="sans-serif" font-size="14" lengthAdjust="spacing" textLength="27" x="596" y="85.8857">test</text><line style="stroke:#000000;stroke-width:1.0;" x1="591" x2="648" y1="91.1875" y2="91.1875"/><text fill="#000000" font-family="sans-serif" font-size="14" lengthAdjust="spacing" textLength="19" x="596" y="106.1826">file</text><rect fill="none" height="101.4844" rx="5" ry="5" style="stroke:#000000;stroke-width:1.5;" width="57" x="591" y="10"/><rect fill="#F1F1F1" height="15" rx="5" ry="5" style="stroke:#F1F1F1;stroke-width:1.5;" width="30" x="607.5" y="129.5"/><rect fill="none" height="15" rx="5" ry="5" style="stroke:#000000;stroke-width:1.5;" width="30" x="607.5" y="129.5"/><rect fill="#F1F1F1" height="40.5938" rx="5" ry="5" style="stroke:#F1F1F1;stroke-width:1.5;" width="37" x="601" y="187"/><text fill="#000000" font-family="sans-serif" font-size="14" lengthAdjust="spacing" textLength="18" x="606" y="201.9951">80</text><line style="stroke:#000000;stroke-width:1.0;" x1="601" x2="638" y1="207.2969" y2="207.2969"/><text fill="#000000" font-family="sans-serif" font-size="14" lengthAdjust="spacing" textLength="27" x="606" y="222.292">443</text><rect fill="none" height="40.5938" rx="5" ry="5" style="stroke:#000000;stroke-width:1.5;" width="37" x="601" y="187"/><rect fill="#F1F1F1" height="60.8906" rx="5" ry="5" style="stroke:#F1F1F1;stroke-width:1.5;" width="285" x="477" y="246"/><text fill="#000000" font-family="sans-serif" font-size="14" font-weight="bold" lengthAdjust="spacing" textLength="67" x="482" y="260.9951">provider</text><text fill="#000000" font-family="sans-serif" font-size="14" lengthAdjust="spacing" textLength="75" x="559" y="260.9951">mongoose</text><line style="stroke:#000000;stroke-width:1.0;" x1="554" x2="554" y1="246" y2="266.2969"/><line style="stroke:#000000;stroke-width:1.0;" x1="477" x2="762" y1="266.2969" y2="266.2969"/><text fill="#000000" font-family="sans-serif" font-size="14" font-weight="bold" lengthAdjust="spacing" textLength="35" x="482" y="281.292">host</text><text fill="#000000" font-family="sans-serif" font-size="14" lengthAdjust="spacing" textLength="198" x="559" y="281.292">mongodb://127.0.0.1:27017</text><line style="stroke:#000000;stroke-width:1.0;" x1="554" x2="554" y1="266.2969" y2="286.5938"/><line style="stroke:#000000;stroke-width:1.0;" x1="477" x2="762" y1="286.5938" y2="286.5938"/><text fill="#000000" font-family="sans-serif" font-size="14" font-weight="bold" lengthAdjust="spacing" textLength="43" x="482" y="301.5889">name</text><text fill="#000000" font-family="sans-serif" font-size="14" lengthAdjust="spacing" textLength="47" x="559" y="301.5889">default</text><line style="stroke:#000000;stroke-width:1.0;" x1="554" x2="554" y1="286.5938" y2="306.8906"/><rect fill="none" height="60.8906" rx="5" ry="5" style="stroke:#000000;stroke-width:1.5;" width="285" x="477" y="246"/><rect fill="#F1F1F1" height="60.8906" rx="5" ry="5" style="stroke:#F1F1F1;stroke-width:1.5;" width="110" x="564.5" y="325"/><text fill="#000000" font-family="sans-serif" font-size="14" font-weight="bold" lengthAdjust="spacing" textLength="56" x="569.5" y="339.9951">sender</text><text fill="#000000" font-family="sans-serif" font-size="14" lengthAdjust="spacing" textLength="12" x="657.5" y="339.9951">   </text><line style="stroke:#000000;stroke-width:1.0;" x1="652.5" x2="652.5" y1="325" y2="345.2969"/><line style="stroke:#000000;stroke-width:1.0;" x1="564.5" x2="674.5" y1="345.2969" y2="345.2969"/><text fill="#000000" font-family="sans-serif" font-size="14" font-weight="bold" lengthAdjust="spacing" textLength="74" x="569.5" y="360.292">transport</text><text fill="#000000" font-family="sans-serif" font-size="14" lengthAdjust="spacing" textLength="12" x="657.5" y="360.292">   </text><line style="stroke:#000000;stroke-width:1.0;" x1="652.5" x2="652.5" y1="345.2969" y2="365.5938"/><line style="stroke:#000000;stroke-width:1.0;" x1="564.5" x2="674.5" y1="365.5938" y2="365.5938"/><text fill="#000000" font-family="sans-serif" font-size="14" font-weight="bold" lengthAdjust="spacing" textLength="78" x="569.5" y="380.5889">templates</text><text fill="#000000" font-family="sans-serif" font-size="14" lengthAdjust="spacing" textLength="12" x="657.5" y="380.5889">   </text><line style="stroke:#000000;stroke-width:1.0;" x1="652.5" x2="652.5" y1="365.5938" y2="385.8906"/><rect fill="none" height="60.8906" rx="5" ry="5" style="stroke:#000000;stroke-width:1.5;" width="110" x="564.5" y="325"/><rect fill="#F1F1F1" height="40.5938" rx="5" ry="5" style="stroke:#F1F1F1;stroke-width:1.5;" width="202" x="849.5" y="255"/><text fill="#000000" font-family="sans-serif" font-size="14" font-weight="bold" lengthAdjust="spacing" textLength="41" x="854.5" y="269.9951">email</text><text fill="#000000" font-family="sans-serif" font-size="14" lengthAdjust="spacing" textLength="139" x="907.5" y="269.9951">noreply@default.net</text><line style="stroke:#000000;stroke-width:1.0;" x1="902.5" x2="902.5" y1="255" y2="275.2969"/><line style="stroke:#000000;stroke-width:1.0;" x1="849.5" x2="1051.5" y1="275.2969" y2="275.2969"/><text fill="#000000" font-family="sans-serif" font-size="14" font-weight="bold" lengthAdjust="spacing" textLength="43" x="854.5" y="290.292">name</text><text fill="#000000" font-family="sans-serif" font-size="14" lengthAdjust="spacing" textLength="49" x="907.5" y="290.292">Default</text><line style="stroke:#000000;stroke-width:1.0;" x1="902.5" x2="902.5" y1="275.2969" y2="295.5938"/><rect fill="none" height="40.5938" rx="5" ry="5" style="stroke:#000000;stroke-width:1.5;" width="202" x="849.5" y="255"/><rect fill="#F1F1F1" height="81.1875" rx="5" ry="5" style="stroke:#F1F1F1;stroke-width:1.5;" width="195" x="853" y="314"/><text fill="#000000" font-family="sans-serif" font-size="14" font-weight="bold" lengthAdjust="spacing" textLength="35" x="858" y="328.9951">host</text><text fill="#000000" font-family="sans-serif" font-size="14" lengthAdjust="spacing" textLength="120" x="923" y="328.9951">smtp.default.com</text><line style="stroke:#000000;stroke-width:1.0;" x1="918" x2="918" y1="314" y2="334.2969"/><line style="stroke:#000000;stroke-width:1.0;" x1="853" x2="1048" y1="334.2969" y2="334.2969"/><text fill="#000000" font-family="sans-serif" font-size="14" font-weight="bold" lengthAdjust="spacing" textLength="33" x="858" y="349.292">port</text><text fill="#000000" font-family="sans-serif" font-size="14" lengthAdjust="spacing" textLength="27" x="923" y="349.292">465</text><line style="stroke:#000000;stroke-width:1.0;" x1="918" x2="918" y1="334.2969" y2="354.5938"/><line style="stroke:#000000;stroke-width:1.0;" x1="853" x2="1048" y1="354.5938" y2="354.5938"/><text fill="#000000" font-family="sans-serif" font-size="14" font-weight="bold" lengthAdjust="spacing" textLength="55" x="858" y="369.5889">secure</text><text fill="#000000" font-family="sans-serif" font-size="14" lengthAdjust="spacing" textLength="45" x="923" y="369.5889">☑ true</text><line style="stroke:#000000;stroke-width:1.0;" x1="918" x2="918" y1="354.5938" y2="374.8906"/><line style="stroke:#000000;stroke-width:1.0;" x1="853" x2="1048" y1="374.8906" y2="374.8906"/><text fill="#000000" font-family="sans-serif" font-size="14" font-weight="bold" lengthAdjust="spacing" textLength="35" x="858" y="389.8857">auth</text><text fill="#000000" font-family="sans-serif" font-size="14" lengthAdjust="spacing" textLength="12" x="923" y="389.8857">   </text><line style="stroke:#000000;stroke-width:1.0;" x1="918" x2="918" y1="374.8906" y2="395.1875"/><rect fill="none" height="81.1875" rx="5" ry="5" style="stroke:#000000;stroke-width:1.5;" width="195" x="853" y="314"/><rect fill="#F1F1F1" height="40.5938" rx="5" ry="5" style="stroke:#F1F1F1;stroke-width:1.5;" width="196" x="1139" y="364"/><text fill="#000000" font-family="sans-serif" font-size="14" font-weight="bold" lengthAdjust="spacing" textLength="36" x="1144" y="378.9951">user</text><text fill="#000000" font-family="sans-serif" font-size="14" lengthAdjust="spacing" textLength="139" x="1191" y="378.9951">noreply@default.net</text><line style="stroke:#000000;stroke-width:1.0;" x1="1186" x2="1186" y1="364" y2="384.2969"/><line style="stroke:#000000;stroke-width:1.0;" x1="1139" x2="1335" y1="384.2969" y2="384.2969"/><text fill="#000000" font-family="sans-serif" font-size="14" font-weight="bold" lengthAdjust="spacing" textLength="37" x="1144" y="399.292">pass</text><text fill="#000000" font-family="sans-serif" font-size="14" lengthAdjust="spacing" textLength="4" x="1191" y="399.292"> </text><line style="stroke:#000000;stroke-width:1.0;" x1="1186" x2="1186" y1="384.2969" y2="404.5938"/><rect fill="none" height="40.5938" rx="5" ry="5" style="stroke:#000000;stroke-width:1.5;" width="196" x="1139" y="364"/><rect fill="#F1F1F1" height="40.5938" rx="5" ry="5" style="stroke:#F1F1F1;stroke-width:1.5;" width="303" x="799" y="413"/><text fill="#000000" font-family="sans-serif" font-size="14" font-weight="bold" lengthAdjust="spacing" textLength="123" x="804" y="427.9951">userVerifyEmail</text><text fill="#000000" font-family="sans-serif" font-size="14" lengthAdjust="spacing" textLength="122" x="955" y="427.9951">DefaultVerifyEmail</text><line style="stroke:#000000;stroke-width:1.0;" x1="950" x2="950" y1="413" y2="433.2969"/><line style="stroke:#000000;stroke-width:1.0;" x1="799" x2="1102" y1="433.2969" y2="433.2969"/><text fill="#000000" font-family="sans-serif" font-size="14" font-weight="bold" lengthAdjust="spacing" textLength="141" x="804" y="448.292">userRecoverEmail</text><text fill="#000000" font-family="sans-serif" font-size="14" lengthAdjust="spacing" textLength="142" x="955" y="448.292">DefaultRecoverEmail</text><line style="stroke:#000000;stroke-width:1.0;" x1="950" x2="950" y1="433.2969" y2="453.5938"/><rect fill="none" height="40.5938" rx="5" ry="5" style="stroke:#000000;stroke-width:1.5;" width="303" x="799" y="413"/><rect fill="#F1F1F1" height="20.2969" rx="5" ry="5" style="stroke:#F1F1F1;stroke-width:1.5;" width="37" x="212" y="380.5"/><text fill="#000000" font-family="sans-serif" font-size="14" font-weight="bold" lengthAdjust="spacing" textLength="5" x="217" y="395.4951">/</text><text fill="#000000" font-family="sans-serif" font-size="14" lengthAdjust="spacing" textLength="12" x="232" y="395.4951">   </text><line style="stroke:#000000;stroke-width:1.0;" x1="227" x2="227" y1="380.5" y2="400.7969"/><rect fill="none" height="20.2969" rx="5" ry="5" style="stroke:#000000;stroke-width:1.5;" width="37" x="212" y="380.5"/><rect fill="#F1F1F1" height="142.0781" rx="5" ry="5" style="stroke:#F1F1F1;stroke-width:1.5;" width="154" x="286" y="362.5"/><text fill="#000000" font-family="sans-serif" font-size="14" font-weight="bold" lengthAdjust="spacing" textLength="43" x="291" y="377.4951">client</text><text fill="#000000" font-family="sans-serif" font-size="14" lengthAdjust="spacing" textLength="11" x="386" y="377.4951">␀</text><line style="stroke:#000000;stroke-width:1.0;" x1="381" x2="381" y1="362.5" y2="382.7969"/><line style="stroke:#000000;stroke-width:1.0;" x1="286" x2="440" y1="382.7969" y2="382.7969"/><text fill="#000000" font-family="sans-serif" font-size="14" font-weight="bold" lengthAdjust="spacing" textLength="61" x="291" y="397.792">runtime</text><text fill="#000000" font-family="sans-serif" font-size="14" lengthAdjust="spacing" textLength="47" x="386" y="397.792">nodejs</text><line style="stroke:#000000;stroke-width:1.0;" x1="381" x2="381" y1="382.7969" y2="403.0938"/><line style="stroke:#000000;stroke-width:1.0;" x1="286" x2="440" y1="403.0938" y2="403.0938"/><text fill="#000000" font-family="sans-serif" font-size="14" font-weight="bold" lengthAdjust="spacing" textLength="32" x="291" y="418.0889">apis</text><text fill="#000000" font-family="sans-serif" font-size="14" lengthAdjust="spacing" textLength="12" x="386" y="418.0889">   </text><line style="stroke:#000000;stroke-width:1.0;" x1="381" x2="381" y1="403.0938" y2="423.3906"/><line style="stroke:#000000;stroke-width:1.0;" x1="286" x2="440" y1="423.3906" y2="423.3906"/><text fill="#000000" font-family="sans-serif" font-size="14" font-weight="bold" lengthAdjust="spacing" textLength="54" x="291" y="438.3857">origins</text><text fill="#000000" font-family="sans-serif" font-size="14" lengthAdjust="spacing" textLength="12" x="386" y="438.3857">   </text><line style="stroke:#000000;stroke-width:1.0;" x1="381" x2="381" y1="423.3906" y2="443.6875"/><line style="stroke:#000000;stroke-width:1.0;" x1="286" x2="440" y1="443.6875" y2="443.6875"/><text fill="#000000" font-family="sans-serif" font-size="14" font-weight="bold" lengthAdjust="spacing" textLength="85" x="291" y="458.6826">minifyBuild</text><text fill="#000000" font-family="sans-serif" font-size="14" lengthAdjust="spacing" textLength="49" x="386" y="458.6826">☐ false</text><line style="stroke:#000000;stroke-width:1.0;" x1="381" x2="381" y1="443.6875" y2="463.9844"/><line style="stroke:#000000;stroke-width:1.0;" x1="286" x2="440" y1="463.9844" y2="463.9844"/><text fill="#000000" font-family="sans-serif" font-size="14" font-weight="bold" lengthAdjust="spacing" textLength="62" x="291" y="478.9795">liteBuild</text><text fill="#000000" font-family="sans-serif" font-size="14" lengthAdjust="spacing" textLength="45" x="386" y="478.9795">☑ true</text><line style="stroke:#000000;stroke-width:1.0;" x1="381" x2="381" y1="463.9844" y2="484.2813"/><line style="stroke:#000000;stroke-width:1.0;" x1="286" x2="440" y1="484.2813" y2="484.2813"/><text fill="#000000" font-family="sans-serif" font-size="14" font-weight="bold" lengthAdjust="spacing" textLength="45" x="291" y="499.2764">proxy</text><text fill="#000000" font-family="sans-serif" font-size="14" lengthAdjust="spacing" textLength="12" x="386" y="499.2764">   </text><line style="stroke:#000000;stroke-width:1.0;" x1="381" x2="381" y1="484.2813" y2="504.5781"/><rect fill="none" height="142.0781" rx="5" ry="5" style="stroke:#000000;stroke-width:1.5;" width="154" x="286" y="362.5"/><rect fill="#F1F1F1" height="15" rx="5" ry="5" style="stroke:#F1F1F1;stroke-width:1.5;" width="30" x="607.5" y="404.5"/><rect fill="none" height="15" rx="5" ry="5" style="stroke:#000000;stroke-width:1.5;" width="30" x="607.5" y="404.5"/><rect fill="#F1F1F1" height="15" rx="5" ry="5" style="stroke:#F1F1F1;stroke-width:1.5;" width="30" x="607.5" y="438.5"/><rect fill="none" height="15" rx="5" ry="5" style="stroke:#000000;stroke-width:1.5;" width="30" x="607.5" y="438.5"/><rect fill="#F1F1F1" height="40.5938" rx="5" ry="5" style="stroke:#F1F1F1;stroke-width:1.5;" width="37" x="601" y="474"/><text fill="#000000" font-family="sans-serif" font-size="14" lengthAdjust="spacing" textLength="18" x="606" y="488.9951">80</text><line style="stroke:#000000;stroke-width:1.0;" x1="601" x2="638" y1="494.2969" y2="494.2969"/><text fill="#000000" font-family="sans-serif" font-size="14" lengthAdjust="spacing" textLength="27" x="606" y="509.292">443</text><rect fill="none" height="40.5938" rx="5" ry="5" style="stroke:#000000;stroke-width:1.5;" width="37" x="601" y="474"/><path d="M428,105.5 L441,105.5 C492.0355,105.5 548.8603,87.8974 584.2692,74.7108 " fill="none" style="stroke:#000000;stroke-width:1.0;stroke-dasharray:3.0,3.0;"/><path d="M585.3648,77.5992 L586.4355,73.8891 L583.1736,71.8224 L591.4903,71.9718 L585.3648,77.5992 " fill="#000000" style="stroke:#000000;stroke-width:1.0;"/><ellipse cx="428" cy="105.5" fill="#000000" rx="3" ry="3" style="stroke:#000000;stroke-width:1.0;"/><path d="M428,125.5 L441,125.5 C499.0016,125.5 567.3942,131.9212 599.9389,135.3693 " fill="none" style="stroke:#000000;stroke-width:1.0;stroke-dasharray:3.0,3.0;"/><path d="M599.6003,138.5025 L602.2888,135.6233 L600.2775,132.2361 L607.7718,136.2158 L599.6003,138.5025 " fill="#000000" style="stroke:#000000;stroke-width:1.0;"/><ellipse cx="428" cy="125.5" fill="#000000" rx="3" ry="3" style="stroke:#000000;stroke-width:1.0;"/><path d="M428,268.5 L441,268.5 C462.4073,268.5 457.8566,246.0813 477,236.5 C514.8434,217.5593 564.2528,210.9889 593.6967,208.7099 " fill="none" style="stroke:#000000;stroke-width:1.0;stroke-dasharray:3.0,3.0;"/><path d="M593.9109,211.8095 L596.0214,208.5492 L593.4824,205.6103 L601.4457,208.1742 L593.9109,211.8095 " fill="#000000" style="stroke:#000000;stroke-width:1.0;"/><ellipse cx="428" cy="268.5" fill="#000000" rx="3" ry="3" style="stroke:#000000;stroke-width:1.0;"/><path d="M428,288.5 L441,288.5 C450.287,288.5 459.8405,288.3354 469.4705,288.0447 " fill="none" style="stroke:#000000;stroke-width:1.0;stroke-dasharray:3.0,3.0;"/><path d="M469.5743,291.139 L471.7913,287.9669 L469.3667,284.9503 L477.2064,287.7853 L469.5743,291.139 " fill="#000000" style="stroke:#000000;stroke-width:1.0;"/><ellipse cx="428" cy="288.5" fill="#000000" rx="3" ry="3" style="stroke:#000000;stroke-width:1.0;"/><path d="M663,334.5 L676,334.5 C715.578,334.5 724.7096,325.5133 763,315.5 C779.1859,311.2672 782.7619,308.5279 799,304.5 C812.8999,301.0521 827.6054,297.7757 842.1685,294.7504 " fill="none" style="stroke:#000000;stroke-width:1.0;stroke-dasharray:3.0,3.0;"/><path d="M842.792,297.7894 L844.4477,294.2828 L841.545,291.7114 L849.766,293.1917 L842.792,297.7894 " fill="#000000" style="stroke:#000000;stroke-width:1.0;"/><ellipse cx="663" cy="334.5" fill="#000000" rx="3" ry="3" style="stroke:#000000;stroke-width:1.0;"/><path d="M1037,384.5 L1050,384.5 C1076.3752,384.5 1104.8485,384.5 1131.4142,384.5 " fill="none" style="stroke:#000000;stroke-width:1.0;stroke-dasharray:3.0,3.0;"/><path d="M1131.4142,387.623 L1133.7564,384.5 L1131.4142,381.377 L1139.2217,384.5 L1131.4142,387.623 " fill="#000000" style="stroke:#000000;stroke-width:1.0;"/><ellipse cx="1037" cy="384.5" fill="#000000" rx="3" ry="3" style="stroke:#000000;stroke-width:1.0;"/><path d="M663,354.5 L676,354.5 C731.9928,354.5 794.4219,354.5 845.5311,354.5 " fill="none" style="stroke:#000000;stroke-width:1.0;stroke-dasharray:3.0,3.0;"/><path d="M845.5311,357.6116 L847.8648,354.5 L845.5311,351.3884 L853.3102,354.5 L845.5311,357.6116 " fill="#000000" style="stroke:#000000;stroke-width:1.0;"/><ellipse cx="663" cy="354.5" fill="#000000" rx="3" ry="3" style="stroke:#000000;stroke-width:1.0;"/><path d="M663,375.5 L676,375.5 C732.0652,375.5 744.1662,391.814 799,403.5 C811.3463,406.1312 824.2768,408.8127 837.1555,411.4363 " fill="none" style="stroke:#000000;stroke-width:1.0;stroke-dasharray:3.0,3.0;"/><path d="M836.5406,414.4651 L839.4271,411.8975 L837.7704,408.4075 L844.7276,412.9735 L836.5406,414.4651 " fill="#000000" style="stroke:#000000;stroke-width:1.0;"/><ellipse cx="663" cy="375.5" fill="#000000" rx="3" ry="3" style="stroke:#000000;stroke-width:1.0;"/><path d="M428,309.5 L441,309.5 C452.8538,309.5 510.8883,324.9896 557.5162,337.992 " fill="none" style="stroke:#000000;stroke-width:1.0;stroke-dasharray:3.0,3.0;"/><path d="M556.6911,340.9427 L559.7292,338.6108 L558.3413,335.0413 L564.8929,340.0547 L556.6911,340.9427 " fill="#000000" style="stroke:#000000;stroke-width:1.0;"/><ellipse cx="428" cy="309.5" fill="#000000" rx="3" ry="3" style="stroke:#000000;stroke-width:1.0;"/><path d="M237,297.5 L250,297.5 C260.4484,297.5 270.2861,295.0443 279.4623,290.8667 " fill="none" style="stroke:#000000;stroke-width:1.0;stroke-dasharray:3.0,3.0;"/><path d="M280.8695,293.6216 L281.5284,289.8113 L278.055,288.1118 L286.3495,287.3486 L280.8695,293.6216 " fill="#000000" style="stroke:#000000;stroke-width:1.0;"/><ellipse cx="237" cy="297.5" fill="#000000" rx="3" ry="3" style="stroke:#000000;stroke-width:1.0;"/><path d="M163,333.5 L176,333.5 C191.6352,333.5 206.1866,322.9224 216.2351,313.2345 " fill="none" style="stroke:#000000;stroke-width:1.0;stroke-dasharray:3.0,3.0;"/><path d="M218.441,315.3826 L217.8462,311.5801 L214.0293,311.0864 L221.6054,307.7199 L218.441,315.3826 " fill="#000000" style="stroke:#000000;stroke-width:1.0;"/><ellipse cx="163" cy="333.5" fill="#000000" rx="3" ry="3" style="stroke:#000000;stroke-width:1.0;"/><path d="M428,412.5 L441,412.5 C498.8703,412.5 567.3237,412.5 599.9105,412.5 " fill="none" style="stroke:#000000;stroke-width:1.0;stroke-dasharray:3.0,3.0;"/><path d="M599.9105,415.6375 L602.2636,412.5 L599.9105,409.3625 L607.7541,412.5 L599.9105,415.6375 " fill="#000000" style="stroke:#000000;stroke-width:1.0;"/><ellipse cx="428" cy="412.5" fill="#000000" rx="3" ry="3" style="stroke:#000000;stroke-width:1.0;"/><path d="M428,432.5 L441,432.5 C499.049,432.5 567.4196,439.9914 599.9491,444.0142 " fill="none" style="stroke:#000000;stroke-width:1.0;stroke-dasharray:3.0,3.0;"/><path d="M599.5541,447.1459 L602.2979,444.3105 L600.3441,440.8826 L607.7782,445.0018 L599.5541,447.1459 " fill="#000000" style="stroke:#000000;stroke-width:1.0;"/><ellipse cx="428" cy="432.5" fill="#000000" rx="3" ry="3" style="stroke:#000000;stroke-width:1.0;"/><path d="M428,494.5 L441,494.5 C495.3575,494.5 559.0523,494.5 593.5903,494.5 " fill="none" style="stroke:#000000;stroke-width:1.0;stroke-dasharray:3.0,3.0;"/><path d="M593.5903,497.5898 L595.9076,494.5 L593.5903,491.4102 L601.3149,494.5 L593.5903,497.5898 " fill="#000000" style="stroke:#000000;stroke-width:1.0;"/><ellipse cx="428" cy="494.5" fill="#000000" rx="3" ry="3" style="stroke:#000000;stroke-width:1.0;"/><path d="M237,390.5 L250,390.5 C259.664,390.5 269.5055,391.9016 279.1454,394.1987 " fill="none" style="stroke:#000000;stroke-width:1.0;stroke-dasharray:3.0,3.0;"/><path d="M278.3763,397.1291 L281.3432,394.7755 L279.9145,391.2683 L286.4715,396.1215 L278.3763,397.1291 " fill="#000000" style="stroke:#000000;stroke-width:1.0;"/><ellipse cx="237" cy="390.5" fill="#000000" rx="3" ry="3" style="stroke:#000000;stroke-width:1.0;"/><path d="M163,354.5 L176,354.5 C191.6352,354.5 206.1866,365.0776 216.2351,374.7655 " fill="none" style="stroke:#000000;stroke-width:1.0;stroke-dasharray:3.0,3.0;"/><path d="M214.0293,376.9136 L217.8462,376.4199 L218.441,372.6174 L221.6054,380.2801 L214.0293,376.9136 " fill="#000000" style="stroke:#000000;stroke-width:1.0;"/><ellipse cx="163" cy="354.5" fill="#000000" rx="3" ry="3" style="stroke:#000000;stroke-width:1.0;"/></g></svg>