<?xml version="1.0" encoding="UTF-8" standalone="no"?><svg xmlns="http://www.w3.org/2000/svg" xmlns:xlink="http://www.w3.org/1999/xlink" contentStyleType="text/css" height="553px" preserveAspectRatio="none" style="width:1240px;height:553px;background:#FFFFFF;" version="1.1" viewBox="0 0 1240 553" width="1240px" zoomAndPan="magnify"><defs/><g><rect fill="#F1F1F1" height="43.2188" rx="5" ry="5" style="stroke:#F1F1F1;stroke-width:1.5;" width="143" x="10" y="339.5"/><text fill="#000000" font-family="sans-serif" font-size="14" font-weight="bold" lengthAdjust="spacing" textLength="74" x="15" y="356.0332">default.net</text><text fill="#000000" font-family="sans-serif" font-size="14" lengthAdjust="spacing" textLength="12" x="136" y="356.0332">   </text><line style="stroke:#000000;stroke-width:1.0;" x1="131" x2="131" y1="339.5" y2="361.1094"/><line style="stroke:#000000;stroke-width:1.0;" x1="10" x2="153" y1="361.1094" y2="361.1094"/><text fill="#000000" font-family="sans-serif" font-size="14" font-weight="bold" lengthAdjust="spacing" textLength="111" x="15" y="377.6426">www.default.net</text><text fill="#000000" font-family="sans-serif" font-size="14" lengthAdjust="spacing" textLength="12" x="136" y="377.6426">   </text><line style="stroke:#000000;stroke-width:1.0;" x1="131" x2="131" y1="361.1094" y2="382.7188"/><rect fill="none" height="43.2188" rx="5" ry="5" style="stroke:#000000;stroke-width:1.5;" width="143" x="10" y="339.5"/><rect fill="#F1F1F1" height="21.6094" rx="5" ry="5" style="stroke:#F1F1F1;stroke-width:1.5;" width="36" x="190" y="301"/><text fill="#000000" font-family="sans-serif" font-size="14" font-weight="bold" lengthAdjust="spacing" textLength="4" x="195" y="317.5332">/</text><text fill="#000000" font-family="sans-serif" font-size="14" lengthAdjust="spacing" textLength="12" x="209" y="317.5332">   </text><line style="stroke:#000000;stroke-width:1.0;" x1="204" x2="204" y1="301" y2="322.6094"/><rect fill="none" height="21.6094" rx="5" ry="5" style="stroke:#000000;stroke-width:1.5;" width="36" x="190" y="301"/><rect fill="#F1F1F1" height="280.9219" rx="5" ry="5" style="stroke:#F1F1F1;stroke-width:1.5;" width="144" x="263" y="55.5"/><text fill="#000000" font-family="sans-serif" font-size="14" font-weight="bold" lengthAdjust="spacing" textLength="38" x="268" y="72.0332">client</text><text fill="#000000" font-family="sans-serif" font-size="14" lengthAdjust="spacing" textLength="43" x="356" y="72.0332">default</text><line style="stroke:#000000;stroke-width:1.0;" x1="351" x2="351" y1="55.5" y2="77.1094"/><line style="stroke:#000000;stroke-width:1.0;" x1="263" x2="407" y1="77.1094" y2="77.1094"/><text fill="#000000" font-family="sans-serif" font-size="14" font-weight="bold" lengthAdjust="spacing" textLength="52" x="268" y="93.6426">runtime</text><text fill="#000000" font-family="sans-serif" font-size="14" lengthAdjust="spacing" textLength="42" x="356" y="93.6426">nodejs</text><line style="stroke:#000000;stroke-width:1.0;" x1="351" x2="351" y1="77.1094" y2="98.7188"/><line style="stroke:#000000;stroke-width:1.0;" x1="263" x2="407" y1="98.7188" y2="98.7188"/><text fill="#000000" font-family="sans-serif" font-size="14" font-weight="bold" lengthAdjust="spacing" textLength="29" x="268" y="115.252">apis</text><text fill="#000000" font-family="sans-serif" font-size="14" lengthAdjust="spacing" textLength="12" x="356" y="115.252">   </text><line style="stroke:#000000;stroke-width:1.0;" x1="351" x2="351" y1="98.7188" y2="120.3281"/><line style="stroke:#000000;stroke-width:1.0;" x1="263" x2="407" y1="120.3281" y2="120.3281"/><text fill="#000000" font-family="sans-serif" font-size="14" font-weight="bold" lengthAdjust="spacing" textLength="48" x="268" y="136.8613">origins</text><text fill="#000000" font-family="sans-serif" font-size="14" lengthAdjust="spacing" textLength="12" x="356" y="136.8613">   </text><line style="stroke:#000000;stroke-width:1.0;" x1="351" x2="351" y1="120.3281" y2="141.9375"/><line style="stroke:#000000;stroke-width:1.0;" x1="263" x2="407" y1="141.9375" y2="141.9375"/><text fill="#000000" font-family="sans-serif" font-size="14" font-weight="bold" lengthAdjust="spacing" textLength="78" x="268" y="158.4707">minifyBuild</text><text fill="#000000" font-family="sans-serif" font-size="14" lengthAdjust="spacing" textLength="46" x="356" y="158.4707">☐ false</text><line style="stroke:#000000;stroke-width:1.0;" x1="351" x2="351" y1="141.9375" y2="163.5469"/><line style="stroke:#000000;stroke-width:1.0;" x1="263" x2="407" y1="163.5469" y2="163.5469"/><text fill="#000000" font-family="sans-serif" font-size="14" font-weight="bold" lengthAdjust="spacing" textLength="74" x="268" y="180.0801">iconsBuild</text><text fill="#000000" font-family="sans-serif" font-size="14" lengthAdjust="spacing" textLength="41" x="356" y="180.0801">☑ true</text><line style="stroke:#000000;stroke-width:1.0;" x1="351" x2="351" y1="163.5469" y2="185.1563"/><line style="stroke:#000000;stroke-width:1.0;" x1="263" x2="407" y1="185.1563" y2="185.1563"/><text fill="#000000" font-family="sans-serif" font-size="14" font-weight="bold" lengthAdjust="spacing" textLength="57" x="268" y="201.6895">liteBuild</text><text fill="#000000" font-family="sans-serif" font-size="14" lengthAdjust="spacing" textLength="46" x="356" y="201.6895">☐ false</text><line style="stroke:#000000;stroke-width:1.0;" x1="351" x2="351" y1="185.1563" y2="206.7656"/><line style="stroke:#000000;stroke-width:1.0;" x1="263" x2="407" y1="206.7656" y2="206.7656"/><text fill="#000000" font-family="sans-serif" font-size="14" font-weight="bold" lengthAdjust="spacing" textLength="70" x="268" y="223.2988">docsBuild</text><text fill="#000000" font-family="sans-serif" font-size="14" lengthAdjust="spacing" textLength="46" x="356" y="223.2988">☐ false</text><line style="stroke:#000000;stroke-width:1.0;" x1="351" x2="351" y1="206.7656" y2="228.375"/><line style="stroke:#000000;stroke-width:1.0;" x1="263" x2="407" y1="228.375" y2="228.375"/><text fill="#000000" font-family="sans-serif" font-size="14" font-weight="bold" lengthAdjust="spacing" textLength="19" x="268" y="244.9082">ws</text><text fill="#000000" font-family="sans-serif" font-size="14" lengthAdjust="spacing" textLength="28" x="356" y="244.9082">core</text><line style="stroke:#000000;stroke-width:1.0;" x1="351" x2="351" y1="228.375" y2="249.9844"/><line style="stroke:#000000;stroke-width:1.0;" x1="263" x2="407" y1="249.9844" y2="249.9844"/><text fill="#000000" font-family="sans-serif" font-size="14" font-weight="bold" lengthAdjust="spacing" textLength="30" x="268" y="266.5176">peer</text><text fill="#000000" font-family="sans-serif" font-size="14" lengthAdjust="spacing" textLength="41" x="356" y="266.5176">☑ true</text><line style="stroke:#000000;stroke-width:1.0;" x1="351" x2="351" y1="249.9844" y2="271.5938"/><line style="stroke:#000000;stroke-width:1.0;" x1="263" x2="407" y1="271.5938" y2="271.5938"/><text fill="#000000" font-family="sans-serif" font-size="14" font-weight="bold" lengthAdjust="spacing" textLength="39" x="268" y="288.127">proxy</text><text fill="#000000" font-family="sans-serif" font-size="14" lengthAdjust="spacing" textLength="12" x="356" y="288.127">   </text><line style="stroke:#000000;stroke-width:1.0;" x1="351" x2="351" y1="271.5938" y2="293.2031"/><line style="stroke:#000000;stroke-width:1.0;" x1="263" x2="407" y1="293.2031" y2="293.2031"/><text fill="#000000" font-family="sans-serif" font-size="14" font-weight="bold" lengthAdjust="spacing" textLength="18" x="268" y="309.7363">db</text><text fill="#000000" font-family="sans-serif" font-size="14" lengthAdjust="spacing" textLength="12" x="356" y="309.7363">   </text><line style="stroke:#000000;stroke-width:1.0;" x1="351" x2="351" y1="293.2031" y2="314.8125"/><line style="stroke:#000000;stroke-width:1.0;" x1="263" x2="407" y1="314.8125" y2="314.8125"/><text fill="#000000" font-family="sans-serif" font-size="14" font-weight="bold" lengthAdjust="spacing" textLength="41" x="268" y="331.3457">mailer</text><text fill="#000000" font-family="sans-serif" font-size="14" lengthAdjust="spacing" textLength="12" x="356" y="331.3457">   </text><line style="stroke:#000000;stroke-width:1.0;" x1="351" x2="351" y1="314.8125" y2="336.4219"/><rect fill="none" height="280.9219" rx="5" ry="5" style="stroke:#000000;stroke-width:1.5;" width="144" x="263" y="55.5"/><rect fill="#F1F1F1" height="108.0469" rx="5" ry="5" style="stroke:#F1F1F1;stroke-width:1.5;" width="53" x="544" y="10"/><text fill="#000000" font-family="sans-serif" font-size="14" lengthAdjust="spacing" textLength="43" x="549" y="26.5332">default</text><line style="stroke:#000000;stroke-width:1.0;" x1="544" x2="597" y1="31.6094" y2="31.6094"/><text fill="#000000" font-family="sans-serif" font-size="14" lengthAdjust="spacing" textLength="28" x="549" y="48.1426">core</text><line style="stroke:#000000;stroke-width:1.0;" x1="544" x2="597" y1="53.2188" y2="53.2188"/><text fill="#000000" font-family="sans-serif" font-size="14" lengthAdjust="spacing" textLength="28" x="549" y="69.752">user</text><line style="stroke:#000000;stroke-width:1.0;" x1="544" x2="597" y1="74.8281" y2="74.8281"/><text fill="#000000" font-family="sans-serif" font-size="14" lengthAdjust="spacing" textLength="23" x="549" y="91.3613">test</text><line style="stroke:#000000;stroke-width:1.0;" x1="544" x2="597" y1="96.4375" y2="96.4375"/><text fill="#000000" font-family="sans-serif" font-size="14" lengthAdjust="spacing" textLength="18" x="549" y="112.9707">file</text><rect fill="none" height="108.0469" rx="5" ry="5" style="stroke:#000000;stroke-width:1.5;" width="53" x="544" y="10"/><rect fill="#F1F1F1" height="15" rx="5" ry="5" style="stroke:#F1F1F1;stroke-width:1.5;" width="30" x="558.5" y="136"/><rect fill="none" height="15" rx="5" ry="5" style="stroke:#000000;stroke-width:1.5;" width="30" x="558.5" y="136"/><rect fill="#F1F1F1" height="43.2188" rx="5" ry="5" style="stroke:#F1F1F1;stroke-width:1.5;" width="34" x="553.5" y="197.5"/><text fill="#000000" font-family="sans-serif" font-size="14" lengthAdjust="spacing" textLength="16" x="558.5" y="214.0332">80</text><line style="stroke:#000000;stroke-width:1.0;" x1="553.5" x2="587.5" y1="219.1094" y2="219.1094"/><text fill="#000000" font-family="sans-serif" font-size="14" lengthAdjust="spacing" textLength="24" x="558.5" y="235.6426">443</text><rect fill="none" height="43.2188" rx="5" ry="5" style="stroke:#000000;stroke-width:1.5;" width="34" x="553.5" y="197.5"/><rect fill="#F1F1F1" height="64.8281" rx="5" ry="5" style="stroke:#F1F1F1;stroke-width:1.5;" width="253" x="444" y="258.5"/><text fill="#000000" font-family="sans-serif" font-size="14" font-weight="bold" lengthAdjust="spacing" textLength="57" x="449" y="275.0332">provider</text><text fill="#000000" font-family="sans-serif" font-size="14" lengthAdjust="spacing" textLength="67" x="516" y="275.0332">mongoose</text><line style="stroke:#000000;stroke-width:1.0;" x1="511" x2="511" y1="258.5" y2="280.1094"/><line style="stroke:#000000;stroke-width:1.0;" x1="444" x2="697" y1="280.1094" y2="280.1094"/><text fill="#000000" font-family="sans-serif" font-size="14" font-weight="bold" lengthAdjust="spacing" textLength="31" x="449" y="296.6426">host</text><text fill="#000000" font-family="sans-serif" font-size="14" lengthAdjust="spacing" textLength="176" x="516" y="296.6426">mongodb://127.0.0.1:27017</text><line style="stroke:#000000;stroke-width:1.0;" x1="511" x2="511" y1="280.1094" y2="301.7188"/><line style="stroke:#000000;stroke-width:1.0;" x1="444" x2="697" y1="301.7188" y2="301.7188"/><text fill="#000000" font-family="sans-serif" font-size="14" font-weight="bold" lengthAdjust="spacing" textLength="37" x="449" y="318.252">name</text><text fill="#000000" font-family="sans-serif" font-size="14" lengthAdjust="spacing" textLength="43" x="516" y="318.252">default</text><line style="stroke:#000000;stroke-width:1.0;" x1="511" x2="511" y1="301.7188" y2="323.3281"/><rect fill="none" height="64.8281" rx="5" ry="5" style="stroke:#000000;stroke-width:1.5;" width="253" x="444" y="258.5"/><rect fill="#F1F1F1" height="64.8281" rx="5" ry="5" style="stroke:#F1F1F1;stroke-width:1.5;" width="99" x="521" y="341.5"/><text fill="#000000" font-family="sans-serif" font-size="14" font-weight="bold" lengthAdjust="spacing" textLength="47" x="526" y="358.0332">sender</text><text fill="#000000" font-family="sans-serif" font-size="14" lengthAdjust="spacing" textLength="12" x="603" y="358.0332">   </text><line style="stroke:#000000;stroke-width:1.0;" x1="598" x2="598" y1="341.5" y2="363.1094"/><line style="stroke:#000000;stroke-width:1.0;" x1="521" x2="620" y1="363.1094" y2="363.1094"/><text fill="#000000" font-family="sans-serif" font-size="14" font-weight="bold" lengthAdjust="spacing" textLength="63" x="526" y="379.6426">transport</text><text fill="#000000" font-family="sans-serif" font-size="14" lengthAdjust="spacing" textLength="12" x="603" y="379.6426">   </text><line style="stroke:#000000;stroke-width:1.0;" x1="598" x2="598" y1="363.1094" y2="384.7188"/><line style="stroke:#000000;stroke-width:1.0;" x1="521" x2="620" y1="384.7188" y2="384.7188"/><text fill="#000000" font-family="sans-serif" font-size="14" font-weight="bold" lengthAdjust="spacing" textLength="67" x="526" y="401.252">templates</text><text fill="#000000" font-family="sans-serif" font-size="14" lengthAdjust="spacing" textLength="12" x="603" y="401.252">   </text><line style="stroke:#000000;stroke-width:1.0;" x1="598" x2="598" y1="384.7188" y2="406.3281"/><rect fill="none" height="64.8281" rx="5" ry="5" style="stroke:#000000;stroke-width:1.5;" width="99" x="521" y="341.5"/><rect fill="#F1F1F1" height="43.2188" rx="5" ry="5" style="stroke:#F1F1F1;stroke-width:1.5;" width="185" x="779.5" y="268.5"/><text fill="#000000" font-family="sans-serif" font-size="14" font-weight="bold" lengthAdjust="spacing" textLength="36" x="784.5" y="285.0332">email</text><text fill="#000000" font-family="sans-serif" font-size="14" lengthAdjust="spacing" textLength="128" x="831.5" y="285.0332">noreply@default.net</text><line style="stroke:#000000;stroke-width:1.0;" x1="826.5" x2="826.5" y1="268.5" y2="290.1094"/><line style="stroke:#000000;stroke-width:1.0;" x1="779.5" x2="964.5" y1="290.1094" y2="290.1094"/><text fill="#000000" font-family="sans-serif" font-size="14" font-weight="bold" lengthAdjust="spacing" textLength="37" x="784.5" y="306.6426">name</text><text fill="#000000" font-family="sans-serif" font-size="14" lengthAdjust="spacing" textLength="45" x="831.5" y="306.6426">Default</text><line style="stroke:#000000;stroke-width:1.0;" x1="826.5" x2="826.5" y1="290.1094" y2="311.7188"/><rect fill="none" height="43.2188" rx="5" ry="5" style="stroke:#000000;stroke-width:1.5;" width="185" x="779.5" y="268.5"/><rect fill="#F1F1F1" height="86.4375" rx="5" ry="5" style="stroke:#F1F1F1;stroke-width:1.5;" width="175" x="784.5" y="330"/><text fill="#000000" font-family="sans-serif" font-size="14" font-weight="bold" lengthAdjust="spacing" textLength="31" x="789.5" y="346.5332">host</text><text fill="#000000" font-family="sans-serif" font-size="14" lengthAdjust="spacing" textLength="109" x="845.5" y="346.5332">smtp.default.com</text><line style="stroke:#000000;stroke-width:1.0;" x1="840.5" x2="840.5" y1="330" y2="351.6094"/><line style="stroke:#000000;stroke-width:1.0;" x1="784.5" x2="959.5" y1="351.6094" y2="351.6094"/><text fill="#000000" font-family="sans-serif" font-size="14" font-weight="bold" lengthAdjust="spacing" textLength="28" x="789.5" y="368.1426">port</text><text fill="#000000" font-family="sans-serif" font-size="14" lengthAdjust="spacing" textLength="24" x="845.5" y="368.1426">465</text><line style="stroke:#000000;stroke-width:1.0;" x1="840.5" x2="840.5" y1="351.6094" y2="373.2188"/><line style="stroke:#000000;stroke-width:1.0;" x1="784.5" x2="959.5" y1="373.2188" y2="373.2188"/><text fill="#000000" font-family="sans-serif" font-size="14" font-weight="bold" lengthAdjust="spacing" textLength="46" x="789.5" y="389.752">secure</text><text fill="#000000" font-family="sans-serif" font-size="14" lengthAdjust="spacing" textLength="41" x="845.5" y="389.752">☑ true</text><line style="stroke:#000000;stroke-width:1.0;" x1="840.5" x2="840.5" y1="373.2188" y2="394.8281"/><line style="stroke:#000000;stroke-width:1.0;" x1="784.5" x2="959.5" y1="394.8281" y2="394.8281"/><text fill="#000000" font-family="sans-serif" font-size="14" font-weight="bold" lengthAdjust="spacing" textLength="31" x="789.5" y="411.3613">auth</text><text fill="#000000" font-family="sans-serif" font-size="14" lengthAdjust="spacing" textLength="12" x="845.5" y="411.3613">   </text><line style="stroke:#000000;stroke-width:1.0;" x1="840.5" x2="840.5" y1="394.8281" y2="416.4375"/><rect fill="none" height="86.4375" rx="5" ry="5" style="stroke:#000000;stroke-width:1.5;" width="175" x="784.5" y="330"/><rect fill="#F1F1F1" height="43.2188" rx="5" ry="5" style="stroke:#F1F1F1;stroke-width:1.5;" width="181" x="1047" y="383.5"/><text fill="#000000" font-family="sans-serif" font-size="14" font-weight="bold" lengthAdjust="spacing" textLength="30" x="1052" y="400.0332">user</text><text fill="#000000" font-family="sans-serif" font-size="14" lengthAdjust="spacing" textLength="128" x="1095" y="400.0332">noreply@default.net</text><line style="stroke:#000000;stroke-width:1.0;" x1="1090" x2="1090" y1="383.5" y2="405.1094"/><line style="stroke:#000000;stroke-width:1.0;" x1="1047" x2="1228" y1="405.1094" y2="405.1094"/><text fill="#000000" font-family="sans-serif" font-size="14" font-weight="bold" lengthAdjust="spacing" textLength="33" x="1052" y="421.6426">pass</text><text fill="#000000" font-family="sans-serif" font-size="14" lengthAdjust="spacing" textLength="4" x="1095" y="421.6426"> </text><line style="stroke:#000000;stroke-width:1.0;" x1="1090" x2="1090" y1="405.1094" y2="426.7188"/><rect fill="none" height="43.2188" rx="5" ry="5" style="stroke:#000000;stroke-width:1.5;" width="181" x="1047" y="383.5"/><rect fill="#F1F1F1" height="43.2188" rx="5" ry="5" style="stroke:#F1F1F1;stroke-width:1.5;" width="276" x="734" y="434.5"/><text fill="#000000" font-family="sans-serif" font-size="14" font-weight="bold" lengthAdjust="spacing" textLength="106" x="739" y="451.0332">userVerifyEmail</text><text fill="#000000" font-family="sans-serif" font-size="14" lengthAdjust="spacing" textLength="116" x="872" y="451.0332">DefaultVerifyEmail</text><line style="stroke:#000000;stroke-width:1.0;" x1="867" x2="867" y1="434.5" y2="456.1094"/><line style="stroke:#000000;stroke-width:1.0;" x1="734" x2="1010" y1="456.1094" y2="456.1094"/><text fill="#000000" font-family="sans-serif" font-size="14" font-weight="bold" lengthAdjust="spacing" textLength="123" x="739" y="472.6426">userRecoverEmail</text><text fill="#000000" font-family="sans-serif" font-size="14" lengthAdjust="spacing" textLength="133" x="872" y="472.6426">DefaultRecoverEmail</text><line style="stroke:#000000;stroke-width:1.0;" x1="867" x2="867" y1="456.1094" y2="477.7188"/><rect fill="none" height="43.2188" rx="5" ry="5" style="stroke:#000000;stroke-width:1.5;" width="276" x="734" y="434.5"/><rect fill="#F1F1F1" height="21.6094" rx="5" ry="5" style="stroke:#F1F1F1;stroke-width:1.5;" width="36" x="190" y="399"/><text fill="#000000" font-family="sans-serif" font-size="14" font-weight="bold" lengthAdjust="spacing" textLength="4" x="195" y="415.5332">/</text><text fill="#000000" font-family="sans-serif" font-size="14" lengthAdjust="spacing" textLength="12" x="209" y="415.5332">   </text><line style="stroke:#000000;stroke-width:1.0;" x1="204" x2="204" y1="399" y2="420.6094"/><rect fill="none" height="21.6094" rx="5" ry="5" style="stroke:#000000;stroke-width:1.5;" width="36" x="190" y="399"/><rect fill="#F1F1F1" height="151.2656" rx="5" ry="5" style="stroke:#F1F1F1;stroke-width:1.5;" width="144" x="263" y="379.5"/><text fill="#000000" font-family="sans-serif" font-size="14" font-weight="bold" lengthAdjust="spacing" textLength="38" x="268" y="396.0332">client</text><text fill="#000000" font-family="sans-serif" font-size="14" lengthAdjust="spacing" textLength="8" x="356" y="396.0332">␀</text><line style="stroke:#000000;stroke-width:1.0;" x1="351" x2="351" y1="379.5" y2="401.1094"/><line style="stroke:#000000;stroke-width:1.0;" x1="263" x2="407" y1="401.1094" y2="401.1094"/><text fill="#000000" font-family="sans-serif" font-size="14" font-weight="bold" lengthAdjust="spacing" textLength="52" x="268" y="417.6426">runtime</text><text fill="#000000" font-family="sans-serif" font-size="14" lengthAdjust="spacing" textLength="42" x="356" y="417.6426">nodejs</text><line style="stroke:#000000;stroke-width:1.0;" x1="351" x2="351" y1="401.1094" y2="422.7188"/><line style="stroke:#000000;stroke-width:1.0;" x1="263" x2="407" y1="422.7188" y2="422.7188"/><text fill="#000000" font-family="sans-serif" font-size="14" font-weight="bold" lengthAdjust="spacing" textLength="29" x="268" y="439.252">apis</text><text fill="#000000" font-family="sans-serif" font-size="14" lengthAdjust="spacing" textLength="12" x="356" y="439.252">   </text><line style="stroke:#000000;stroke-width:1.0;" x1="351" x2="351" y1="422.7188" y2="444.3281"/><line style="stroke:#000000;stroke-width:1.0;" x1="263" x2="407" y1="444.3281" y2="444.3281"/><text fill="#000000" font-family="sans-serif" font-size="14" font-weight="bold" lengthAdjust="spacing" textLength="48" x="268" y="460.8613">origins</text><text fill="#000000" font-family="sans-serif" font-size="14" lengthAdjust="spacing" textLength="12" x="356" y="460.8613">   </text><line style="stroke:#000000;stroke-width:1.0;" x1="351" x2="351" y1="444.3281" y2="465.9375"/><line style="stroke:#000000;stroke-width:1.0;" x1="263" x2="407" y1="465.9375" y2="465.9375"/><text fill="#000000" font-family="sans-serif" font-size="14" font-weight="bold" lengthAdjust="spacing" textLength="78" x="268" y="482.4707">minifyBuild</text><text fill="#000000" font-family="sans-serif" font-size="14" lengthAdjust="spacing" textLength="46" x="356" y="482.4707">☐ false</text><line style="stroke:#000000;stroke-width:1.0;" x1="351" x2="351" y1="465.9375" y2="487.5469"/><line style="stroke:#000000;stroke-width:1.0;" x1="263" x2="407" y1="487.5469" y2="487.5469"/><text fill="#000000" font-family="sans-serif" font-size="14" font-weight="bold" lengthAdjust="spacing" textLength="57" x="268" y="504.0801">liteBuild</text><text fill="#000000" font-family="sans-serif" font-size="14" lengthAdjust="spacing" textLength="41" x="356" y="504.0801">☑ true</text><line style="stroke:#000000;stroke-width:1.0;" x1="351" x2="351" y1="487.5469" y2="509.1563"/><line style="stroke:#000000;stroke-width:1.0;" x1="263" x2="407" y1="509.1563" y2="509.1563"/><text fill="#000000" font-family="sans-serif" font-size="14" font-weight="bold" lengthAdjust="spacing" textLength="39" x="268" y="525.6895">proxy</text><text fill="#000000" font-family="sans-serif" font-size="14" lengthAdjust="spacing" textLength="12" x="356" y="525.6895">   </text><line style="stroke:#000000;stroke-width:1.0;" x1="351" x2="351" y1="509.1563" y2="530.7656"/><rect fill="none" height="151.2656" rx="5" ry="5" style="stroke:#000000;stroke-width:1.5;" width="144" x="263" y="379.5"/><rect fill="#F1F1F1" height="15" rx="5" ry="5" style="stroke:#F1F1F1;stroke-width:1.5;" width="30" x="558.5" y="425"/><rect fill="none" height="15" rx="5" ry="5" style="stroke:#000000;stroke-width:1.5;" width="30" x="558.5" y="425"/><rect fill="#F1F1F1" height="15" rx="5" ry="5" style="stroke:#F1F1F1;stroke-width:1.5;" width="30" x="558.5" y="459"/><rect fill="none" height="15" rx="5" ry="5" style="stroke:#000000;stroke-width:1.5;" width="30" x="558.5" y="459"/><rect fill="#F1F1F1" height="43.2188" rx="5" ry="5" style="stroke:#F1F1F1;stroke-width:1.5;" width="34" x="553.5" y="498.5"/><text fill="#000000" font-family="sans-serif" font-size="14" lengthAdjust="spacing" textLength="16" x="558.5" y="515.0332">80</text><line style="stroke:#000000;stroke-width:1.0;" x1="553.5" x2="587.5" y1="520.1094" y2="520.1094"/><text fill="#000000" font-family="sans-serif" font-size="14" lengthAdjust="spacing" textLength="24" x="558.5" y="536.6426">443</text><rect fill="none" height="43.2188" rx="5" ry="5" style="stroke:#000000;stroke-width:1.5;" width="34" x="553.5" y="498.5"/><path d="M395,109 L408,109 C454.1337,109 505.05,91.8484 537.2599,78.723 " fill="none" style="stroke:#000000;stroke-width:1.0;stroke-dasharray:3.0,3.0;"/><path d="M538.4198,81.5138 L539.3529,77.8531 L536.0999,75.9322 L544.2368,75.8232 L538.4198,81.5138 " fill="#000000" style="stroke:#000000;stroke-width:1.0;"/><ellipse cx="395" cy="109" fill="#000000" rx="3" ry="3" style="stroke:#000000;stroke-width:1.0;"/><path d="M395,130 L408,130 C459.8657,130 520.7262,137.2109 550.9563,141.2825 " fill="none" style="stroke:#000000;stroke-width:1.0;stroke-dasharray:3.0,3.0;"/><path d="M550.5337,144.355 L553.2607,141.5995 L551.3789,138.21 L558.6376,142.339 L550.5337,144.355 " fill="#000000" style="stroke:#000000;stroke-width:1.0;"/><ellipse cx="395" cy="130" fill="#000000" rx="3" ry="3" style="stroke:#000000;stroke-width:1.0;"/><path d="M395,282 L408,282 C429.7051,282 424.8269,259.1737 444,249 C476.9421,231.5202 520.0823,224.0977 546.3823,221.0378 " fill="none" style="stroke:#000000;stroke-width:1.0;stroke-dasharray:3.0,3.0;"/><path d="M546.7086,224.0743 L548.6597,220.793 L546.0559,218.0012 L553.9737,220.2219 L546.7086,224.0743 " fill="#000000" style="stroke:#000000;stroke-width:1.0;"/><ellipse cx="395" cy="282" fill="#000000" rx="3" ry="3" style="stroke:#000000;stroke-width:1.0;"/><path d="M395,304 L408,304 C417.4433,304 427.1864,303.7778 436.9895,303.3915 " fill="none" style="stroke:#000000;stroke-width:1.0;stroke-dasharray:3.0,3.0;"/><path d="M437.1201,306.3932 L439.2407,303.2936 L436.8589,300.3898 L444.4937,303.0651 L437.1201,306.3932 " fill="#000000" style="stroke:#000000;stroke-width:1.0;"/><ellipse cx="395" cy="304" fill="#000000" rx="3" ry="3" style="stroke:#000000;stroke-width:1.0;"/><path d="M609,352 L622,352 C656.9278,352 664.403,341.5496 698,332 C714.0928,327.4258 717.8284,325.2872 734,321 C746.3581,317.7238 759.399,314.4936 772.3292,311.4272 " fill="none" style="stroke:#000000;stroke-width:1.0;stroke-dasharray:3.0,3.0;"/><path d="M773.0435,314.465 L774.6076,310.8915 L771.615,308.3895 L779.9236,309.6416 L773.0435,314.465 " fill="#000000" style="stroke:#000000;stroke-width:1.0;"/><ellipse cx="609" cy="352" fill="#000000" rx="3" ry="3" style="stroke:#000000;stroke-width:1.0;"/><path d="M948.5,405 L961.5,405 C986.7653,405 1014.0765,405 1039.4574,405 " fill="none" style="stroke:#000000;stroke-width:1.0;stroke-dasharray:3.0,3.0;"/><path d="M1039.4574,408.1242 L1041.8005,405 L1039.4574,401.8758 L1047.2678,405 L1039.4574,408.1242 " fill="#000000" style="stroke:#000000;stroke-width:1.0;"/><ellipse cx="948.5" cy="405" fill="#000000" rx="3" ry="3" style="stroke:#000000;stroke-width:1.0;"/><path d="M609,373 L622,373 C673.2897,373 730.5101,373 777.2023,373 " fill="none" style="stroke:#000000;stroke-width:1.0;stroke-dasharray:3.0,3.0;"/><path d="M777.2023,376.0789 L779.5115,373 L777.2023,369.9211 L784.8996,373 L777.2023,376.0789 " fill="#000000" style="stroke:#000000;stroke-width:1.0;"/><ellipse cx="609" cy="373" fill="#000000" rx="3" ry="3" style="stroke:#000000;stroke-width:1.0;"/><path d="M609,396 L622,396 C673.4194,396 684.0247,412.8996 734,425 C744.5316,427.55 755.5338,430.1453 766.5287,432.6941 " fill="none" style="stroke:#000000;stroke-width:1.0;stroke-dasharray:3.0,3.0;"/><path d="M765.8264,435.736 L768.8102,433.2208 L767.2311,429.6521 L774.1336,434.45 L765.8264,435.736 " fill="#000000" style="stroke:#000000;stroke-width:1.0;"/><ellipse cx="609" cy="396" fill="#000000" rx="3" ry="3" style="stroke:#000000;stroke-width:1.0;"/><path d="M395,326 L408,326 C428.6939,326 475.7867,340.5806 513.893,353.6698 " fill="none" style="stroke:#000000;stroke-width:1.0;stroke-dasharray:3.0,3.0;"/><path d="M512.8557,356.6662 L516.1403,354.4477 L514.9303,350.6734 L521.384,356.2629 L512.8557,356.6662 " fill="#000000" style="stroke:#000000;stroke-width:1.0;"/><ellipse cx="395" cy="326" fill="#000000" rx="3" ry="3" style="stroke:#000000;stroke-width:1.0;"/><path d="M214,312 L227,312 C237.6117,312 247.4695,309.3561 256.5591,304.8667 " fill="none" style="stroke:#000000;stroke-width:1.0;stroke-dasharray:3.0,3.0;"/><path d="M258.0709,307.587 L258.5993,303.7328 L255.0472,302.1463 L263.3599,301.087 L258.0709,307.587 " fill="#000000" style="stroke:#000000;stroke-width:1.0;"/><ellipse cx="214" cy="312" fill="#000000" rx="3" ry="3" style="stroke:#000000;stroke-width:1.0;"/><path d="M141,350 L154,350 C169.6187,350 183.852,339.1022 193.7046,328.9786 " fill="none" style="stroke:#000000;stroke-width:1.0;stroke-dasharray:3.0,3.0;"/><path d="M196.0177,331.0875 L195.2862,327.2438 L191.3914,326.8698 L198.9768,323.1957 L196.0177,331.0875 " fill="#000000" style="stroke:#000000;stroke-width:1.0;"/><ellipse cx="141" cy="350" fill="#000000" rx="3" ry="3" style="stroke:#000000;stroke-width:1.0;"/><path d="M395,433 L408,433 C459.6731,433 520.6174,433 550.9102,433 " fill="none" style="stroke:#000000;stroke-width:1.0;stroke-dasharray:3.0,3.0;"/><path d="M550.9102,436.0793 L553.2197,433 L550.9102,429.9207 L558.6084,433 L550.9102,436.0793 " fill="#000000" style="stroke:#000000;stroke-width:1.0;"/><ellipse cx="395" cy="433" fill="#000000" rx="3" ry="3" style="stroke:#000000;stroke-width:1.0;"/><path d="M395,454 L408,454 C459.8392,454 520.7112,460.6959 550.95,464.4766 " fill="none" style="stroke:#000000;stroke-width:1.0;stroke-dasharray:3.0,3.0;"/><path d="M550.5575,467.55 L553.255,464.7709 L551.3424,461.4032 L558.6336,465.4577 L550.5575,467.55 " fill="#000000" style="stroke:#000000;stroke-width:1.0;"/><ellipse cx="395" cy="454" fill="#000000" rx="3" ry="3" style="stroke:#000000;stroke-width:1.0;"/><path d="M395,520 L408,520 C457.054,520 514.4631,520 546.0729,520 " fill="none" style="stroke:#000000;stroke-width:1.0;stroke-dasharray:3.0,3.0;"/><path d="M546.0729,523.1327 L548.4224,520 L546.0729,516.8673 L553.9045,520 L546.0729,523.1327 " fill="#000000" style="stroke:#000000;stroke-width:1.0;"/><ellipse cx="395" cy="520" fill="#000000" rx="3" ry="3" style="stroke:#000000;stroke-width:1.0;"/><path d="M214,410 L227,410 C236.6736,410 246.4836,411.5697 256.0416,414.1228 " fill="none" style="stroke:#000000;stroke-width:1.0;stroke-dasharray:3.0,3.0;"/><path d="M255.1879,417.0242 L258.2177,414.763 L256.8954,411.2213 L263.2952,416.2571 L255.1879,417.0242 " fill="#000000" style="stroke:#000000;stroke-width:1.0;"/><ellipse cx="214" cy="410" fill="#000000" rx="3" ry="3" style="stroke:#000000;stroke-width:1.0;"/><path d="M141,372 L154,372 C169.6187,372 183.852,382.8978 193.7046,393.0214 " fill="none" style="stroke:#000000;stroke-width:1.0;stroke-dasharray:3.0,3.0;"/><path d="M191.3914,395.1302 L195.2862,394.7562 L196.0177,390.9125 L198.9768,398.8043 L191.3914,395.1302 " fill="#000000" style="stroke:#000000;stroke-width:1.0;"/><ellipse cx="141" cy="372" fill="#000000" rx="3" ry="3" style="stroke:#000000;stroke-width:1.0;"/></g></svg>