<?xml version="1.0" encoding="UTF-8" standalone="no"?><svg xmlns="http://www.w3.org/2000/svg" xmlns:xlink="http://www.w3.org/1999/xlink" contentStyleType="text/css" height="148px" preserveAspectRatio="none" style="width:387px;height:148px;background:#FFFFFF;" version="1.1" viewBox="0 0 387 148" width="387px" zoomAndPan="magnify"><defs/><g><rect fill="#F1F1F1" height="21.6094" rx="5" ry="5" style="stroke:#F1F1F1;stroke-width:1.5;" width="81" x="10" y="67.5"/><text fill="#000000" font-family="sans-serif" font-size="14" font-weight="bold" lengthAdjust="spacing" textLength="49" x="15" y="84.0332">Default</text><text fill="#000000" font-family="sans-serif" font-size="14" lengthAdjust="spacing" textLength="12" x="74" y="84.0332">   </text><line style="stroke:#000000;stroke-width:1.0;" x1="69" x2="69" y1="67.5" y2="89.1094"/><rect fill="none" height="21.6094" rx="5" ry="5" style="stroke:#000000;stroke-width:1.5;" width="81" x="10" y="67.5"/><rect fill="#F1F1F1" height="43.2188" rx="5" ry="5" style="stroke:#F1F1F1;stroke-width:1.5;" width="67" x="128" y="57"/><text fill="#000000" font-family="sans-serif" font-size="14" font-weight="bold" lengthAdjust="spacing" textLength="34" x="133" y="73.5332">head</text><text fill="#000000" font-family="sans-serif" font-size="14" lengthAdjust="spacing" textLength="12" x="178" y="73.5332">   </text><line style="stroke:#000000;stroke-width:1.0;" x1="173" x2="173" y1="57" y2="78.6094"/><line style="stroke:#000000;stroke-width:1.0;" x1="128" x2="195" y1="78.6094" y2="78.6094"/><text fill="#000000" font-family="sans-serif" font-size="14" font-weight="bold" lengthAdjust="spacing" textLength="35" x="133" y="95.1426">body</text><text fill="#000000" font-family="sans-serif" font-size="14" lengthAdjust="spacing" textLength="12" x="178" y="95.1426">   </text><line style="stroke:#000000;stroke-width:1.0;" x1="173" x2="173" y1="78.6094" y2="100.2188"/><rect fill="none" height="43.2188" rx="5" ry="5" style="stroke:#000000;stroke-width:1.5;" width="67" x="128" y="57"/><rect fill="#F1F1F1" height="64.8281" rx="5" ry="5" style="stroke:#F1F1F1;stroke-width:1.5;" width="98" x="254.5" y="10"/><text fill="#000000" font-family="sans-serif" font-size="14" lengthAdjust="spacing" textLength="72" x="259.5" y="26.5332">PwaDefault</text><line style="stroke:#000000;stroke-width:1.0;" x1="254.5" x2="352.5" y1="31.6094" y2="31.6094"/><text fill="#000000" font-family="sans-serif" font-size="14" lengthAdjust="spacing" textLength="24" x="259.5" y="48.1426">Css</text><line style="stroke:#000000;stroke-width:1.0;" x1="254.5" x2="352.5" y1="53.2188" y2="53.2188"/><text fill="#000000" font-family="sans-serif" font-size="14" lengthAdjust="spacing" textLength="88" x="259.5" y="69.752">DefaultScripts</text><rect fill="none" height="64.8281" rx="5" ry="5" style="stroke:#000000;stroke-width:1.5;" width="98" x="254.5" y="10"/><rect fill="#F1F1F1" height="43.2188" rx="5" ry="5" style="stroke:#F1F1F1;stroke-width:1.5;" width="143" x="232" y="93"/><text fill="#000000" font-family="sans-serif" font-size="14" lengthAdjust="spacing" textLength="87" x="237" y="109.5332">CacheControl</text><line style="stroke:#000000;stroke-width:1.0;" x1="232" x2="375" y1="114.6094" y2="114.6094"/><text fill="#000000" font-family="sans-serif" font-size="14" lengthAdjust="spacing" textLength="133" x="237" y="131.1426">DefaultSplashScreen</text><rect fill="none" height="43.2188" rx="5" ry="5" style="stroke:#000000;stroke-width:1.5;" width="143" x="232" y="93"/><path d="M183,67.5 L196,67.5 C212.9566,67.5 231.0378,64.4861 247.4183,60.5512 " fill="none" style="stroke:#000000;stroke-width:1.0;stroke-dasharray:3.0,3.0;"/><path d="M248.1643,63.5097 L249.6372,59.9916 L246.6722,57.5926 L254.8146,58.6859 L248.1643,63.5097 " fill="#000000" style="stroke:#000000;stroke-width:1.0;"/><ellipse cx="183" cy="67.5" fill="#000000" rx="3" ry="3" style="stroke:#000000;stroke-width:1.0;"/><path d="M183,89.5 L196,89.5 C205.4079,89.5 215.162,90.4278 224.7798,91.9259 " fill="none" style="stroke:#000000;stroke-width:1.0;stroke-dasharray:3.0,3.0;"/><path d="M224.253,94.9958 L227.0822,92.3209 L225.3065,88.856 L232.4545,93.2428 L224.253,94.9958 " fill="#000000" style="stroke:#000000;stroke-width:1.0;"/><ellipse cx="183" cy="89.5" fill="#000000" rx="3" ry="3" style="stroke:#000000;stroke-width:1.0;"/><path d="M79,78.5 L92,78.5 C101.2651,78.5 111.2301,78.5 120.6263,78.5 " fill="none" style="stroke:#000000;stroke-width:1.0;stroke-dasharray:3.0,3.0;"/><path d="M120.6263,81.5925 L122.9456,78.5 L120.6263,75.4075 L128.3574,78.5 L120.6263,81.5925 " fill="#000000" style="stroke:#000000;stroke-width:1.0;"/><ellipse cx="79" cy="78.5" fill="#000000" rx="3" ry="3" style="stroke:#000000;stroke-width:1.0;"/></g></svg>