<?xml version="1.0" encoding="UTF-8" standalone="no"?><svg xmlns="http://www.w3.org/2000/svg" xmlns:xlink="http://www.w3.org/1999/xlink" contentStyleType="text/css" height="126px" preserveAspectRatio="none" style="width:786px;height:126px;background:#FFFFFF;" version="1.1" viewBox="0 0 786 126" width="786px" zoomAndPan="magnify"><defs/><g><rect fill="#F1F1F1" height="43.2188" rx="5" ry="5" style="stroke:#F1F1F1;stroke-width:1.5;" width="128" x="10" y="18"/><text fill="#000000" font-family="sans-serif" font-size="14" font-weight="bold" lengthAdjust="spacing" textLength="30" x="15" y="34.5332">type</text><text fill="#000000" font-family="sans-serif" font-size="14" lengthAdjust="spacing" textLength="38" x="95" y="34.5332">object</text><line style="stroke:#000000;stroke-width:1.0;" x1="90" x2="90" y1="18" y2="39.6094"/><line style="stroke:#000000;stroke-width:1.0;" x1="10" x2="138" y1="39.6094" y2="39.6094"/><text fill="#000000" font-family="sans-serif" font-size="14" font-weight="bold" lengthAdjust="spacing" textLength="70" x="15" y="56.1426">properties</text><text fill="#000000" font-family="sans-serif" font-size="14" lengthAdjust="spacing" textLength="12" x="95" y="56.1426">   </text><line style="stroke:#000000;stroke-width:1.0;" x1="90" x2="90" y1="39.6094" y2="61.2188"/><rect fill="none" height="43.2188" rx="5" ry="5" style="stroke:#000000;stroke-width:1.5;" width="128" x="10" y="18"/><rect fill="#F1F1F1" height="21.6094" rx="5" ry="5" style="stroke:#F1F1F1;stroke-width:1.5;" width="81" x="175" y="39.5"/><text fill="#000000" font-family="sans-serif" font-size="14" font-weight="bold" lengthAdjust="spacing" textLength="49" x="180" y="56.0332">Default</text><text fill="#000000" font-family="sans-serif" font-size="14" lengthAdjust="spacing" textLength="12" x="239" y="56.0332">   </text><line style="stroke:#000000;stroke-width:1.0;" x1="234" x2="234" y1="39.5" y2="61.1094"/><rect fill="none" height="21.6094" rx="5" ry="5" style="stroke:#000000;stroke-width:1.5;" width="81" x="175" y="39.5"/><rect fill="#F1F1F1" height="43.2188" rx="5" ry="5" style="stroke:#F1F1F1;stroke-width:1.5;" width="128" x="293" y="29"/><text fill="#000000" font-family="sans-serif" font-size="14" font-weight="bold" lengthAdjust="spacing" textLength="30" x="298" y="45.5332">type</text><text fill="#000000" font-family="sans-serif" font-size="14" lengthAdjust="spacing" textLength="38" x="378" y="45.5332">object</text><line style="stroke:#000000;stroke-width:1.0;" x1="373" x2="373" y1="29" y2="50.6094"/><line style="stroke:#000000;stroke-width:1.0;" x1="293" x2="421" y1="50.6094" y2="50.6094"/><text fill="#000000" font-family="sans-serif" font-size="14" font-weight="bold" lengthAdjust="spacing" textLength="70" x="298" y="67.1426">properties</text><text fill="#000000" font-family="sans-serif" font-size="14" lengthAdjust="spacing" textLength="12" x="378" y="67.1426">   </text><line style="stroke:#000000;stroke-width:1.0;" x1="373" x2="373" y1="50.6094" y2="72.2188"/><rect fill="none" height="43.2188" rx="5" ry="5" style="stroke:#000000;stroke-width:1.5;" width="128" x="293" y="29"/><rect fill="#F1F1F1" height="43.2188" rx="5" ry="5" style="stroke:#F1F1F1;stroke-width:1.5;" width="67" x="458" y="40"/><text fill="#000000" font-family="sans-serif" font-size="14" font-weight="bold" lengthAdjust="spacing" textLength="34" x="463" y="56.5332">head</text><text fill="#000000" font-family="sans-serif" font-size="14" lengthAdjust="spacing" textLength="12" x="508" y="56.5332">   </text><line style="stroke:#000000;stroke-width:1.0;" x1="503" x2="503" y1="40" y2="61.6094"/><line style="stroke:#000000;stroke-width:1.0;" x1="458" x2="525" y1="61.6094" y2="61.6094"/><text fill="#000000" font-family="sans-serif" font-size="14" font-weight="bold" lengthAdjust="spacing" textLength="35" x="463" y="78.1426">body</text><text fill="#000000" font-family="sans-serif" font-size="14" lengthAdjust="spacing" textLength="12" x="508" y="78.1426">   </text><line style="stroke:#000000;stroke-width:1.0;" x1="503" x2="503" y1="61.6094" y2="83.2188"/><rect fill="none" height="43.2188" rx="5" ry="5" style="stroke:#000000;stroke-width:1.5;" width="67" x="458" y="40"/><rect fill="#F1F1F1" height="43.2188" rx="5" ry="5" style="stroke:#F1F1F1;stroke-width:1.5;" width="90" x="562" y="10"/><text fill="#000000" font-family="sans-serif" font-size="14" font-weight="bold" lengthAdjust="spacing" textLength="30" x="567" y="26.5332">type</text><text fill="#000000" font-family="sans-serif" font-size="14" lengthAdjust="spacing" textLength="33" x="614" y="26.5332">array</text><line style="stroke:#000000;stroke-width:1.0;" x1="609" x2="609" y1="10" y2="31.6094"/><line style="stroke:#000000;stroke-width:1.0;" x1="562" x2="652" y1="31.6094" y2="31.6094"/><text fill="#000000" font-family="sans-serif" font-size="14" font-weight="bold" lengthAdjust="spacing" textLength="37" x="567" y="48.1426">items</text><text fill="#000000" font-family="sans-serif" font-size="14" lengthAdjust="spacing" textLength="12" x="614" y="48.1426">   </text><line style="stroke:#000000;stroke-width:1.0;" x1="609" x2="609" y1="31.6094" y2="53.2188"/><rect fill="none" height="43.2188" rx="5" ry="5" style="stroke:#000000;stroke-width:1.5;" width="90" x="562" y="10"/><rect fill="#F1F1F1" height="21.6094" rx="5" ry="5" style="stroke:#F1F1F1;stroke-width:1.5;" width="85" x="689" y="31.5"/><text fill="#000000" font-family="sans-serif" font-size="14" font-weight="bold" lengthAdjust="spacing" textLength="30" x="694" y="48.0332">type</text><text fill="#000000" font-family="sans-serif" font-size="14" lengthAdjust="spacing" textLength="35" x="734" y="48.0332">string</text><line style="stroke:#000000;stroke-width:1.0;" x1="729" x2="729" y1="31.5" y2="53.1094"/><rect fill="none" height="21.6094" rx="5" ry="5" style="stroke:#000000;stroke-width:1.5;" width="85" x="689" y="31.5"/><rect fill="#F1F1F1" height="43.2188" rx="5" ry="5" style="stroke:#F1F1F1;stroke-width:1.5;" width="90" x="562" y="71"/><text fill="#000000" font-family="sans-serif" font-size="14" font-weight="bold" lengthAdjust="spacing" textLength="30" x="567" y="87.5332">type</text><text fill="#000000" font-family="sans-serif" font-size="14" lengthAdjust="spacing" textLength="33" x="614" y="87.5332">array</text><line style="stroke:#000000;stroke-width:1.0;" x1="609" x2="609" y1="71" y2="92.6094"/><line style="stroke:#000000;stroke-width:1.0;" x1="562" x2="652" y1="92.6094" y2="92.6094"/><text fill="#000000" font-family="sans-serif" font-size="14" font-weight="bold" lengthAdjust="spacing" textLength="37" x="567" y="109.1426">items</text><text fill="#000000" font-family="sans-serif" font-size="14" lengthAdjust="spacing" textLength="12" x="614" y="109.1426">   </text><line style="stroke:#000000;stroke-width:1.0;" x1="609" x2="609" y1="92.6094" y2="114.2188"/><rect fill="none" height="43.2188" rx="5" ry="5" style="stroke:#000000;stroke-width:1.5;" width="90" x="562" y="71"/><rect fill="#F1F1F1" height="21.6094" rx="5" ry="5" style="stroke:#F1F1F1;stroke-width:1.5;" width="85" x="689" y="92.5"/><text fill="#000000" font-family="sans-serif" font-size="14" font-weight="bold" lengthAdjust="spacing" textLength="30" x="694" y="109.0332">type</text><text fill="#000000" font-family="sans-serif" font-size="14" lengthAdjust="spacing" textLength="35" x="734" y="109.0332">string</text><line style="stroke:#000000;stroke-width:1.0;" x1="729" x2="729" y1="92.5" y2="114.1094"/><rect fill="none" height="21.6094" rx="5" ry="5" style="stroke:#000000;stroke-width:1.5;" width="85" x="689" y="92.5"/><path d="M640,42.5 L653,42.5 C662.2961,42.5 672.2155,42.5 681.7553,42.5 " fill="none" style="stroke:#000000;stroke-width:1.0;stroke-dasharray:3.0,3.0;"/><path d="M681.7553,45.5201 L684.0204,42.5 L681.7553,39.4799 L689.3056,42.5 L681.7553,45.5201 " fill="#000000" style="stroke:#000000;stroke-width:1.0;"/><ellipse cx="640" cy="42.5" fill="#000000" rx="3" ry="3" style="stroke:#000000;stroke-width:1.0;"/><path d="M513,50.5 L526,50.5 C535.4045,50.5 545.2657,49.2565 554.7344,47.4057 " fill="none" style="stroke:#000000;stroke-width:1.0;stroke-dasharray:3.0,3.0;"/><path d="M555.3753,50.403 L556.9824,46.925 L554.0935,44.4083 L562.2278,45.8034 L555.3753,50.403 " fill="#000000" style="stroke:#000000;stroke-width:1.0;"/><ellipse cx="513" cy="50.5" fill="#000000" rx="3" ry="3" style="stroke:#000000;stroke-width:1.0;"/><path d="M640,103.5 L653,103.5 C662.2961,103.5 672.2155,103.5 681.7553,103.5 " fill="none" style="stroke:#000000;stroke-width:1.0;stroke-dasharray:3.0,3.0;"/><path d="M681.7553,106.5201 L684.0204,103.5 L681.7553,100.4799 L689.3056,103.5 L681.7553,106.5201 " fill="#000000" style="stroke:#000000;stroke-width:1.0;"/><ellipse cx="640" cy="103.5" fill="#000000" rx="3" ry="3" style="stroke:#000000;stroke-width:1.0;"/><path d="M513,72.5 L526,72.5 C535.4312,72.5 545.3055,73.809 554.7789,75.7572 " fill="none" style="stroke:#000000;stroke-width:1.0;stroke-dasharray:3.0,3.0;"/><path d="M554.1042,78.7553 L557.0275,76.2632 L555.4535,72.759 L562.2743,77.4438 L554.1042,78.7553 " fill="#000000" style="stroke:#000000;stroke-width:1.0;"/><ellipse cx="513" cy="72.5" fill="#000000" rx="3" ry="3" style="stroke:#000000;stroke-width:1.0;"/><path d="M409,61.5 L422,61.5 C431.2651,61.5 441.2301,61.5 450.6263,61.5 " fill="none" style="stroke:#000000;stroke-width:1.0;stroke-dasharray:3.0,3.0;"/><path d="M450.6263,64.5925 L452.9456,61.5 L450.6263,58.4075 L458.3574,61.5 L450.6263,64.5925 " fill="#000000" style="stroke:#000000;stroke-width:1.0;"/><ellipse cx="409" cy="61.5" fill="#000000" rx="3" ry="3" style="stroke:#000000;stroke-width:1.0;"/><path d="M244,50.5 L257,50.5 C266.2687,50.5 276.0232,50.5 285.6525,50.5 " fill="none" style="stroke:#000000;stroke-width:1.0;stroke-dasharray:3.0,3.0;"/><path d="M285.6525,53.5736 L287.9577,50.5 L285.6525,47.4264 L293.3365,50.5 L285.6525,53.5736 " fill="#000000" style="stroke:#000000;stroke-width:1.0;"/><ellipse cx="244" cy="50.5" fill="#000000" rx="3" ry="3" style="stroke:#000000;stroke-width:1.0;"/><path d="M126,50.5 L139,50.5 C148.266,50.5 158.1675,50.5 167.6585,50.5 " fill="none" style="stroke:#000000;stroke-width:1.0;stroke-dasharray:3.0,3.0;"/><path d="M167.6585,53.5014 L169.9096,50.5 L167.6585,47.4986 L175.1621,50.5 L167.6585,53.5014 " fill="#000000" style="stroke:#000000;stroke-width:1.0;"/><ellipse cx="126" cy="50.5" fill="#000000" rx="3" ry="3" style="stroke:#000000;stroke-width:1.0;"/></g></svg>