<?xml version="1.0" encoding="UTF-8" standalone="no"?><svg xmlns="http://www.w3.org/2000/svg" xmlns:xlink="http://www.w3.org/1999/xlink" contentStyleType="text/css" height="536px" preserveAspectRatio="none" style="width:1287px;height:536px;background:#FFFFFF;" version="1.1" viewBox="0 0 1287 536" width="1287px" zoomAndPan="magnify"><defs/><g><rect fill="#F1F1F1" height="60.8906" rx="5" ry="5" style="stroke:#F1F1F1;stroke-width:1.5;" width="146" x="10" y="18"/><text fill="#000000" font-family="sans-serif" font-size="14" font-weight="bold" lengthAdjust="spacing" textLength="35" x="15" y="32.9951">type</text><text fill="#000000" font-family="sans-serif" font-size="14" lengthAdjust="spacing" textLength="43" x="108" y="32.9951">object</text><line style="stroke:#000000;stroke-width:1.0;" x1="103" x2="103" y1="18" y2="38.2969"/><line style="stroke:#000000;stroke-width:1.0;" x1="10" x2="156" y1="38.2969" y2="38.2969"/><text fill="#000000" font-family="sans-serif" font-size="14" font-weight="bold" lengthAdjust="spacing" textLength="68" x="15" y="53.292">required</text><text fill="#000000" font-family="sans-serif" font-size="14" lengthAdjust="spacing" textLength="12" x="108" y="53.292">   </text><line style="stroke:#000000;stroke-width:1.0;" x1="103" x2="103" y1="38.2969" y2="58.5938"/><line style="stroke:#000000;stroke-width:1.0;" x1="10" x2="156" y1="58.5938" y2="58.5938"/><text fill="#000000" font-family="sans-serif" font-size="14" font-weight="bold" lengthAdjust="spacing" textLength="83" x="15" y="73.5889">properties</text><text fill="#000000" font-family="sans-serif" font-size="14" lengthAdjust="spacing" textLength="12" x="108" y="73.5889">   </text><line style="stroke:#000000;stroke-width:1.0;" x1="103" x2="103" y1="58.5938" y2="78.8906"/><rect fill="none" height="60.8906" rx="5" ry="5" style="stroke:#000000;stroke-width:1.5;" width="146" x="10" y="18"/><rect fill="#F1F1F1" height="15" rx="5" ry="5" style="stroke:#F1F1F1;stroke-width:1.5;" width="30" x="225" y="32.5"/><rect fill="none" height="15" rx="5" ry="5" style="stroke:#000000;stroke-width:1.5;" width="30" x="225" y="32.5"/><rect fill="#F1F1F1" height="20.2969" rx="5" ry="5" style="stroke:#F1F1F1;stroke-width:1.5;" width="88" x="193" y="66.5"/><text fill="#000000" font-family="sans-serif" font-size="14" font-weight="bold" lengthAdjust="spacing" textLength="56" x="198" y="81.4951">Default</text><text fill="#000000" font-family="sans-serif" font-size="14" lengthAdjust="spacing" textLength="12" x="264" y="81.4951">   </text><line style="stroke:#000000;stroke-width:1.0;" x1="259" x2="259" y1="66.5" y2="86.7969"/><rect fill="none" height="20.2969" rx="5" ry="5" style="stroke:#000000;stroke-width:1.5;" width="88" x="193" y="66.5"/><rect fill="#F1F1F1" height="60.8906" rx="5" ry="5" style="stroke:#F1F1F1;stroke-width:1.5;" width="146" x="318" y="46"/><text fill="#000000" font-family="sans-serif" font-size="14" font-weight="bold" lengthAdjust="spacing" textLength="35" x="323" y="60.9951">type</text><text fill="#000000" font-family="sans-serif" font-size="14" lengthAdjust="spacing" textLength="43" x="416" y="60.9951">object</text><line style="stroke:#000000;stroke-width:1.0;" x1="411" x2="411" y1="46" y2="66.2969"/><line style="stroke:#000000;stroke-width:1.0;" x1="318" x2="464" y1="66.2969" y2="66.2969"/><text fill="#000000" font-family="sans-serif" font-size="14" font-weight="bold" lengthAdjust="spacing" textLength="68" x="323" y="81.292">required</text><text fill="#000000" font-family="sans-serif" font-size="14" lengthAdjust="spacing" textLength="12" x="416" y="81.292">   </text><line style="stroke:#000000;stroke-width:1.0;" x1="411" x2="411" y1="66.2969" y2="86.5938"/><line style="stroke:#000000;stroke-width:1.0;" x1="318" x2="464" y1="86.5938" y2="86.5938"/><text fill="#000000" font-family="sans-serif" font-size="14" font-weight="bold" lengthAdjust="spacing" textLength="83" x="323" y="101.5889">properties</text><text fill="#000000" font-family="sans-serif" font-size="14" lengthAdjust="spacing" textLength="12" x="416" y="101.5889">   </text><line style="stroke:#000000;stroke-width:1.0;" x1="411" x2="411" y1="86.5938" y2="106.8906"/><rect fill="none" height="60.8906" rx="5" ry="5" style="stroke:#000000;stroke-width:1.5;" width="146" x="318" y="46"/><rect fill="#F1F1F1" height="15" rx="5" ry="5" style="stroke:#F1F1F1;stroke-width:1.5;" width="30" x="530" y="44.5"/><rect fill="none" height="15" rx="5" ry="5" style="stroke:#000000;stroke-width:1.5;" width="30" x="530" y="44.5"/><rect fill="#F1F1F1" height="81.1875" rx="5" ry="5" style="stroke:#F1F1F1;stroke-width:1.5;" width="82" x="501" y="79"/><text fill="#000000" font-family="sans-serif" font-size="14" font-weight="bold" lengthAdjust="spacing" textLength="39" x="506" y="93.9951">head</text><text fill="#000000" font-family="sans-serif" font-size="14" lengthAdjust="spacing" textLength="12" x="566" y="93.9951">   </text><line style="stroke:#000000;stroke-width:1.0;" x1="561" x2="561" y1="79" y2="99.2969"/><line style="stroke:#000000;stroke-width:1.0;" x1="501" x2="583" y1="99.2969" y2="99.2969"/><text fill="#000000" font-family="sans-serif" font-size="14" font-weight="bold" lengthAdjust="spacing" textLength="39" x="506" y="114.292">body</text><text fill="#000000" font-family="sans-serif" font-size="14" lengthAdjust="spacing" textLength="12" x="566" y="114.292">   </text><line style="stroke:#000000;stroke-width:1.0;" x1="561" x2="561" y1="99.2969" y2="119.5938"/><line style="stroke:#000000;stroke-width:1.0;" x1="501" x2="583" y1="119.5938" y2="119.5938"/><text fill="#000000" font-family="sans-serif" font-size="14" font-weight="bold" lengthAdjust="spacing" textLength="50" x="506" y="134.5889">offline</text><text fill="#000000" font-family="sans-serif" font-size="14" lengthAdjust="spacing" textLength="12" x="566" y="134.5889">   </text><line style="stroke:#000000;stroke-width:1.0;" x1="561" x2="561" y1="119.5938" y2="139.8906"/><line style="stroke:#000000;stroke-width:1.0;" x1="501" x2="583" y1="139.8906" y2="139.8906"/><text fill="#000000" font-family="sans-serif" font-size="14" font-weight="bold" lengthAdjust="spacing" textLength="48" x="506" y="154.8857">pages</text><text fill="#000000" font-family="sans-serif" font-size="14" lengthAdjust="spacing" textLength="12" x="566" y="154.8857">   </text><line style="stroke:#000000;stroke-width:1.0;" x1="561" x2="561" y1="139.8906" y2="160.1875"/><rect fill="none" height="81.1875" rx="5" ry="5" style="stroke:#000000;stroke-width:1.5;" width="82" x="501" y="79"/><rect fill="#F1F1F1" height="40.5938" rx="5" ry="5" style="stroke:#F1F1F1;stroke-width:1.5;" width="96" x="620" y="10"/><text fill="#000000" font-family="sans-serif" font-size="14" font-weight="bold" lengthAdjust="spacing" textLength="35" x="625" y="24.9951">type</text><text fill="#000000" font-family="sans-serif" font-size="14" lengthAdjust="spacing" textLength="33" x="678" y="24.9951">array</text><line style="stroke:#000000;stroke-width:1.0;" x1="673" x2="673" y1="10" y2="30.2969"/><line style="stroke:#000000;stroke-width:1.0;" x1="620" x2="716" y1="30.2969" y2="30.2969"/><text fill="#000000" font-family="sans-serif" font-size="14" font-weight="bold" lengthAdjust="spacing" textLength="43" x="625" y="45.292">items</text><text fill="#000000" font-family="sans-serif" font-size="14" lengthAdjust="spacing" textLength="12" x="678" y="45.292">   </text><line style="stroke:#000000;stroke-width:1.0;" x1="673" x2="673" y1="30.2969" y2="50.5938"/><rect fill="none" height="40.5938" rx="5" ry="5" style="stroke:#000000;stroke-width:1.5;" width="96" x="620" y="10"/><rect fill="#F1F1F1" height="20.2969" rx="5" ry="5" style="stroke:#F1F1F1;stroke-width:1.5;" width="94" x="779" y="30.5"/><text fill="#000000" font-family="sans-serif" font-size="14" font-weight="bold" lengthAdjust="spacing" textLength="35" x="784" y="45.4951">type</text><text fill="#000000" font-family="sans-serif" font-size="14" lengthAdjust="spacing" textLength="39" x="829" y="45.4951">string</text><line style="stroke:#000000;stroke-width:1.0;" x1="824" x2="824" y1="30.5" y2="50.7969"/><rect fill="none" height="20.2969" rx="5" ry="5" style="stroke:#000000;stroke-width:1.5;" width="94" x="779" y="30.5"/><rect fill="#F1F1F1" height="40.5938" rx="5" ry="5" style="stroke:#F1F1F1;stroke-width:1.5;" width="96" x="620" y="69"/><text fill="#000000" font-family="sans-serif" font-size="14" font-weight="bold" lengthAdjust="spacing" textLength="35" x="625" y="83.9951">type</text><text fill="#000000" font-family="sans-serif" font-size="14" lengthAdjust="spacing" textLength="33" x="678" y="83.9951">array</text><line style="stroke:#000000;stroke-width:1.0;" x1="673" x2="673" y1="69" y2="89.2969"/><line style="stroke:#000000;stroke-width:1.0;" x1="620" x2="716" y1="89.2969" y2="89.2969"/><text fill="#000000" font-family="sans-serif" font-size="14" font-weight="bold" lengthAdjust="spacing" textLength="43" x="625" y="104.292">items</text><text fill="#000000" font-family="sans-serif" font-size="14" lengthAdjust="spacing" textLength="12" x="678" y="104.292">   </text><line style="stroke:#000000;stroke-width:1.0;" x1="673" x2="673" y1="89.2969" y2="109.5938"/><rect fill="none" height="40.5938" rx="5" ry="5" style="stroke:#000000;stroke-width:1.5;" width="96" x="620" y="69"/><rect fill="#F1F1F1" height="20.2969" rx="5" ry="5" style="stroke:#F1F1F1;stroke-width:1.5;" width="94" x="779" y="89.5"/><text fill="#000000" font-family="sans-serif" font-size="14" font-weight="bold" lengthAdjust="spacing" textLength="35" x="784" y="104.4951">type</text><text fill="#000000" font-family="sans-serif" font-size="14" lengthAdjust="spacing" textLength="39" x="829" y="104.4951">string</text><line style="stroke:#000000;stroke-width:1.0;" x1="824" x2="824" y1="89.5" y2="109.7969"/><rect fill="none" height="20.2969" rx="5" ry="5" style="stroke:#000000;stroke-width:1.5;" width="94" x="779" y="89.5"/><rect fill="#F1F1F1" height="40.5938" rx="5" ry="5" style="stroke:#F1F1F1;stroke-width:1.5;" width="96" x="620" y="128"/><text fill="#000000" font-family="sans-serif" font-size="14" font-weight="bold" lengthAdjust="spacing" textLength="35" x="625" y="142.9951">type</text><text fill="#000000" font-family="sans-serif" font-size="14" lengthAdjust="spacing" textLength="33" x="678" y="142.9951">array</text><line style="stroke:#000000;stroke-width:1.0;" x1="673" x2="673" y1="128" y2="148.2969"/><line style="stroke:#000000;stroke-width:1.0;" x1="620" x2="716" y1="148.2969" y2="148.2969"/><text fill="#000000" font-family="sans-serif" font-size="14" font-weight="bold" lengthAdjust="spacing" textLength="43" x="625" y="163.292">items</text><text fill="#000000" font-family="sans-serif" font-size="14" lengthAdjust="spacing" textLength="12" x="678" y="163.292">   </text><line style="stroke:#000000;stroke-width:1.0;" x1="673" x2="673" y1="148.2969" y2="168.5938"/><rect fill="none" height="40.5938" rx="5" ry="5" style="stroke:#000000;stroke-width:1.5;" width="96" x="620" y="128"/><rect fill="#F1F1F1" height="60.8906" rx="5" ry="5" style="stroke:#F1F1F1;stroke-width:1.5;" width="146" x="753" y="128"/><text fill="#000000" font-family="sans-serif" font-size="14" font-weight="bold" lengthAdjust="spacing" textLength="35" x="758" y="142.9951">type</text><text fill="#000000" font-family="sans-serif" font-size="14" lengthAdjust="spacing" textLength="43" x="851" y="142.9951">object</text><line style="stroke:#000000;stroke-width:1.0;" x1="846" x2="846" y1="128" y2="148.2969"/><line style="stroke:#000000;stroke-width:1.0;" x1="753" x2="899" y1="148.2969" y2="148.2969"/><text fill="#000000" font-family="sans-serif" font-size="14" font-weight="bold" lengthAdjust="spacing" textLength="68" x="758" y="163.292">required</text><text fill="#000000" font-family="sans-serif" font-size="14" lengthAdjust="spacing" textLength="12" x="851" y="163.292">   </text><line style="stroke:#000000;stroke-width:1.0;" x1="846" x2="846" y1="148.2969" y2="168.5938"/><line style="stroke:#000000;stroke-width:1.0;" x1="753" x2="899" y1="168.5938" y2="168.5938"/><text fill="#000000" font-family="sans-serif" font-size="14" font-weight="bold" lengthAdjust="spacing" textLength="83" x="758" y="183.5889">properties</text><text fill="#000000" font-family="sans-serif" font-size="14" lengthAdjust="spacing" textLength="12" x="851" y="183.5889">   </text><line style="stroke:#000000;stroke-width:1.0;" x1="846" x2="846" y1="168.5938" y2="188.8906"/><rect fill="none" height="60.8906" rx="5" ry="5" style="stroke:#000000;stroke-width:1.5;" width="146" x="753" y="128"/><rect fill="#F1F1F1" height="15" rx="5" ry="5" style="stroke:#F1F1F1;stroke-width:1.5;" width="30" x="961.5" y="93.5"/><rect fill="none" height="15" rx="5" ry="5" style="stroke:#000000;stroke-width:1.5;" width="30" x="961.5" y="93.5"/><rect fill="#F1F1F1" height="101.4844" rx="5" ry="5" style="stroke:#F1F1F1;stroke-width:1.5;" width="75" x="936" y="128"/><text fill="#000000" font-family="sans-serif" font-size="14" font-weight="bold" lengthAdjust="spacing" textLength="35" x="941" y="142.9951">path</text><text fill="#000000" font-family="sans-serif" font-size="14" lengthAdjust="spacing" textLength="12" x="994" y="142.9951">   </text><line style="stroke:#000000;stroke-width:1.0;" x1="989" x2="989" y1="128" y2="148.2969"/><line style="stroke:#000000;stroke-width:1.0;" x1="936" x2="1011" y1="148.2969" y2="148.2969"/><text fill="#000000" font-family="sans-serif" font-size="14" font-weight="bold" lengthAdjust="spacing" textLength="30" x="941" y="163.292">title</text><text fill="#000000" font-family="sans-serif" font-size="14" lengthAdjust="spacing" textLength="12" x="994" y="163.292">   </text><line style="stroke:#000000;stroke-width:1.0;" x1="989" x2="989" y1="148.2969" y2="168.5938"/><line style="stroke:#000000;stroke-width:1.0;" x1="936" x2="1011" y1="168.5938" y2="168.5938"/><text fill="#000000" font-family="sans-serif" font-size="14" font-weight="bold" lengthAdjust="spacing" textLength="43" x="941" y="183.5889">client</text><text fill="#000000" font-family="sans-serif" font-size="14" lengthAdjust="spacing" textLength="12" x="994" y="183.5889">   </text><line style="stroke:#000000;stroke-width:1.0;" x1="989" x2="989" y1="168.5938" y2="188.8906"/><line style="stroke:#000000;stroke-width:1.0;" x1="936" x2="1011" y1="188.8906" y2="188.8906"/><text fill="#000000" font-family="sans-serif" font-size="14" font-weight="bold" lengthAdjust="spacing" textLength="39" x="941" y="203.8857">head</text><text fill="#000000" font-family="sans-serif" font-size="14" lengthAdjust="spacing" textLength="12" x="994" y="203.8857">   </text><line style="stroke:#000000;stroke-width:1.0;" x1="989" x2="989" y1="188.8906" y2="209.1875"/><line style="stroke:#000000;stroke-width:1.0;" x1="936" x2="1011" y1="209.1875" y2="209.1875"/><text fill="#000000" font-family="sans-serif" font-size="14" font-weight="bold" lengthAdjust="spacing" textLength="39" x="941" y="224.1826">body</text><text fill="#000000" font-family="sans-serif" font-size="14" lengthAdjust="spacing" textLength="12" x="994" y="224.1826">   </text><line style="stroke:#000000;stroke-width:1.0;" x1="989" x2="989" y1="209.1875" y2="229.4844"/><rect fill="none" height="101.4844" rx="5" ry="5" style="stroke:#000000;stroke-width:1.5;" width="75" x="936" y="128"/><rect fill="#F1F1F1" height="20.2969" rx="5" ry="5" style="stroke:#F1F1F1;stroke-width:1.5;" width="94" x="1049" y="77.5"/><text fill="#000000" font-family="sans-serif" font-size="14" font-weight="bold" lengthAdjust="spacing" textLength="35" x="1054" y="92.4951">type</text><text fill="#000000" font-family="sans-serif" font-size="14" lengthAdjust="spacing" textLength="39" x="1099" y="92.4951">string</text><line style="stroke:#000000;stroke-width:1.0;" x1="1094" x2="1094" y1="77.5" y2="97.7969"/><rect fill="none" height="20.2969" rx="5" ry="5" style="stroke:#000000;stroke-width:1.5;" width="94" x="1049" y="77.5"/><rect fill="#F1F1F1" height="20.2969" rx="5" ry="5" style="stroke:#F1F1F1;stroke-width:1.5;" width="94" x="1049" y="115.5"/><text fill="#000000" font-family="sans-serif" font-size="14" font-weight="bold" lengthAdjust="spacing" textLength="35" x="1054" y="130.4951">type</text><text fill="#000000" font-family="sans-serif" font-size="14" lengthAdjust="spacing" textLength="39" x="1099" y="130.4951">string</text><line style="stroke:#000000;stroke-width:1.0;" x1="1094" x2="1094" y1="115.5" y2="135.7969"/><rect fill="none" height="20.2969" rx="5" ry="5" style="stroke:#000000;stroke-width:1.5;" width="94" x="1049" y="115.5"/><rect fill="#F1F1F1" height="20.2969" rx="5" ry="5" style="stroke:#F1F1F1;stroke-width:1.5;" width="94" x="1049" y="153.5"/><text fill="#000000" font-family="sans-serif" font-size="14" font-weight="bold" lengthAdjust="spacing" textLength="35" x="1054" y="168.4951">type</text><text fill="#000000" font-family="sans-serif" font-size="14" lengthAdjust="spacing" textLength="39" x="1099" y="168.4951">string</text><line style="stroke:#000000;stroke-width:1.0;" x1="1094" x2="1094" y1="153.5" y2="173.7969"/><rect fill="none" height="20.2969" rx="5" ry="5" style="stroke:#000000;stroke-width:1.5;" width="94" x="1049" y="153.5"/><rect fill="#F1F1F1" height="40.5938" rx="5" ry="5" style="stroke:#F1F1F1;stroke-width:1.5;" width="96" x="1048" y="192"/><text fill="#000000" font-family="sans-serif" font-size="14" font-weight="bold" lengthAdjust="spacing" textLength="35" x="1053" y="206.9951">type</text><text fill="#000000" font-family="sans-serif" font-size="14" lengthAdjust="spacing" textLength="33" x="1106" y="206.9951">array</text><line style="stroke:#000000;stroke-width:1.0;" x1="1101" x2="1101" y1="192" y2="212.2969"/><line style="stroke:#000000;stroke-width:1.0;" x1="1048" x2="1144" y1="212.2969" y2="212.2969"/><text fill="#000000" font-family="sans-serif" font-size="14" font-weight="bold" lengthAdjust="spacing" textLength="43" x="1053" y="227.292">items</text><text fill="#000000" font-family="sans-serif" font-size="14" lengthAdjust="spacing" textLength="12" x="1106" y="227.292">   </text><line style="stroke:#000000;stroke-width:1.0;" x1="1101" x2="1101" y1="212.2969" y2="232.5938"/><rect fill="none" height="40.5938" rx="5" ry="5" style="stroke:#000000;stroke-width:1.5;" width="96" x="1048" y="192"/><rect fill="#F1F1F1" height="20.2969" rx="5" ry="5" style="stroke:#F1F1F1;stroke-width:1.5;" width="94" x="1181" y="212.5"/><text fill="#000000" font-family="sans-serif" font-size="14" font-weight="bold" lengthAdjust="spacing" textLength="35" x="1186" y="227.4951">type</text><text fill="#000000" font-family="sans-serif" font-size="14" lengthAdjust="spacing" textLength="39" x="1231" y="227.4951">string</text><line style="stroke:#000000;stroke-width:1.0;" x1="1226" x2="1226" y1="212.5" y2="232.7969"/><rect fill="none" height="20.2969" rx="5" ry="5" style="stroke:#000000;stroke-width:1.5;" width="94" x="1181" y="212.5"/><rect fill="#F1F1F1" height="40.5938" rx="5" ry="5" style="stroke:#F1F1F1;stroke-width:1.5;" width="96" x="1048" y="251"/><text fill="#000000" font-family="sans-serif" font-size="14" font-weight="bold" lengthAdjust="spacing" textLength="35" x="1053" y="265.9951">type</text><text fill="#000000" font-family="sans-serif" font-size="14" lengthAdjust="spacing" textLength="33" x="1106" y="265.9951">array</text><line style="stroke:#000000;stroke-width:1.0;" x1="1101" x2="1101" y1="251" y2="271.2969"/><line style="stroke:#000000;stroke-width:1.0;" x1="1048" x2="1144" y1="271.2969" y2="271.2969"/><text fill="#000000" font-family="sans-serif" font-size="14" font-weight="bold" lengthAdjust="spacing" textLength="43" x="1053" y="286.292">items</text><text fill="#000000" font-family="sans-serif" font-size="14" lengthAdjust="spacing" textLength="12" x="1106" y="286.292">   </text><line style="stroke:#000000;stroke-width:1.0;" x1="1101" x2="1101" y1="271.2969" y2="291.5938"/><rect fill="none" height="40.5938" rx="5" ry="5" style="stroke:#000000;stroke-width:1.5;" width="96" x="1048" y="251"/><rect fill="#F1F1F1" height="20.2969" rx="5" ry="5" style="stroke:#F1F1F1;stroke-width:1.5;" width="94" x="1181" y="271.5"/><text fill="#000000" font-family="sans-serif" font-size="14" font-weight="bold" lengthAdjust="spacing" textLength="35" x="1186" y="286.4951">type</text><text fill="#000000" font-family="sans-serif" font-size="14" lengthAdjust="spacing" textLength="39" x="1231" y="286.4951">string</text><line style="stroke:#000000;stroke-width:1.0;" x1="1226" x2="1226" y1="271.5" y2="291.7969"/><rect fill="none" height="20.2969" rx="5" ry="5" style="stroke:#000000;stroke-width:1.5;" width="94" x="1181" y="271.5"/><rect fill="#F1F1F1" height="40.5938" rx="5" ry="5" style="stroke:#F1F1F1;stroke-width:1.5;" width="96" x="620" y="215"/><text fill="#000000" font-family="sans-serif" font-size="14" font-weight="bold" lengthAdjust="spacing" textLength="35" x="625" y="229.9951">type</text><text fill="#000000" font-family="sans-serif" font-size="14" lengthAdjust="spacing" textLength="33" x="678" y="229.9951">array</text><line style="stroke:#000000;stroke-width:1.0;" x1="673" x2="673" y1="215" y2="235.2969"/><line style="stroke:#000000;stroke-width:1.0;" x1="620" x2="716" y1="235.2969" y2="235.2969"/><text fill="#000000" font-family="sans-serif" font-size="14" font-weight="bold" lengthAdjust="spacing" textLength="43" x="625" y="250.292">items</text><text fill="#000000" font-family="sans-serif" font-size="14" lengthAdjust="spacing" textLength="12" x="678" y="250.292">   </text><line style="stroke:#000000;stroke-width:1.0;" x1="673" x2="673" y1="235.2969" y2="255.5938"/><rect fill="none" height="40.5938" rx="5" ry="5" style="stroke:#000000;stroke-width:1.5;" width="96" x="620" y="215"/><rect fill="#F1F1F1" height="60.8906" rx="5" ry="5" style="stroke:#F1F1F1;stroke-width:1.5;" width="146" x="753" y="242"/><text fill="#000000" font-family="sans-serif" font-size="14" font-weight="bold" lengthAdjust="spacing" textLength="35" x="758" y="256.9951">type</text><text fill="#000000" font-family="sans-serif" font-size="14" lengthAdjust="spacing" textLength="43" x="851" y="256.9951">object</text><line style="stroke:#000000;stroke-width:1.0;" x1="846" x2="846" y1="242" y2="262.2969"/><line style="stroke:#000000;stroke-width:1.0;" x1="753" x2="899" y1="262.2969" y2="262.2969"/><text fill="#000000" font-family="sans-serif" font-size="14" font-weight="bold" lengthAdjust="spacing" textLength="68" x="758" y="277.292">required</text><text fill="#000000" font-family="sans-serif" font-size="14" lengthAdjust="spacing" textLength="12" x="851" y="277.292">   </text><line style="stroke:#000000;stroke-width:1.0;" x1="846" x2="846" y1="262.2969" y2="282.5938"/><line style="stroke:#000000;stroke-width:1.0;" x1="753" x2="899" y1="282.5938" y2="282.5938"/><text fill="#000000" font-family="sans-serif" font-size="14" font-weight="bold" lengthAdjust="spacing" textLength="83" x="758" y="297.5889">properties</text><text fill="#000000" font-family="sans-serif" font-size="14" lengthAdjust="spacing" textLength="12" x="851" y="297.5889">   </text><line style="stroke:#000000;stroke-width:1.0;" x1="846" x2="846" y1="282.5938" y2="302.8906"/><rect fill="none" height="60.8906" rx="5" ry="5" style="stroke:#000000;stroke-width:1.5;" width="146" x="753" y="242"/><rect fill="#F1F1F1" height="15" rx="5" ry="5" style="stroke:#F1F1F1;stroke-width:1.5;" width="30" x="961.5" y="263.5"/><rect fill="none" height="15" rx="5" ry="5" style="stroke:#000000;stroke-width:1.5;" width="30" x="961.5" y="263.5"/><rect fill="#F1F1F1" height="101.4844" rx="5" ry="5" style="stroke:#F1F1F1;stroke-width:1.5;" width="75" x="936" y="338"/><text fill="#000000" font-family="sans-serif" font-size="14" font-weight="bold" lengthAdjust="spacing" textLength="35" x="941" y="352.9951">path</text><text fill="#000000" font-family="sans-serif" font-size="14" lengthAdjust="spacing" textLength="12" x="994" y="352.9951">   </text><line style="stroke:#000000;stroke-width:1.0;" x1="989" x2="989" y1="338" y2="358.2969"/><line style="stroke:#000000;stroke-width:1.0;" x1="936" x2="1011" y1="358.2969" y2="358.2969"/><text fill="#000000" font-family="sans-serif" font-size="14" font-weight="bold" lengthAdjust="spacing" textLength="30" x="941" y="373.292">title</text><text fill="#000000" font-family="sans-serif" font-size="14" lengthAdjust="spacing" textLength="12" x="994" y="373.292">   </text><line style="stroke:#000000;stroke-width:1.0;" x1="989" x2="989" y1="358.2969" y2="378.5938"/><line style="stroke:#000000;stroke-width:1.0;" x1="936" x2="1011" y1="378.5938" y2="378.5938"/><text fill="#000000" font-family="sans-serif" font-size="14" font-weight="bold" lengthAdjust="spacing" textLength="43" x="941" y="393.5889">client</text><text fill="#000000" font-family="sans-serif" font-size="14" lengthAdjust="spacing" textLength="12" x="994" y="393.5889">   </text><line style="stroke:#000000;stroke-width:1.0;" x1="989" x2="989" y1="378.5938" y2="398.8906"/><line style="stroke:#000000;stroke-width:1.0;" x1="936" x2="1011" y1="398.8906" y2="398.8906"/><text fill="#000000" font-family="sans-serif" font-size="14" font-weight="bold" lengthAdjust="spacing" textLength="39" x="941" y="413.8857">head</text><text fill="#000000" font-family="sans-serif" font-size="14" lengthAdjust="spacing" textLength="12" x="994" y="413.8857">   </text><line style="stroke:#000000;stroke-width:1.0;" x1="989" x2="989" y1="398.8906" y2="419.1875"/><line style="stroke:#000000;stroke-width:1.0;" x1="936" x2="1011" y1="419.1875" y2="419.1875"/><text fill="#000000" font-family="sans-serif" font-size="14" font-weight="bold" lengthAdjust="spacing" textLength="39" x="941" y="434.1826">body</text><text fill="#000000" font-family="sans-serif" font-size="14" lengthAdjust="spacing" textLength="12" x="994" y="434.1826">   </text><line style="stroke:#000000;stroke-width:1.0;" x1="989" x2="989" y1="419.1875" y2="439.4844"/><rect fill="none" height="101.4844" rx="5" ry="5" style="stroke:#000000;stroke-width:1.5;" width="75" x="936" y="338"/><rect fill="#F1F1F1" height="20.2969" rx="5" ry="5" style="stroke:#F1F1F1;stroke-width:1.5;" width="94" x="1049" y="310.5"/><text fill="#000000" font-family="sans-serif" font-size="14" font-weight="bold" lengthAdjust="spacing" textLength="35" x="1054" y="325.4951">type</text><text fill="#000000" font-family="sans-serif" font-size="14" lengthAdjust="spacing" textLength="39" x="1099" y="325.4951">string</text><line style="stroke:#000000;stroke-width:1.0;" x1="1094" x2="1094" y1="310.5" y2="330.7969"/><rect fill="none" height="20.2969" rx="5" ry="5" style="stroke:#000000;stroke-width:1.5;" width="94" x="1049" y="310.5"/><rect fill="#F1F1F1" height="20.2969" rx="5" ry="5" style="stroke:#F1F1F1;stroke-width:1.5;" width="94" x="1049" y="348.5"/><text fill="#000000" font-family="sans-serif" font-size="14" font-weight="bold" lengthAdjust="spacing" textLength="35" x="1054" y="363.4951">type</text><text fill="#000000" font-family="sans-serif" font-size="14" lengthAdjust="spacing" textLength="39" x="1099" y="363.4951">string</text><line style="stroke:#000000;stroke-width:1.0;" x1="1094" x2="1094" y1="348.5" y2="368.7969"/><rect fill="none" height="20.2969" rx="5" ry="5" style="stroke:#000000;stroke-width:1.5;" width="94" x="1049" y="348.5"/><rect fill="#F1F1F1" height="20.2969" rx="5" ry="5" style="stroke:#F1F1F1;stroke-width:1.5;" width="94" x="1049" y="386.5"/><text fill="#000000" font-family="sans-serif" font-size="14" font-weight="bold" lengthAdjust="spacing" textLength="35" x="1054" y="401.4951">type</text><text fill="#000000" font-family="sans-serif" font-size="14" lengthAdjust="spacing" textLength="39" x="1099" y="401.4951">string</text><line style="stroke:#000000;stroke-width:1.0;" x1="1094" x2="1094" y1="386.5" y2="406.7969"/><rect fill="none" height="20.2969" rx="5" ry="5" style="stroke:#000000;stroke-width:1.5;" width="94" x="1049" y="386.5"/><rect fill="#F1F1F1" height="40.5938" rx="5" ry="5" style="stroke:#F1F1F1;stroke-width:1.5;" width="96" x="1048" y="425"/><text fill="#000000" font-family="sans-serif" font-size="14" font-weight="bold" lengthAdjust="spacing" textLength="35" x="1053" y="439.9951">type</text><text fill="#000000" font-family="sans-serif" font-size="14" lengthAdjust="spacing" textLength="33" x="1106" y="439.9951">array</text><line style="stroke:#000000;stroke-width:1.0;" x1="1101" x2="1101" y1="425" y2="445.2969"/><line style="stroke:#000000;stroke-width:1.0;" x1="1048" x2="1144" y1="445.2969" y2="445.2969"/><text fill="#000000" font-family="sans-serif" font-size="14" font-weight="bold" lengthAdjust="spacing" textLength="43" x="1053" y="460.292">items</text><text fill="#000000" font-family="sans-serif" font-size="14" lengthAdjust="spacing" textLength="12" x="1106" y="460.292">   </text><line style="stroke:#000000;stroke-width:1.0;" x1="1101" x2="1101" y1="445.2969" y2="465.5938"/><rect fill="none" height="40.5938" rx="5" ry="5" style="stroke:#000000;stroke-width:1.5;" width="96" x="1048" y="425"/><rect fill="#F1F1F1" height="20.2969" rx="5" ry="5" style="stroke:#F1F1F1;stroke-width:1.5;" width="94" x="1181" y="445.5"/><text fill="#000000" font-family="sans-serif" font-size="14" font-weight="bold" lengthAdjust="spacing" textLength="35" x="1186" y="460.4951">type</text><text fill="#000000" font-family="sans-serif" font-size="14" lengthAdjust="spacing" textLength="39" x="1231" y="460.4951">string</text><line style="stroke:#000000;stroke-width:1.0;" x1="1226" x2="1226" y1="445.5" y2="465.7969"/><rect fill="none" height="20.2969" rx="5" ry="5" style="stroke:#000000;stroke-width:1.5;" width="94" x="1181" y="445.5"/><rect fill="#F1F1F1" height="40.5938" rx="5" ry="5" style="stroke:#F1F1F1;stroke-width:1.5;" width="96" x="1048" y="484"/><text fill="#000000" font-family="sans-serif" font-size="14" font-weight="bold" lengthAdjust="spacing" textLength="35" x="1053" y="498.9951">type</text><text fill="#000000" font-family="sans-serif" font-size="14" lengthAdjust="spacing" textLength="33" x="1106" y="498.9951">array</text><line style="stroke:#000000;stroke-width:1.0;" x1="1101" x2="1101" y1="484" y2="504.2969"/><line style="stroke:#000000;stroke-width:1.0;" x1="1048" x2="1144" y1="504.2969" y2="504.2969"/><text fill="#000000" font-family="sans-serif" font-size="14" font-weight="bold" lengthAdjust="spacing" textLength="43" x="1053" y="519.292">items</text><text fill="#000000" font-family="sans-serif" font-size="14" lengthAdjust="spacing" textLength="12" x="1106" y="519.292">   </text><line style="stroke:#000000;stroke-width:1.0;" x1="1101" x2="1101" y1="504.2969" y2="524.5938"/><rect fill="none" height="40.5938" rx="5" ry="5" style="stroke:#000000;stroke-width:1.5;" width="96" x="1048" y="484"/><rect fill="#F1F1F1" height="20.2969" rx="5" ry="5" style="stroke:#F1F1F1;stroke-width:1.5;" width="94" x="1181" y="504.5"/><text fill="#000000" font-family="sans-serif" font-size="14" font-weight="bold" lengthAdjust="spacing" textLength="35" x="1186" y="519.4951">type</text><text fill="#000000" font-family="sans-serif" font-size="14" lengthAdjust="spacing" textLength="39" x="1231" y="519.4951">string</text><line style="stroke:#000000;stroke-width:1.0;" x1="1226" x2="1226" y1="504.5" y2="524.7969"/><rect fill="none" height="20.2969" rx="5" ry="5" style="stroke:#000000;stroke-width:1.5;" width="94" x="1181" y="504.5"/><path d="M144,47.5 L157,47.5 C177.8839,47.5 201.7351,45.0734 217.82,43.0777 " fill="none" style="stroke:#000000;stroke-width:1.0;stroke-dasharray:3.0,3.0;"/><path d="M218.2157,46.1363 L220.114,42.7809 L217.4243,40.019 L225.4665,42.0884 L218.2157,46.1363 " fill="#000000" style="stroke:#000000;stroke-width:1.0;"/><ellipse cx="144" cy="47.5" fill="#000000" rx="3" ry="3" style="stroke:#000000;stroke-width:1.0;"/><path d="M452,75.5 L465,75.5 C485.5493,75.5 507.9387,67.7949 523.1541,61.304 " fill="none" style="stroke:#000000;stroke-width:1.0;stroke-dasharray:3.0,3.0;"/><path d="M524.4487,64.206 L525.3306,60.3331 L521.8596,58.402 L530.4091,58.0677 L524.4487,64.206 " fill="#000000" style="stroke:#000000;stroke-width:1.0;"/><ellipse cx="452" cy="75.5" fill="#000000" rx="3" ry="3" style="stroke:#000000;stroke-width:1.0;"/><path d="M704,40.5 L717,40.5 C734.7235,40.5 754.0756,40.5 771.4649,40.5 " fill="none" style="stroke:#000000;stroke-width:1.0;stroke-dasharray:3.0,3.0;"/><path d="M771.4649,43.6355 L773.8165,40.5 L771.4649,37.3645 L779.3035,40.5 L771.4649,43.6355 " fill="#000000" style="stroke:#000000;stroke-width:1.0;"/><ellipse cx="704" cy="40.5" fill="#000000" rx="3" ry="3" style="stroke:#000000;stroke-width:1.0;"/><path d="M571,88.5 L584,88.5 C604.5456,88.5 603.1966,71.3224 620,59.5 C622.015,58.0823 624.0999,56.6592 626.2208,55.246 " fill="none" style="stroke:#000000;stroke-width:1.0;stroke-dasharray:3.0,3.0;"/><path d="M627.8988,57.8206 L628.1517,53.9875 L624.5428,52.6714 L632.6573,51.051 L627.8988,57.8206 " fill="#000000" style="stroke:#000000;stroke-width:1.0;"/><ellipse cx="571" cy="88.5" fill="#000000" rx="3" ry="3" style="stroke:#000000;stroke-width:1.0;"/><path d="M704,99.5 L717,99.5 C734.7235,99.5 754.0756,99.5 771.4649,99.5 " fill="none" style="stroke:#000000;stroke-width:1.0;stroke-dasharray:3.0,3.0;"/><path d="M771.4649,102.6355 L773.8165,99.5 L771.4649,96.3645 L779.3035,99.5 L771.4649,102.6355 " fill="#000000" style="stroke:#000000;stroke-width:1.0;"/><ellipse cx="704" cy="99.5" fill="#000000" rx="3" ry="3" style="stroke:#000000;stroke-width:1.0;"/><path d="M571,108.5 L584,108.5 C593.3848,108.5 603.2184,107.3447 612.7089,105.604 " fill="none" style="stroke:#000000;stroke-width:1.0;stroke-dasharray:3.0,3.0;"/><path d="M613.3132,108.6129 L614.9656,105.1508 L612.1046,102.595 L620.2313,104.0933 L613.3132,108.6129 " fill="#000000" style="stroke:#000000;stroke-width:1.0;"/><ellipse cx="571" cy="108.5" fill="#000000" rx="3" ry="3" style="stroke:#000000;stroke-width:1.0;"/><path d="M887,157.5 L900,157.5 C923.5891,157.5 916.9121,132.3599 936,118.5 C941.6738,114.3802 948.5053,110.9008 954.7457,108.1841 " fill="none" style="stroke:#000000;stroke-width:1.0;stroke-dasharray:3.0,3.0;"/><path d="M955.8784,110.9638 L956.8306,107.3346 L953.6131,105.4043 L961.6951,105.3525 L955.8784,110.9638 " fill="#000000" style="stroke:#000000;stroke-width:1.0;"/><ellipse cx="887" cy="157.5" fill="#000000" rx="3" ry="3" style="stroke:#000000;stroke-width:1.0;"/><path d="M999,137.5 L1012,137.5 C1033.1146,137.5 1029.9521,117.459 1048,106.5 C1051.4638,104.3968 1055.2016,102.4397 1059.0059,100.6435 " fill="none" style="stroke:#000000;stroke-width:1.0;stroke-dasharray:3.0,3.0;"/><path d="M1060.2284,103.3933 L1061.0682,99.7267 L1057.7834,97.8937 L1065.8804,97.5874 L1060.2284,103.3933 " fill="#000000" style="stroke:#000000;stroke-width:1.0;"/><ellipse cx="999" cy="137.5" fill="#000000" rx="3" ry="3" style="stroke:#000000;stroke-width:1.0;"/><path d="M999,157.5 L1012,157.5 C1014.8017,157.5 1041.001,147.3222 1063.3159,138.4464 " fill="none" style="stroke:#000000;stroke-width:1.0;stroke-dasharray:3.0,3.0;"/><path d="M1064.4445,141.2761 L1065.4381,137.6 L1062.1874,135.6168 L1070.39,135.625 L1064.4445,141.2761 " fill="#000000" style="stroke:#000000;stroke-width:1.0;"/><ellipse cx="999" cy="157.5" fill="#000000" rx="3" ry="3" style="stroke:#000000;stroke-width:1.0;"/><path d="M999,177.5 L1012,177.5 C1022.6452,177.5 1033.95,176.3796 1044.6893,174.7726 " fill="none" style="stroke:#000000;stroke-width:1.0;stroke-dasharray:3.0,3.0;"/><path d="M1045.1881,177.8536 L1047,174.3985 L1044.1904,171.6917 L1052.3916,173.5256 L1045.1881,177.8536 " fill="#000000" style="stroke:#000000;stroke-width:1.0;"/><ellipse cx="999" cy="177.5" fill="#000000" rx="3" ry="3" style="stroke:#000000;stroke-width:1.0;"/><path d="M1132,222.5 L1145,222.5 C1154.2674,222.5 1164.1203,222.5 1173.6708,222.5 " fill="none" style="stroke:#000000;stroke-width:1.0;stroke-dasharray:3.0,3.0;"/><path d="M1173.6708,225.531 L1175.9441,222.5 L1173.6708,219.469 L1181.2484,222.5 L1173.6708,225.531 " fill="#000000" style="stroke:#000000;stroke-width:1.0;"/><ellipse cx="1132" cy="222.5" fill="#000000" rx="3" ry="3" style="stroke:#000000;stroke-width:1.0;"/><path d="M999,198.5 L1012,198.5 C1021.3946,198.5 1031.303,199.3727 1040.883,200.6822 " fill="none" style="stroke:#000000;stroke-width:1.0;stroke-dasharray:3.0,3.0;"/><path d="M1040.4288,203.7208 L1043.162,201.0229 L1041.3373,197.6436 L1048.4795,201.8178 L1040.4288,203.7208 " fill="#000000" style="stroke:#000000;stroke-width:1.0;"/><ellipse cx="999" cy="198.5" fill="#000000" rx="3" ry="3" style="stroke:#000000;stroke-width:1.0;"/><path d="M1132,281.5 L1145,281.5 C1154.2674,281.5 1164.1203,281.5 1173.6708,281.5 " fill="none" style="stroke:#000000;stroke-width:1.0;stroke-dasharray:3.0,3.0;"/><path d="M1173.6708,284.531 L1175.9441,281.5 L1173.6708,278.469 L1181.2484,281.5 L1173.6708,284.531 " fill="#000000" style="stroke:#000000;stroke-width:1.0;"/><ellipse cx="1132" cy="281.5" fill="#000000" rx="3" ry="3" style="stroke:#000000;stroke-width:1.0;"/><path d="M999,218.5 L1012,218.5 C1030.9867,218.5 1031.9734,231.3195 1048,241.5 C1050.686,243.2062 1053.4588,244.9648 1056.2528,246.7347 " fill="none" style="stroke:#000000;stroke-width:1.0;stroke-dasharray:3.0,3.0;"/><path d="M1054.6004,249.3453 L1058.2107,247.9739 L1057.9051,244.1241 L1062.7793,250.8655 L1054.6004,249.3453 " fill="#000000" style="stroke:#000000;stroke-width:1.0;"/><ellipse cx="999" cy="218.5" fill="#000000" rx="3" ry="3" style="stroke:#000000;stroke-width:1.0;"/><path d="M887,178.5 L900,178.5 C909.2082,178.5 919.0697,178.5 928.472,178.5 " fill="none" style="stroke:#000000;stroke-width:1.0;stroke-dasharray:3.0,3.0;"/><path d="M928.472,181.6062 L930.8016,178.5 L928.472,175.3938 L936.2375,178.5 L928.472,181.6062 " fill="#000000" style="stroke:#000000;stroke-width:1.0;"/><ellipse cx="887" cy="178.5" fill="#000000" rx="3" ry="3" style="stroke:#000000;stroke-width:1.0;"/><path d="M704,158.5 L717,158.5 C726.2896,158.5 736.0267,158.5 745.694,158.5 " fill="none" style="stroke:#000000;stroke-width:1.0;stroke-dasharray:3.0,3.0;"/><path d="M745.694,161.5913 L748.0124,158.5 L745.694,155.4087 L753.4221,158.5 L745.694,161.5913 " fill="#000000" style="stroke:#000000;stroke-width:1.0;"/><ellipse cx="704" cy="158.5" fill="#000000" rx="3" ry="3" style="stroke:#000000;stroke-width:1.0;"/><path d="M571,129.5 L584,129.5 C593.3848,129.5 603.2184,130.6553 612.7089,132.396 " fill="none" style="stroke:#000000;stroke-width:1.0;stroke-dasharray:3.0,3.0;"/><path d="M612.1046,135.405 L614.9656,132.8492 L613.3132,129.3871 L620.2313,133.9067 L612.1046,135.405 " fill="#000000" style="stroke:#000000;stroke-width:1.0;"/><ellipse cx="571" cy="129.5" fill="#000000" rx="3" ry="3" style="stroke:#000000;stroke-width:1.0;"/><path d="M887,271.5 L900,271.5 C918.2223,271.5 939.0032,271.5 953.7205,271.5 " fill="none" style="stroke:#000000;stroke-width:1.0;stroke-dasharray:3.0,3.0;"/><path d="M953.7205,274.6598 L956.0903,271.5 L953.7205,268.3402 L961.6199,271.5 L953.7205,274.6598 " fill="#000000" style="stroke:#000000;stroke-width:1.0;"/><ellipse cx="887" cy="271.5" fill="#000000" rx="3" ry="3" style="stroke:#000000;stroke-width:1.0;"/><path d="M999,347.5 L1012,347.5 C1022.1322,347.5 1044.2762,340.2115 1063.2151,333.2082 " fill="none" style="stroke:#000000;stroke-width:1.0;stroke-dasharray:3.0,3.0;"/><path d="M1064.2768,336.0361 L1065.336,332.4118 L1062.1533,330.3802 L1070.2849,330.5538 L1064.2768,336.0361 " fill="#000000" style="stroke:#000000;stroke-width:1.0;"/><ellipse cx="999" cy="347.5" fill="#000000" rx="3" ry="3" style="stroke:#000000;stroke-width:1.0;"/><path d="M999,367.5 L1012,367.5 C1021.6436,367.5 1031.8779,366.8992 1041.7538,366.0082 " fill="none" style="stroke:#000000;stroke-width:1.0;stroke-dasharray:3.0,3.0;"/><path d="M1042.0469,368.9948 L1043.9938,365.7883 L1041.4606,363.0215 L1049.2204,365.2753 L1042.0469,368.9948 " fill="#000000" style="stroke:#000000;stroke-width:1.0;"/><ellipse cx="999" cy="367.5" fill="#000000" rx="3" ry="3" style="stroke:#000000;stroke-width:1.0;"/><path d="M999,387.5 L1012,387.5 C1021.6436,387.5 1031.8779,388.1008 1041.7538,388.9918 " fill="none" style="stroke:#000000;stroke-width:1.0;stroke-dasharray:3.0,3.0;"/><path d="M1041.4606,391.9785 L1043.9938,389.2117 L1042.0469,386.0052 L1049.2204,389.7247 L1041.4606,391.9785 " fill="#000000" style="stroke:#000000;stroke-width:1.0;"/><ellipse cx="999" cy="387.5" fill="#000000" rx="3" ry="3" style="stroke:#000000;stroke-width:1.0;"/><path d="M1132,455.5 L1145,455.5 C1154.2674,455.5 1164.1203,455.5 1173.6708,455.5 " fill="none" style="stroke:#000000;stroke-width:1.0;stroke-dasharray:3.0,3.0;"/><path d="M1173.6708,458.531 L1175.9441,455.5 L1173.6708,452.469 L1181.2484,455.5 L1173.6708,458.531 " fill="#000000" style="stroke:#000000;stroke-width:1.0;"/><ellipse cx="1132" cy="455.5" fill="#000000" rx="3" ry="3" style="stroke:#000000;stroke-width:1.0;"/><path d="M999,408.5 L1012,408.5 C1028.079,408.5 1044.5215,414.3057 1058.5167,421.3175 " fill="none" style="stroke:#000000;stroke-width:1.0;stroke-dasharray:3.0,3.0;"/><path d="M1057.1091,423.9821 L1060.5151,422.3732 L1059.9243,418.6529 L1065.1782,424.8364 L1057.1091,423.9821 " fill="#000000" style="stroke:#000000;stroke-width:1.0;"/><ellipse cx="999" cy="408.5" fill="#000000" rx="3" ry="3" style="stroke:#000000;stroke-width:1.0;"/><path d="M1132,514.5 L1145,514.5 C1154.2674,514.5 1164.1203,514.5 1173.6708,514.5 " fill="none" style="stroke:#000000;stroke-width:1.0;stroke-dasharray:3.0,3.0;"/><path d="M1173.6708,517.531 L1175.9441,514.5 L1173.6708,511.469 L1181.2484,514.5 L1173.6708,517.531 " fill="#000000" style="stroke:#000000;stroke-width:1.0;"/><ellipse cx="1132" cy="514.5" fill="#000000" rx="3" ry="3" style="stroke:#000000;stroke-width:1.0;"/><path d="M999,428.5 L1012,428.5 C1038.3125,428.5 1028.4391,457.9013 1048,475.5 C1049.4455,476.8005 1050.9574,478.0758 1052.5161,479.3218 " fill="none" style="stroke:#000000;stroke-width:1.0;stroke-dasharray:3.0,3.0;"/><path d="M1050.6554,481.8033 L1054.3772,480.7173 L1054.3768,476.8402 L1058.7199,483.9735 L1050.6554,481.8033 " fill="#000000" style="stroke:#000000;stroke-width:1.0;"/><ellipse cx="999" cy="428.5" fill="#000000" rx="3" ry="3" style="stroke:#000000;stroke-width:1.0;"/><path d="M887,292.5 L900,292.5 C923.3331,292.5 940.1851,310.6915 951.777,331.2367 " fill="none" style="stroke:#000000;stroke-width:1.0;stroke-dasharray:3.0,3.0;"/><path d="M949.0838,332.6688 L952.8511,333.2566 L954.4703,329.8045 L955.3574,337.9698 L949.0838,332.6688 " fill="#000000" style="stroke:#000000;stroke-width:1.0;"/><ellipse cx="887" cy="292.5" fill="#000000" rx="3" ry="3" style="stroke:#000000;stroke-width:1.0;"/><path d="M704,245.5 L717,245.5 C726.513,245.5 736.3601,246.4895 746.0647,248.0896 " fill="none" style="stroke:#000000;stroke-width:1.0;stroke-dasharray:3.0,3.0;"/><path d="M745.5301,251.0438 L748.2803,248.4906 L746.5992,245.1355 L753.4501,249.426 L745.5301,251.0438 " fill="#000000" style="stroke:#000000;stroke-width:1.0;"/><ellipse cx="704" cy="245.5" fill="#000000" rx="3" ry="3" style="stroke:#000000;stroke-width:1.0;"/><path d="M571,149.5 L584,149.5 C592.3806,149.5 623.2758,183.5513 645.0331,208.8009 " fill="none" style="stroke:#000000;stroke-width:1.0;stroke-dasharray:3.0,3.0;"/><path d="M642.6807,210.817 L646.5452,210.5652 L647.3854,206.7848 L650.0733,214.6818 L642.6807,210.817 " fill="#000000" style="stroke:#000000;stroke-width:1.0;"/><ellipse cx="571" cy="149.5" fill="#000000" rx="3" ry="3" style="stroke:#000000;stroke-width:1.0;"/><path d="M452,96.5 L465,96.5 C474.5205,96.5 484.4361,98.1539 493.8501,100.5747 " fill="none" style="stroke:#000000;stroke-width:1.0;stroke-dasharray:3.0,3.0;"/><path d="M493.0146,103.5448 L496.0777,101.2014 L494.6857,97.6046 L501.2754,102.6636 L493.0146,103.5448 " fill="#000000" style="stroke:#000000;stroke-width:1.0;"/><ellipse cx="452" cy="96.5" fill="#000000" rx="3" ry="3" style="stroke:#000000;stroke-width:1.0;"/><path d="M269,76.5 L282,76.5 C291.2896,76.5 301.0267,76.5 310.694,76.5 " fill="none" style="stroke:#000000;stroke-width:1.0;stroke-dasharray:3.0,3.0;"/><path d="M310.694,79.5913 L313.0124,76.5 L310.694,73.4087 L318.4221,76.5 L310.694,79.5913 " fill="#000000" style="stroke:#000000;stroke-width:1.0;"/><ellipse cx="269" cy="76.5" fill="#000000" rx="3" ry="3" style="stroke:#000000;stroke-width:1.0;"/><path d="M144,68.5 L157,68.5 C166.3039,68.5 176.1895,69.0491 185.7135,69.8596 " fill="none" style="stroke:#000000;stroke-width:1.0;stroke-dasharray:3.0,3.0;"/><path d="M185.4333,72.8766 L187.9763,70.0698 L185.9938,66.8426 L193.2561,70.5602 L185.4333,72.8766 " fill="#000000" style="stroke:#000000;stroke-width:1.0;"/><ellipse cx="144" cy="68.5" fill="#000000" rx="3" ry="3" style="stroke:#000000;stroke-width:1.0;"/></g></svg>