<?xml version="1.0" encoding="UTF-8" standalone="no"?><svg xmlns="http://www.w3.org/2000/svg" xmlns:xlink="http://www.w3.org/1999/xlink" contentStyleType="text/css" height="361px" preserveAspectRatio="none" style="width:750px;height:361px;background:#FFFFFF;" version="1.1" viewBox="0 0 750 361" width="750px" zoomAndPan="magnify"><defs/><g><rect fill="#F1F1F1" height="20.2969" rx="5" ry="5" style="stroke:#F1F1F1;stroke-width:1.5;" width="88" x="10" y="164.5"/><text fill="#000000" font-family="sans-serif" font-size="14" font-weight="bold" lengthAdjust="spacing" textLength="56" x="15" y="179.4951">Default</text><text fill="#000000" font-family="sans-serif" font-size="14" lengthAdjust="spacing" textLength="12" x="81" y="179.4951">   </text><line style="stroke:#000000;stroke-width:1.0;" x1="76" x2="76" y1="164.5" y2="184.7969"/><rect fill="none" height="20.2969" rx="5" ry="5" style="stroke:#000000;stroke-width:1.5;" width="88" x="10" y="164.5"/><rect fill="#F1F1F1" height="81.1875" rx="5" ry="5" style="stroke:#F1F1F1;stroke-width:1.5;" width="82" x="135" y="134"/><text fill="#000000" font-family="sans-serif" font-size="14" font-weight="bold" lengthAdjust="spacing" textLength="39" x="140" y="148.9951">head</text><text fill="#000000" font-family="sans-serif" font-size="14" lengthAdjust="spacing" textLength="12" x="200" y="148.9951">   </text><line style="stroke:#000000;stroke-width:1.0;" x1="195" x2="195" y1="134" y2="154.2969"/><line style="stroke:#000000;stroke-width:1.0;" x1="135" x2="217" y1="154.2969" y2="154.2969"/><text fill="#000000" font-family="sans-serif" font-size="14" font-weight="bold" lengthAdjust="spacing" textLength="39" x="140" y="169.292">body</text><text fill="#000000" font-family="sans-serif" font-size="14" lengthAdjust="spacing" textLength="12" x="200" y="169.292">   </text><line style="stroke:#000000;stroke-width:1.0;" x1="195" x2="195" y1="154.2969" y2="174.5938"/><line style="stroke:#000000;stroke-width:1.0;" x1="135" x2="217" y1="174.5938" y2="174.5938"/><text fill="#000000" font-family="sans-serif" font-size="14" font-weight="bold" lengthAdjust="spacing" textLength="50" x="140" y="189.5889">offline</text><text fill="#000000" font-family="sans-serif" font-size="14" lengthAdjust="spacing" textLength="12" x="200" y="189.5889">   </text><line style="stroke:#000000;stroke-width:1.0;" x1="195" x2="195" y1="174.5938" y2="194.8906"/><line style="stroke:#000000;stroke-width:1.0;" x1="135" x2="217" y1="194.8906" y2="194.8906"/><text fill="#000000" font-family="sans-serif" font-size="14" font-weight="bold" lengthAdjust="spacing" textLength="48" x="140" y="209.8857">pages</text><text fill="#000000" font-family="sans-serif" font-size="14" lengthAdjust="spacing" textLength="12" x="200" y="209.8857">   </text><line style="stroke:#000000;stroke-width:1.0;" x1="195" x2="195" y1="194.8906" y2="215.1875"/><rect fill="none" height="81.1875" rx="5" ry="5" style="stroke:#000000;stroke-width:1.5;" width="82" x="135" y="134"/><rect fill="#F1F1F1" height="101.4844" rx="5" ry="5" style="stroke:#F1F1F1;stroke-width:1.5;" width="106" x="278" y="10"/><text fill="#000000" font-family="sans-serif" font-size="14" lengthAdjust="spacing" textLength="27" x="283" y="24.9951">Seo</text><line style="stroke:#000000;stroke-width:1.0;" x1="278" x2="384" y1="30.2969" y2="30.2969"/><text fill="#000000" font-family="sans-serif" font-size="14" lengthAdjust="spacing" textLength="28" x="283" y="45.292">Pwa</text><line style="stroke:#000000;stroke-width:1.0;" x1="278" x2="384" y1="50.5938" y2="50.5938"/><text fill="#000000" font-family="sans-serif" font-size="14" lengthAdjust="spacing" textLength="26" x="283" y="65.5889">Css</text><line style="stroke:#000000;stroke-width:1.0;" x1="278" x2="384" y1="70.8906" y2="70.8906"/><text fill="#000000" font-family="sans-serif" font-size="14" lengthAdjust="spacing" textLength="96" x="283" y="85.8857">DefaultScripts</text><line style="stroke:#000000;stroke-width:1.0;" x1="278" x2="384" y1="91.1875" y2="91.1875"/><text fill="#000000" font-family="sans-serif" font-size="14" lengthAdjust="spacing" textLength="75" x="283" y="106.1826">Production</text><rect fill="none" height="101.4844" rx="5" ry="5" style="stroke:#000000;stroke-width:1.5;" width="106" x="278" y="10"/><rect fill="#F1F1F1" height="40.5938" rx="5" ry="5" style="stroke:#F1F1F1;stroke-width:1.5;" width="154" x="254" y="129"/><text fill="#000000" font-family="sans-serif" font-size="14" lengthAdjust="spacing" textLength="94" x="259" y="143.9951">CacheControl</text><line style="stroke:#000000;stroke-width:1.0;" x1="254" x2="408" y1="149.2969" y2="149.2969"/><text fill="#000000" font-family="sans-serif" font-size="14" lengthAdjust="spacing" textLength="144" x="259" y="164.292">DefaultSplashScreen</text><rect fill="none" height="40.5938" rx="5" ry="5" style="stroke:#000000;stroke-width:1.5;" width="154" x="254" y="129"/><rect fill="#F1F1F1" height="20.2969" rx="5" ry="5" style="stroke:#F1F1F1;stroke-width:1.5;" width="22" x="319" y="188.5"/><text fill="#000000" font-family="sans-serif" font-size="14" lengthAdjust="spacing" textLength="12" x="324" y="203.4951">   </text><rect fill="none" height="20.2969" rx="5" ry="5" style="stroke:#000000;stroke-width:1.5;" width="22" x="319" y="188.5"/><rect fill="#F1F1F1" height="101.4844" rx="5" ry="5" style="stroke:#F1F1F1;stroke-width:1.5;" width="227" x="445" y="127"/><text fill="#000000" font-family="sans-serif" font-size="14" font-weight="bold" lengthAdjust="spacing" textLength="35" x="450" y="141.9951">path</text><text fill="#000000" font-family="sans-serif" font-size="14" lengthAdjust="spacing" textLength="46" x="503" y="141.9951">/offline</text><line style="stroke:#000000;stroke-width:1.0;" x1="498" x2="498" y1="127" y2="147.2969"/><line style="stroke:#000000;stroke-width:1.0;" x1="445" x2="672" y1="147.2969" y2="147.2969"/><text fill="#000000" font-family="sans-serif" font-size="14" font-weight="bold" lengthAdjust="spacing" textLength="30" x="450" y="162.292">title</text><text fill="#000000" font-family="sans-serif" font-size="14" lengthAdjust="spacing" textLength="164" x="503" y="162.292">No Network Connection</text><line style="stroke:#000000;stroke-width:1.0;" x1="498" x2="498" y1="147.2969" y2="167.5938"/><line style="stroke:#000000;stroke-width:1.0;" x1="445" x2="672" y1="167.5938" y2="167.5938"/><text fill="#000000" font-family="sans-serif" font-size="14" font-weight="bold" lengthAdjust="spacing" textLength="43" x="450" y="182.5889">client</text><text fill="#000000" font-family="sans-serif" font-size="14" lengthAdjust="spacing" textLength="156" x="503" y="182.5889">NoNetworkConnection</text><line style="stroke:#000000;stroke-width:1.0;" x1="498" x2="498" y1="167.5938" y2="187.8906"/><line style="stroke:#000000;stroke-width:1.0;" x1="445" x2="672" y1="187.8906" y2="187.8906"/><text fill="#000000" font-family="sans-serif" font-size="14" font-weight="bold" lengthAdjust="spacing" textLength="39" x="450" y="202.8857">head</text><text fill="#000000" font-family="sans-serif" font-size="14" lengthAdjust="spacing" textLength="12" x="503" y="202.8857">   </text><line style="stroke:#000000;stroke-width:1.0;" x1="498" x2="498" y1="187.8906" y2="208.1875"/><line style="stroke:#000000;stroke-width:1.0;" x1="445" x2="672" y1="208.1875" y2="208.1875"/><text fill="#000000" font-family="sans-serif" font-size="14" font-weight="bold" lengthAdjust="spacing" textLength="39" x="450" y="223.1826">body</text><text fill="#000000" font-family="sans-serif" font-size="14" lengthAdjust="spacing" textLength="12" x="503" y="223.1826">   </text><line style="stroke:#000000;stroke-width:1.0;" x1="498" x2="498" y1="208.1875" y2="228.4844"/><rect fill="none" height="101.4844" rx="5" ry="5" style="stroke:#000000;stroke-width:1.5;" width="227" x="445" y="127"/><rect fill="#F1F1F1" height="15" rx="5" ry="5" style="stroke:#F1F1F1;stroke-width:1.5;" width="30" x="709" y="182.5"/><rect fill="none" height="15" rx="5" ry="5" style="stroke:#000000;stroke-width:1.5;" width="30" x="709" y="182.5"/><rect fill="#F1F1F1" height="15" rx="5" ry="5" style="stroke:#F1F1F1;stroke-width:1.5;" width="30" x="709" y="216.5"/><rect fill="none" height="15" rx="5" ry="5" style="stroke:#000000;stroke-width:1.5;" width="30" x="709" y="216.5"/><rect fill="#F1F1F1" height="20.2969" rx="5" ry="5" style="stroke:#F1F1F1;stroke-width:1.5;" width="22" x="319" y="246.5"/><text fill="#000000" font-family="sans-serif" font-size="14" lengthAdjust="spacing" textLength="12" x="324" y="261.4951">   </text><rect fill="none" height="20.2969" rx="5" ry="5" style="stroke:#000000;stroke-width:1.5;" width="22" x="319" y="246.5"/><rect fill="#F1F1F1" height="101.4844" rx="5" ry="5" style="stroke:#F1F1F1;stroke-width:1.5;" width="95" x="511" y="246"/><text fill="#000000" font-family="sans-serif" font-size="14" font-weight="bold" lengthAdjust="spacing" textLength="35" x="516" y="260.9951">path</text><text fill="#000000" font-family="sans-serif" font-size="14" lengthAdjust="spacing" textLength="32" x="569" y="260.9951">/test</text><line style="stroke:#000000;stroke-width:1.0;" x1="564" x2="564" y1="246" y2="266.2969"/><line style="stroke:#000000;stroke-width:1.0;" x1="511" x2="606" y1="266.2969" y2="266.2969"/><text fill="#000000" font-family="sans-serif" font-size="14" font-weight="bold" lengthAdjust="spacing" textLength="30" x="516" y="281.292">title</text><text fill="#000000" font-family="sans-serif" font-size="14" lengthAdjust="spacing" textLength="31" x="569" y="281.292">Test</text><line style="stroke:#000000;stroke-width:1.0;" x1="564" x2="564" y1="266.2969" y2="286.5938"/><line style="stroke:#000000;stroke-width:1.0;" x1="511" x2="606" y1="286.5938" y2="286.5938"/><text fill="#000000" font-family="sans-serif" font-size="14" font-weight="bold" lengthAdjust="spacing" textLength="43" x="516" y="301.5889">client</text><text fill="#000000" font-family="sans-serif" font-size="14" lengthAdjust="spacing" textLength="31" x="569" y="301.5889">Test</text><line style="stroke:#000000;stroke-width:1.0;" x1="564" x2="564" y1="286.5938" y2="306.8906"/><line style="stroke:#000000;stroke-width:1.0;" x1="511" x2="606" y1="306.8906" y2="306.8906"/><text fill="#000000" font-family="sans-serif" font-size="14" font-weight="bold" lengthAdjust="spacing" textLength="39" x="516" y="321.8857">head</text><text fill="#000000" font-family="sans-serif" font-size="14" lengthAdjust="spacing" textLength="12" x="569" y="321.8857">   </text><line style="stroke:#000000;stroke-width:1.0;" x1="564" x2="564" y1="306.8906" y2="327.1875"/><line style="stroke:#000000;stroke-width:1.0;" x1="511" x2="606" y1="327.1875" y2="327.1875"/><text fill="#000000" font-family="sans-serif" font-size="14" font-weight="bold" lengthAdjust="spacing" textLength="39" x="516" y="342.1826">body</text><text fill="#000000" font-family="sans-serif" font-size="14" lengthAdjust="spacing" textLength="12" x="569" y="342.1826">   </text><line style="stroke:#000000;stroke-width:1.0;" x1="564" x2="564" y1="327.1875" y2="347.4844"/><rect fill="none" height="101.4844" rx="5" ry="5" style="stroke:#000000;stroke-width:1.5;" width="95" x="511" y="246"/><rect fill="#F1F1F1" height="15" rx="5" ry="5" style="stroke:#F1F1F1;stroke-width:1.5;" width="30" x="709" y="301.5"/><rect fill="none" height="15" rx="5" ry="5" style="stroke:#000000;stroke-width:1.5;" width="30" x="709" y="301.5"/><rect fill="#F1F1F1" height="15" rx="5" ry="5" style="stroke:#F1F1F1;stroke-width:1.5;" width="30" x="709" y="335.5"/><rect fill="none" height="15" rx="5" ry="5" style="stroke:#000000;stroke-width:1.5;" width="30" x="709" y="335.5"/><path d="M205,143.5 L218,143.5 C221.6514,143.5 246.7339,125.1557 272.2899,105.7152 " fill="none" style="stroke:#000000;stroke-width:1.0;stroke-dasharray:3.0,3.0;"/><path d="M274.165,108.1731 L274.1333,104.3089 L270.4148,103.2573 L278.4346,101.0274 L274.165,108.1731 " fill="#000000" style="stroke:#000000;stroke-width:1.0;"/><ellipse cx="205" cy="143.5" fill="#000000" rx="3" ry="3" style="stroke:#000000;stroke-width:1.0;"/><path d="M205,163.5 L218,163.5 C227.3182,163.5 237.0374,163.0212 246.6908,162.2406 " fill="none" style="stroke:#000000;stroke-width:1.0;stroke-dasharray:3.0,3.0;"/><path d="M246.9657,165.3281 L249.0064,162.0345 L246.4159,159.1531 L254.4095,161.5534 L246.9657,165.3281 " fill="#000000" style="stroke:#000000;stroke-width:1.0;"/><ellipse cx="205" cy="163.5" fill="#000000" rx="3" ry="3" style="stroke:#000000;stroke-width:1.0;"/><path d="M660,197.5 L673,197.5 C682.5729,197.5 693.1162,196.0913 701.8327,194.5377 " fill="none" style="stroke:#000000;stroke-width:1.0;stroke-dasharray:3.0,3.0;"/><path d="M702.4051,197.5022 L704.056,194.1084 L701.2602,191.5733 L709.2438,193.1065 L702.4051,197.5022 " fill="#000000" style="stroke:#000000;stroke-width:1.0;"/><ellipse cx="660" cy="197.5" fill="#000000" rx="3" ry="3" style="stroke:#000000;stroke-width:1.0;"/><path d="M660,217.5 L673,217.5 C682.5729,217.5 693.1162,218.9087 701.8327,220.4623 " fill="none" style="stroke:#000000;stroke-width:1.0;stroke-dasharray:3.0,3.0;"/><path d="M701.2602,223.4267 L704.056,220.8916 L702.4051,217.4978 L709.2438,221.8935 L701.2602,223.4267 " fill="#000000" style="stroke:#000000;stroke-width:1.0;"/><ellipse cx="660" cy="217.5" fill="#000000" rx="3" ry="3" style="stroke:#000000;stroke-width:1.0;"/><path d="M330.7331,198.5711 L343.6776,197.3709 C362.1987,195.6538 399.3531,192.209 437.5994,188.663 " fill="none" style="stroke:#000000;stroke-width:1.0;stroke-dasharray:3.0,3.0;"/><path d="M437.8835,191.7264 L439.897,188.4499 L437.3154,185.5995 L445.258,187.9529 L437.8835,191.7264 " fill="#000000" style="stroke:#000000;stroke-width:1.0;"/><ellipse cx="330.7331" cy="198.5711" fill="#000000" rx="3" ry="3" style="stroke:#000000;stroke-width:1.0;"/><path d="M205,184.5 L218,184.5 C251.3055,184.5 289.7356,190.6171 311.9632,194.7644 " fill="none" style="stroke:#000000;stroke-width:1.0;stroke-dasharray:3.0,3.0;"/><path d="M311.3936,197.731 L314.1881,195.1915 L312.5327,191.7977 L319.3797,196.1882 L311.3936,197.731 " fill="#000000" style="stroke:#000000;stroke-width:1.0;"/><ellipse cx="205" cy="184.5" fill="#000000" rx="3" ry="3" style="stroke:#000000;stroke-width:1.0;"/><path d="M595,316.5 L608,316.5 C640.9692,316.5 679.2686,313.4682 701.6031,311.3952 " fill="none" style="stroke:#000000;stroke-width:1.0;stroke-dasharray:3.0,3.0;"/><path d="M701.8988,314.4887 L703.9232,311.1734 L701.3074,308.3016 L709.3369,310.6559 L701.8988,314.4887 " fill="#000000" style="stroke:#000000;stroke-width:1.0;"/><ellipse cx="595" cy="316.5" fill="#000000" rx="3" ry="3" style="stroke:#000000;stroke-width:1.0;"/><path d="M595,336.5 L608,336.5 C640.9692,336.5 679.2686,339.5318 701.6031,341.6048 " fill="none" style="stroke:#000000;stroke-width:1.0;stroke-dasharray:3.0,3.0;"/><path d="M701.3074,344.6984 L703.9232,341.8266 L701.8988,338.5113 L709.3369,342.3441 L701.3074,344.6984 " fill="#000000" style="stroke:#000000;stroke-width:1.0;"/><ellipse cx="595" cy="336.5" fill="#000000" rx="3" ry="3" style="stroke:#000000;stroke-width:1.0;"/><path d="M330.8757,256.3898 L343.6776,258.6506 C373.2797,263.8783 450.4816,277.5122 503.6629,286.904 " fill="none" style="stroke:#000000;stroke-width:1.0;stroke-dasharray:3.0,3.0;"/><path d="M503.1216,289.9695 L505.962,287.3101 L504.2043,283.8386 L511.3265,288.2574 L503.1216,289.9695 " fill="#000000" style="stroke:#000000;stroke-width:1.0;"/><ellipse cx="330.8757" cy="256.3898" fill="#000000" rx="3" ry="3" style="stroke:#000000;stroke-width:1.0;"/><path d="M205,204.5 L218,204.5 C228.0666,204.5 283.5341,232.2881 312.6452,247.2372 " fill="none" style="stroke:#000000;stroke-width:1.0;stroke-dasharray:3.0,3.0;"/><path d="M311.2455,249.953 L314.6821,248.2869 L314.0449,244.5213 L319.4348,250.7364 L311.2455,249.953 " fill="#000000" style="stroke:#000000;stroke-width:1.0;"/><ellipse cx="205" cy="204.5" fill="#000000" rx="3" ry="3" style="stroke:#000000;stroke-width:1.0;"/><path d="M86,174.5 L99,174.5 C108.327,174.5 118.2936,174.5 127.847,174.5 " fill="none" style="stroke:#000000;stroke-width:1.0;stroke-dasharray:3.0,3.0;"/><path d="M127.847,177.5212 L130.1129,174.5 L127.847,171.4788 L135.4,174.5 L127.847,177.5212 " fill="#000000" style="stroke:#000000;stroke-width:1.0;"/><ellipse cx="86" cy="174.5" fill="#000000" rx="3" ry="3" style="stroke:#000000;stroke-width:1.0;"/></g></svg>