<?xml version="1.0" encoding="UTF-8" standalone="no"?><svg xmlns="http://www.w3.org/2000/svg" xmlns:xlink="http://www.w3.org/1999/xlink" contentStyleType="text/css" height="501px" preserveAspectRatio="none" style="width:899px;height:501px;background:#FFFFFF;" version="1.1" viewBox="0 0 899 501" width="899px" zoomAndPan="magnify"><defs/><g><rect fill="#F1F1F1" height="20.2969" rx="5" ry="5" style="stroke:#F1F1F1;stroke-width:1.5;" width="88" x="10" y="239.5"/><text fill="#000000" font-family="sans-serif" font-size="14" font-weight="bold" lengthAdjust="spacing" textLength="56" x="15" y="254.4951">Default</text><text fill="#000000" font-family="sans-serif" font-size="14" lengthAdjust="spacing" textLength="12" x="81" y="254.4951">   </text><line style="stroke:#000000;stroke-width:1.0;" x1="76" x2="76" y1="239.5" y2="259.7969"/><rect fill="none" height="20.2969" rx="5" ry="5" style="stroke:#000000;stroke-width:1.5;" width="88" x="10" y="239.5"/><rect fill="#F1F1F1" height="101.4844" rx="5" ry="5" style="stroke:#F1F1F1;stroke-width:1.5;" width="82" x="135" y="199"/><text fill="#000000" font-family="sans-serif" font-size="14" font-weight="bold" lengthAdjust="spacing" textLength="39" x="140" y="213.9951">head</text><text fill="#000000" font-family="sans-serif" font-size="14" lengthAdjust="spacing" textLength="12" x="200" y="213.9951">   </text><line style="stroke:#000000;stroke-width:1.0;" x1="195" x2="195" y1="199" y2="219.2969"/><line style="stroke:#000000;stroke-width:1.0;" x1="135" x2="217" y1="219.2969" y2="219.2969"/><text fill="#000000" font-family="sans-serif" font-size="14" font-weight="bold" lengthAdjust="spacing" textLength="39" x="140" y="234.292">body</text><text fill="#000000" font-family="sans-serif" font-size="14" lengthAdjust="spacing" textLength="12" x="200" y="234.292">   </text><line style="stroke:#000000;stroke-width:1.0;" x1="195" x2="195" y1="219.2969" y2="239.5938"/><line style="stroke:#000000;stroke-width:1.0;" x1="135" x2="217" y1="239.5938" y2="239.5938"/><text fill="#000000" font-family="sans-serif" font-size="14" font-weight="bold" lengthAdjust="spacing" textLength="48" x="140" y="254.5889">mailer</text><text fill="#000000" font-family="sans-serif" font-size="14" lengthAdjust="spacing" textLength="12" x="200" y="254.5889">   </text><line style="stroke:#000000;stroke-width:1.0;" x1="195" x2="195" y1="239.5938" y2="259.8906"/><line style="stroke:#000000;stroke-width:1.0;" x1="135" x2="217" y1="259.8906" y2="259.8906"/><text fill="#000000" font-family="sans-serif" font-size="14" font-weight="bold" lengthAdjust="spacing" textLength="50" x="140" y="274.8857">offline</text><text fill="#000000" font-family="sans-serif" font-size="14" lengthAdjust="spacing" textLength="12" x="200" y="274.8857">   </text><line style="stroke:#000000;stroke-width:1.0;" x1="195" x2="195" y1="259.8906" y2="280.1875"/><line style="stroke:#000000;stroke-width:1.0;" x1="135" x2="217" y1="280.1875" y2="280.1875"/><text fill="#000000" font-family="sans-serif" font-size="14" font-weight="bold" lengthAdjust="spacing" textLength="48" x="140" y="295.1826">pages</text><text fill="#000000" font-family="sans-serif" font-size="14" lengthAdjust="spacing" textLength="12" x="200" y="295.1826">   </text><line style="stroke:#000000;stroke-width:1.0;" x1="195" x2="195" y1="280.1875" y2="300.4844"/><rect fill="none" height="101.4844" rx="5" ry="5" style="stroke:#000000;stroke-width:1.5;" width="82" x="135" y="199"/><rect fill="#F1F1F1" height="101.4844" rx="5" ry="5" style="stroke:#F1F1F1;stroke-width:1.5;" width="106" x="352.5" y="10"/><text fill="#000000" font-family="sans-serif" font-size="14" lengthAdjust="spacing" textLength="27" x="357.5" y="24.9951">Seo</text><line style="stroke:#000000;stroke-width:1.0;" x1="352.5" x2="458.5" y1="30.2969" y2="30.2969"/><text fill="#000000" font-family="sans-serif" font-size="14" lengthAdjust="spacing" textLength="28" x="357.5" y="45.292">Pwa</text><line style="stroke:#000000;stroke-width:1.0;" x1="352.5" x2="458.5" y1="50.5938" y2="50.5938"/><text fill="#000000" font-family="sans-serif" font-size="14" lengthAdjust="spacing" textLength="26" x="357.5" y="65.5889">Css</text><line style="stroke:#000000;stroke-width:1.0;" x1="352.5" x2="458.5" y1="70.8906" y2="70.8906"/><text fill="#000000" font-family="sans-serif" font-size="14" lengthAdjust="spacing" textLength="96" x="357.5" y="85.8857">DefaultScripts</text><line style="stroke:#000000;stroke-width:1.0;" x1="352.5" x2="458.5" y1="91.1875" y2="91.1875"/><text fill="#000000" font-family="sans-serif" font-size="14" lengthAdjust="spacing" textLength="75" x="357.5" y="106.1826">Production</text><rect fill="none" height="101.4844" rx="5" ry="5" style="stroke:#000000;stroke-width:1.5;" width="106" x="352.5" y="10"/><rect fill="#F1F1F1" height="81.1875" rx="5" ry="5" style="stroke:#F1F1F1;stroke-width:1.5;" width="154" x="328.5" y="129"/><text fill="#000000" font-family="sans-serif" font-size="14" lengthAdjust="spacing" textLength="94" x="333.5" y="143.9951">CacheControl</text><line style="stroke:#000000;stroke-width:1.0;" x1="328.5" x2="482.5" y1="149.2969" y2="149.2969"/><text fill="#000000" font-family="sans-serif" font-size="14" lengthAdjust="spacing" textLength="144" x="333.5" y="164.292">DefaultSplashScreen</text><line style="stroke:#000000;stroke-width:1.0;" x1="328.5" x2="482.5" y1="169.5938" y2="169.5938"/><text fill="#000000" font-family="sans-serif" font-size="14" lengthAdjust="spacing" textLength="27" x="333.5" y="184.5889">404</text><line style="stroke:#000000;stroke-width:1.0;" x1="328.5" x2="482.5" y1="189.8906" y2="189.8906"/><text fill="#000000" font-family="sans-serif" font-size="14" lengthAdjust="spacing" textLength="27" x="333.5" y="204.8857">500</text><rect fill="none" height="81.1875" rx="5" ry="5" style="stroke:#000000;stroke-width:1.5;" width="154" x="328.5" y="129"/><rect fill="#F1F1F1" height="40.5938" rx="5" ry="5" style="stroke:#F1F1F1;stroke-width:1.5;" width="303" x="254" y="228"/><text fill="#000000" font-family="sans-serif" font-size="14" font-weight="bold" lengthAdjust="spacing" textLength="123" x="259" y="242.9951">userVerifyEmail</text><text fill="#000000" font-family="sans-serif" font-size="14" lengthAdjust="spacing" textLength="122" x="410" y="242.9951">DefaultVerifyEmail</text><line style="stroke:#000000;stroke-width:1.0;" x1="405" x2="405" y1="228" y2="248.2969"/><line style="stroke:#000000;stroke-width:1.0;" x1="254" x2="557" y1="248.2969" y2="248.2969"/><text fill="#000000" font-family="sans-serif" font-size="14" font-weight="bold" lengthAdjust="spacing" textLength="141" x="259" y="263.292">userRecoverEmail</text><text fill="#000000" font-family="sans-serif" font-size="14" lengthAdjust="spacing" textLength="142" x="410" y="263.292">DefaultRecoverEmail</text><line style="stroke:#000000;stroke-width:1.0;" x1="405" x2="405" y1="248.2969" y2="268.5938"/><rect fill="none" height="40.5938" rx="5" ry="5" style="stroke:#000000;stroke-width:1.5;" width="303" x="254" y="228"/><rect fill="#F1F1F1" height="40.5938" rx="5" ry="5" style="stroke:#F1F1F1;stroke-width:1.5;" width="22" x="393.5" y="287"/><text fill="#000000" font-family="sans-serif" font-size="14" lengthAdjust="spacing" textLength="12" x="398.5" y="301.9951">   </text><line style="stroke:#000000;stroke-width:1.0;" x1="393.5" x2="415.5" y1="307.2969" y2="307.2969"/><text fill="#000000" font-family="sans-serif" font-size="14" lengthAdjust="spacing" textLength="12" x="398.5" y="322.292">   </text><rect fill="none" height="40.5938" rx="5" ry="5" style="stroke:#000000;stroke-width:1.5;" width="22" x="393.5" y="287"/><rect fill="#F1F1F1" height="101.4844" rx="5" ry="5" style="stroke:#F1F1F1;stroke-width:1.5;" width="227" x="594" y="148"/><text fill="#000000" font-family="sans-serif" font-size="14" font-weight="bold" lengthAdjust="spacing" textLength="35" x="599" y="162.9951">path</text><text fill="#000000" font-family="sans-serif" font-size="14" lengthAdjust="spacing" textLength="46" x="652" y="162.9951">/offline</text><line style="stroke:#000000;stroke-width:1.0;" x1="647" x2="647" y1="148" y2="168.2969"/><line style="stroke:#000000;stroke-width:1.0;" x1="594" x2="821" y1="168.2969" y2="168.2969"/><text fill="#000000" font-family="sans-serif" font-size="14" font-weight="bold" lengthAdjust="spacing" textLength="30" x="599" y="183.292">title</text><text fill="#000000" font-family="sans-serif" font-size="14" lengthAdjust="spacing" textLength="164" x="652" y="183.292">No Network Connection</text><line style="stroke:#000000;stroke-width:1.0;" x1="647" x2="647" y1="168.2969" y2="188.5938"/><line style="stroke:#000000;stroke-width:1.0;" x1="594" x2="821" y1="188.5938" y2="188.5938"/><text fill="#000000" font-family="sans-serif" font-size="14" font-weight="bold" lengthAdjust="spacing" textLength="43" x="599" y="203.5889">client</text><text fill="#000000" font-family="sans-serif" font-size="14" lengthAdjust="spacing" textLength="156" x="652" y="203.5889">NoNetworkConnection</text><line style="stroke:#000000;stroke-width:1.0;" x1="647" x2="647" y1="188.5938" y2="208.8906"/><line style="stroke:#000000;stroke-width:1.0;" x1="594" x2="821" y1="208.8906" y2="208.8906"/><text fill="#000000" font-family="sans-serif" font-size="14" font-weight="bold" lengthAdjust="spacing" textLength="39" x="599" y="223.8857">head</text><text fill="#000000" font-family="sans-serif" font-size="14" lengthAdjust="spacing" textLength="12" x="652" y="223.8857">   </text><line style="stroke:#000000;stroke-width:1.0;" x1="647" x2="647" y1="208.8906" y2="229.1875"/><line style="stroke:#000000;stroke-width:1.0;" x1="594" x2="821" y1="229.1875" y2="229.1875"/><text fill="#000000" font-family="sans-serif" font-size="14" font-weight="bold" lengthAdjust="spacing" textLength="39" x="599" y="244.1826">body</text><text fill="#000000" font-family="sans-serif" font-size="14" lengthAdjust="spacing" textLength="12" x="652" y="244.1826">   </text><line style="stroke:#000000;stroke-width:1.0;" x1="647" x2="647" y1="229.1875" y2="249.4844"/><rect fill="none" height="101.4844" rx="5" ry="5" style="stroke:#000000;stroke-width:1.5;" width="227" x="594" y="148"/><rect fill="#F1F1F1" height="15" rx="5" ry="5" style="stroke:#F1F1F1;stroke-width:1.5;" width="30" x="858" y="203.5"/><rect fill="none" height="15" rx="5" ry="5" style="stroke:#000000;stroke-width:1.5;" width="30" x="858" y="203.5"/><rect fill="#F1F1F1" height="15" rx="5" ry="5" style="stroke:#F1F1F1;stroke-width:1.5;" width="30" x="858" y="237.5"/><rect fill="none" height="15" rx="5" ry="5" style="stroke:#000000;stroke-width:1.5;" width="30" x="858" y="237.5"/><rect fill="#F1F1F1" height="101.4844" rx="5" ry="5" style="stroke:#F1F1F1;stroke-width:1.5;" width="200" x="607.5" y="267"/><text fill="#000000" font-family="sans-serif" font-size="14" font-weight="bold" lengthAdjust="spacing" textLength="35" x="612.5" y="281.9951">path</text><text fill="#000000" font-family="sans-serif" font-size="14" lengthAdjust="spacing" textLength="95" x="665.5" y="281.9951">/maintenance</text><line style="stroke:#000000;stroke-width:1.0;" x1="660.5" x2="660.5" y1="267" y2="287.2969"/><line style="stroke:#000000;stroke-width:1.0;" x1="607.5" x2="807.5" y1="287.2969" y2="287.2969"/><text fill="#000000" font-family="sans-serif" font-size="14" font-weight="bold" lengthAdjust="spacing" textLength="30" x="612.5" y="302.292">title</text><text fill="#000000" font-family="sans-serif" font-size="14" lengthAdjust="spacing" textLength="137" x="665.5" y="302.292">Server Maintenance</text><line style="stroke:#000000;stroke-width:1.0;" x1="660.5" x2="660.5" y1="287.2969" y2="307.5938"/><line style="stroke:#000000;stroke-width:1.0;" x1="607.5" x2="807.5" y1="307.5938" y2="307.5938"/><text fill="#000000" font-family="sans-serif" font-size="14" font-weight="bold" lengthAdjust="spacing" textLength="43" x="612.5" y="322.5889">client</text><text fill="#000000" font-family="sans-serif" font-size="14" lengthAdjust="spacing" textLength="89" x="665.5" y="322.5889">Maintenance</text><line style="stroke:#000000;stroke-width:1.0;" x1="660.5" x2="660.5" y1="307.5938" y2="327.8906"/><line style="stroke:#000000;stroke-width:1.0;" x1="607.5" x2="807.5" y1="327.8906" y2="327.8906"/><text fill="#000000" font-family="sans-serif" font-size="14" font-weight="bold" lengthAdjust="spacing" textLength="39" x="612.5" y="342.8857">head</text><text fill="#000000" font-family="sans-serif" font-size="14" lengthAdjust="spacing" textLength="12" x="665.5" y="342.8857">   </text><line style="stroke:#000000;stroke-width:1.0;" x1="660.5" x2="660.5" y1="327.8906" y2="348.1875"/><line style="stroke:#000000;stroke-width:1.0;" x1="607.5" x2="807.5" y1="348.1875" y2="348.1875"/><text fill="#000000" font-family="sans-serif" font-size="14" font-weight="bold" lengthAdjust="spacing" textLength="39" x="612.5" y="363.1826">body</text><text fill="#000000" font-family="sans-serif" font-size="14" lengthAdjust="spacing" textLength="12" x="665.5" y="363.1826">   </text><line style="stroke:#000000;stroke-width:1.0;" x1="660.5" x2="660.5" y1="348.1875" y2="368.4844"/><rect fill="none" height="101.4844" rx="5" ry="5" style="stroke:#000000;stroke-width:1.5;" width="200" x="607.5" y="267"/><rect fill="#F1F1F1" height="15" rx="5" ry="5" style="stroke:#F1F1F1;stroke-width:1.5;" width="30" x="858" y="322.5"/><rect fill="none" height="15" rx="5" ry="5" style="stroke:#000000;stroke-width:1.5;" width="30" x="858" y="322.5"/><rect fill="#F1F1F1" height="15" rx="5" ry="5" style="stroke:#F1F1F1;stroke-width:1.5;" width="30" x="858" y="356.5"/><rect fill="none" height="15" rx="5" ry="5" style="stroke:#000000;stroke-width:1.5;" width="30" x="858" y="356.5"/><rect fill="#F1F1F1" height="20.2969" rx="5" ry="5" style="stroke:#F1F1F1;stroke-width:1.5;" width="22" x="393.5" y="386.5"/><text fill="#000000" font-family="sans-serif" font-size="14" lengthAdjust="spacing" textLength="12" x="398.5" y="401.4951">   </text><rect fill="none" height="20.2969" rx="5" ry="5" style="stroke:#000000;stroke-width:1.5;" width="22" x="393.5" y="386.5"/><rect fill="#F1F1F1" height="101.4844" rx="5" ry="5" style="stroke:#F1F1F1;stroke-width:1.5;" width="95" x="660" y="386"/><text fill="#000000" font-family="sans-serif" font-size="14" font-weight="bold" lengthAdjust="spacing" textLength="35" x="665" y="400.9951">path</text><text fill="#000000" font-family="sans-serif" font-size="14" lengthAdjust="spacing" textLength="32" x="718" y="400.9951">/test</text><line style="stroke:#000000;stroke-width:1.0;" x1="713" x2="713" y1="386" y2="406.2969"/><line style="stroke:#000000;stroke-width:1.0;" x1="660" x2="755" y1="406.2969" y2="406.2969"/><text fill="#000000" font-family="sans-serif" font-size="14" font-weight="bold" lengthAdjust="spacing" textLength="30" x="665" y="421.292">title</text><text fill="#000000" font-family="sans-serif" font-size="14" lengthAdjust="spacing" textLength="31" x="718" y="421.292">Test</text><line style="stroke:#000000;stroke-width:1.0;" x1="713" x2="713" y1="406.2969" y2="426.5938"/><line style="stroke:#000000;stroke-width:1.0;" x1="660" x2="755" y1="426.5938" y2="426.5938"/><text fill="#000000" font-family="sans-serif" font-size="14" font-weight="bold" lengthAdjust="spacing" textLength="43" x="665" y="441.5889">client</text><text fill="#000000" font-family="sans-serif" font-size="14" lengthAdjust="spacing" textLength="31" x="718" y="441.5889">Test</text><line style="stroke:#000000;stroke-width:1.0;" x1="713" x2="713" y1="426.5938" y2="446.8906"/><line style="stroke:#000000;stroke-width:1.0;" x1="660" x2="755" y1="446.8906" y2="446.8906"/><text fill="#000000" font-family="sans-serif" font-size="14" font-weight="bold" lengthAdjust="spacing" textLength="39" x="665" y="461.8857">head</text><text fill="#000000" font-family="sans-serif" font-size="14" lengthAdjust="spacing" textLength="12" x="718" y="461.8857">   </text><line style="stroke:#000000;stroke-width:1.0;" x1="713" x2="713" y1="446.8906" y2="467.1875"/><line style="stroke:#000000;stroke-width:1.0;" x1="660" x2="755" y1="467.1875" y2="467.1875"/><text fill="#000000" font-family="sans-serif" font-size="14" font-weight="bold" lengthAdjust="spacing" textLength="39" x="665" y="482.1826">body</text><text fill="#000000" font-family="sans-serif" font-size="14" lengthAdjust="spacing" textLength="12" x="718" y="482.1826">   </text><line style="stroke:#000000;stroke-width:1.0;" x1="713" x2="713" y1="467.1875" y2="487.4844"/><rect fill="none" height="101.4844" rx="5" ry="5" style="stroke:#000000;stroke-width:1.5;" width="95" x="660" y="386"/><rect fill="#F1F1F1" height="15" rx="5" ry="5" style="stroke:#F1F1F1;stroke-width:1.5;" width="30" x="858" y="441.5"/><rect fill="none" height="15" rx="5" ry="5" style="stroke:#000000;stroke-width:1.5;" width="30" x="858" y="441.5"/><rect fill="#F1F1F1" height="15" rx="5" ry="5" style="stroke:#F1F1F1;stroke-width:1.5;" width="30" x="858" y="475.5"/><rect fill="none" height="15" rx="5" ry="5" style="stroke:#000000;stroke-width:1.5;" width="30" x="858" y="475.5"/><path d="M205,208.5 L218,208.5 C260.669,208.5 223.6497,149.4917 254,119.5 C278.7427,95.0497 314.7894,80.4561 345.4585,71.9008 " fill="none" style="stroke:#000000;stroke-width:1.0;stroke-dasharray:3.0,3.0;"/><path d="M346.2358,74.8063 L347.6377,71.3178 L344.6813,68.9952 L352.7224,69.9576 L346.2358,74.8063 " fill="#000000" style="stroke:#000000;stroke-width:1.0;"/><ellipse cx="205" cy="208.5" fill="#000000" rx="3" ry="3" style="stroke:#000000;stroke-width:1.0;"/><path d="M205,228.5 L218,228.5 C220.8788,228.5 272.9523,212.0186 321.4143,196.4777 " fill="none" style="stroke:#000000;stroke-width:1.0;stroke-dasharray:3.0,3.0;"/><path d="M322.3677,199.4487 L323.6426,195.7626 L320.4609,193.5066 L328.8419,194.0941 L322.3677,199.4487 " fill="#000000" style="stroke:#000000;stroke-width:1.0;"/><ellipse cx="205" cy="228.5" fill="#000000" rx="3" ry="3" style="stroke:#000000;stroke-width:1.0;"/><path d="M205,248.5 L218,248.5 C227.4428,248.5 237.1539,248.5 246.9503,248.5 " fill="none" style="stroke:#000000;stroke-width:1.0;stroke-dasharray:3.0,3.0;"/><path d="M246.9503,251.502 L249.2018,248.5 L246.9503,245.498 L254.4553,248.5 L246.9503,251.502 " fill="#000000" style="stroke:#000000;stroke-width:1.0;"/><ellipse cx="205" cy="248.5" fill="#000000" rx="3" ry="3" style="stroke:#000000;stroke-width:1.0;"/><path d="M809,218.5 L822,218.5 C831.5729,218.5 842.1162,217.0913 850.8327,215.5377 " fill="none" style="stroke:#000000;stroke-width:1.0;stroke-dasharray:3.0,3.0;"/><path d="M851.4051,218.5022 L853.056,215.1084 L850.2602,212.5733 L858.2438,214.1065 L851.4051,218.5022 " fill="#000000" style="stroke:#000000;stroke-width:1.0;"/><ellipse cx="809" cy="218.5" fill="#000000" rx="3" ry="3" style="stroke:#000000;stroke-width:1.0;"/><path d="M809,238.5 L822,238.5 C831.5729,238.5 842.1162,239.9087 850.8327,241.4623 " fill="none" style="stroke:#000000;stroke-width:1.0;stroke-dasharray:3.0,3.0;"/><path d="M850.2602,244.4267 L853.056,241.8916 L851.4051,238.4978 L858.2438,242.8935 L850.2602,244.4267 " fill="#000000" style="stroke:#000000;stroke-width:1.0;"/><ellipse cx="809" cy="238.5" fill="#000000" rx="3" ry="3" style="stroke:#000000;stroke-width:1.0;"/><path d="M406,296.5 L419,296.5 C481.2936,296.5 499.0359,298.5931 558,278.5 C575.5332,272.5252 577.7856,266.4557 594,257.5 C596.8332,255.9351 599.7116,254.3565 602.6206,252.7707 " fill="none" style="stroke:#000000;stroke-width:1.0;stroke-dasharray:3.0,3.0;"/><path d="M604.1044,255.5054 L604.6715,251.6578 L601.1367,250.0361 L609.4571,249.061 L604.1044,255.5054 " fill="#000000" style="stroke:#000000;stroke-width:1.0;"/><ellipse cx="406" cy="296.5" fill="#000000" rx="3" ry="3" style="stroke:#000000;stroke-width:1.0;"/><path d="M796,337.5 L809,337.5 C823.0892,337.5 838.9025,335.6035 850.8279,333.7848 " fill="none" style="stroke:#000000;stroke-width:1.0;stroke-dasharray:3.0,3.0;"/><path d="M851.3169,336.8112 L853.0977,333.4181 L850.339,330.7584 L858.3939,332.5624 L851.3169,336.8112 " fill="#000000" style="stroke:#000000;stroke-width:1.0;"/><ellipse cx="796" cy="337.5" fill="#000000" rx="3" ry="3" style="stroke:#000000;stroke-width:1.0;"/><path d="M796,357.5 L809,357.5 C823.0892,357.5 838.9025,359.3965 850.8279,361.2152 " fill="none" style="stroke:#000000;stroke-width:1.0;stroke-dasharray:3.0,3.0;"/><path d="M850.339,364.2416 L853.0977,361.5819 L851.3169,358.1888 L858.3939,362.4376 L850.339,364.2416 " fill="#000000" style="stroke:#000000;stroke-width:1.0;"/><ellipse cx="796" cy="357.5" fill="#000000" rx="3" ry="3" style="stroke:#000000;stroke-width:1.0;"/><path d="M406,317.5 L419,317.5 C478.9312,317.5 545.8774,317.5 600.1314,317.5 " fill="none" style="stroke:#000000;stroke-width:1.0;stroke-dasharray:3.0,3.0;"/><path d="M600.1314,320.5277 L602.4022,317.5 L600.1314,314.4723 L607.7006,317.5 L600.1314,320.5277 " fill="#000000" style="stroke:#000000;stroke-width:1.0;"/><ellipse cx="406" cy="317.5" fill="#000000" rx="3" ry="3" style="stroke:#000000;stroke-width:1.0;"/><path d="M205,269.5 L218,269.5 C234.4924,269.5 237.8956,274.9434 254,278.5 C301.4487,288.979 357.7662,299.2182 386.3496,304.2604 " fill="none" style="stroke:#000000;stroke-width:1.0;stroke-dasharray:3.0,3.0;"/><path d="M385.815,307.3078 L388.6352,304.6613 L386.8842,301.2129 L393.9683,305.5968 L385.815,307.3078 " fill="#000000" style="stroke:#000000;stroke-width:1.0;"/><ellipse cx="205" cy="269.5" fill="#000000" rx="3" ry="3" style="stroke:#000000;stroke-width:1.0;"/><path d="M744,456.5 L757,456.5 C789.9692,456.5 828.2686,453.4682 850.6031,451.3952 " fill="none" style="stroke:#000000;stroke-width:1.0;stroke-dasharray:3.0,3.0;"/><path d="M850.8988,454.4887 L852.9232,451.1734 L850.3074,448.3016 L858.3369,450.6559 L850.8988,454.4887 " fill="#000000" style="stroke:#000000;stroke-width:1.0;"/><ellipse cx="744" cy="456.5" fill="#000000" rx="3" ry="3" style="stroke:#000000;stroke-width:1.0;"/><path d="M744,476.5 L757,476.5 C789.9692,476.5 828.2686,479.5318 850.6031,481.6048 " fill="none" style="stroke:#000000;stroke-width:1.0;stroke-dasharray:3.0,3.0;"/><path d="M850.3074,484.6984 L852.9232,481.8266 L850.8988,478.5113 L858.3369,482.3441 L850.3074,484.6984 " fill="#000000" style="stroke:#000000;stroke-width:1.0;"/><ellipse cx="744" cy="476.5" fill="#000000" rx="3" ry="3" style="stroke:#000000;stroke-width:1.0;"/><path d="M405.2856,396.4051 L418.1724,398.1176 C457.1178,403.2931 580.3422,419.6684 652.6436,429.2766 " fill="none" style="stroke:#000000;stroke-width:1.0;stroke-dasharray:3.0,3.0;"/><path d="M652.2346,432.3542 L654.9518,429.5833 L653.0526,426.199 L660.3377,430.299 L652.2346,432.3542 " fill="#000000" style="stroke:#000000;stroke-width:1.0;"/><ellipse cx="405.2856" cy="396.4051" fill="#000000" rx="3" ry="3" style="stroke:#000000;stroke-width:1.0;"/><path d="M205,289.5 L218,289.5 C244.6667,289.5 232.7694,321.364 254,337.5 C295.5509,369.0801 356.1321,385.8661 386.3748,392.7209 " fill="none" style="stroke:#000000;stroke-width:1.0;stroke-dasharray:3.0,3.0;"/><path d="M385.7335,395.6591 L388.5785,393.2018 L387.0161,389.7826 L393.7204,394.3241 L385.7335,395.6591 " fill="#000000" style="stroke:#000000;stroke-width:1.0;"/><ellipse cx="205" cy="289.5" fill="#000000" rx="3" ry="3" style="stroke:#000000;stroke-width:1.0;"/><path d="M86,249.5 L99,249.5 C108.327,249.5 118.2936,249.5 127.847,249.5 " fill="none" style="stroke:#000000;stroke-width:1.0;stroke-dasharray:3.0,3.0;"/><path d="M127.847,252.5212 L130.1129,249.5 L127.847,246.4788 L135.4,249.5 L127.847,252.5212 " fill="#000000" style="stroke:#000000;stroke-width:1.0;"/><ellipse cx="86" cy="249.5" fill="#000000" rx="3" ry="3" style="stroke:#000000;stroke-width:1.0;"/></g></svg>