<?xml version="1.0"?><svg width="599.72968" height="878.745" xmlns="http://www.w3.org/2000/svg">
 <metadata id="metadata3">SVG of the greek letter lambdaletterlambagreekOpen Clip Art LibraryMark KowarskyMark Kowarskyimage/svg+xmlen</metadata>

 <g>
  <title>Layer 1</title>
  <g id="layer1">
   <path fill="#ff0000" id="flowRoot1306" d="m577.65564,693.555908l22.075928,0c0,64.59259 -10.62915,111.60614 -31.887451,141.04071c-20.849487,29.434631 -47.013611,44.151917 -78.492249,44.151917c-25.755249,0 -50.488495,-9.607117 -74.199677,-28.82135c-23.711182,-19.623108 -44.969513,-71.746826 -63.774933,-156.371277l-52.736969,-237.929535l-182.739716,414.537079l-115.89868,0l262.458372,-565.389343c-13.899658,-73.177643 -30.661011,-127.345459 -50.284073,-162.503433c-19.623047,-35.157982 -43.947464,-52.736969 -72.973236,-52.736969c-23.302383,0 -43.743065,8.993904 -61.32206,26.981705c-17.17017,17.578995 -26.777294,44.969498 -28.821362,82.171555l-22.075939,0c1.22644,-60.095612 13.286446,-108.131226 36.180012,-144.106831c22.893566,-36.384417 51.510525,-54.576625 85.850872,-54.576625c22.075943,0 42.925446,9.198308 62.548492,27.594924c20.031876,17.987801 37.202042,49.05764 51.510513,93.209518c14.717316,43.743073 37.406464,134.704117 68.067505,272.883148l43.538635,194.390869c17.57901,80.536316 35.975616,134.499756 55.18985,161.890259c19.623077,26.981689 42.925446,40.472534 69.907135,40.472534c45.78717,0 71.746826,-32.296265 77.879028,-96.888855"/>
  </g>
 </g>
</svg>