<?xml version="1.0" encoding="UTF-8" standalone="no"?><svg xmlns="http://www.w3.org/2000/svg" xmlns:xlink="http://www.w3.org/1999/xlink" contentStyleType="text/css" height="309px" preserveAspectRatio="none" style="width:1141px;height:309px;background:#FFFFFF;" version="1.1" viewBox="0 0 1141 309" width="1141px" zoomAndPan="magnify"><defs/><g><rect fill="#F1F1F1" height="43.2188" rx="5" ry="5" style="stroke:#F1F1F1;stroke-width:1.5;" width="132" x="10" y="111"/><text fill="#000000" font-family="sans-serif" font-size="14" font-weight="bold" lengthAdjust="spacing" textLength="30" x="15" y="127.5332">type</text><text fill="#000000" font-family="sans-serif" font-size="14" lengthAdjust="spacing" textLength="38" x="99" y="127.5332">object</text><line style="stroke:#000000;stroke-width:1.0;" x1="94" x2="94" y1="111" y2="132.6094"/><line style="stroke:#000000;stroke-width:1.0;" x1="10" x2="142" y1="132.6094" y2="132.6094"/><text fill="#000000" font-family="sans-serif" font-size="14" font-weight="bold" lengthAdjust="spacing" textLength="74" x="15" y="149.1426">properties</text><text fill="#000000" font-family="sans-serif" font-size="14" lengthAdjust="spacing" textLength="12" x="99" y="149.1426">   </text><line style="stroke:#000000;stroke-width:1.0;" x1="94" x2="94" y1="132.6094" y2="154.2188"/><rect fill="none" height="43.2188" rx="5" ry="5" style="stroke:#000000;stroke-width:1.5;" width="132" x="10" y="111"/><rect fill="#F1F1F1" height="21.6094" rx="5" ry="5" style="stroke:#F1F1F1;stroke-width:1.5;" width="81" x="179" y="132.5"/><text fill="#000000" font-family="sans-serif" font-size="14" font-weight="bold" lengthAdjust="spacing" textLength="49" x="184" y="149.0332">default</text><text fill="#000000" font-family="sans-serif" font-size="14" lengthAdjust="spacing" textLength="12" x="243" y="149.0332">   </text><line style="stroke:#000000;stroke-width:1.0;" x1="238" x2="238" y1="132.5" y2="154.1094"/><rect fill="none" height="21.6094" rx="5" ry="5" style="stroke:#000000;stroke-width:1.5;" width="81" x="179" y="132.5"/><rect fill="#F1F1F1" height="43.2188" rx="5" ry="5" style="stroke:#F1F1F1;stroke-width:1.5;" width="132" x="297" y="122"/><text fill="#000000" font-family="sans-serif" font-size="14" font-weight="bold" lengthAdjust="spacing" textLength="30" x="302" y="138.5332">type</text><text fill="#000000" font-family="sans-serif" font-size="14" lengthAdjust="spacing" textLength="38" x="386" y="138.5332">object</text><line style="stroke:#000000;stroke-width:1.0;" x1="381" x2="381" y1="122" y2="143.6094"/><line style="stroke:#000000;stroke-width:1.0;" x1="297" x2="429" y1="143.6094" y2="143.6094"/><text fill="#000000" font-family="sans-serif" font-size="14" font-weight="bold" lengthAdjust="spacing" textLength="74" x="302" y="160.1426">properties</text><text fill="#000000" font-family="sans-serif" font-size="14" lengthAdjust="spacing" textLength="12" x="386" y="160.1426">   </text><line style="stroke:#000000;stroke-width:1.0;" x1="381" x2="381" y1="143.6094" y2="165.2188"/><rect fill="none" height="43.2188" rx="5" ry="5" style="stroke:#000000;stroke-width:1.5;" width="132" x="297" y="122"/><rect fill="#F1F1F1" height="108.0469" rx="5" ry="5" style="stroke:#F1F1F1;stroke-width:1.5;" width="119" x="466" y="100.5"/><text fill="#000000" font-family="sans-serif" font-size="14" font-weight="bold" lengthAdjust="spacing" textLength="64" x="471" y="117.0332">metadata</text><text fill="#000000" font-family="sans-serif" font-size="14" lengthAdjust="spacing" textLength="12" x="568" y="117.0332">   </text><line style="stroke:#000000;stroke-width:1.0;" x1="563" x2="563" y1="100.5" y2="122.1094"/><line style="stroke:#000000;stroke-width:1.0;" x1="466" x2="585" y1="122.1094" y2="122.1094"/><text fill="#000000" font-family="sans-serif" font-size="14" font-weight="bold" lengthAdjust="spacing" textLength="87" x="471" y="138.6426">components</text><text fill="#000000" font-family="sans-serif" font-size="14" lengthAdjust="spacing" textLength="12" x="568" y="138.6426">   </text><line style="stroke:#000000;stroke-width:1.0;" x1="563" x2="563" y1="122.1094" y2="143.7188"/><line style="stroke:#000000;stroke-width:1.0;" x1="466" x2="585" y1="143.7188" y2="143.7188"/><text fill="#000000" font-family="sans-serif" font-size="14" font-weight="bold" lengthAdjust="spacing" textLength="41" x="471" y="160.252">views</text><text fill="#000000" font-family="sans-serif" font-size="14" lengthAdjust="spacing" textLength="12" x="568" y="160.252">   </text><line style="stroke:#000000;stroke-width:1.0;" x1="563" x2="563" y1="143.7188" y2="165.3281"/><line style="stroke:#000000;stroke-width:1.0;" x1="466" x2="585" y1="165.3281" y2="165.3281"/><text fill="#000000" font-family="sans-serif" font-size="14" font-weight="bold" lengthAdjust="spacing" textLength="34" x="471" y="181.8613">dists</text><text fill="#000000" font-family="sans-serif" font-size="14" lengthAdjust="spacing" textLength="12" x="568" y="181.8613">   </text><line style="stroke:#000000;stroke-width:1.0;" x1="563" x2="563" y1="165.3281" y2="186.9375"/><line style="stroke:#000000;stroke-width:1.0;" x1="466" x2="585" y1="186.9375" y2="186.9375"/><text fill="#000000" font-family="sans-serif" font-size="14" font-weight="bold" lengthAdjust="spacing" textLength="61" x="471" y="203.4707">services</text><text fill="#000000" font-family="sans-serif" font-size="14" lengthAdjust="spacing" textLength="12" x="568" y="203.4707">   </text><line style="stroke:#000000;stroke-width:1.0;" x1="563" x2="563" y1="186.9375" y2="208.5469"/><rect fill="none" height="108.0469" rx="5" ry="5" style="stroke:#000000;stroke-width:1.5;" width="119" x="466" y="100.5"/><rect fill="#F1F1F1" height="43.2188" rx="5" ry="5" style="stroke:#F1F1F1;stroke-width:1.5;" width="132" x="622" y="10"/><text fill="#000000" font-family="sans-serif" font-size="14" font-weight="bold" lengthAdjust="spacing" textLength="30" x="627" y="26.5332">type</text><text fill="#000000" font-family="sans-serif" font-size="14" lengthAdjust="spacing" textLength="38" x="711" y="26.5332">object</text><line style="stroke:#000000;stroke-width:1.0;" x1="706" x2="706" y1="10" y2="31.6094"/><line style="stroke:#000000;stroke-width:1.0;" x1="622" x2="754" y1="31.6094" y2="31.6094"/><text fill="#000000" font-family="sans-serif" font-size="14" font-weight="bold" lengthAdjust="spacing" textLength="74" x="627" y="48.1426">properties</text><text fill="#000000" font-family="sans-serif" font-size="14" lengthAdjust="spacing" textLength="12" x="711" y="48.1426">   </text><line style="stroke:#000000;stroke-width:1.0;" x1="706" x2="706" y1="31.6094" y2="53.2188"/><rect fill="none" height="43.2188" rx="5" ry="5" style="stroke:#000000;stroke-width:1.5;" width="132" x="622" y="10"/><rect fill="#F1F1F1" height="21.6094" rx="5" ry="5" style="stroke:#F1F1F1;stroke-width:1.5;" width="59" x="805.5" y="31.5"/><text fill="#000000" font-family="sans-serif" font-size="14" font-weight="bold" lengthAdjust="spacing" textLength="27" x="810.5" y="48.0332">title</text><text fill="#000000" font-family="sans-serif" font-size="14" lengthAdjust="spacing" textLength="12" x="847.5" y="48.0332">   </text><line style="stroke:#000000;stroke-width:1.0;" x1="842.5" x2="842.5" y1="31.5" y2="53.1094"/><rect fill="none" height="21.6094" rx="5" ry="5" style="stroke:#000000;stroke-width:1.5;" width="59" x="805.5" y="31.5"/><rect fill="#F1F1F1" height="21.6094" rx="5" ry="5" style="stroke:#F1F1F1;stroke-width:1.5;" width="85" x="919" y="31.5"/><text fill="#000000" font-family="sans-serif" font-size="14" font-weight="bold" lengthAdjust="spacing" textLength="30" x="924" y="48.0332">type</text><text fill="#000000" font-family="sans-serif" font-size="14" lengthAdjust="spacing" textLength="35" x="964" y="48.0332">string</text><line style="stroke:#000000;stroke-width:1.0;" x1="959" x2="959" y1="31.5" y2="53.1094"/><rect fill="none" height="21.6094" rx="5" ry="5" style="stroke:#000000;stroke-width:1.5;" width="85" x="919" y="31.5"/><rect fill="#F1F1F1" height="43.2188" rx="5" ry="5" style="stroke:#F1F1F1;stroke-width:1.5;" width="132" x="622" y="71"/><text fill="#000000" font-family="sans-serif" font-size="14" font-weight="bold" lengthAdjust="spacing" textLength="30" x="627" y="87.5332">type</text><text fill="#000000" font-family="sans-serif" font-size="14" lengthAdjust="spacing" textLength="38" x="711" y="87.5332">object</text><line style="stroke:#000000;stroke-width:1.0;" x1="706" x2="706" y1="71" y2="92.6094"/><line style="stroke:#000000;stroke-width:1.0;" x1="622" x2="754" y1="92.6094" y2="92.6094"/><text fill="#000000" font-family="sans-serif" font-size="14" font-weight="bold" lengthAdjust="spacing" textLength="74" x="627" y="109.1426">properties</text><text fill="#000000" font-family="sans-serif" font-size="14" lengthAdjust="spacing" textLength="12" x="711" y="109.1426">   </text><line style="stroke:#000000;stroke-width:1.0;" x1="706" x2="706" y1="92.6094" y2="114.2188"/><rect fill="none" height="43.2188" rx="5" ry="5" style="stroke:#000000;stroke-width:1.5;" width="132" x="622" y="71"/><rect fill="#F1F1F1" height="43.2188" rx="5" ry="5" style="stroke:#F1F1F1;stroke-width:1.5;" width="81" x="794.5" y="83"/><text fill="#000000" font-family="sans-serif" font-size="14" font-weight="bold" lengthAdjust="spacing" textLength="32" x="799.5" y="99.5332">core</text><text fill="#000000" font-family="sans-serif" font-size="14" lengthAdjust="spacing" textLength="12" x="858.5" y="99.5332">   </text><line style="stroke:#000000;stroke-width:1.0;" x1="853.5" x2="853.5" y1="83" y2="104.6094"/><line style="stroke:#000000;stroke-width:1.0;" x1="794.5" x2="875.5" y1="104.6094" y2="104.6094"/><text fill="#000000" font-family="sans-serif" font-size="14" font-weight="bold" lengthAdjust="spacing" textLength="49" x="799.5" y="121.1426">default</text><text fill="#000000" font-family="sans-serif" font-size="14" lengthAdjust="spacing" textLength="12" x="858.5" y="121.1426">   </text><line style="stroke:#000000;stroke-width:1.0;" x1="853.5" x2="853.5" y1="104.6094" y2="126.2188"/><rect fill="none" height="43.2188" rx="5" ry="5" style="stroke:#000000;stroke-width:1.5;" width="81" x="794.5" y="83"/><rect fill="#F1F1F1" height="43.2188" rx="5" ry="5" style="stroke:#F1F1F1;stroke-width:1.5;" width="91" x="916" y="72"/><text fill="#000000" font-family="sans-serif" font-size="14" font-weight="bold" lengthAdjust="spacing" textLength="30" x="921" y="88.5332">type</text><text fill="#000000" font-family="sans-serif" font-size="14" lengthAdjust="spacing" textLength="33" x="969" y="88.5332">array</text><line style="stroke:#000000;stroke-width:1.0;" x1="964" x2="964" y1="72" y2="93.6094"/><line style="stroke:#000000;stroke-width:1.0;" x1="916" x2="1007" y1="93.6094" y2="93.6094"/><text fill="#000000" font-family="sans-serif" font-size="14" font-weight="bold" lengthAdjust="spacing" textLength="38" x="921" y="110.1426">items</text><text fill="#000000" font-family="sans-serif" font-size="14" lengthAdjust="spacing" textLength="12" x="969" y="110.1426">   </text><line style="stroke:#000000;stroke-width:1.0;" x1="964" x2="964" y1="93.6094" y2="115.2188"/><rect fill="none" height="43.2188" rx="5" ry="5" style="stroke:#000000;stroke-width:1.5;" width="91" x="916" y="72"/><rect fill="#F1F1F1" height="21.6094" rx="5" ry="5" style="stroke:#F1F1F1;stroke-width:1.5;" width="85" x="1044" y="93.5"/><text fill="#000000" font-family="sans-serif" font-size="14" font-weight="bold" lengthAdjust="spacing" textLength="30" x="1049" y="110.0332">type</text><text fill="#000000" font-family="sans-serif" font-size="14" lengthAdjust="spacing" textLength="35" x="1089" y="110.0332">string</text><line style="stroke:#000000;stroke-width:1.0;" x1="1084" x2="1084" y1="93.5" y2="115.1094"/><rect fill="none" height="21.6094" rx="5" ry="5" style="stroke:#000000;stroke-width:1.5;" width="85" x="1044" y="93.5"/><rect fill="#F1F1F1" height="43.2188" rx="5" ry="5" style="stroke:#F1F1F1;stroke-width:1.5;" width="91" x="916" y="133"/><text fill="#000000" font-family="sans-serif" font-size="14" font-weight="bold" lengthAdjust="spacing" textLength="30" x="921" y="149.5332">type</text><text fill="#000000" font-family="sans-serif" font-size="14" lengthAdjust="spacing" textLength="33" x="969" y="149.5332">array</text><line style="stroke:#000000;stroke-width:1.0;" x1="964" x2="964" y1="133" y2="154.6094"/><line style="stroke:#000000;stroke-width:1.0;" x1="916" x2="1007" y1="154.6094" y2="154.6094"/><text fill="#000000" font-family="sans-serif" font-size="14" font-weight="bold" lengthAdjust="spacing" textLength="38" x="921" y="171.1426">items</text><text fill="#000000" font-family="sans-serif" font-size="14" lengthAdjust="spacing" textLength="12" x="969" y="171.1426">   </text><line style="stroke:#000000;stroke-width:1.0;" x1="964" x2="964" y1="154.6094" y2="176.2188"/><rect fill="none" height="43.2188" rx="5" ry="5" style="stroke:#000000;stroke-width:1.5;" width="91" x="916" y="133"/><rect fill="#F1F1F1" height="21.6094" rx="5" ry="5" style="stroke:#F1F1F1;stroke-width:1.5;" width="85" x="1044" y="154.5"/><text fill="#000000" font-family="sans-serif" font-size="14" font-weight="bold" lengthAdjust="spacing" textLength="30" x="1049" y="171.0332">type</text><text fill="#000000" font-family="sans-serif" font-size="14" lengthAdjust="spacing" textLength="35" x="1089" y="171.0332">string</text><line style="stroke:#000000;stroke-width:1.0;" x1="1084" x2="1084" y1="154.5" y2="176.1094"/><rect fill="none" height="21.6094" rx="5" ry="5" style="stroke:#000000;stroke-width:1.5;" width="85" x="1044" y="154.5"/><rect fill="#F1F1F1" height="43.2188" rx="5" ry="5" style="stroke:#F1F1F1;stroke-width:1.5;" width="91" x="642.5" y="132"/><text fill="#000000" font-family="sans-serif" font-size="14" font-weight="bold" lengthAdjust="spacing" textLength="30" x="647.5" y="148.5332">type</text><text fill="#000000" font-family="sans-serif" font-size="14" lengthAdjust="spacing" textLength="33" x="695.5" y="148.5332">array</text><line style="stroke:#000000;stroke-width:1.0;" x1="690.5" x2="690.5" y1="132" y2="153.6094"/><line style="stroke:#000000;stroke-width:1.0;" x1="642.5" x2="733.5" y1="153.6094" y2="153.6094"/><text fill="#000000" font-family="sans-serif" font-size="14" font-weight="bold" lengthAdjust="spacing" textLength="38" x="647.5" y="170.1426">items</text><text fill="#000000" font-family="sans-serif" font-size="14" lengthAdjust="spacing" textLength="12" x="695.5" y="170.1426">   </text><line style="stroke:#000000;stroke-width:1.0;" x1="690.5" x2="690.5" y1="153.6094" y2="175.2188"/><rect fill="none" height="43.2188" rx="5" ry="5" style="stroke:#000000;stroke-width:1.5;" width="91" x="642.5" y="132"/><rect fill="#F1F1F1" height="21.6094" rx="5" ry="5" style="stroke:#F1F1F1;stroke-width:1.5;" width="88" x="791" y="153.5"/><text fill="#000000" font-family="sans-serif" font-size="14" font-weight="bold" lengthAdjust="spacing" textLength="30" x="796" y="170.0332">type</text><text fill="#000000" font-family="sans-serif" font-size="14" lengthAdjust="spacing" textLength="38" x="836" y="170.0332">object</text><line style="stroke:#000000;stroke-width:1.0;" x1="831" x2="831" y1="153.5" y2="175.1094"/><rect fill="none" height="21.6094" rx="5" ry="5" style="stroke:#000000;stroke-width:1.5;" width="88" x="791" y="153.5"/><rect fill="#F1F1F1" height="43.2188" rx="5" ry="5" style="stroke:#F1F1F1;stroke-width:1.5;" width="91" x="642.5" y="193"/><text fill="#000000" font-family="sans-serif" font-size="14" font-weight="bold" lengthAdjust="spacing" textLength="30" x="647.5" y="209.5332">type</text><text fill="#000000" font-family="sans-serif" font-size="14" lengthAdjust="spacing" textLength="33" x="695.5" y="209.5332">array</text><line style="stroke:#000000;stroke-width:1.0;" x1="690.5" x2="690.5" y1="193" y2="214.6094"/><line style="stroke:#000000;stroke-width:1.0;" x1="642.5" x2="733.5" y1="214.6094" y2="214.6094"/><text fill="#000000" font-family="sans-serif" font-size="14" font-weight="bold" lengthAdjust="spacing" textLength="38" x="647.5" y="231.1426">items</text><text fill="#000000" font-family="sans-serif" font-size="14" lengthAdjust="spacing" textLength="12" x="695.5" y="231.1426">   </text><line style="stroke:#000000;stroke-width:1.0;" x1="690.5" x2="690.5" y1="214.6094" y2="236.2188"/><rect fill="none" height="43.2188" rx="5" ry="5" style="stroke:#000000;stroke-width:1.5;" width="91" x="642.5" y="193"/><rect fill="#F1F1F1" height="21.6094" rx="5" ry="5" style="stroke:#F1F1F1;stroke-width:1.5;" width="88" x="791" y="214.5"/><text fill="#000000" font-family="sans-serif" font-size="14" font-weight="bold" lengthAdjust="spacing" textLength="30" x="796" y="231.0332">type</text><text fill="#000000" font-family="sans-serif" font-size="14" lengthAdjust="spacing" textLength="38" x="836" y="231.0332">object</text><line style="stroke:#000000;stroke-width:1.0;" x1="831" x2="831" y1="214.5" y2="236.1094"/><rect fill="none" height="21.6094" rx="5" ry="5" style="stroke:#000000;stroke-width:1.5;" width="88" x="791" y="214.5"/><rect fill="#F1F1F1" height="43.2188" rx="5" ry="5" style="stroke:#F1F1F1;stroke-width:1.5;" width="91" x="642.5" y="254"/><text fill="#000000" font-family="sans-serif" font-size="14" font-weight="bold" lengthAdjust="spacing" textLength="30" x="647.5" y="270.5332">type</text><text fill="#000000" font-family="sans-serif" font-size="14" lengthAdjust="spacing" textLength="33" x="695.5" y="270.5332">array</text><line style="stroke:#000000;stroke-width:1.0;" x1="690.5" x2="690.5" y1="254" y2="275.6094"/><line style="stroke:#000000;stroke-width:1.0;" x1="642.5" x2="733.5" y1="275.6094" y2="275.6094"/><text fill="#000000" font-family="sans-serif" font-size="14" font-weight="bold" lengthAdjust="spacing" textLength="38" x="647.5" y="292.1426">items</text><text fill="#000000" font-family="sans-serif" font-size="14" lengthAdjust="spacing" textLength="12" x="695.5" y="292.1426">   </text><line style="stroke:#000000;stroke-width:1.0;" x1="690.5" x2="690.5" y1="275.6094" y2="297.2188"/><rect fill="none" height="43.2188" rx="5" ry="5" style="stroke:#000000;stroke-width:1.5;" width="91" x="642.5" y="254"/><rect fill="#F1F1F1" height="21.6094" rx="5" ry="5" style="stroke:#F1F1F1;stroke-width:1.5;" width="85" x="792.5" y="275.5"/><text fill="#000000" font-family="sans-serif" font-size="14" font-weight="bold" lengthAdjust="spacing" textLength="30" x="797.5" y="292.0332">type</text><text fill="#000000" font-family="sans-serif" font-size="14" lengthAdjust="spacing" textLength="35" x="837.5" y="292.0332">string</text><line style="stroke:#000000;stroke-width:1.0;" x1="832.5" x2="832.5" y1="275.5" y2="297.1094"/><rect fill="none" height="21.6094" rx="5" ry="5" style="stroke:#000000;stroke-width:1.5;" width="85" x="792.5" y="275.5"/><path d="M853.5,42.5 L866.5,42.5 C881.0349,42.5 896.8273,42.5 911.2662,42.5 " fill="none" style="stroke:#000000;stroke-width:1.0;stroke-dasharray:3.0,3.0;"/><path d="M911.2662,45.6463 L913.6259,42.5 L911.2662,39.3537 L919.1319,42.5 L911.2662,45.6463 " fill="#000000" style="stroke:#000000;stroke-width:1.0;"/><ellipse cx="853.5" cy="42.5" fill="#000000" rx="3" ry="3" style="stroke:#000000;stroke-width:1.0;"/><path d="M742,42.5 L755,42.5 C769.076,42.5 784.5538,42.5 798.0827,42.5 " fill="none" style="stroke:#000000;stroke-width:1.0;stroke-dasharray:3.0,3.0;"/><path d="M798.0827,45.586 L800.3972,42.5 L798.0827,39.414 L805.7977,42.5 L798.0827,45.586 " fill="#000000" style="stroke:#000000;stroke-width:1.0;"/><ellipse cx="742" cy="42.5" fill="#000000" rx="3" ry="3" style="stroke:#000000;stroke-width:1.0;"/><path d="M573,110.5 L586,110.5 C613.0235,110.5 601.044,78.5621 622,61.5 C623.7277,60.0933 625.532,58.7372 627.3941,57.4313 " fill="none" style="stroke:#000000;stroke-width:1.0;stroke-dasharray:3.0,3.0;"/><path d="M629.0926,60.0415 L629.3517,56.1574 L625.6955,54.8212 L633.9194,53.1849 L629.0926,60.0415 " fill="#000000" style="stroke:#000000;stroke-width:1.0;"/><ellipse cx="573" cy="110.5" fill="#000000" rx="3" ry="3" style="stroke:#000000;stroke-width:1.0;"/><path d="M995,104.5 L1008,104.5 C1017.2961,104.5 1027.2155,104.5 1036.7553,104.5 " fill="none" style="stroke:#000000;stroke-width:1.0;stroke-dasharray:3.0,3.0;"/><path d="M1036.7553,107.5201 L1039.0204,104.5 L1036.7553,101.4799 L1044.3056,104.5 L1036.7553,107.5201 " fill="#000000" style="stroke:#000000;stroke-width:1.0;"/><ellipse cx="995" cy="104.5" fill="#000000" rx="3" ry="3" style="stroke:#000000;stroke-width:1.0;"/><path d="M864.5,93.5 L877.5,93.5 C887.5502,93.5 898.2808,93.5 908.5862,93.5 " fill="none" style="stroke:#000000;stroke-width:1.0;stroke-dasharray:3.0,3.0;"/><path d="M908.5862,96.6118 L910.92,93.5 L908.5862,90.3882 L916.3656,93.5 L908.5862,96.6118 " fill="#000000" style="stroke:#000000;stroke-width:1.0;"/><ellipse cx="864.5" cy="93.5" fill="#000000" rx="3" ry="3" style="stroke:#000000;stroke-width:1.0;"/><path d="M995,165.5 L1008,165.5 C1017.2961,165.5 1027.2155,165.5 1036.7553,165.5 " fill="none" style="stroke:#000000;stroke-width:1.0;stroke-dasharray:3.0,3.0;"/><path d="M1036.7553,168.5201 L1039.0204,165.5 L1036.7553,162.4799 L1044.3056,165.5 L1036.7553,168.5201 " fill="#000000" style="stroke:#000000;stroke-width:1.0;"/><ellipse cx="995" cy="165.5" fill="#000000" rx="3" ry="3" style="stroke:#000000;stroke-width:1.0;"/><path d="M864.5,115.5 L877.5,115.5 C893.8623,115.5 910.4769,121.7236 924.5311,129.1985 " fill="none" style="stroke:#000000;stroke-width:1.0;stroke-dasharray:3.0,3.0;"/><path d="M923.0318,131.8711 L926.5355,130.323 L926.0304,126.526 L931.2125,132.9467 L923.0318,131.8711 " fill="#000000" style="stroke:#000000;stroke-width:1.0;"/><ellipse cx="864.5" cy="115.5" fill="#000000" rx="3" ry="3" style="stroke:#000000;stroke-width:1.0;"/><path d="M742,103.5 L755,103.5 C765.4408,103.5 776.6523,103.5873 787.2675,103.7103 " fill="none" style="stroke:#000000;stroke-width:1.0;stroke-dasharray:3.0,3.0;"/><path d="M787.2295,106.7522 L789.5489,103.7389 L787.3056,100.6685 L794.8722,103.8055 L787.2295,106.7522 " fill="#000000" style="stroke:#000000;stroke-width:1.0;"/><ellipse cx="742" cy="103.5" fill="#000000" rx="3" ry="3" style="stroke:#000000;stroke-width:1.0;"/><path d="M573,132.5 L586,132.5 C596.2479,132.5 615.9677,125.353 635.3208,117.1011 " fill="none" style="stroke:#000000;stroke-width:1.0;stroke-dasharray:3.0,3.0;"/><path d="M636.5524,119.9392 L637.4494,116.1774 L634.0892,114.263 L642.4161,114.0221 L636.5524,119.9392 " fill="#000000" style="stroke:#000000;stroke-width:1.0;"/><ellipse cx="573" cy="132.5" fill="#000000" rx="3" ry="3" style="stroke:#000000;stroke-width:1.0;"/><path d="M722.5,164.5 L735.5,164.5 C751.0144,164.5 767.8964,164.5 783.2527,164.5 " fill="none" style="stroke:#000000;stroke-width:1.0;stroke-dasharray:3.0,3.0;"/><path d="M783.2527,167.6504 L785.6155,164.5 L783.2527,161.3496 L791.1287,164.5 L783.2527,167.6504 " fill="#000000" style="stroke:#000000;stroke-width:1.0;"/><ellipse cx="722.5" cy="164.5" fill="#000000" rx="3" ry="3" style="stroke:#000000;stroke-width:1.0;"/><path d="M573,153.5 L586,153.5 C601.9764,153.5 619.3673,153.5 635.167,153.5 " fill="none" style="stroke:#000000;stroke-width:1.0;stroke-dasharray:3.0,3.0;"/><path d="M635.167,156.5461 L637.4515,153.5 L635.167,150.4539 L642.7822,153.5 L635.167,156.5461 " fill="#000000" style="stroke:#000000;stroke-width:1.0;"/><ellipse cx="573" cy="153.5" fill="#000000" rx="3" ry="3" style="stroke:#000000;stroke-width:1.0;"/><path d="M722.5,225.5 L735.5,225.5 C751.0144,225.5 767.8964,225.5 783.2527,225.5 " fill="none" style="stroke:#000000;stroke-width:1.0;stroke-dasharray:3.0,3.0;"/><path d="M783.2527,228.6504 L785.6155,225.5 L783.2527,222.3496 L791.1287,225.5 L783.2527,228.6504 " fill="#000000" style="stroke:#000000;stroke-width:1.0;"/><ellipse cx="722.5" cy="225.5" fill="#000000" rx="3" ry="3" style="stroke:#000000;stroke-width:1.0;"/><path d="M573,175.5 L586,175.5 C596.2979,175.5 616.2535,182.5835 635.7646,190.7128 " fill="none" style="stroke:#000000;stroke-width:1.0;stroke-dasharray:3.0,3.0;"/><path d="M634.5522,193.5726 L637.9095,191.6221 L636.9771,187.853 L642.9141,193.7439 L634.5522,193.5726 " fill="#000000" style="stroke:#000000;stroke-width:1.0;"/><ellipse cx="573" cy="175.5" fill="#000000" rx="3" ry="3" style="stroke:#000000;stroke-width:1.0;"/><path d="M722.5,286.5 L735.5,286.5 C751.5999,286.5 769.1725,286.5 784.9845,286.5 " fill="none" style="stroke:#000000;stroke-width:1.0;stroke-dasharray:3.0,3.0;"/><path d="M784.9845,289.5427 L787.2665,286.5 L784.9845,283.4573 L792.5912,286.5 L784.9845,289.5427 " fill="#000000" style="stroke:#000000;stroke-width:1.0;"/><ellipse cx="722.5" cy="286.5" fill="#000000" rx="3" ry="3" style="stroke:#000000;stroke-width:1.0;"/><path d="M573,197.5 L586,197.5 C612.6667,197.5 601.2379,228.7654 622,245.5 C626.2848,248.9536 631.0316,252.1062 635.955,254.9594 " fill="none" style="stroke:#000000;stroke-width:1.0;stroke-dasharray:3.0,3.0;"/><path d="M634.473,257.678 L637.994,256.0709 L637.4371,252.2408 L642.7515,258.6645 L634.473,257.678 " fill="#000000" style="stroke:#000000;stroke-width:1.0;"/><ellipse cx="573" cy="197.5" fill="#000000" rx="3" ry="3" style="stroke:#000000;stroke-width:1.0;"/><path d="M417,154.5 L430,154.5 C439.305,154.5 449.1228,154.5 458.7752,154.5 " fill="none" style="stroke:#000000;stroke-width:1.0;stroke-dasharray:3.0,3.0;"/><path d="M458.7752,157.5771 L461.0831,154.5 L458.7752,151.4229 L466.468,154.5 L458.7752,157.5771 " fill="#000000" style="stroke:#000000;stroke-width:1.0;"/><ellipse cx="417" cy="154.5" fill="#000000" rx="3" ry="3" style="stroke:#000000;stroke-width:1.0;"/><path d="M248,143.5 L261,143.5 C270.2465,143.5 279.9668,143.5 289.5782,143.5 " fill="none" style="stroke:#000000;stroke-width:1.0;stroke-dasharray:3.0,3.0;"/><path d="M289.5782,146.5695 L291.8803,143.5 L289.5782,140.4305 L297.2519,143.5 L289.5782,146.5695 " fill="#000000" style="stroke:#000000;stroke-width:1.0;"/><ellipse cx="248" cy="143.5" fill="#000000" rx="3" ry="3" style="stroke:#000000;stroke-width:1.0;"/><path d="M130,143.5 L143,143.5 C152.266,143.5 162.1675,143.5 171.6585,143.5 " fill="none" style="stroke:#000000;stroke-width:1.0;stroke-dasharray:3.0,3.0;"/><path d="M171.6585,146.5014 L173.9096,143.5 L171.6585,140.4986 L179.1621,143.5 L171.6585,146.5014 " fill="#000000" style="stroke:#000000;stroke-width:1.0;"/><ellipse cx="130" cy="143.5" fill="#000000" rx="3" ry="3" style="stroke:#000000;stroke-width:1.0;"/></g></svg>