<?xml version="1.0" encoding="UTF-8" standalone="no"?><svg xmlns="http://www.w3.org/2000/svg" xmlns:xlink="http://www.w3.org/1999/xlink" contentStyleType="text/css" height="256px" preserveAspectRatio="none" style="width:1225px;height:256px;background:#FFFFFF;" version="1.1" viewBox="0 0 1225 256" width="1225px" zoomAndPan="magnify"><defs/><g><rect fill="#F1F1F1" height="43.2188" rx="5" ry="5" style="stroke:#F1F1F1;stroke-width:1.5;" width="132" x="10" y="64.5"/><text fill="#000000" font-family="sans-serif" font-size="14" font-weight="bold" lengthAdjust="spacing" textLength="30" x="15" y="81.0332">type</text><text fill="#000000" font-family="sans-serif" font-size="14" lengthAdjust="spacing" textLength="38" x="99" y="81.0332">object</text><line style="stroke:#000000;stroke-width:1.0;" x1="94" x2="94" y1="64.5" y2="86.1094"/><line style="stroke:#000000;stroke-width:1.0;" x1="10" x2="142" y1="86.1094" y2="86.1094"/><text fill="#000000" font-family="sans-serif" font-size="14" font-weight="bold" lengthAdjust="spacing" textLength="74" x="15" y="102.6426">properties</text><text fill="#000000" font-family="sans-serif" font-size="14" lengthAdjust="spacing" textLength="12" x="99" y="102.6426">   </text><line style="stroke:#000000;stroke-width:1.0;" x1="94" x2="94" y1="86.1094" y2="107.7188"/><rect fill="none" height="43.2188" rx="5" ry="5" style="stroke:#000000;stroke-width:1.5;" width="132" x="10" y="64.5"/><rect fill="#F1F1F1" height="43.2188" rx="5" ry="5" style="stroke:#F1F1F1;stroke-width:1.5;" width="102" x="179" y="75.5"/><text fill="#000000" font-family="sans-serif" font-size="14" font-weight="bold" lengthAdjust="spacing" textLength="70" x="184" y="92.0332">ipDaemon</text><text fill="#000000" font-family="sans-serif" font-size="14" lengthAdjust="spacing" textLength="12" x="264" y="92.0332">   </text><line style="stroke:#000000;stroke-width:1.0;" x1="259" x2="259" y1="75.5" y2="97.1094"/><line style="stroke:#000000;stroke-width:1.0;" x1="179" x2="281" y1="97.1094" y2="97.1094"/><text fill="#000000" font-family="sans-serif" font-size="14" font-weight="bold" lengthAdjust="spacing" textLength="55" x="184" y="113.6426">records</text><text fill="#000000" font-family="sans-serif" font-size="14" lengthAdjust="spacing" textLength="12" x="264" y="113.6426">   </text><line style="stroke:#000000;stroke-width:1.0;" x1="259" x2="259" y1="97.1094" y2="118.7188"/><rect fill="none" height="43.2188" rx="5" ry="5" style="stroke:#000000;stroke-width:1.5;" width="102" x="179" y="75.5"/><rect fill="#F1F1F1" height="43.2188" rx="5" ry="5" style="stroke:#F1F1F1;stroke-width:1.5;" width="132" x="318" y="43.5"/><text fill="#000000" font-family="sans-serif" font-size="14" font-weight="bold" lengthAdjust="spacing" textLength="30" x="323" y="60.0332">type</text><text fill="#000000" font-family="sans-serif" font-size="14" lengthAdjust="spacing" textLength="38" x="407" y="60.0332">object</text><line style="stroke:#000000;stroke-width:1.0;" x1="402" x2="402" y1="43.5" y2="65.1094"/><line style="stroke:#000000;stroke-width:1.0;" x1="318" x2="450" y1="65.1094" y2="65.1094"/><text fill="#000000" font-family="sans-serif" font-size="14" font-weight="bold" lengthAdjust="spacing" textLength="74" x="323" y="81.6426">properties</text><text fill="#000000" font-family="sans-serif" font-size="14" lengthAdjust="spacing" textLength="12" x="407" y="81.6426">   </text><line style="stroke:#000000;stroke-width:1.0;" x1="402" x2="402" y1="65.1094" y2="86.7188"/><rect fill="none" height="43.2188" rx="5" ry="5" style="stroke:#000000;stroke-width:1.5;" width="132" x="318" y="43.5"/><rect fill="#F1F1F1" height="64.8281" rx="5" ry="5" style="stroke:#F1F1F1;stroke-width:1.5;" width="175" x="487" y="36.5"/><text fill="#000000" font-family="sans-serif" font-size="14" font-weight="bold" lengthAdjust="spacing" textLength="13" x="492" y="53.0332">ip</text><text fill="#000000" font-family="sans-serif" font-size="14" lengthAdjust="spacing" textLength="12" x="645" y="53.0332">   </text><line style="stroke:#000000;stroke-width:1.0;" x1="640" x2="640" y1="36.5" y2="58.1094"/><line style="stroke:#000000;stroke-width:1.0;" x1="487" x2="662" y1="58.1094" y2="58.1094"/><text fill="#000000" font-family="sans-serif" font-size="14" font-weight="bold" lengthAdjust="spacing" textLength="143" x="492" y="74.6426">minutesTimeInterval</text><text fill="#000000" font-family="sans-serif" font-size="14" lengthAdjust="spacing" textLength="12" x="645" y="74.6426">   </text><line style="stroke:#000000;stroke-width:1.0;" x1="640" x2="640" y1="58.1094" y2="79.7188"/><line style="stroke:#000000;stroke-width:1.0;" x1="487" x2="662" y1="79.7188" y2="79.7188"/><text fill="#000000" font-family="sans-serif" font-size="14" font-weight="bold" lengthAdjust="spacing" textLength="60" x="492" y="96.252">disabled</text><text fill="#000000" font-family="sans-serif" font-size="14" lengthAdjust="spacing" textLength="12" x="645" y="96.252">   </text><line style="stroke:#000000;stroke-width:1.0;" x1="640" x2="640" y1="79.7188" y2="101.3281"/><rect fill="none" height="64.8281" rx="5" ry="5" style="stroke:#000000;stroke-width:1.5;" width="175" x="487" y="36.5"/><rect fill="#F1F1F1" height="21.6094" rx="5" ry="5" style="stroke:#F1F1F1;stroke-width:1.5;" width="72" x="713.5" y="10"/><text fill="#000000" font-family="sans-serif" font-size="14" font-weight="bold" lengthAdjust="spacing" textLength="30" x="718.5" y="26.5332">type</text><text fill="#000000" font-family="sans-serif" font-size="14" lengthAdjust="spacing" textLength="22" x="758.5" y="26.5332">null</text><line style="stroke:#000000;stroke-width:1.0;" x1="753.5" x2="753.5" y1="10" y2="31.6094"/><rect fill="none" height="21.6094" rx="5" ry="5" style="stroke:#000000;stroke-width:1.5;" width="72" x="713.5" y="10"/><rect fill="#F1F1F1" height="21.6094" rx="5" ry="5" style="stroke:#F1F1F1;stroke-width:1.5;" width="94" x="702.5" y="50"/><text fill="#000000" font-family="sans-serif" font-size="14" font-weight="bold" lengthAdjust="spacing" textLength="30" x="707.5" y="66.5332">type</text><text fill="#000000" font-family="sans-serif" font-size="14" lengthAdjust="spacing" textLength="44" x="747.5" y="66.5332">integer</text><line style="stroke:#000000;stroke-width:1.0;" x1="742.5" x2="742.5" y1="50" y2="71.6094"/><rect fill="none" height="21.6094" rx="5" ry="5" style="stroke:#000000;stroke-width:1.5;" width="94" x="702.5" y="50"/><rect fill="#F1F1F1" height="21.6094" rx="5" ry="5" style="stroke:#F1F1F1;stroke-width:1.5;" width="101" x="699" y="90"/><text fill="#000000" font-family="sans-serif" font-size="14" font-weight="bold" lengthAdjust="spacing" textLength="30" x="704" y="106.5332">type</text><text fill="#000000" font-family="sans-serif" font-size="14" lengthAdjust="spacing" textLength="51" x="744" y="106.5332">boolean</text><line style="stroke:#000000;stroke-width:1.0;" x1="739" x2="739" y1="90" y2="111.6094"/><rect fill="none" height="21.6094" rx="5" ry="5" style="stroke:#000000;stroke-width:1.5;" width="101" x="699" y="90"/><rect fill="#F1F1F1" height="43.2188" rx="5" ry="5" style="stroke:#F1F1F1;stroke-width:1.5;" width="132" x="318" y="108.5"/><text fill="#000000" font-family="sans-serif" font-size="14" font-weight="bold" lengthAdjust="spacing" textLength="30" x="323" y="125.0332">type</text><text fill="#000000" font-family="sans-serif" font-size="14" lengthAdjust="spacing" textLength="38" x="407" y="125.0332">object</text><line style="stroke:#000000;stroke-width:1.0;" x1="402" x2="402" y1="108.5" y2="130.1094"/><line style="stroke:#000000;stroke-width:1.0;" x1="318" x2="450" y1="130.1094" y2="130.1094"/><text fill="#000000" font-family="sans-serif" font-size="14" font-weight="bold" lengthAdjust="spacing" textLength="74" x="323" y="146.6426">properties</text><text fill="#000000" font-family="sans-serif" font-size="14" lengthAdjust="spacing" textLength="12" x="407" y="146.6426">   </text><line style="stroke:#000000;stroke-width:1.0;" x1="402" x2="402" y1="130.1094" y2="151.7188"/><rect fill="none" height="43.2188" rx="5" ry="5" style="stroke:#000000;stroke-width:1.5;" width="132" x="318" y="108.5"/><rect fill="#F1F1F1" height="21.6094" rx="5" ry="5" style="stroke:#F1F1F1;stroke-width:1.5;" width="41" x="554" y="134"/><text fill="#000000" font-family="sans-serif" font-size="14" font-weight="bold" lengthAdjust="spacing" textLength="9" x="559" y="150.5332">A</text><text fill="#000000" font-family="sans-serif" font-size="14" lengthAdjust="spacing" textLength="12" x="578" y="150.5332">   </text><line style="stroke:#000000;stroke-width:1.0;" x1="573" x2="573" y1="134" y2="155.6094"/><rect fill="none" height="21.6094" rx="5" ry="5" style="stroke:#000000;stroke-width:1.5;" width="41" x="554" y="134"/><rect fill="#F1F1F1" height="43.2188" rx="5" ry="5" style="stroke:#F1F1F1;stroke-width:1.5;" width="91" x="704" y="130.5"/><text fill="#000000" font-family="sans-serif" font-size="14" font-weight="bold" lengthAdjust="spacing" textLength="30" x="709" y="147.0332">type</text><text fill="#000000" font-family="sans-serif" font-size="14" lengthAdjust="spacing" textLength="33" x="757" y="147.0332">array</text><line style="stroke:#000000;stroke-width:1.0;" x1="752" x2="752" y1="130.5" y2="152.1094"/><line style="stroke:#000000;stroke-width:1.0;" x1="704" x2="795" y1="152.1094" y2="152.1094"/><text fill="#000000" font-family="sans-serif" font-size="14" font-weight="bold" lengthAdjust="spacing" textLength="38" x="709" y="168.6426">items</text><text fill="#000000" font-family="sans-serif" font-size="14" lengthAdjust="spacing" textLength="12" x="757" y="168.6426">   </text><line style="stroke:#000000;stroke-width:1.0;" x1="752" x2="752" y1="152.1094" y2="173.7188"/><rect fill="none" height="43.2188" rx="5" ry="5" style="stroke:#000000;stroke-width:1.5;" width="91" x="704" y="130.5"/><rect fill="#F1F1F1" height="43.2188" rx="5" ry="5" style="stroke:#F1F1F1;stroke-width:1.5;" width="132" x="837" y="141.5"/><text fill="#000000" font-family="sans-serif" font-size="14" font-weight="bold" lengthAdjust="spacing" textLength="30" x="842" y="158.0332">type</text><text fill="#000000" font-family="sans-serif" font-size="14" lengthAdjust="spacing" textLength="38" x="926" y="158.0332">object</text><line style="stroke:#000000;stroke-width:1.0;" x1="921" x2="921" y1="141.5" y2="163.1094"/><line style="stroke:#000000;stroke-width:1.0;" x1="837" x2="969" y1="163.1094" y2="163.1094"/><text fill="#000000" font-family="sans-serif" font-size="14" font-weight="bold" lengthAdjust="spacing" textLength="74" x="842" y="179.6426">properties</text><text fill="#000000" font-family="sans-serif" font-size="14" lengthAdjust="spacing" textLength="12" x="926" y="179.6426">   </text><line style="stroke:#000000;stroke-width:1.0;" x1="921" x2="921" y1="163.1094" y2="184.7188"/><rect fill="none" height="43.2188" rx="5" ry="5" style="stroke:#000000;stroke-width:1.5;" width="132" x="837" y="141.5"/><rect fill="#F1F1F1" height="86.4375" rx="5" ry="5" style="stroke:#F1F1F1;stroke-width:1.5;" width="85" x="1006" y="131"/><text fill="#000000" font-family="sans-serif" font-size="14" font-weight="bold" lengthAdjust="spacing" textLength="31" x="1011" y="147.5332">host</text><text fill="#000000" font-family="sans-serif" font-size="14" lengthAdjust="spacing" textLength="12" x="1074" y="147.5332">   </text><line style="stroke:#000000;stroke-width:1.0;" x1="1069" x2="1069" y1="131" y2="152.6094"/><line style="stroke:#000000;stroke-width:1.0;" x1="1006" x2="1091" y1="152.6094" y2="152.6094"/><text fill="#000000" font-family="sans-serif" font-size="14" font-weight="bold" lengthAdjust="spacing" textLength="26" x="1011" y="169.1426">dns</text><text fill="#000000" font-family="sans-serif" font-size="14" lengthAdjust="spacing" textLength="12" x="1074" y="169.1426">   </text><line style="stroke:#000000;stroke-width:1.0;" x1="1069" x2="1069" y1="152.6094" y2="174.2188"/><line style="stroke:#000000;stroke-width:1.0;" x1="1006" x2="1091" y1="174.2188" y2="174.2188"/><text fill="#000000" font-family="sans-serif" font-size="14" font-weight="bold" lengthAdjust="spacing" textLength="53" x="1011" y="190.752">api_key</text><text fill="#000000" font-family="sans-serif" font-size="14" lengthAdjust="spacing" textLength="12" x="1074" y="190.752">   </text><line style="stroke:#000000;stroke-width:1.0;" x1="1069" x2="1069" y1="174.2188" y2="195.8281"/><line style="stroke:#000000;stroke-width:1.0;" x1="1006" x2="1091" y1="195.8281" y2="195.8281"/><text fill="#000000" font-family="sans-serif" font-size="14" font-weight="bold" lengthAdjust="spacing" textLength="32" x="1011" y="212.3613">user</text><text fill="#000000" font-family="sans-serif" font-size="14" lengthAdjust="spacing" textLength="12" x="1074" y="212.3613">   </text><line style="stroke:#000000;stroke-width:1.0;" x1="1069" x2="1069" y1="195.8281" y2="217.4375"/><rect fill="none" height="86.4375" rx="5" ry="5" style="stroke:#000000;stroke-width:1.5;" width="85" x="1006" y="131"/><rect fill="#F1F1F1" height="21.6094" rx="5" ry="5" style="stroke:#F1F1F1;stroke-width:1.5;" width="85" x="1128" y="103"/><text fill="#000000" font-family="sans-serif" font-size="14" font-weight="bold" lengthAdjust="spacing" textLength="30" x="1133" y="119.5332">type</text><text fill="#000000" font-family="sans-serif" font-size="14" lengthAdjust="spacing" textLength="35" x="1173" y="119.5332">string</text><line style="stroke:#000000;stroke-width:1.0;" x1="1168" x2="1168" y1="103" y2="124.6094"/><rect fill="none" height="21.6094" rx="5" ry="5" style="stroke:#000000;stroke-width:1.5;" width="85" x="1128" y="103"/><rect fill="#F1F1F1" height="21.6094" rx="5" ry="5" style="stroke:#F1F1F1;stroke-width:1.5;" width="85" x="1128" y="143"/><text fill="#000000" font-family="sans-serif" font-size="14" font-weight="bold" lengthAdjust="spacing" textLength="30" x="1133" y="159.5332">type</text><text fill="#000000" font-family="sans-serif" font-size="14" lengthAdjust="spacing" textLength="35" x="1173" y="159.5332">string</text><line style="stroke:#000000;stroke-width:1.0;" x1="1168" x2="1168" y1="143" y2="164.6094"/><rect fill="none" height="21.6094" rx="5" ry="5" style="stroke:#000000;stroke-width:1.5;" width="85" x="1128" y="143"/><rect fill="#F1F1F1" height="21.6094" rx="5" ry="5" style="stroke:#F1F1F1;stroke-width:1.5;" width="85" x="1128" y="183"/><text fill="#000000" font-family="sans-serif" font-size="14" font-weight="bold" lengthAdjust="spacing" textLength="30" x="1133" y="199.5332">type</text><text fill="#000000" font-family="sans-serif" font-size="14" lengthAdjust="spacing" textLength="35" x="1173" y="199.5332">string</text><line style="stroke:#000000;stroke-width:1.0;" x1="1168" x2="1168" y1="183" y2="204.6094"/><rect fill="none" height="21.6094" rx="5" ry="5" style="stroke:#000000;stroke-width:1.5;" width="85" x="1128" y="183"/><rect fill="#F1F1F1" height="21.6094" rx="5" ry="5" style="stroke:#F1F1F1;stroke-width:1.5;" width="85" x="1128" y="223"/><text fill="#000000" font-family="sans-serif" font-size="14" font-weight="bold" lengthAdjust="spacing" textLength="30" x="1133" y="239.5332">type</text><text fill="#000000" font-family="sans-serif" font-size="14" lengthAdjust="spacing" textLength="35" x="1173" y="239.5332">string</text><line style="stroke:#000000;stroke-width:1.0;" x1="1168" x2="1168" y1="223" y2="244.6094"/><rect fill="none" height="21.6094" rx="5" ry="5" style="stroke:#000000;stroke-width:1.5;" width="85" x="1128" y="223"/><path d="M650,47 L663,47 C672.7079,47 693.3078,40.8529 711.9123,34.5366 " fill="none" style="stroke:#000000;stroke-width:1.0;stroke-dasharray:3.0,3.0;"/><path d="M712.9164,37.4459 L714.0942,33.7835 L710.9081,31.6273 L719.1855,32.0263 L712.9164,37.4459 " fill="#000000" style="stroke:#000000;stroke-width:1.0;"/><ellipse cx="650" cy="47" fill="#000000" rx="3" ry="3" style="stroke:#000000;stroke-width:1.0;"/><path d="M650,68 L663,68 C673.3666,68 684.413,67.4885 695.0141,66.742 " fill="none" style="stroke:#000000;stroke-width:1.0;stroke-dasharray:3.0,3.0;"/><path d="M695.2465,69.7918 L697.3014,66.5676 L694.7816,63.6922 L702.6385,66.1608 L695.2465,69.7918 " fill="#000000" style="stroke:#000000;stroke-width:1.0;"/><ellipse cx="650" cy="68" fill="#000000" rx="3" ry="3" style="stroke:#000000;stroke-width:1.0;"/><path d="M650,91 L663,91 C672.2512,91 682.025,91.578 691.5353,92.4561 " fill="none" style="stroke:#000000;stroke-width:1.0;stroke-dasharray:3.0,3.0;"/><path d="M691.23,95.4783 L693.8019,92.6851 L691.8406,89.4339 L699.0909,93.2193 L691.23,95.4783 " fill="#000000" style="stroke:#000000;stroke-width:1.0;"/><ellipse cx="650" cy="91" fill="#000000" rx="3" ry="3" style="stroke:#000000;stroke-width:1.0;"/><path d="M438,76 L451,76 C460.2824,76 469.9524,75.7988 479.6119,75.4647 " fill="none" style="stroke:#000000;stroke-width:1.0;stroke-dasharray:3.0,3.0;"/><path d="M479.73,78.5594 L481.933,75.3761 L479.4939,72.3699 L487.3488,75.1695 L479.73,78.5594 " fill="#000000" style="stroke:#000000;stroke-width:1.0;"/><ellipse cx="438" cy="76" fill="#000000" rx="3" ry="3" style="stroke:#000000;stroke-width:1.0;"/><path d="M269,86 L282,86 C291.3713,86 301.1303,85.1309 310.7313,83.7464 " fill="none" style="stroke:#000000;stroke-width:1.0;stroke-dasharray:3.0,3.0;"/><path d="M311.217,86.8086 L313.028,83.3822 L310.2457,80.6842 L318.3869,82.5323 L311.217,86.8086 " fill="#000000" style="stroke:#000000;stroke-width:1.0;"/><ellipse cx="269" cy="86" fill="#000000" rx="3" ry="3" style="stroke:#000000;stroke-width:1.0;"/><path d="M1079,141 L1092,141 C1100.9652,141 1119.8004,134.5498 1136.7156,127.9548 " fill="none" style="stroke:#000000;stroke-width:1.0;stroke-dasharray:3.0,3.0;"/><path d="M1137.8424,130.7937 L1138.8448,127.1097 L1135.5888,125.1158 L1143.813,125.1378 L1137.8424,130.7937 " fill="#000000" style="stroke:#000000;stroke-width:1.0;"/><ellipse cx="1079" cy="141" fill="#000000" rx="3" ry="3" style="stroke:#000000;stroke-width:1.0;"/><path d="M1079,163 L1092,163 C1101.3578,163 1111.3058,162.3528 1120.8544,161.4056 " fill="none" style="stroke:#000000;stroke-width:1.0;stroke-dasharray:3.0,3.0;"/><path d="M1121.1814,164.4269 L1123.1205,161.1603 L1120.5275,158.3842 L1128.4078,160.5882 L1121.1814,164.4269 " fill="#000000" style="stroke:#000000;stroke-width:1.0;"/><ellipse cx="1079" cy="163" fill="#000000" rx="3" ry="3" style="stroke:#000000;stroke-width:1.0;"/><path d="M1079,185 L1092,185 C1101.3578,185 1111.3058,185.6472 1120.8544,186.5944 " fill="none" style="stroke:#000000;stroke-width:1.0;stroke-dasharray:3.0,3.0;"/><path d="M1120.5275,189.6158 L1123.1205,186.8397 L1121.1814,183.5731 L1128.4078,187.4118 L1120.5275,189.6158 " fill="#000000" style="stroke:#000000;stroke-width:1.0;"/><ellipse cx="1079" cy="185" fill="#000000" rx="3" ry="3" style="stroke:#000000;stroke-width:1.0;"/><path d="M1079,206 L1092,206 C1101.1902,206 1120.632,212.9727 1137.8053,219.959 " fill="none" style="stroke:#000000;stroke-width:1.0;stroke-dasharray:3.0,3.0;"/><path d="M1136.6155,222.8328 L1139.9607,220.8514 L1138.9952,217.0851 L1144.9899,222.9337 L1136.6155,222.8328 " fill="#000000" style="stroke:#000000;stroke-width:1.0;"/><ellipse cx="1079" cy="206" fill="#000000" rx="3" ry="3" style="stroke:#000000;stroke-width:1.0;"/><path d="M957,174 L970,174 C979.2961,174 989.2155,174 998.7553,174 " fill="none" style="stroke:#000000;stroke-width:1.0;stroke-dasharray:3.0,3.0;"/><path d="M998.7553,177.0201 L1001.0204,174 L998.7553,170.9799 L1006.3056,174 L998.7553,177.0201 " fill="#000000" style="stroke:#000000;stroke-width:1.0;"/><ellipse cx="957" cy="174" fill="#000000" rx="3" ry="3" style="stroke:#000000;stroke-width:1.0;"/><path d="M784,163 L797,163 C807.6404,163 818.8845,163 829.9104,163 " fill="none" style="stroke:#000000;stroke-width:1.0;stroke-dasharray:3.0,3.0;"/><path d="M829.9104,166.0353 L832.1868,163 L829.9104,159.9647 L837.4986,163 L829.9104,166.0353 " fill="#000000" style="stroke:#000000;stroke-width:1.0;"/><ellipse cx="784" cy="163" fill="#000000" rx="3" ry="3" style="stroke:#000000;stroke-width:1.0;"/><path d="M584,145 L597,145 C630.2223,145 667.4859,146.6893 696.8025,148.4082 " fill="none" style="stroke:#000000;stroke-width:1.0;stroke-dasharray:3.0,3.0;"/><path d="M696.6184,151.4724 L699.1006,148.5463 L696.9866,145.344 L704.4629,148.8685 L696.6184,151.4724 " fill="#000000" style="stroke:#000000;stroke-width:1.0;"/><ellipse cx="584" cy="145" fill="#000000" rx="3" ry="3" style="stroke:#000000;stroke-width:1.0;"/><path d="M438,141 L451,141 C483.9671,141 521.8781,142.4532 546.7966,143.6077 " fill="none" style="stroke:#000000;stroke-width:1.0;stroke-dasharray:3.0,3.0;"/><path d="M546.6518,146.6522 L549.08,143.7164 L546.9415,140.5633 L554.4078,143.9699 L546.6518,146.6522 " fill="#000000" style="stroke:#000000;stroke-width:1.0;"/><ellipse cx="438" cy="141" fill="#000000" rx="3" ry="3" style="stroke:#000000;stroke-width:1.0;"/><path d="M269,108 L282,108 C291.3901,108 301.1601,108.9104 310.767,110.3609 " fill="none" style="stroke:#000000;stroke-width:1.0;stroke-dasharray:3.0,3.0;"/><path d="M310.2582,113.4246 L313.0648,110.7425 L311.2758,107.2972 L318.4262,111.6329 L310.2582,113.4246 " fill="#000000" style="stroke:#000000;stroke-width:1.0;"/><ellipse cx="269" cy="108" fill="#000000" rx="3" ry="3" style="stroke:#000000;stroke-width:1.0;"/><path d="M130,97 L143,97 C152.2427,97 162.041,97 171.5934,97 " fill="none" style="stroke:#000000;stroke-width:1.0;stroke-dasharray:3.0,3.0;"/><path d="M171.5934,100.0371 L173.8712,97 L171.5934,93.9629 L179.1862,97 L171.5934,100.0371 " fill="#000000" style="stroke:#000000;stroke-width:1.0;"/><ellipse cx="130" cy="97" fill="#000000" rx="3" ry="3" style="stroke:#000000;stroke-width:1.0;"/></g></svg>