<?xml version="1.0" encoding="UTF-8" standalone="no"?><svg xmlns="http://www.w3.org/2000/svg" xmlns:xlink="http://www.w3.org/1999/xlink" contentStyleType="text/css" height="730px" preserveAspectRatio="none" style="width:1330px;height:730px;background:#FFFFFF;" version="1.1" viewBox="0 0 1330 730" width="1330px" zoomAndPan="magnify"><defs/><g><rect fill="#F1F1F1" height="43.2188" rx="5" ry="5" style="stroke:#F1F1F1;stroke-width:1.5;" width="132" x="10" y="382.5"/><text fill="#000000" font-family="sans-serif" font-size="14" font-weight="bold" lengthAdjust="spacing" textLength="30" x="15" y="399.0332">type</text><text fill="#000000" font-family="sans-serif" font-size="14" lengthAdjust="spacing" textLength="38" x="99" y="399.0332">object</text><line style="stroke:#000000;stroke-width:1.0;" x1="94" x2="94" y1="382.5" y2="404.1094"/><line style="stroke:#000000;stroke-width:1.0;" x1="10" x2="142" y1="404.1094" y2="404.1094"/><text fill="#000000" font-family="sans-serif" font-size="14" font-weight="bold" lengthAdjust="spacing" textLength="74" x="15" y="420.6426">properties</text><text fill="#000000" font-family="sans-serif" font-size="14" lengthAdjust="spacing" textLength="12" x="99" y="420.6426">   </text><line style="stroke:#000000;stroke-width:1.0;" x1="94" x2="94" y1="404.1094" y2="425.7188"/><rect fill="none" height="43.2188" rx="5" ry="5" style="stroke:#000000;stroke-width:1.5;" width="132" x="10" y="382.5"/><rect fill="#F1F1F1" height="43.2188" rx="5" ry="5" style="stroke:#F1F1F1;stroke-width:1.5;" width="145" x="179" y="393.5"/><text fill="#000000" font-family="sans-serif" font-size="14" font-weight="bold" lengthAdjust="spacing" textLength="76" x="184" y="410.0332">default.net</text><text fill="#000000" font-family="sans-serif" font-size="14" lengthAdjust="spacing" textLength="12" x="307" y="410.0332">   </text><line style="stroke:#000000;stroke-width:1.0;" x1="302" x2="302" y1="393.5" y2="415.1094"/><line style="stroke:#000000;stroke-width:1.0;" x1="179" x2="324" y1="415.1094" y2="415.1094"/><text fill="#000000" font-family="sans-serif" font-size="14" font-weight="bold" lengthAdjust="spacing" textLength="113" x="184" y="431.6426">www.default.net</text><text fill="#000000" font-family="sans-serif" font-size="14" lengthAdjust="spacing" textLength="12" x="307" y="431.6426">   </text><line style="stroke:#000000;stroke-width:1.0;" x1="302" x2="302" y1="415.1094" y2="436.7188"/><rect fill="none" height="43.2188" rx="5" ry="5" style="stroke:#000000;stroke-width:1.5;" width="145" x="179" y="393.5"/><rect fill="#F1F1F1" height="43.2188" rx="5" ry="5" style="stroke:#F1F1F1;stroke-width:1.5;" width="132" x="361" y="360.5"/><text fill="#000000" font-family="sans-serif" font-size="14" font-weight="bold" lengthAdjust="spacing" textLength="30" x="366" y="377.0332">type</text><text fill="#000000" font-family="sans-serif" font-size="14" lengthAdjust="spacing" textLength="38" x="450" y="377.0332">object</text><line style="stroke:#000000;stroke-width:1.0;" x1="445" x2="445" y1="360.5" y2="382.1094"/><line style="stroke:#000000;stroke-width:1.0;" x1="361" x2="493" y1="382.1094" y2="382.1094"/><text fill="#000000" font-family="sans-serif" font-size="14" font-weight="bold" lengthAdjust="spacing" textLength="74" x="366" y="398.6426">properties</text><text fill="#000000" font-family="sans-serif" font-size="14" lengthAdjust="spacing" textLength="12" x="450" y="398.6426">   </text><line style="stroke:#000000;stroke-width:1.0;" x1="445" x2="445" y1="382.1094" y2="403.7188"/><rect fill="none" height="43.2188" rx="5" ry="5" style="stroke:#000000;stroke-width:1.5;" width="132" x="361" y="360.5"/><rect fill="#F1F1F1" height="21.6094" rx="5" ry="5" style="stroke:#F1F1F1;stroke-width:1.5;" width="36" x="530" y="373"/><text fill="#000000" font-family="sans-serif" font-size="14" font-weight="bold" lengthAdjust="spacing" textLength="4" x="535" y="389.5332">/</text><text fill="#000000" font-family="sans-serif" font-size="14" lengthAdjust="spacing" textLength="12" x="549" y="389.5332">   </text><line style="stroke:#000000;stroke-width:1.0;" x1="544" x2="544" y1="373" y2="394.6094"/><rect fill="none" height="21.6094" rx="5" ry="5" style="stroke:#000000;stroke-width:1.5;" width="36" x="530" y="373"/><rect fill="#F1F1F1" height="43.2188" rx="5" ry="5" style="stroke:#F1F1F1;stroke-width:1.5;" width="132" x="603" y="326.5"/><text fill="#000000" font-family="sans-serif" font-size="14" font-weight="bold" lengthAdjust="spacing" textLength="30" x="608" y="343.0332">type</text><text fill="#000000" font-family="sans-serif" font-size="14" lengthAdjust="spacing" textLength="38" x="692" y="343.0332">object</text><line style="stroke:#000000;stroke-width:1.0;" x1="687" x2="687" y1="326.5" y2="348.1094"/><line style="stroke:#000000;stroke-width:1.0;" x1="603" x2="735" y1="348.1094" y2="348.1094"/><text fill="#000000" font-family="sans-serif" font-size="14" font-weight="bold" lengthAdjust="spacing" textLength="74" x="608" y="364.6426">properties</text><text fill="#000000" font-family="sans-serif" font-size="14" lengthAdjust="spacing" textLength="12" x="692" y="364.6426">   </text><line style="stroke:#000000;stroke-width:1.0;" x1="687" x2="687" y1="348.1094" y2="369.7188"/><rect fill="none" height="43.2188" rx="5" ry="5" style="stroke:#000000;stroke-width:1.5;" width="132" x="603" y="326.5"/><rect fill="#F1F1F1" height="194.4844" rx="5" ry="5" style="stroke:#F1F1F1;stroke-width:1.5;" width="109" x="772" y="116"/><text fill="#000000" font-family="sans-serif" font-size="14" font-weight="bold" lengthAdjust="spacing" textLength="39" x="777" y="132.5332">client</text><text fill="#000000" font-family="sans-serif" font-size="14" lengthAdjust="spacing" textLength="12" x="864" y="132.5332">   </text><line style="stroke:#000000;stroke-width:1.0;" x1="859" x2="859" y1="116" y2="137.6094"/><line style="stroke:#000000;stroke-width:1.0;" x1="772" x2="881" y1="137.6094" y2="137.6094"/><text fill="#000000" font-family="sans-serif" font-size="14" font-weight="bold" lengthAdjust="spacing" textLength="54" x="777" y="154.1426">runtime</text><text fill="#000000" font-family="sans-serif" font-size="14" lengthAdjust="spacing" textLength="12" x="864" y="154.1426">   </text><line style="stroke:#000000;stroke-width:1.0;" x1="859" x2="859" y1="137.6094" y2="159.2188"/><line style="stroke:#000000;stroke-width:1.0;" x1="772" x2="881" y1="159.2188" y2="159.2188"/><text fill="#000000" font-family="sans-serif" font-size="14" font-weight="bold" lengthAdjust="spacing" textLength="29" x="777" y="175.752">apis</text><text fill="#000000" font-family="sans-serif" font-size="14" lengthAdjust="spacing" textLength="12" x="864" y="175.752">   </text><line style="stroke:#000000;stroke-width:1.0;" x1="859" x2="859" y1="159.2188" y2="180.8281"/><line style="stroke:#000000;stroke-width:1.0;" x1="772" x2="881" y1="180.8281" y2="180.8281"/><text fill="#000000" font-family="sans-serif" font-size="14" font-weight="bold" lengthAdjust="spacing" textLength="49" x="777" y="197.3613">origins</text><text fill="#000000" font-family="sans-serif" font-size="14" lengthAdjust="spacing" textLength="12" x="864" y="197.3613">   </text><line style="stroke:#000000;stroke-width:1.0;" x1="859" x2="859" y1="180.8281" y2="202.4375"/><line style="stroke:#000000;stroke-width:1.0;" x1="772" x2="881" y1="202.4375" y2="202.4375"/><text fill="#000000" font-family="sans-serif" font-size="14" font-weight="bold" lengthAdjust="spacing" textLength="77" x="777" y="218.9707">minifyBuild</text><text fill="#000000" font-family="sans-serif" font-size="14" lengthAdjust="spacing" textLength="12" x="864" y="218.9707">   </text><line style="stroke:#000000;stroke-width:1.0;" x1="859" x2="859" y1="202.4375" y2="224.0469"/><line style="stroke:#000000;stroke-width:1.0;" x1="772" x2="881" y1="224.0469" y2="224.0469"/><text fill="#000000" font-family="sans-serif" font-size="14" font-weight="bold" lengthAdjust="spacing" textLength="74" x="777" y="240.5801">iconsBuild</text><text fill="#000000" font-family="sans-serif" font-size="14" lengthAdjust="spacing" textLength="12" x="864" y="240.5801">   </text><line style="stroke:#000000;stroke-width:1.0;" x1="859" x2="859" y1="224.0469" y2="245.6563"/><line style="stroke:#000000;stroke-width:1.0;" x1="772" x2="881" y1="245.6563" y2="245.6563"/><text fill="#000000" font-family="sans-serif" font-size="14" font-weight="bold" lengthAdjust="spacing" textLength="67" x="777" y="262.1895">lightBuild</text><text fill="#000000" font-family="sans-serif" font-size="14" lengthAdjust="spacing" textLength="12" x="864" y="262.1895">   </text><line style="stroke:#000000;stroke-width:1.0;" x1="859" x2="859" y1="245.6563" y2="267.2656"/><line style="stroke:#000000;stroke-width:1.0;" x1="772" x2="881" y1="267.2656" y2="267.2656"/><text fill="#000000" font-family="sans-serif" font-size="14" font-weight="bold" lengthAdjust="spacing" textLength="39" x="777" y="283.7988">proxy</text><text fill="#000000" font-family="sans-serif" font-size="14" lengthAdjust="spacing" textLength="12" x="864" y="283.7988">   </text><line style="stroke:#000000;stroke-width:1.0;" x1="859" x2="859" y1="267.2656" y2="288.875"/><line style="stroke:#000000;stroke-width:1.0;" x1="772" x2="881" y1="288.875" y2="288.875"/><text fill="#000000" font-family="sans-serif" font-size="14" font-weight="bold" lengthAdjust="spacing" textLength="18" x="777" y="305.4082">db</text><text fill="#000000" font-family="sans-serif" font-size="14" lengthAdjust="spacing" textLength="12" x="864" y="305.4082">   </text><line style="stroke:#000000;stroke-width:1.0;" x1="859" x2="859" y1="288.875" y2="310.4844"/><rect fill="none" height="194.4844" rx="5" ry="5" style="stroke:#000000;stroke-width:1.5;" width="109" x="772" y="116"/><rect fill="#F1F1F1" height="21.6094" rx="5" ry="5" style="stroke:#F1F1F1;stroke-width:1.5;" width="85" x="941.5" y="10"/><text fill="#000000" font-family="sans-serif" font-size="14" font-weight="bold" lengthAdjust="spacing" textLength="30" x="946.5" y="26.5332">type</text><text fill="#000000" font-family="sans-serif" font-size="14" lengthAdjust="spacing" textLength="35" x="986.5" y="26.5332">string</text><line style="stroke:#000000;stroke-width:1.0;" x1="981.5" x2="981.5" y1="10" y2="31.6094"/><rect fill="none" height="21.6094" rx="5" ry="5" style="stroke:#000000;stroke-width:1.5;" width="85" x="941.5" y="10"/><rect fill="#F1F1F1" height="21.6094" rx="5" ry="5" style="stroke:#F1F1F1;stroke-width:1.5;" width="85" x="941.5" y="50"/><text fill="#000000" font-family="sans-serif" font-size="14" font-weight="bold" lengthAdjust="spacing" textLength="30" x="946.5" y="66.5332">type</text><text fill="#000000" font-family="sans-serif" font-size="14" lengthAdjust="spacing" textLength="35" x="986.5" y="66.5332">string</text><line style="stroke:#000000;stroke-width:1.0;" x1="981.5" x2="981.5" y1="50" y2="71.6094"/><rect fill="none" height="21.6094" rx="5" ry="5" style="stroke:#000000;stroke-width:1.5;" width="85" x="941.5" y="50"/><rect fill="#F1F1F1" height="43.2188" rx="5" ry="5" style="stroke:#F1F1F1;stroke-width:1.5;" width="91" x="938.5" y="90.5"/><text fill="#000000" font-family="sans-serif" font-size="14" font-weight="bold" lengthAdjust="spacing" textLength="30" x="943.5" y="107.0332">type</text><text fill="#000000" font-family="sans-serif" font-size="14" lengthAdjust="spacing" textLength="33" x="991.5" y="107.0332">array</text><line style="stroke:#000000;stroke-width:1.0;" x1="986.5" x2="986.5" y1="90.5" y2="112.1094"/><line style="stroke:#000000;stroke-width:1.0;" x1="938.5" x2="1029.5" y1="112.1094" y2="112.1094"/><text fill="#000000" font-family="sans-serif" font-size="14" font-weight="bold" lengthAdjust="spacing" textLength="38" x="943.5" y="128.6426">items</text><text fill="#000000" font-family="sans-serif" font-size="14" lengthAdjust="spacing" textLength="12" x="991.5" y="128.6426">   </text><line style="stroke:#000000;stroke-width:1.0;" x1="986.5" x2="986.5" y1="112.1094" y2="133.7188"/><rect fill="none" height="43.2188" rx="5" ry="5" style="stroke:#000000;stroke-width:1.5;" width="91" x="938.5" y="90.5"/><rect fill="#F1F1F1" height="21.6094" rx="5" ry="5" style="stroke:#F1F1F1;stroke-width:1.5;" width="85" x="1091.5" y="112"/><text fill="#000000" font-family="sans-serif" font-size="14" font-weight="bold" lengthAdjust="spacing" textLength="30" x="1096.5" y="128.5332">type</text><text fill="#000000" font-family="sans-serif" font-size="14" lengthAdjust="spacing" textLength="35" x="1136.5" y="128.5332">string</text><line style="stroke:#000000;stroke-width:1.0;" x1="1131.5" x2="1131.5" y1="112" y2="133.6094"/><rect fill="none" height="21.6094" rx="5" ry="5" style="stroke:#000000;stroke-width:1.5;" width="85" x="1091.5" y="112"/><rect fill="#F1F1F1" height="21.6094" rx="5" ry="5" style="stroke:#F1F1F1;stroke-width:1.5;" width="83" x="942.5" y="152"/><text fill="#000000" font-family="sans-serif" font-size="14" font-weight="bold" lengthAdjust="spacing" textLength="30" x="947.5" y="168.5332">type</text><text fill="#000000" font-family="sans-serif" font-size="14" lengthAdjust="spacing" textLength="33" x="987.5" y="168.5332">array</text><line style="stroke:#000000;stroke-width:1.0;" x1="982.5" x2="982.5" y1="152" y2="173.6094"/><rect fill="none" height="21.6094" rx="5" ry="5" style="stroke:#000000;stroke-width:1.5;" width="83" x="942.5" y="152"/><rect fill="#F1F1F1" height="21.6094" rx="5" ry="5" style="stroke:#F1F1F1;stroke-width:1.5;" width="101" x="933.5" y="192"/><text fill="#000000" font-family="sans-serif" font-size="14" font-weight="bold" lengthAdjust="spacing" textLength="30" x="938.5" y="208.5332">type</text><text fill="#000000" font-family="sans-serif" font-size="14" lengthAdjust="spacing" textLength="51" x="978.5" y="208.5332">boolean</text><line style="stroke:#000000;stroke-width:1.0;" x1="973.5" x2="973.5" y1="192" y2="213.6094"/><rect fill="none" height="21.6094" rx="5" ry="5" style="stroke:#000000;stroke-width:1.5;" width="101" x="933.5" y="192"/><rect fill="#F1F1F1" height="21.6094" rx="5" ry="5" style="stroke:#F1F1F1;stroke-width:1.5;" width="101" x="933.5" y="232"/><text fill="#000000" font-family="sans-serif" font-size="14" font-weight="bold" lengthAdjust="spacing" textLength="30" x="938.5" y="248.5332">type</text><text fill="#000000" font-family="sans-serif" font-size="14" lengthAdjust="spacing" textLength="51" x="978.5" y="248.5332">boolean</text><line style="stroke:#000000;stroke-width:1.0;" x1="973.5" x2="973.5" y1="232" y2="253.6094"/><rect fill="none" height="21.6094" rx="5" ry="5" style="stroke:#000000;stroke-width:1.5;" width="101" x="933.5" y="232"/><rect fill="#F1F1F1" height="21.6094" rx="5" ry="5" style="stroke:#F1F1F1;stroke-width:1.5;" width="101" x="933.5" y="272"/><text fill="#000000" font-family="sans-serif" font-size="14" font-weight="bold" lengthAdjust="spacing" textLength="30" x="938.5" y="288.5332">type</text><text fill="#000000" font-family="sans-serif" font-size="14" lengthAdjust="spacing" textLength="51" x="978.5" y="288.5332">boolean</text><line style="stroke:#000000;stroke-width:1.0;" x1="973.5" x2="973.5" y1="272" y2="293.6094"/><rect fill="none" height="21.6094" rx="5" ry="5" style="stroke:#000000;stroke-width:1.5;" width="101" x="933.5" y="272"/><rect fill="#F1F1F1" height="43.2188" rx="5" ry="5" style="stroke:#F1F1F1;stroke-width:1.5;" width="91" x="938.5" y="312.5"/><text fill="#000000" font-family="sans-serif" font-size="14" font-weight="bold" lengthAdjust="spacing" textLength="30" x="943.5" y="329.0332">type</text><text fill="#000000" font-family="sans-serif" font-size="14" lengthAdjust="spacing" textLength="33" x="991.5" y="329.0332">array</text><line style="stroke:#000000;stroke-width:1.0;" x1="986.5" x2="986.5" y1="312.5" y2="334.1094"/><line style="stroke:#000000;stroke-width:1.0;" x1="938.5" x2="1029.5" y1="334.1094" y2="334.1094"/><text fill="#000000" font-family="sans-serif" font-size="14" font-weight="bold" lengthAdjust="spacing" textLength="38" x="943.5" y="350.6426">items</text><text fill="#000000" font-family="sans-serif" font-size="14" lengthAdjust="spacing" textLength="12" x="991.5" y="350.6426">   </text><line style="stroke:#000000;stroke-width:1.0;" x1="986.5" x2="986.5" y1="334.1094" y2="355.7188"/><rect fill="none" height="43.2188" rx="5" ry="5" style="stroke:#000000;stroke-width:1.5;" width="91" x="938.5" y="312.5"/><rect fill="#F1F1F1" height="21.6094" rx="5" ry="5" style="stroke:#F1F1F1;stroke-width:1.5;" width="94" x="1087" y="333"/><text fill="#000000" font-family="sans-serif" font-size="14" font-weight="bold" lengthAdjust="spacing" textLength="30" x="1092" y="349.5332">type</text><text fill="#000000" font-family="sans-serif" font-size="14" lengthAdjust="spacing" textLength="44" x="1132" y="349.5332">integer</text><line style="stroke:#000000;stroke-width:1.0;" x1="1127" x2="1127" y1="333" y2="354.6094"/><rect fill="none" height="21.6094" rx="5" ry="5" style="stroke:#000000;stroke-width:1.5;" width="94" x="1087" y="333"/><rect fill="#F1F1F1" height="43.2188" rx="5" ry="5" style="stroke:#F1F1F1;stroke-width:1.5;" width="132" x="918" y="373.5"/><text fill="#000000" font-family="sans-serif" font-size="14" font-weight="bold" lengthAdjust="spacing" textLength="30" x="923" y="390.0332">type</text><text fill="#000000" font-family="sans-serif" font-size="14" lengthAdjust="spacing" textLength="38" x="1007" y="390.0332">object</text><line style="stroke:#000000;stroke-width:1.0;" x1="1002" x2="1002" y1="373.5" y2="395.1094"/><line style="stroke:#000000;stroke-width:1.0;" x1="918" x2="1050" y1="395.1094" y2="395.1094"/><text fill="#000000" font-family="sans-serif" font-size="14" font-weight="bold" lengthAdjust="spacing" textLength="74" x="923" y="411.6426">properties</text><text fill="#000000" font-family="sans-serif" font-size="14" lengthAdjust="spacing" textLength="12" x="1007" y="411.6426">   </text><line style="stroke:#000000;stroke-width:1.0;" x1="1002" x2="1002" y1="395.1094" y2="416.7188"/><rect fill="none" height="43.2188" rx="5" ry="5" style="stroke:#000000;stroke-width:1.5;" width="132" x="918" y="373.5"/><rect fill="#F1F1F1" height="64.8281" rx="5" ry="5" style="stroke:#F1F1F1;stroke-width:1.5;" width="93" x="1087.5" y="373.5"/><text fill="#000000" font-family="sans-serif" font-size="14" font-weight="bold" lengthAdjust="spacing" textLength="61" x="1092.5" y="390.0332">provider</text><text fill="#000000" font-family="sans-serif" font-size="14" lengthAdjust="spacing" textLength="12" x="1163.5" y="390.0332">   </text><line style="stroke:#000000;stroke-width:1.0;" x1="1158.5" x2="1158.5" y1="373.5" y2="395.1094"/><line style="stroke:#000000;stroke-width:1.0;" x1="1087.5" x2="1180.5" y1="395.1094" y2="395.1094"/><text fill="#000000" font-family="sans-serif" font-size="14" font-weight="bold" lengthAdjust="spacing" textLength="31" x="1092.5" y="411.6426">host</text><text fill="#000000" font-family="sans-serif" font-size="14" lengthAdjust="spacing" textLength="12" x="1163.5" y="411.6426">   </text><line style="stroke:#000000;stroke-width:1.0;" x1="1158.5" x2="1158.5" y1="395.1094" y2="416.7188"/><line style="stroke:#000000;stroke-width:1.0;" x1="1087.5" x2="1180.5" y1="416.7188" y2="416.7188"/><text fill="#000000" font-family="sans-serif" font-size="14" font-weight="bold" lengthAdjust="spacing" textLength="38" x="1092.5" y="433.252">name</text><text fill="#000000" font-family="sans-serif" font-size="14" lengthAdjust="spacing" textLength="12" x="1163.5" y="433.252">   </text><line style="stroke:#000000;stroke-width:1.0;" x1="1158.5" x2="1158.5" y1="416.7188" y2="438.3281"/><rect fill="none" height="64.8281" rx="5" ry="5" style="stroke:#000000;stroke-width:1.5;" width="93" x="1087.5" y="373.5"/><rect fill="#F1F1F1" height="21.6094" rx="5" ry="5" style="stroke:#F1F1F1;stroke-width:1.5;" width="85" x="1225.5" y="343"/><text fill="#000000" font-family="sans-serif" font-size="14" font-weight="bold" lengthAdjust="spacing" textLength="30" x="1230.5" y="359.5332">type</text><text fill="#000000" font-family="sans-serif" font-size="14" lengthAdjust="spacing" textLength="35" x="1270.5" y="359.5332">string</text><line style="stroke:#000000;stroke-width:1.0;" x1="1265.5" x2="1265.5" y1="343" y2="364.6094"/><rect fill="none" height="21.6094" rx="5" ry="5" style="stroke:#000000;stroke-width:1.5;" width="85" x="1225.5" y="343"/><rect fill="#F1F1F1" height="43.2188" rx="5" ry="5" style="stroke:#F1F1F1;stroke-width:1.5;" width="100" x="1218" y="383.5"/><text fill="#000000" font-family="sans-serif" font-size="14" font-weight="bold" lengthAdjust="spacing" textLength="30" x="1223" y="400.0332">type</text><text fill="#000000" font-family="sans-serif" font-size="14" lengthAdjust="spacing" textLength="35" x="1278" y="400.0332">string</text><line style="stroke:#000000;stroke-width:1.0;" x1="1273" x2="1273" y1="383.5" y2="405.1094"/><line style="stroke:#000000;stroke-width:1.0;" x1="1218" x2="1318" y1="405.1094" y2="405.1094"/><text fill="#000000" font-family="sans-serif" font-size="14" font-weight="bold" lengthAdjust="spacing" textLength="45" x="1223" y="421.6426">format</text><text fill="#000000" font-family="sans-serif" font-size="14" lengthAdjust="spacing" textLength="16" x="1278" y="421.6426">uri</text><line style="stroke:#000000;stroke-width:1.0;" x1="1273" x2="1273" y1="405.1094" y2="426.7188"/><rect fill="none" height="43.2188" rx="5" ry="5" style="stroke:#000000;stroke-width:1.5;" width="100" x="1218" y="383.5"/><rect fill="#F1F1F1" height="21.6094" rx="5" ry="5" style="stroke:#F1F1F1;stroke-width:1.5;" width="85" x="1225.5" y="445"/><text fill="#000000" font-family="sans-serif" font-size="14" font-weight="bold" lengthAdjust="spacing" textLength="30" x="1230.5" y="461.5332">type</text><text fill="#000000" font-family="sans-serif" font-size="14" lengthAdjust="spacing" textLength="35" x="1270.5" y="461.5332">string</text><line style="stroke:#000000;stroke-width:1.0;" x1="1265.5" x2="1265.5" y1="445" y2="466.6094"/><rect fill="none" height="21.6094" rx="5" ry="5" style="stroke:#000000;stroke-width:1.5;" width="85" x="1225.5" y="445"/><rect fill="#F1F1F1" height="43.2188" rx="5" ry="5" style="stroke:#F1F1F1;stroke-width:1.5;" width="132" x="361" y="426.5"/><text fill="#000000" font-family="sans-serif" font-size="14" font-weight="bold" lengthAdjust="spacing" textLength="30" x="366" y="443.0332">type</text><text fill="#000000" font-family="sans-serif" font-size="14" lengthAdjust="spacing" textLength="38" x="450" y="443.0332">object</text><line style="stroke:#000000;stroke-width:1.0;" x1="445" x2="445" y1="426.5" y2="448.1094"/><line style="stroke:#000000;stroke-width:1.0;" x1="361" x2="493" y1="448.1094" y2="448.1094"/><text fill="#000000" font-family="sans-serif" font-size="14" font-weight="bold" lengthAdjust="spacing" textLength="74" x="366" y="464.6426">properties</text><text fill="#000000" font-family="sans-serif" font-size="14" lengthAdjust="spacing" textLength="12" x="450" y="464.6426">   </text><line style="stroke:#000000;stroke-width:1.0;" x1="445" x2="445" y1="448.1094" y2="469.7188"/><rect fill="none" height="43.2188" rx="5" ry="5" style="stroke:#000000;stroke-width:1.5;" width="132" x="361" y="426.5"/><rect fill="#F1F1F1" height="21.6094" rx="5" ry="5" style="stroke:#F1F1F1;stroke-width:1.5;" width="36" x="530" y="466"/><text fill="#000000" font-family="sans-serif" font-size="14" font-weight="bold" lengthAdjust="spacing" textLength="4" x="535" y="482.5332">/</text><text fill="#000000" font-family="sans-serif" font-size="14" lengthAdjust="spacing" textLength="12" x="549" y="482.5332">   </text><line style="stroke:#000000;stroke-width:1.0;" x1="544" x2="544" y1="466" y2="487.6094"/><rect fill="none" height="21.6094" rx="5" ry="5" style="stroke:#000000;stroke-width:1.5;" width="36" x="530" y="466"/><rect fill="#F1F1F1" height="43.2188" rx="5" ry="5" style="stroke:#F1F1F1;stroke-width:1.5;" width="132" x="603" y="460.5"/><text fill="#000000" font-family="sans-serif" font-size="14" font-weight="bold" lengthAdjust="spacing" textLength="30" x="608" y="477.0332">type</text><text fill="#000000" font-family="sans-serif" font-size="14" lengthAdjust="spacing" textLength="38" x="692" y="477.0332">object</text><line style="stroke:#000000;stroke-width:1.0;" x1="687" x2="687" y1="460.5" y2="482.1094"/><line style="stroke:#000000;stroke-width:1.0;" x1="603" x2="735" y1="482.1094" y2="482.1094"/><text fill="#000000" font-family="sans-serif" font-size="14" font-weight="bold" lengthAdjust="spacing" textLength="74" x="608" y="498.6426">properties</text><text fill="#000000" font-family="sans-serif" font-size="14" lengthAdjust="spacing" textLength="12" x="692" y="498.6426">   </text><line style="stroke:#000000;stroke-width:1.0;" x1="687" x2="687" y1="482.1094" y2="503.7188"/><rect fill="none" height="43.2188" rx="5" ry="5" style="stroke:#000000;stroke-width:1.5;" width="132" x="603" y="460.5"/><rect fill="#F1F1F1" height="151.2656" rx="5" ry="5" style="stroke:#F1F1F1;stroke-width:1.5;" width="109" x="772" y="481.5"/><text fill="#000000" font-family="sans-serif" font-size="14" font-weight="bold" lengthAdjust="spacing" textLength="39" x="777" y="498.0332">client</text><text fill="#000000" font-family="sans-serif" font-size="14" lengthAdjust="spacing" textLength="12" x="864" y="498.0332">   </text><line style="stroke:#000000;stroke-width:1.0;" x1="859" x2="859" y1="481.5" y2="503.1094"/><line style="stroke:#000000;stroke-width:1.0;" x1="772" x2="881" y1="503.1094" y2="503.1094"/><text fill="#000000" font-family="sans-serif" font-size="14" font-weight="bold" lengthAdjust="spacing" textLength="54" x="777" y="519.6426">runtime</text><text fill="#000000" font-family="sans-serif" font-size="14" lengthAdjust="spacing" textLength="12" x="864" y="519.6426">   </text><line style="stroke:#000000;stroke-width:1.0;" x1="859" x2="859" y1="503.1094" y2="524.7188"/><line style="stroke:#000000;stroke-width:1.0;" x1="772" x2="881" y1="524.7188" y2="524.7188"/><text fill="#000000" font-family="sans-serif" font-size="14" font-weight="bold" lengthAdjust="spacing" textLength="29" x="777" y="541.252">apis</text><text fill="#000000" font-family="sans-serif" font-size="14" lengthAdjust="spacing" textLength="12" x="864" y="541.252">   </text><line style="stroke:#000000;stroke-width:1.0;" x1="859" x2="859" y1="524.7188" y2="546.3281"/><line style="stroke:#000000;stroke-width:1.0;" x1="772" x2="881" y1="546.3281" y2="546.3281"/><text fill="#000000" font-family="sans-serif" font-size="14" font-weight="bold" lengthAdjust="spacing" textLength="49" x="777" y="562.8613">origins</text><text fill="#000000" font-family="sans-serif" font-size="14" lengthAdjust="spacing" textLength="12" x="864" y="562.8613">   </text><line style="stroke:#000000;stroke-width:1.0;" x1="859" x2="859" y1="546.3281" y2="567.9375"/><line style="stroke:#000000;stroke-width:1.0;" x1="772" x2="881" y1="567.9375" y2="567.9375"/><text fill="#000000" font-family="sans-serif" font-size="14" font-weight="bold" lengthAdjust="spacing" textLength="77" x="777" y="584.4707">minifyBuild</text><text fill="#000000" font-family="sans-serif" font-size="14" lengthAdjust="spacing" textLength="12" x="864" y="584.4707">   </text><line style="stroke:#000000;stroke-width:1.0;" x1="859" x2="859" y1="567.9375" y2="589.5469"/><line style="stroke:#000000;stroke-width:1.0;" x1="772" x2="881" y1="589.5469" y2="589.5469"/><text fill="#000000" font-family="sans-serif" font-size="14" font-weight="bold" lengthAdjust="spacing" textLength="67" x="777" y="606.0801">lightBuild</text><text fill="#000000" font-family="sans-serif" font-size="14" lengthAdjust="spacing" textLength="12" x="864" y="606.0801">   </text><line style="stroke:#000000;stroke-width:1.0;" x1="859" x2="859" y1="589.5469" y2="611.1563"/><line style="stroke:#000000;stroke-width:1.0;" x1="772" x2="881" y1="611.1563" y2="611.1563"/><text fill="#000000" font-family="sans-serif" font-size="14" font-weight="bold" lengthAdjust="spacing" textLength="39" x="777" y="627.6895">proxy</text><text fill="#000000" font-family="sans-serif" font-size="14" lengthAdjust="spacing" textLength="12" x="864" y="627.6895">   </text><line style="stroke:#000000;stroke-width:1.0;" x1="859" x2="859" y1="611.1563" y2="632.7656"/><rect fill="none" height="151.2656" rx="5" ry="5" style="stroke:#000000;stroke-width:1.5;" width="109" x="772" y="481.5"/><rect fill="#F1F1F1" height="21.6094" rx="5" ry="5" style="stroke:#F1F1F1;stroke-width:1.5;" width="72" x="948" y="435"/><text fill="#000000" font-family="sans-serif" font-size="14" font-weight="bold" lengthAdjust="spacing" textLength="30" x="953" y="451.5332">type</text><text fill="#000000" font-family="sans-serif" font-size="14" lengthAdjust="spacing" textLength="22" x="993" y="451.5332">null</text><line style="stroke:#000000;stroke-width:1.0;" x1="988" x2="988" y1="435" y2="456.6094"/><rect fill="none" height="21.6094" rx="5" ry="5" style="stroke:#000000;stroke-width:1.5;" width="72" x="948" y="435"/><rect fill="#F1F1F1" height="21.6094" rx="5" ry="5" style="stroke:#F1F1F1;stroke-width:1.5;" width="85" x="941.5" y="475"/><text fill="#000000" font-family="sans-serif" font-size="14" font-weight="bold" lengthAdjust="spacing" textLength="30" x="946.5" y="491.5332">type</text><text fill="#000000" font-family="sans-serif" font-size="14" lengthAdjust="spacing" textLength="35" x="986.5" y="491.5332">string</text><line style="stroke:#000000;stroke-width:1.0;" x1="981.5" x2="981.5" y1="475" y2="496.6094"/><rect fill="none" height="21.6094" rx="5" ry="5" style="stroke:#000000;stroke-width:1.5;" width="85" x="941.5" y="475"/><rect fill="#F1F1F1" height="21.6094" rx="5" ry="5" style="stroke:#F1F1F1;stroke-width:1.5;" width="83" x="942.5" y="515"/><text fill="#000000" font-family="sans-serif" font-size="14" font-weight="bold" lengthAdjust="spacing" textLength="30" x="947.5" y="531.5332">type</text><text fill="#000000" font-family="sans-serif" font-size="14" lengthAdjust="spacing" textLength="33" x="987.5" y="531.5332">array</text><line style="stroke:#000000;stroke-width:1.0;" x1="982.5" x2="982.5" y1="515" y2="536.6094"/><rect fill="none" height="21.6094" rx="5" ry="5" style="stroke:#000000;stroke-width:1.5;" width="83" x="942.5" y="515"/><rect fill="#F1F1F1" height="21.6094" rx="5" ry="5" style="stroke:#F1F1F1;stroke-width:1.5;" width="83" x="942.5" y="555"/><text fill="#000000" font-family="sans-serif" font-size="14" font-weight="bold" lengthAdjust="spacing" textLength="30" x="947.5" y="571.5332">type</text><text fill="#000000" font-family="sans-serif" font-size="14" lengthAdjust="spacing" textLength="33" x="987.5" y="571.5332">array</text><line style="stroke:#000000;stroke-width:1.0;" x1="982.5" x2="982.5" y1="555" y2="576.6094"/><rect fill="none" height="21.6094" rx="5" ry="5" style="stroke:#000000;stroke-width:1.5;" width="83" x="942.5" y="555"/><rect fill="#F1F1F1" height="21.6094" rx="5" ry="5" style="stroke:#F1F1F1;stroke-width:1.5;" width="101" x="933.5" y="595"/><text fill="#000000" font-family="sans-serif" font-size="14" font-weight="bold" lengthAdjust="spacing" textLength="30" x="938.5" y="611.5332">type</text><text fill="#000000" font-family="sans-serif" font-size="14" lengthAdjust="spacing" textLength="51" x="978.5" y="611.5332">boolean</text><line style="stroke:#000000;stroke-width:1.0;" x1="973.5" x2="973.5" y1="595" y2="616.6094"/><rect fill="none" height="21.6094" rx="5" ry="5" style="stroke:#000000;stroke-width:1.5;" width="101" x="933.5" y="595"/><rect fill="#F1F1F1" height="21.6094" rx="5" ry="5" style="stroke:#F1F1F1;stroke-width:1.5;" width="101" x="933.5" y="635"/><text fill="#000000" font-family="sans-serif" font-size="14" font-weight="bold" lengthAdjust="spacing" textLength="30" x="938.5" y="651.5332">type</text><text fill="#000000" font-family="sans-serif" font-size="14" lengthAdjust="spacing" textLength="51" x="978.5" y="651.5332">boolean</text><line style="stroke:#000000;stroke-width:1.0;" x1="973.5" x2="973.5" y1="635" y2="656.6094"/><rect fill="none" height="21.6094" rx="5" ry="5" style="stroke:#000000;stroke-width:1.5;" width="101" x="933.5" y="635"/><rect fill="#F1F1F1" height="43.2188" rx="5" ry="5" style="stroke:#F1F1F1;stroke-width:1.5;" width="91" x="938.5" y="675.5"/><text fill="#000000" font-family="sans-serif" font-size="14" font-weight="bold" lengthAdjust="spacing" textLength="30" x="943.5" y="692.0332">type</text><text fill="#000000" font-family="sans-serif" font-size="14" lengthAdjust="spacing" textLength="33" x="991.5" y="692.0332">array</text><line style="stroke:#000000;stroke-width:1.0;" x1="986.5" x2="986.5" y1="675.5" y2="697.1094"/><line style="stroke:#000000;stroke-width:1.0;" x1="938.5" x2="1029.5" y1="697.1094" y2="697.1094"/><text fill="#000000" font-family="sans-serif" font-size="14" font-weight="bold" lengthAdjust="spacing" textLength="38" x="943.5" y="713.6426">items</text><text fill="#000000" font-family="sans-serif" font-size="14" lengthAdjust="spacing" textLength="12" x="991.5" y="713.6426">   </text><line style="stroke:#000000;stroke-width:1.0;" x1="986.5" x2="986.5" y1="697.1094" y2="718.7188"/><rect fill="none" height="43.2188" rx="5" ry="5" style="stroke:#000000;stroke-width:1.5;" width="91" x="938.5" y="675.5"/><rect fill="#F1F1F1" height="21.6094" rx="5" ry="5" style="stroke:#F1F1F1;stroke-width:1.5;" width="94" x="1087" y="697"/><text fill="#000000" font-family="sans-serif" font-size="14" font-weight="bold" lengthAdjust="spacing" textLength="30" x="1092" y="713.5332">type</text><text fill="#000000" font-family="sans-serif" font-size="14" lengthAdjust="spacing" textLength="44" x="1132" y="713.5332">integer</text><line style="stroke:#000000;stroke-width:1.0;" x1="1127" x2="1127" y1="697" y2="718.6094"/><rect fill="none" height="21.6094" rx="5" ry="5" style="stroke:#000000;stroke-width:1.5;" width="94" x="1087" y="697"/><path d="M869,126 L882,126 C923.0263,126 887.5176,68.4588 918,41 C922.8256,36.653 928.5741,33.2506 934.6319,30.5874 " fill="none" style="stroke:#000000;stroke-width:1.0;stroke-dasharray:3.0,3.0;"/><path d="M935.7515,33.4741 L936.7969,29.7477 L933.5124,27.7008 L941.8486,27.7885 L935.7515,33.4741 " fill="#000000" style="stroke:#000000;stroke-width:1.0;"/><ellipse cx="869" cy="126" fill="#000000" rx="3" ry="3" style="stroke:#000000;stroke-width:1.0;"/><path d="M869,148 L882,148 C915.8041,148 891.8653,102.4405 918,81 C922.9552,76.9348 928.7279,73.6948 934.754,71.1128 " fill="none" style="stroke:#000000;stroke-width:1.0;stroke-dasharray:3.0,3.0;"/><path d="M935.8495,73.9755 L936.901,70.2911 L933.6584,68.2501 L941.9107,68.3739 L935.8495,73.9755 " fill="#000000" style="stroke:#000000;stroke-width:1.0;"/><ellipse cx="869" cy="148" fill="#000000" rx="3" ry="3" style="stroke:#000000;stroke-width:1.0;"/><path d="M1018.5,123 L1031.5,123 C1048.6992,123 1067.5298,123 1084.2781,123 " fill="none" style="stroke:#000000;stroke-width:1.0;stroke-dasharray:3.0,3.0;"/><path d="M1084.2781,126.0141 L1086.5387,123 L1084.2781,119.9859 L1091.8135,123 L1084.2781,126.0141 " fill="#000000" style="stroke:#000000;stroke-width:1.0;"/><ellipse cx="1018.5" cy="123" fill="#000000" rx="3" ry="3" style="stroke:#000000;stroke-width:1.0;"/><path d="M869,169 L882,169 C901.7365,169 901.0089,153.0415 918,143 C922.4389,140.3767 927.1354,137.7987 931.8931,135.3189 " fill="none" style="stroke:#000000;stroke-width:1.0;stroke-dasharray:3.0,3.0;"/><path d="M933.3158,138.1156 L933.9905,134.2519 L930.4703,132.5223 L938.8846,131.7621 L933.3158,138.1156 " fill="#000000" style="stroke:#000000;stroke-width:1.0;"/><ellipse cx="869" cy="169" fill="#000000" rx="3" ry="3" style="stroke:#000000;stroke-width:1.0;"/><path d="M869,191 L882,191 C888.0727,191 915.1889,183.4558 939.8662,176.1993 " fill="none" style="stroke:#000000;stroke-width:1.0;stroke-dasharray:3.0,3.0;"/><path d="M940.7194,179.0849 L942.0304,175.5594 L939.013,173.3137 L947.0802,174.0663 L940.7194,179.0849 " fill="#000000" style="stroke:#000000;stroke-width:1.0;"/><ellipse cx="869" cy="191" fill="#000000" rx="3" ry="3" style="stroke:#000000;stroke-width:1.0;"/><path d="M869,212 L882,212 C896.2548,212 911.5919,211.1083 925.9176,209.8863 " fill="none" style="stroke:#000000;stroke-width:1.0;stroke-dasharray:3.0,3.0;"/><path d="M926.2013,213.0229 L928.27,209.6736 L925.6339,206.7498 L933.759,209.177 L926.2013,213.0229 " fill="#000000" style="stroke:#000000;stroke-width:1.0;"/><ellipse cx="869" cy="212" fill="#000000" rx="3" ry="3" style="stroke:#000000;stroke-width:1.0;"/><path d="M869,234 L882,234 C896.2548,234 911.5919,234.8917 925.9176,236.1137 " fill="none" style="stroke:#000000;stroke-width:1.0;stroke-dasharray:3.0,3.0;"/><path d="M925.6339,239.2502 L928.27,236.3264 L926.2013,232.9771 L933.759,236.823 L925.6339,239.2502 " fill="#000000" style="stroke:#000000;stroke-width:1.0;"/><ellipse cx="869" cy="234" fill="#000000" rx="3" ry="3" style="stroke:#000000;stroke-width:1.0;"/><path d="M869,256 L882,256 C887.9283,256 914.0265,262.9676 938.2724,269.8238 " fill="none" style="stroke:#000000;stroke-width:1.0;stroke-dasharray:3.0,3.0;"/><path d="M937.4258,272.8001 L940.5046,270.4587 L939.1189,266.8475 L945.7131,271.9402 L937.4258,272.8001 " fill="#000000" style="stroke:#000000;stroke-width:1.0;"/><ellipse cx="869" cy="256" fill="#000000" rx="3" ry="3" style="stroke:#000000;stroke-width:1.0;"/><path d="M1018.5,345 L1031.5,345 C1047.1754,345 1064.2052,344.8804 1079.7788,344.724 " fill="none" style="stroke:#000000;stroke-width:1.0;stroke-dasharray:3.0,3.0;"/><path d="M1079.8105,347.7304 L1082.0335,344.7002 L1079.747,341.7177 L1087.2947,344.6446 L1079.8105,347.7304 " fill="#000000" style="stroke:#000000;stroke-width:1.0;"/><ellipse cx="1018.5" cy="345" fill="#000000" rx="3" ry="3" style="stroke:#000000;stroke-width:1.0;"/><path d="M869,277 L882,277 C901.7365,277 901.0089,292.9585 918,303 C922.4389,305.6233 927.1354,308.2013 931.8931,310.6811 " fill="none" style="stroke:#000000;stroke-width:1.0;stroke-dasharray:3.0,3.0;"/><path d="M930.4703,313.4777 L933.9905,311.7481 L933.3158,307.8844 L938.8846,314.2379 L930.4703,313.4777 " fill="#000000" style="stroke:#000000;stroke-width:1.0;"/><ellipse cx="869" cy="277" fill="#000000" rx="3" ry="3" style="stroke:#000000;stroke-width:1.0;"/><path d="M1169,384 L1182,384 C1187.3353,384 1211.0272,375.575 1232.1216,367.6544 " fill="none" style="stroke:#000000;stroke-width:1.0;stroke-dasharray:3.0,3.0;"/><path d="M1233.1831,370.464 L1234.2288,366.8583 L1231.06,364.8448 L1239.1455,365.0005 L1233.1831,370.464 " fill="#000000" style="stroke:#000000;stroke-width:1.0;"/><ellipse cx="1169" cy="384" fill="#000000" rx="3" ry="3" style="stroke:#000000;stroke-width:1.0;"/><path d="M1169,405 L1182,405 C1191.253,405 1201.0693,405 1210.6259,405 " fill="none" style="stroke:#000000;stroke-width:1.0;stroke-dasharray:3.0,3.0;"/><path d="M1210.6259,408.0371 L1212.9037,405 L1210.6259,401.9629 L1218.2187,405 L1210.6259,408.0371 " fill="#000000" style="stroke:#000000;stroke-width:1.0;"/><ellipse cx="1169" cy="405" fill="#000000" rx="3" ry="3" style="stroke:#000000;stroke-width:1.0;"/><path d="M1169,428 L1182,428 C1192.1105,428 1213.8609,435.1607 1232.8927,442.2397 " fill="none" style="stroke:#000000;stroke-width:1.0;stroke-dasharray:3.0,3.0;"/><path d="M1231.8151,445.0921 L1235.032,443.0479 L1233.9703,439.3872 L1240.0237,444.9337 L1231.8151,445.0921 " fill="#000000" style="stroke:#000000;stroke-width:1.0;"/><ellipse cx="1169" cy="428" fill="#000000" rx="3" ry="3" style="stroke:#000000;stroke-width:1.0;"/><path d="M1038,406 L1051,406 C1060.3804,406 1070.3607,406 1080.0201,406 " fill="none" style="stroke:#000000;stroke-width:1.0;stroke-dasharray:3.0,3.0;"/><path d="M1080.0201,409.0641 L1082.3182,406 L1080.0201,402.9359 L1087.6803,406 L1080.0201,409.0641 " fill="#000000" style="stroke:#000000;stroke-width:1.0;"/><ellipse cx="1038" cy="406" fill="#000000" rx="3" ry="3" style="stroke:#000000;stroke-width:1.0;"/><path d="M869,299 L882,299 C915.0237,299 893.9164,341.4047 918,364 C919.835,365.7216 921.783,367.3634 923.8153,368.9274 " fill="none" style="stroke:#000000;stroke-width:1.0;stroke-dasharray:3.0,3.0;"/><path d="M922.0311,371.4556 L925.7114,370.2655 L925.5995,366.3992 L930.1358,373.3878 L922.0311,371.4556 " fill="#000000" style="stroke:#000000;stroke-width:1.0;"/><ellipse cx="869" cy="299" fill="#000000" rx="3" ry="3" style="stroke:#000000;stroke-width:1.0;"/><path d="M723,359 L736,359 C762.9451,359 782.0865,340.757 795.5743,317.1684 " fill="none" style="stroke:#000000;stroke-width:1.0;stroke-dasharray:3.0,3.0;"/><path d="M798.288,318.6308 L796.6712,315.1331 L792.8606,315.7059 L799.2305,310.3841 L798.288,318.6308 " fill="#000000" style="stroke:#000000;stroke-width:1.0;"/><ellipse cx="723" cy="359" fill="#000000" rx="3" ry="3" style="stroke:#000000;stroke-width:1.0;"/><path d="M554,384 L567,384 C584.9974,384 603.8107,378.9103 620.2818,372.5584 " fill="none" style="stroke:#000000;stroke-width:1.0;stroke-dasharray:3.0,3.0;"/><path d="M621.4792,375.515 L622.4993,371.6603 L619.0844,369.6017 L627.6735,369.5649 L621.4792,375.515 " fill="#000000" style="stroke:#000000;stroke-width:1.0;"/><ellipse cx="554" cy="384" fill="#000000" rx="3" ry="3" style="stroke:#000000;stroke-width:1.0;"/><path d="M481,393 L494,393 C503.4702,393 513.7543,391.6116 522.7522,389.9255 " fill="none" style="stroke:#000000;stroke-width:1.0;stroke-dasharray:3.0,3.0;"/><path d="M523.3645,392.9348 L525.0091,389.4662 L522.1398,386.9162 L530.2754,388.3945 L523.3645,392.9348 " fill="#000000" style="stroke:#000000;stroke-width:1.0;"/><ellipse cx="481" cy="393" fill="#000000" rx="3" ry="3" style="stroke:#000000;stroke-width:1.0;"/><path d="M312,404 L325,404 C334.3901,404 344.1601,403.0896 353.767,401.6391 " fill="none" style="stroke:#000000;stroke-width:1.0;stroke-dasharray:3.0,3.0;"/><path d="M354.2758,404.7028 L356.0648,401.2575 L353.2582,398.5754 L361.4262,400.3671 L354.2758,404.7028 " fill="#000000" style="stroke:#000000;stroke-width:1.0;"/><ellipse cx="312" cy="404" fill="#000000" rx="3" ry="3" style="stroke:#000000;stroke-width:1.0;"/><path d="M869,492 L882,492 C901.7365,492 900.3231,474.7782 918,466 C925.2563,462.3966 933.2904,459.2944 941.174,456.682 " fill="none" style="stroke:#000000;stroke-width:1.0;stroke-dasharray:3.0,3.0;"/><path d="M942.0787,459.5505 L943.3253,456.0035 L940.2693,453.8136 L948.3451,454.4202 L942.0787,459.5505 " fill="#000000" style="stroke:#000000;stroke-width:1.0;"/><ellipse cx="869" cy="492" fill="#000000" rx="3" ry="3" style="stroke:#000000;stroke-width:1.0;"/><path d="M869,513 L882,513 C887.9283,513 914.0265,506.0324 938.2724,499.1762 " fill="none" style="stroke:#000000;stroke-width:1.0;stroke-dasharray:3.0,3.0;"/><path d="M939.1189,502.1525 L940.5046,498.5413 L937.4258,496.1999 L945.7131,497.0598 L939.1189,502.1525 " fill="#000000" style="stroke:#000000;stroke-width:1.0;"/><ellipse cx="869" cy="513" fill="#000000" rx="3" ry="3" style="stroke:#000000;stroke-width:1.0;"/><path d="M869,535 L882,535 C899.3355,535 918.2715,533.6813 935.0428,532.0535 " fill="none" style="stroke:#000000;stroke-width:1.0;stroke-dasharray:3.0,3.0;"/><path d="M935.3492,535.0694 L937.3047,531.8236 L934.7363,529.0375 L942.5826,531.2874 L935.3492,535.0694 " fill="#000000" style="stroke:#000000;stroke-width:1.0;"/><ellipse cx="869" cy="535" fill="#000000" rx="3" ry="3" style="stroke:#000000;stroke-width:1.0;"/><path d="M869,556 L882,556 C899.3513,556 918.2911,557.4652 935.0609,559.2739 " fill="none" style="stroke:#000000;stroke-width:1.0;stroke-dasharray:3.0,3.0;"/><path d="M934.7204,562.2895 L937.3225,559.5293 L935.4014,556.2584 L942.5997,560.1251 L934.7204,562.2895 " fill="#000000" style="stroke:#000000;stroke-width:1.0;"/><ellipse cx="869" cy="556" fill="#000000" rx="3" ry="3" style="stroke:#000000;stroke-width:1.0;"/><path d="M869,578 L882,578 C888.0727,578 915.1889,585.5442 939.8662,592.8007 " fill="none" style="stroke:#000000;stroke-width:1.0;stroke-dasharray:3.0,3.0;"/><path d="M939.013,595.6863 L942.0304,593.4406 L940.7194,589.9151 L947.0802,594.9337 L939.013,595.6863 " fill="#000000" style="stroke:#000000;stroke-width:1.0;"/><ellipse cx="869" cy="578" fill="#000000" rx="3" ry="3" style="stroke:#000000;stroke-width:1.0;"/><path d="M869,600 L882,600 C901.7365,600 900.3231,617.2218 918,626 C922.6506,628.3095 927.6207,630.413 932.6659,632.3137 " fill="none" style="stroke:#000000;stroke-width:1.0;stroke-dasharray:3.0,3.0;"/><path d="M931.61,635.2806 L934.8911,633.1057 L933.7219,629.3469 L940.083,634.9536 L931.61,635.2806 " fill="#000000" style="stroke:#000000;stroke-width:1.0;"/><ellipse cx="869" cy="600" fill="#000000" rx="3" ry="3" style="stroke:#000000;stroke-width:1.0;"/><path d="M1018.5,708 L1031.5,708 C1047.1746,708 1064.2042,708 1079.7778,708 " fill="none" style="stroke:#000000;stroke-width:1.0;stroke-dasharray:3.0,3.0;"/><path d="M1079.7778,711.0064 L1082.0326,708 L1079.7778,704.9936 L1087.2937,708 L1079.7778,711.0064 " fill="#000000" style="stroke:#000000;stroke-width:1.0;"/><ellipse cx="1018.5" cy="708" fill="#000000" rx="3" ry="3" style="stroke:#000000;stroke-width:1.0;"/><path d="M869,622 L882,622 C907.267,622 898.0945,650.4375 918,666 C922.361,669.4095 927.1578,672.5627 932.1118,675.4471 " fill="none" style="stroke:#000000;stroke-width:1.0;stroke-dasharray:3.0,3.0;"/><path d="M930.6056,678.1778 L934.1598,676.5767 L933.6179,672.7164 L938.9385,679.2125 L930.6056,678.1778 " fill="#000000" style="stroke:#000000;stroke-width:1.0;"/><ellipse cx="869" cy="622" fill="#000000" rx="3" ry="3" style="stroke:#000000;stroke-width:1.0;"/><path d="M723,493 L736,493 C746.3369,493 756.3116,495.8386 765.6182,500.3202 " fill="none" style="stroke:#000000;stroke-width:1.0;stroke-dasharray:3.0,3.0;"/><path d="M764.2036,502.9819 L767.6145,501.3811 L767.0328,497.6585 L772.2724,503.8567 L764.2036,502.9819 " fill="#000000" style="stroke:#000000;stroke-width:1.0;"/><ellipse cx="723" cy="493" fill="#000000" rx="3" ry="3" style="stroke:#000000;stroke-width:1.0;"/><path d="M554,477 L567,477 C576.2577,477 585.9846,477.2101 595.5994,477.5441 " fill="none" style="stroke:#000000;stroke-width:1.0;stroke-dasharray:3.0,3.0;"/><path d="M595.4823,480.6144 L597.9022,477.6319 L595.7166,474.4738 L603.2752,477.8369 L595.4823,480.6144 " fill="#000000" style="stroke:#000000;stroke-width:1.0;"/><ellipse cx="554" cy="477" fill="#000000" rx="3" ry="3" style="stroke:#000000;stroke-width:1.0;"/><path d="M481,459 L494,459 C503.7998,459 514.107,461.7466 523.0298,465.094 " fill="none" style="stroke:#000000;stroke-width:1.0;stroke-dasharray:3.0,3.0;"/><path d="M521.8674,467.9452 L525.1682,465.9658 L524.1922,462.2428 L530.1578,468 L521.8674,467.9452 " fill="#000000" style="stroke:#000000;stroke-width:1.0;"/><ellipse cx="481" cy="459" fill="#000000" rx="3" ry="3" style="stroke:#000000;stroke-width:1.0;"/><path d="M312,426 L325,426 C334.3901,426 344.1601,426.9104 353.767,428.3609 " fill="none" style="stroke:#000000;stroke-width:1.0;stroke-dasharray:3.0,3.0;"/><path d="M353.2582,431.4246 L356.0648,428.7425 L354.2758,425.2972 L361.4262,429.6329 L353.2582,431.4246 " fill="#000000" style="stroke:#000000;stroke-width:1.0;"/><ellipse cx="312" cy="426" fill="#000000" rx="3" ry="3" style="stroke:#000000;stroke-width:1.0;"/><path d="M130,415 L143,415 C152.2468,415 161.939,415 171.5617,415 " fill="none" style="stroke:#000000;stroke-width:1.0;stroke-dasharray:3.0,3.0;"/><path d="M171.5617,418.077 L173.8695,415 L171.5617,411.923 L179.2543,415 L171.5617,418.077 " fill="#000000" style="stroke:#000000;stroke-width:1.0;"/><ellipse cx="130" cy="415" fill="#000000" rx="3" ry="3" style="stroke:#000000;stroke-width:1.0;"/></g></svg>