<?xml version="1.0" encoding="UTF-8" standalone="no"?><svg xmlns="http://www.w3.org/2000/svg" xmlns:xlink="http://www.w3.org/1999/xlink" contentStyleType="text/css" height="396px" preserveAspectRatio="none" style="width:713px;height:396px;background:#FFFFFF;" version="1.1" viewBox="0 0 713 396" width="713px" zoomAndPan="magnify"><defs/><g><rect fill="#F1F1F1" height="43.2188" rx="5" ry="5" style="stroke:#F1F1F1;stroke-width:1.5;" width="145" x="10" y="199.5"/><text fill="#000000" font-family="sans-serif" font-size="14" font-weight="bold" lengthAdjust="spacing" textLength="76" x="15" y="216.0332">default.net</text><text fill="#000000" font-family="sans-serif" font-size="14" lengthAdjust="spacing" textLength="12" x="138" y="216.0332">   </text><line style="stroke:#000000;stroke-width:1.0;" x1="133" x2="133" y1="199.5" y2="221.1094"/><line style="stroke:#000000;stroke-width:1.0;" x1="10" x2="155" y1="221.1094" y2="221.1094"/><text fill="#000000" font-family="sans-serif" font-size="14" font-weight="bold" lengthAdjust="spacing" textLength="113" x="15" y="237.6426">www.default.net</text><text fill="#000000" font-family="sans-serif" font-size="14" lengthAdjust="spacing" textLength="12" x="138" y="237.6426">   </text><line style="stroke:#000000;stroke-width:1.0;" x1="133" x2="133" y1="221.1094" y2="242.7188"/><rect fill="none" height="43.2188" rx="5" ry="5" style="stroke:#000000;stroke-width:1.5;" width="145" x="10" y="199.5"/><rect fill="#F1F1F1" height="21.6094" rx="5" ry="5" style="stroke:#F1F1F1;stroke-width:1.5;" width="36" x="192" y="171"/><text fill="#000000" font-family="sans-serif" font-size="14" font-weight="bold" lengthAdjust="spacing" textLength="4" x="197" y="187.5332">/</text><text fill="#000000" font-family="sans-serif" font-size="14" lengthAdjust="spacing" textLength="12" x="211" y="187.5332">   </text><line style="stroke:#000000;stroke-width:1.0;" x1="206" x2="206" y1="171" y2="192.6094"/><rect fill="none" height="21.6094" rx="5" ry="5" style="stroke:#000000;stroke-width:1.5;" width="36" x="192" y="171"/><rect fill="#F1F1F1" height="194.4844" rx="5" ry="5" style="stroke:#F1F1F1;stroke-width:1.5;" width="143" x="265" y="10"/><text fill="#000000" font-family="sans-serif" font-size="14" font-weight="bold" lengthAdjust="spacing" textLength="39" x="270" y="26.5332">client</text><text fill="#000000" font-family="sans-serif" font-size="14" lengthAdjust="spacing" textLength="43" x="357" y="26.5332">default</text><line style="stroke:#000000;stroke-width:1.0;" x1="352" x2="352" y1="10" y2="31.6094"/><line style="stroke:#000000;stroke-width:1.0;" x1="265" x2="408" y1="31.6094" y2="31.6094"/><text fill="#000000" font-family="sans-serif" font-size="14" font-weight="bold" lengthAdjust="spacing" textLength="54" x="270" y="48.1426">runtime</text><text fill="#000000" font-family="sans-serif" font-size="14" lengthAdjust="spacing" textLength="42" x="357" y="48.1426">nodejs</text><line style="stroke:#000000;stroke-width:1.0;" x1="352" x2="352" y1="31.6094" y2="53.2188"/><line style="stroke:#000000;stroke-width:1.0;" x1="265" x2="408" y1="53.2188" y2="53.2188"/><text fill="#000000" font-family="sans-serif" font-size="14" font-weight="bold" lengthAdjust="spacing" textLength="29" x="270" y="69.752">apis</text><text fill="#000000" font-family="sans-serif" font-size="14" lengthAdjust="spacing" textLength="12" x="357" y="69.752">   </text><line style="stroke:#000000;stroke-width:1.0;" x1="352" x2="352" y1="53.2188" y2="74.8281"/><line style="stroke:#000000;stroke-width:1.0;" x1="265" x2="408" y1="74.8281" y2="74.8281"/><text fill="#000000" font-family="sans-serif" font-size="14" font-weight="bold" lengthAdjust="spacing" textLength="49" x="270" y="91.3613">origins</text><text fill="#000000" font-family="sans-serif" font-size="14" lengthAdjust="spacing" textLength="12" x="357" y="91.3613">   </text><line style="stroke:#000000;stroke-width:1.0;" x1="352" x2="352" y1="74.8281" y2="96.4375"/><line style="stroke:#000000;stroke-width:1.0;" x1="265" x2="408" y1="96.4375" y2="96.4375"/><text fill="#000000" font-family="sans-serif" font-size="14" font-weight="bold" lengthAdjust="spacing" textLength="77" x="270" y="112.9707">minifyBuild</text><text fill="#000000" font-family="sans-serif" font-size="14" lengthAdjust="spacing" textLength="46" x="357" y="112.9707">☐ false</text><line style="stroke:#000000;stroke-width:1.0;" x1="352" x2="352" y1="96.4375" y2="118.0469"/><line style="stroke:#000000;stroke-width:1.0;" x1="265" x2="408" y1="118.0469" y2="118.0469"/><text fill="#000000" font-family="sans-serif" font-size="14" font-weight="bold" lengthAdjust="spacing" textLength="74" x="270" y="134.5801">iconsBuild</text><text fill="#000000" font-family="sans-serif" font-size="14" lengthAdjust="spacing" textLength="41" x="357" y="134.5801">☑ true</text><line style="stroke:#000000;stroke-width:1.0;" x1="352" x2="352" y1="118.0469" y2="139.6563"/><line style="stroke:#000000;stroke-width:1.0;" x1="265" x2="408" y1="139.6563" y2="139.6563"/><text fill="#000000" font-family="sans-serif" font-size="14" font-weight="bold" lengthAdjust="spacing" textLength="67" x="270" y="156.1895">lightBuild</text><text fill="#000000" font-family="sans-serif" font-size="14" lengthAdjust="spacing" textLength="46" x="357" y="156.1895">☐ false</text><line style="stroke:#000000;stroke-width:1.0;" x1="352" x2="352" y1="139.6563" y2="161.2656"/><line style="stroke:#000000;stroke-width:1.0;" x1="265" x2="408" y1="161.2656" y2="161.2656"/><text fill="#000000" font-family="sans-serif" font-size="14" font-weight="bold" lengthAdjust="spacing" textLength="39" x="270" y="177.7988">proxy</text><text fill="#000000" font-family="sans-serif" font-size="14" lengthAdjust="spacing" textLength="12" x="357" y="177.7988">   </text><line style="stroke:#000000;stroke-width:1.0;" x1="352" x2="352" y1="161.2656" y2="182.875"/><line style="stroke:#000000;stroke-width:1.0;" x1="265" x2="408" y1="182.875" y2="182.875"/><text fill="#000000" font-family="sans-serif" font-size="14" font-weight="bold" lengthAdjust="spacing" textLength="18" x="270" y="199.4082">db</text><text fill="#000000" font-family="sans-serif" font-size="14" lengthAdjust="spacing" textLength="12" x="357" y="199.4082">   </text><line style="stroke:#000000;stroke-width:1.0;" x1="352" x2="352" y1="182.875" y2="204.4844"/><rect fill="none" height="194.4844" rx="5" ry="5" style="stroke:#000000;stroke-width:1.5;" width="143" x="265" y="10"/><rect fill="#F1F1F1" height="43.2188" rx="5" ry="5" style="stroke:#F1F1F1;stroke-width:1.5;" width="38" x="554" y="17.5"/><text fill="#000000" font-family="sans-serif" font-size="14" lengthAdjust="spacing" textLength="28" x="559" y="34.0332">user</text><line style="stroke:#000000;stroke-width:1.0;" x1="554" x2="592" y1="39.1094" y2="39.1094"/><text fill="#000000" font-family="sans-serif" font-size="14" lengthAdjust="spacing" textLength="23" x="559" y="55.6426">test</text><rect fill="none" height="43.2188" rx="5" ry="5" style="stroke:#000000;stroke-width:1.5;" width="38" x="554" y="17.5"/><rect fill="#F1F1F1" height="15" rx="5" ry="5" style="stroke:#F1F1F1;stroke-width:1.5;" width="30" x="561" y="79"/><rect fill="none" height="15" rx="5" ry="5" style="stroke:#000000;stroke-width:1.5;" width="30" x="561" y="79"/><rect fill="#F1F1F1" height="43.2188" rx="5" ry="5" style="stroke:#F1F1F1;stroke-width:1.5;" width="34" x="556" y="119.5"/><text fill="#000000" font-family="sans-serif" font-size="14" lengthAdjust="spacing" textLength="16" x="561" y="136.0332">80</text><line style="stroke:#000000;stroke-width:1.0;" x1="556" x2="590" y1="141.1094" y2="141.1094"/><text fill="#000000" font-family="sans-serif" font-size="14" lengthAdjust="spacing" textLength="24" x="561" y="157.6426">443</text><rect fill="none" height="43.2188" rx="5" ry="5" style="stroke:#000000;stroke-width:1.5;" width="34" x="556" y="119.5"/><rect fill="#F1F1F1" height="64.8281" rx="5" ry="5" style="stroke:#F1F1F1;stroke-width:1.5;" width="256" x="445" y="180.5"/><text fill="#000000" font-family="sans-serif" font-size="14" font-weight="bold" lengthAdjust="spacing" textLength="61" x="450" y="197.0332">provider</text><text fill="#000000" font-family="sans-serif" font-size="14" lengthAdjust="spacing" textLength="66" x="521" y="197.0332">mongoose</text><line style="stroke:#000000;stroke-width:1.0;" x1="516" x2="516" y1="180.5" y2="202.1094"/><line style="stroke:#000000;stroke-width:1.0;" x1="445" x2="701" y1="202.1094" y2="202.1094"/><text fill="#000000" font-family="sans-serif" font-size="14" font-weight="bold" lengthAdjust="spacing" textLength="31" x="450" y="218.6426">host</text><text fill="#000000" font-family="sans-serif" font-size="14" lengthAdjust="spacing" textLength="175" x="521" y="218.6426">mongodb://127.0.0.1:27017</text><line style="stroke:#000000;stroke-width:1.0;" x1="516" x2="516" y1="202.1094" y2="223.7188"/><line style="stroke:#000000;stroke-width:1.0;" x1="445" x2="701" y1="223.7188" y2="223.7188"/><text fill="#000000" font-family="sans-serif" font-size="14" font-weight="bold" lengthAdjust="spacing" textLength="38" x="450" y="240.252">name</text><text fill="#000000" font-family="sans-serif" font-size="14" lengthAdjust="spacing" textLength="43" x="521" y="240.252">default</text><line style="stroke:#000000;stroke-width:1.0;" x1="516" x2="516" y1="223.7188" y2="245.3281"/><rect fill="none" height="64.8281" rx="5" ry="5" style="stroke:#000000;stroke-width:1.5;" width="256" x="445" y="180.5"/><rect fill="#F1F1F1" height="21.6094" rx="5" ry="5" style="stroke:#F1F1F1;stroke-width:1.5;" width="36" x="192" y="249"/><text fill="#000000" font-family="sans-serif" font-size="14" font-weight="bold" lengthAdjust="spacing" textLength="4" x="197" y="265.5332">/</text><text fill="#000000" font-family="sans-serif" font-size="14" lengthAdjust="spacing" textLength="12" x="211" y="265.5332">   </text><line style="stroke:#000000;stroke-width:1.0;" x1="206" x2="206" y1="249" y2="270.6094"/><rect fill="none" height="21.6094" rx="5" ry="5" style="stroke:#000000;stroke-width:1.5;" width="36" x="192" y="249"/><rect fill="#F1F1F1" height="151.2656" rx="5" ry="5" style="stroke:#F1F1F1;stroke-width:1.5;" width="143" x="265" y="222.5"/><text fill="#000000" font-family="sans-serif" font-size="14" font-weight="bold" lengthAdjust="spacing" textLength="39" x="270" y="239.0332">client</text><text fill="#000000" font-family="sans-serif" font-size="14" lengthAdjust="spacing" textLength="8" x="357" y="239.0332">␀</text><line style="stroke:#000000;stroke-width:1.0;" x1="352" x2="352" y1="222.5" y2="244.1094"/><line style="stroke:#000000;stroke-width:1.0;" x1="265" x2="408" y1="244.1094" y2="244.1094"/><text fill="#000000" font-family="sans-serif" font-size="14" font-weight="bold" lengthAdjust="spacing" textLength="54" x="270" y="260.6426">runtime</text><text fill="#000000" font-family="sans-serif" font-size="14" lengthAdjust="spacing" textLength="42" x="357" y="260.6426">nodejs</text><line style="stroke:#000000;stroke-width:1.0;" x1="352" x2="352" y1="244.1094" y2="265.7188"/><line style="stroke:#000000;stroke-width:1.0;" x1="265" x2="408" y1="265.7188" y2="265.7188"/><text fill="#000000" font-family="sans-serif" font-size="14" font-weight="bold" lengthAdjust="spacing" textLength="29" x="270" y="282.252">apis</text><text fill="#000000" font-family="sans-serif" font-size="14" lengthAdjust="spacing" textLength="12" x="357" y="282.252">   </text><line style="stroke:#000000;stroke-width:1.0;" x1="352" x2="352" y1="265.7188" y2="287.3281"/><line style="stroke:#000000;stroke-width:1.0;" x1="265" x2="408" y1="287.3281" y2="287.3281"/><text fill="#000000" font-family="sans-serif" font-size="14" font-weight="bold" lengthAdjust="spacing" textLength="49" x="270" y="303.8613">origins</text><text fill="#000000" font-family="sans-serif" font-size="14" lengthAdjust="spacing" textLength="12" x="357" y="303.8613">   </text><line style="stroke:#000000;stroke-width:1.0;" x1="352" x2="352" y1="287.3281" y2="308.9375"/><line style="stroke:#000000;stroke-width:1.0;" x1="265" x2="408" y1="308.9375" y2="308.9375"/><text fill="#000000" font-family="sans-serif" font-size="14" font-weight="bold" lengthAdjust="spacing" textLength="77" x="270" y="325.4707">minifyBuild</text><text fill="#000000" font-family="sans-serif" font-size="14" lengthAdjust="spacing" textLength="46" x="357" y="325.4707">☐ false</text><line style="stroke:#000000;stroke-width:1.0;" x1="352" x2="352" y1="308.9375" y2="330.5469"/><line style="stroke:#000000;stroke-width:1.0;" x1="265" x2="408" y1="330.5469" y2="330.5469"/><text fill="#000000" font-family="sans-serif" font-size="14" font-weight="bold" lengthAdjust="spacing" textLength="67" x="270" y="347.0801">lightBuild</text><text fill="#000000" font-family="sans-serif" font-size="14" lengthAdjust="spacing" textLength="41" x="357" y="347.0801">☑ true</text><line style="stroke:#000000;stroke-width:1.0;" x1="352" x2="352" y1="330.5469" y2="352.1563"/><line style="stroke:#000000;stroke-width:1.0;" x1="265" x2="408" y1="352.1563" y2="352.1563"/><text fill="#000000" font-family="sans-serif" font-size="14" font-weight="bold" lengthAdjust="spacing" textLength="39" x="270" y="368.6895">proxy</text><text fill="#000000" font-family="sans-serif" font-size="14" lengthAdjust="spacing" textLength="12" x="357" y="368.6895">   </text><line style="stroke:#000000;stroke-width:1.0;" x1="352" x2="352" y1="352.1563" y2="373.7656"/><rect fill="none" height="151.2656" rx="5" ry="5" style="stroke:#000000;stroke-width:1.5;" width="143" x="265" y="222.5"/><rect fill="#F1F1F1" height="15" rx="5" ry="5" style="stroke:#F1F1F1;stroke-width:1.5;" width="30" x="561" y="267"/><rect fill="none" height="15" rx="5" ry="5" style="stroke:#000000;stroke-width:1.5;" width="30" x="561" y="267"/><rect fill="#F1F1F1" height="15" rx="5" ry="5" style="stroke:#F1F1F1;stroke-width:1.5;" width="30" x="561" y="301"/><rect fill="none" height="15" rx="5" ry="5" style="stroke:#000000;stroke-width:1.5;" width="30" x="561" y="301"/><rect fill="#F1F1F1" height="43.2188" rx="5" ry="5" style="stroke:#F1F1F1;stroke-width:1.5;" width="34" x="556" y="341.5"/><text fill="#000000" font-family="sans-serif" font-size="14" lengthAdjust="spacing" textLength="16" x="561" y="358.0332">80</text><line style="stroke:#000000;stroke-width:1.0;" x1="556" x2="590" y1="363.1094" y2="363.1094"/><text fill="#000000" font-family="sans-serif" font-size="14" lengthAdjust="spacing" textLength="24" x="561" y="379.6426">443</text><rect fill="none" height="43.2188" rx="5" ry="5" style="stroke:#000000;stroke-width:1.5;" width="34" x="556" y="341.5"/><path d="M396,63 L409,63 C458.1937,63 514.8388,52.2328 546.8836,45.1222 " fill="none" style="stroke:#000000;stroke-width:1.0;stroke-dasharray:3.0,3.0;"/><path d="M547.5717,48.1612 L549.1628,44.6061 L546.1955,42.0832 L554.481,43.402 L547.5717,48.1612 " fill="#000000" style="stroke:#000000;stroke-width:1.0;"/><ellipse cx="396" cy="63" fill="#000000" rx="3" ry="3" style="stroke:#000000;stroke-width:1.0;"/><path d="M396,85 L409,85 C461.4149,85 523.2746,86.0404 553.6884,86.6204 " fill="none" style="stroke:#000000;stroke-width:1.0;stroke-dasharray:3.0,3.0;"/><path d="M553.6284,89.7046 L556.0015,86.6655 L553.7485,83.5363 L561.3988,86.7706 L553.6284,89.7046 " fill="#000000" style="stroke:#000000;stroke-width:1.0;"/><ellipse cx="396" cy="85" fill="#000000" rx="3" ry="3" style="stroke:#000000;stroke-width:1.0;"/><path d="M396,171 L409,171 C459.5489,171 517.4664,156.9559 549.0055,148.0858 " fill="none" style="stroke:#000000;stroke-width:1.0;stroke-dasharray:3.0,3.0;"/><path d="M549.8583,151.0577 L551.2343,147.4462 L548.1527,145.114 L556.435,145.9539 L549.8583,151.0577 " fill="#000000" style="stroke:#000000;stroke-width:1.0;"/><ellipse cx="396" cy="171" fill="#000000" rx="3" ry="3" style="stroke:#000000;stroke-width:1.0;"/><path d="M396,193 L409,193 C418.4571,193 428.1993,193.3338 437.9951,193.915 " fill="none" style="stroke:#000000;stroke-width:1.0;stroke-dasharray:3.0,3.0;"/><path d="M437.7986,196.914 L440.2444,194.0624 L438.1917,190.916 L445.4927,194.4064 L437.7986,196.914 " fill="#000000" style="stroke:#000000;stroke-width:1.0;"/><ellipse cx="396" cy="193" fill="#000000" rx="3" ry="3" style="stroke:#000000;stroke-width:1.0;"/><path d="M216,182 L229,182 C239.1233,182 248.9687,179.721 258.3253,175.9576 " fill="none" style="stroke:#000000;stroke-width:1.0;stroke-dasharray:3.0,3.0;"/><path d="M259.5869,178.7802 L260.4422,175.0114 L257.0637,173.1351 L265.3816,172.8035 L259.5869,178.7802 " fill="#000000" style="stroke:#000000;stroke-width:1.0;"/><ellipse cx="216" cy="182" fill="#000000" rx="3" ry="3" style="stroke:#000000;stroke-width:1.0;"/><path d="M143,210 L156,210 C168.4359,210 180.8342,203.9878 190.5596,197.5353 " fill="none" style="stroke:#000000;stroke-width:1.0;stroke-dasharray:3.0,3.0;"/><path d="M192.3472,200.0447 L192.4417,196.1946 L188.772,195.0259 L196.8331,193.0663 L192.3472,200.0447 " fill="#000000" style="stroke:#000000;stroke-width:1.0;"/><ellipse cx="143" cy="210" fill="#000000" rx="3" ry="3" style="stroke:#000000;stroke-width:1.0;"/><path d="M396,276 L409,276 C461.412,276 523.273,275.4798 553.6877,275.1898 " fill="none" style="stroke:#000000;stroke-width:1.0;stroke-dasharray:3.0,3.0;"/><path d="M553.7178,278.274 L556.0009,275.1673 L553.6577,272.1055 L561.3984,275.1147 L553.7178,278.274 " fill="#000000" style="stroke:#000000;stroke-width:1.0;"/><ellipse cx="396" cy="276" fill="#000000" rx="3" ry="3" style="stroke:#000000;stroke-width:1.0;"/><path d="M396,297 L409,297 C461.552,297 523.351,303.2425 553.7204,306.7226 " fill="none" style="stroke:#000000;stroke-width:1.0;stroke-dasharray:3.0,3.0;"/><path d="M553.36,309.802 L556.0299,306.9929 L554.0807,303.6432 L561.4188,307.6234 L553.36,309.802 " fill="#000000" style="stroke:#000000;stroke-width:1.0;"/><ellipse cx="396" cy="297" fill="#000000" rx="3" ry="3" style="stroke:#000000;stroke-width:1.0;"/><path d="M396,363 L409,363 C458.5082,363 516.4489,363 548.3513,363 " fill="none" style="stroke:#000000;stroke-width:1.0;stroke-dasharray:3.0,3.0;"/><path d="M548.3513,366.1617 L550.7226,363 L548.3513,359.8383 L556.2555,363 L548.3513,366.1617 " fill="#000000" style="stroke:#000000;stroke-width:1.0;"/><ellipse cx="396" cy="363" fill="#000000" rx="3" ry="3" style="stroke:#000000;stroke-width:1.0;"/><path d="M216,260 L229,260 C238.5824,260 248.3836,261.3701 257.9751,263.5899 " fill="none" style="stroke:#000000;stroke-width:1.0;stroke-dasharray:3.0,3.0;"/><path d="M257.2333,266.5046 L260.1611,264.1463 L258.7169,260.6753 L265.2617,265.4445 L257.2333,266.5046 " fill="#000000" style="stroke:#000000;stroke-width:1.0;"/><ellipse cx="216" cy="260" fill="#000000" rx="3" ry="3" style="stroke:#000000;stroke-width:1.0;"/><path d="M143,232 L156,232 C168.4359,232 180.8342,238.0122 190.5596,244.4647 " fill="none" style="stroke:#000000;stroke-width:1.0;stroke-dasharray:3.0,3.0;"/><path d="M188.772,246.9741 L192.4417,245.8054 L192.3472,241.9553 L196.8331,248.9337 L188.772,246.9741 " fill="#000000" style="stroke:#000000;stroke-width:1.0;"/><ellipse cx="143" cy="232" fill="#000000" rx="3" ry="3" style="stroke:#000000;stroke-width:1.0;"/></g></svg>