<?xml version="1.0" encoding="UTF-8" standalone="no"?><svg xmlns="http://www.w3.org/2000/svg" xmlns:xlink="http://www.w3.org/1999/xlink" contentStyleType="text/css" height="126px" preserveAspectRatio="none" style="width:796px;height:126px;background:#FFFFFF;" version="1.1" viewBox="0 0 796 126" width="796px" zoomAndPan="magnify"><defs/><g><rect fill="#F1F1F1" height="43.2188" rx="5" ry="5" style="stroke:#F1F1F1;stroke-width:1.5;" width="132" x="10" y="18"/><text fill="#000000" font-family="sans-serif" font-size="14" font-weight="bold" lengthAdjust="spacing" textLength="30" x="15" y="34.5332">type</text><text fill="#000000" font-family="sans-serif" font-size="14" lengthAdjust="spacing" textLength="38" x="99" y="34.5332">object</text><line style="stroke:#000000;stroke-width:1.0;" x1="94" x2="94" y1="18" y2="39.6094"/><line style="stroke:#000000;stroke-width:1.0;" x1="10" x2="142" y1="39.6094" y2="39.6094"/><text fill="#000000" font-family="sans-serif" font-size="14" font-weight="bold" lengthAdjust="spacing" textLength="74" x="15" y="56.1426">properties</text><text fill="#000000" font-family="sans-serif" font-size="14" lengthAdjust="spacing" textLength="12" x="99" y="56.1426">   </text><line style="stroke:#000000;stroke-width:1.0;" x1="94" x2="94" y1="39.6094" y2="61.2188"/><rect fill="none" height="43.2188" rx="5" ry="5" style="stroke:#000000;stroke-width:1.5;" width="132" x="10" y="18"/><rect fill="#F1F1F1" height="21.6094" rx="5" ry="5" style="stroke:#F1F1F1;stroke-width:1.5;" width="82" x="179" y="39.5"/><text fill="#000000" font-family="sans-serif" font-size="14" font-weight="bold" lengthAdjust="spacing" textLength="50" x="184" y="56.0332">Default</text><text fill="#000000" font-family="sans-serif" font-size="14" lengthAdjust="spacing" textLength="12" x="244" y="56.0332">   </text><line style="stroke:#000000;stroke-width:1.0;" x1="239" x2="239" y1="39.5" y2="61.1094"/><rect fill="none" height="21.6094" rx="5" ry="5" style="stroke:#000000;stroke-width:1.5;" width="82" x="179" y="39.5"/><rect fill="#F1F1F1" height="43.2188" rx="5" ry="5" style="stroke:#F1F1F1;stroke-width:1.5;" width="132" x="298" y="29"/><text fill="#000000" font-family="sans-serif" font-size="14" font-weight="bold" lengthAdjust="spacing" textLength="30" x="303" y="45.5332">type</text><text fill="#000000" font-family="sans-serif" font-size="14" lengthAdjust="spacing" textLength="38" x="387" y="45.5332">object</text><line style="stroke:#000000;stroke-width:1.0;" x1="382" x2="382" y1="29" y2="50.6094"/><line style="stroke:#000000;stroke-width:1.0;" x1="298" x2="430" y1="50.6094" y2="50.6094"/><text fill="#000000" font-family="sans-serif" font-size="14" font-weight="bold" lengthAdjust="spacing" textLength="74" x="303" y="67.1426">properties</text><text fill="#000000" font-family="sans-serif" font-size="14" lengthAdjust="spacing" textLength="12" x="387" y="67.1426">   </text><line style="stroke:#000000;stroke-width:1.0;" x1="382" x2="382" y1="50.6094" y2="72.2188"/><rect fill="none" height="43.2188" rx="5" ry="5" style="stroke:#000000;stroke-width:1.5;" width="132" x="298" y="29"/><rect fill="#F1F1F1" height="43.2188" rx="5" ry="5" style="stroke:#F1F1F1;stroke-width:1.5;" width="67" x="467" y="40"/><text fill="#000000" font-family="sans-serif" font-size="14" font-weight="bold" lengthAdjust="spacing" textLength="35" x="472" y="56.5332">head</text><text fill="#000000" font-family="sans-serif" font-size="14" lengthAdjust="spacing" textLength="12" x="517" y="56.5332">   </text><line style="stroke:#000000;stroke-width:1.0;" x1="512" x2="512" y1="40" y2="61.6094"/><line style="stroke:#000000;stroke-width:1.0;" x1="467" x2="534" y1="61.6094" y2="61.6094"/><text fill="#000000" font-family="sans-serif" font-size="14" font-weight="bold" lengthAdjust="spacing" textLength="34" x="472" y="78.1426">body</text><text fill="#000000" font-family="sans-serif" font-size="14" lengthAdjust="spacing" textLength="12" x="517" y="78.1426">   </text><line style="stroke:#000000;stroke-width:1.0;" x1="512" x2="512" y1="61.6094" y2="83.2188"/><rect fill="none" height="43.2188" rx="5" ry="5" style="stroke:#000000;stroke-width:1.5;" width="67" x="467" y="40"/><rect fill="#F1F1F1" height="43.2188" rx="5" ry="5" style="stroke:#F1F1F1;stroke-width:1.5;" width="91" x="571" y="10"/><text fill="#000000" font-family="sans-serif" font-size="14" font-weight="bold" lengthAdjust="spacing" textLength="30" x="576" y="26.5332">type</text><text fill="#000000" font-family="sans-serif" font-size="14" lengthAdjust="spacing" textLength="33" x="624" y="26.5332">array</text><line style="stroke:#000000;stroke-width:1.0;" x1="619" x2="619" y1="10" y2="31.6094"/><line style="stroke:#000000;stroke-width:1.0;" x1="571" x2="662" y1="31.6094" y2="31.6094"/><text fill="#000000" font-family="sans-serif" font-size="14" font-weight="bold" lengthAdjust="spacing" textLength="38" x="576" y="48.1426">items</text><text fill="#000000" font-family="sans-serif" font-size="14" lengthAdjust="spacing" textLength="12" x="624" y="48.1426">   </text><line style="stroke:#000000;stroke-width:1.0;" x1="619" x2="619" y1="31.6094" y2="53.2188"/><rect fill="none" height="43.2188" rx="5" ry="5" style="stroke:#000000;stroke-width:1.5;" width="91" x="571" y="10"/><rect fill="#F1F1F1" height="21.6094" rx="5" ry="5" style="stroke:#F1F1F1;stroke-width:1.5;" width="85" x="699" y="31.5"/><text fill="#000000" font-family="sans-serif" font-size="14" font-weight="bold" lengthAdjust="spacing" textLength="30" x="704" y="48.0332">type</text><text fill="#000000" font-family="sans-serif" font-size="14" lengthAdjust="spacing" textLength="35" x="744" y="48.0332">string</text><line style="stroke:#000000;stroke-width:1.0;" x1="739" x2="739" y1="31.5" y2="53.1094"/><rect fill="none" height="21.6094" rx="5" ry="5" style="stroke:#000000;stroke-width:1.5;" width="85" x="699" y="31.5"/><rect fill="#F1F1F1" height="43.2188" rx="5" ry="5" style="stroke:#F1F1F1;stroke-width:1.5;" width="91" x="571" y="71"/><text fill="#000000" font-family="sans-serif" font-size="14" font-weight="bold" lengthAdjust="spacing" textLength="30" x="576" y="87.5332">type</text><text fill="#000000" font-family="sans-serif" font-size="14" lengthAdjust="spacing" textLength="33" x="624" y="87.5332">array</text><line style="stroke:#000000;stroke-width:1.0;" x1="619" x2="619" y1="71" y2="92.6094"/><line style="stroke:#000000;stroke-width:1.0;" x1="571" x2="662" y1="92.6094" y2="92.6094"/><text fill="#000000" font-family="sans-serif" font-size="14" font-weight="bold" lengthAdjust="spacing" textLength="38" x="576" y="109.1426">items</text><text fill="#000000" font-family="sans-serif" font-size="14" lengthAdjust="spacing" textLength="12" x="624" y="109.1426">   </text><line style="stroke:#000000;stroke-width:1.0;" x1="619" x2="619" y1="92.6094" y2="114.2188"/><rect fill="none" height="43.2188" rx="5" ry="5" style="stroke:#000000;stroke-width:1.5;" width="91" x="571" y="71"/><rect fill="#F1F1F1" height="21.6094" rx="5" ry="5" style="stroke:#F1F1F1;stroke-width:1.5;" width="85" x="699" y="92.5"/><text fill="#000000" font-family="sans-serif" font-size="14" font-weight="bold" lengthAdjust="spacing" textLength="30" x="704" y="109.0332">type</text><text fill="#000000" font-family="sans-serif" font-size="14" lengthAdjust="spacing" textLength="35" x="744" y="109.0332">string</text><line style="stroke:#000000;stroke-width:1.0;" x1="739" x2="739" y1="92.5" y2="114.1094"/><rect fill="none" height="21.6094" rx="5" ry="5" style="stroke:#000000;stroke-width:1.5;" width="85" x="699" y="92.5"/><path d="M650,42.5 L663,42.5 C672.2961,42.5 682.2155,42.5 691.7553,42.5 " fill="none" style="stroke:#000000;stroke-width:1.0;stroke-dasharray:3.0,3.0;"/><path d="M691.7553,45.5201 L694.0204,42.5 L691.7553,39.4799 L699.3056,42.5 L691.7553,45.5201 " fill="#000000" style="stroke:#000000;stroke-width:1.0;"/><ellipse cx="650" cy="42.5" fill="#000000" rx="3" ry="3" style="stroke:#000000;stroke-width:1.0;"/><path d="M522,50.5 L535,50.5 C544.4598,50.5 554.3808,49.2565 563.9078,47.4057 " fill="none" style="stroke:#000000;stroke-width:1.0;stroke-dasharray:3.0,3.0;"/><path d="M564.5487,50.4216 L566.1697,46.925 L563.2668,44.3898 L571.4475,45.8034 L564.5487,50.4216 " fill="#000000" style="stroke:#000000;stroke-width:1.0;"/><ellipse cx="522" cy="50.5" fill="#000000" rx="3" ry="3" style="stroke:#000000;stroke-width:1.0;"/><path d="M650,103.5 L663,103.5 C672.2961,103.5 682.2155,103.5 691.7553,103.5 " fill="none" style="stroke:#000000;stroke-width:1.0;stroke-dasharray:3.0,3.0;"/><path d="M691.7553,106.5201 L694.0204,103.5 L691.7553,100.4799 L699.3056,103.5 L691.7553,106.5201 " fill="#000000" style="stroke:#000000;stroke-width:1.0;"/><ellipse cx="650" cy="103.5" fill="#000000" rx="3" ry="3" style="stroke:#000000;stroke-width:1.0;"/><path d="M522,72.5 L535,72.5 C544.4864,72.5 554.4204,73.809 563.952,75.7572 " fill="none" style="stroke:#000000;stroke-width:1.0;stroke-dasharray:3.0,3.0;"/><path d="M563.2773,78.7738 L566.2145,76.2632 L564.6267,72.7405 L571.4937,77.4438 L563.2773,78.7738 " fill="#000000" style="stroke:#000000;stroke-width:1.0;"/><ellipse cx="522" cy="72.5" fill="#000000" rx="3" ry="3" style="stroke:#000000;stroke-width:1.0;"/><path d="M418,61.5 L431,61.5 C440.2651,61.5 450.2301,61.5 459.6263,61.5 " fill="none" style="stroke:#000000;stroke-width:1.0;stroke-dasharray:3.0,3.0;"/><path d="M459.6263,64.5925 L461.9456,61.5 L459.6263,58.4075 L467.3574,61.5 L459.6263,64.5925 " fill="#000000" style="stroke:#000000;stroke-width:1.0;"/><ellipse cx="418" cy="61.5" fill="#000000" rx="3" ry="3" style="stroke:#000000;stroke-width:1.0;"/><path d="M249,50.5 L262,50.5 C271.2465,50.5 280.9668,50.5 290.5782,50.5 " fill="none" style="stroke:#000000;stroke-width:1.0;stroke-dasharray:3.0,3.0;"/><path d="M290.5782,53.5695 L292.8803,50.5 L290.5782,47.4305 L298.2519,50.5 L290.5782,53.5695 " fill="#000000" style="stroke:#000000;stroke-width:1.0;"/><ellipse cx="249" cy="50.5" fill="#000000" rx="3" ry="3" style="stroke:#000000;stroke-width:1.0;"/><path d="M130,50.5 L143,50.5 C152.327,50.5 162.2936,50.5 171.847,50.5 " fill="none" style="stroke:#000000;stroke-width:1.0;stroke-dasharray:3.0,3.0;"/><path d="M171.847,53.5212 L174.1129,50.5 L171.847,47.4788 L179.4,50.5 L171.847,53.5212 " fill="#000000" style="stroke:#000000;stroke-width:1.0;"/><ellipse cx="130" cy="50.5" fill="#000000" rx="3" ry="3" style="stroke:#000000;stroke-width:1.0;"/></g></svg>