<?xml version="1.0" encoding="UTF-8" standalone="no"?><svg xmlns="http://www.w3.org/2000/svg" xmlns:xlink="http://www.w3.org/1999/xlink" contentStyleType="text/css" height="105px" preserveAspectRatio="none" style="width:343px;height:105px;background:#FFFFFF;" version="1.1" viewBox="0 0 343 105" width="343px" zoomAndPan="magnify"><defs/><g><rect fill="#F1F1F1" height="21.6094" rx="5" ry="5" style="stroke:#F1F1F1;stroke-width:1.5;" width="82" x="10" y="45.5"/><text fill="#000000" font-family="sans-serif" font-size="14" font-weight="bold" lengthAdjust="spacing" textLength="50" x="15" y="62.0332">Default</text><text fill="#000000" font-family="sans-serif" font-size="14" lengthAdjust="spacing" textLength="12" x="75" y="62.0332">   </text><line style="stroke:#000000;stroke-width:1.0;" x1="70" x2="70" y1="45.5" y2="67.1094"/><rect fill="none" height="21.6094" rx="5" ry="5" style="stroke:#000000;stroke-width:1.5;" width="82" x="10" y="45.5"/><rect fill="#F1F1F1" height="43.2188" rx="5" ry="5" style="stroke:#F1F1F1;stroke-width:1.5;" width="67" x="129" y="35"/><text fill="#000000" font-family="sans-serif" font-size="14" font-weight="bold" lengthAdjust="spacing" textLength="35" x="134" y="51.5332">head</text><text fill="#000000" font-family="sans-serif" font-size="14" lengthAdjust="spacing" textLength="12" x="179" y="51.5332">   </text><line style="stroke:#000000;stroke-width:1.0;" x1="174" x2="174" y1="35" y2="56.6094"/><line style="stroke:#000000;stroke-width:1.0;" x1="129" x2="196" y1="56.6094" y2="56.6094"/><text fill="#000000" font-family="sans-serif" font-size="14" font-weight="bold" lengthAdjust="spacing" textLength="34" x="134" y="73.1426">body</text><text fill="#000000" font-family="sans-serif" font-size="14" lengthAdjust="spacing" textLength="12" x="179" y="73.1426">   </text><line style="stroke:#000000;stroke-width:1.0;" x1="174" x2="174" y1="56.6094" y2="78.2188"/><rect fill="none" height="43.2188" rx="5" ry="5" style="stroke:#000000;stroke-width:1.5;" width="67" x="129" y="35"/><rect fill="#F1F1F1" height="43.2188" rx="5" ry="5" style="stroke:#F1F1F1;stroke-width:1.5;" width="98" x="233" y="10"/><text fill="#000000" font-family="sans-serif" font-size="14" lengthAdjust="spacing" textLength="71" x="238" y="26.5332">PwaDefault</text><line style="stroke:#000000;stroke-width:1.0;" x1="233" x2="331" y1="31.6094" y2="31.6094"/><text fill="#000000" font-family="sans-serif" font-size="14" lengthAdjust="spacing" textLength="88" x="238" y="48.1426">DefaultScripts</text><rect fill="none" height="43.2188" rx="5" ry="5" style="stroke:#000000;stroke-width:1.5;" width="98" x="233" y="10"/><rect fill="#F1F1F1" height="21.6094" rx="5" ry="5" style="stroke:#F1F1F1;stroke-width:1.5;" width="97" x="233.5" y="71.5"/><text fill="#000000" font-family="sans-serif" font-size="14" lengthAdjust="spacing" textLength="87" x="238.5" y="88.0332">CacheControl</text><rect fill="none" height="21.6094" rx="5" ry="5" style="stroke:#000000;stroke-width:1.5;" width="97" x="233.5" y="71.5"/><path d="M184,45.5 L197,45.5 C206.3868,45.5 216.2821,44.6488 225.8646,43.3661 " fill="none" style="stroke:#000000;stroke-width:1.0;stroke-dasharray:3.0,3.0;"/><path d="M226.3098,46.4069 L228.1452,43.0321 L225.4193,40.3252 L233.4667,42.2529 L226.3098,46.4069 " fill="#000000" style="stroke:#000000;stroke-width:1.0;"/><ellipse cx="184" cy="45.5" fill="#000000" rx="3" ry="3" style="stroke:#000000;stroke-width:1.0;"/><path d="M184,67.5 L197,67.5 C207.3109,67.5 218.2221,68.5961 228.6556,70.1958 " fill="none" style="stroke:#000000;stroke-width:1.0;stroke-dasharray:3.0,3.0;"/><path d="M228.1575,73.1947 L230.9048,70.5694 L229.1537,67.1968 L236.1529,71.4411 L228.1575,73.1947 " fill="#000000" style="stroke:#000000;stroke-width:1.0;"/><ellipse cx="184" cy="67.5" fill="#000000" rx="3" ry="3" style="stroke:#000000;stroke-width:1.0;"/><path d="M80,56.5 L93,56.5 C102.2651,56.5 112.2301,56.5 121.6263,56.5 " fill="none" style="stroke:#000000;stroke-width:1.0;stroke-dasharray:3.0,3.0;"/><path d="M121.6263,59.5925 L123.9456,56.5 L121.6263,53.4075 L129.3574,56.5 L121.6263,59.5925 " fill="#000000" style="stroke:#000000;stroke-width:1.0;"/><ellipse cx="80" cy="56.5" fill="#000000" rx="3" ry="3" style="stroke:#000000;stroke-width:1.0;"/></g></svg>