<?xml version="1.0" standalone="no"?>
<!DOCTYPE svg PUBLIC "-//W3C//DTD SVG 20010904//EN"
 "http://www.w3.org/TR/2001/REC-SVG-20010904/DTD/svg10.dtd">
<svg version="1.0" xmlns="http://www.w3.org/2000/svg"
 width="500.000000pt" height="500.000000pt" viewBox="0 0 500.000000 500.000000"
 preserveAspectRatio="xMidYMid meet">
<metadata>
Created by potrace 1.11, written by Peter Selinger 2001-2013
</metadata>
<g transform="translate(0.000000,500.000000) scale(0.100000,-0.100000)"
fill="#000000" stroke="none">
<path d="M750 2750 l0 -1750 500 0 500 0 0 -250 0 -250 250 0 250 0 0 500 0
500 -500 0 -500 0 0 1250 0 1250 1250 0 1250 0 0 -1250 0 -1250 -500 0 -500 0
0 -500 0 -500 250 0 250 0 0 250 0 250 500 0 500 0 0 1750 0 1750 -1750 0
-1750 0 0 -1750z"/>
<path d="M1750 2750 l0 -750 750 0 750 0 0 750 0 750 -750 0 -750 0 0 -750z
m1000 0 l0 -250 -250 0 -250 0 0 250 0 250 250 0 250 0 0 -250z"/>
</g>
</svg>
