<?xml version="1.0" standalone="no"?>
<!DOCTYPE svg PUBLIC "-//W3C//DTD SVG 20010904//EN"
 "http://www.w3.org/TR/2001/REC-SVG-20010904/DTD/svg10.dtd">
<svg version="1.0" xmlns="http://www.w3.org/2000/svg"
 width="269.000000pt" height="269.000000pt" viewBox="0 0 269.000000 269.000000"
 preserveAspectRatio="xMidYMid meet">
<metadata>
Created by potrace 1.11, written by Peter Selinger 2001-2013
</metadata>
<g transform="translate(0.000000,269.000000) scale(0.100000,-0.100000)"
fill="#000000" stroke="none">
<path d="M980 2475 l0 -65 65 0 65 0 0 65 0 65 -65 0 -65 0 0 -65z"/>
<path d="M1700 2475 l0 -65 65 0 65 0 0 65 0 65 -65 0 -65 0 0 -65z"/>
<path d="M1110 2325 l0 -65 -85 0 -85 0 0 -140 0 -140 -60 0 -60 0 0 -160 0
-160 75 0 75 0 0 -100 0 -100 95 0 95 0 0 -40 0 -40 -240 0 -240 0 0 -445 0
-445 -65 0 -65 0 0 -135 0 -135 65 0 65 0 0 -55 0 -55 65 0 65 0 0 475 0 475
85 0 85 0 0 -425 0 -425 425 0 425 0 0 425 0 425 85 0 85 0 0 -475 0 -475 65
0 65 0 0 55 0 55 60 0 60 0 0 135 0 135 -60 0 -60 0 0 445 0 445 -240 0 -240
0 0 35 0 35 95 0 95 0 0 105 0 105 75 0 75 0 0 160 0 160 -60 0 -60 0 0 140 0
140 -85 0 -85 0 0 65 0 65 -75 0 -75 0 0 -65 0 -65 -145 0 -145 0 0 65 0 65
-75 0 -75 0 0 -65z m210 -505 l0 -110 -110 0 -110 0 0 110 0 110 110 0 110 0
0 -110z m390 0 l0 -70 -70 0 -70 0 0 70 0 70 70 0 70 0 0 -70z"/>
</g>
</svg>
