<?xml version="1.0" standalone="no"?>
<!DOCTYPE svg PUBLIC "-//W3C//DTD SVG 20010904//EN"
 "http://www.w3.org/TR/2001/REC-SVG-20010904/DTD/svg10.dtd">
<svg version="1.0" xmlns="http://www.w3.org/2000/svg"
 width="500.000000pt" height="500.000000pt" viewBox="0 0 500.000000 500.000000"
 preserveAspectRatio="xMidYMid meet">
<metadata>
Created by potrace 1.11, written by Peter Selinger 2001-2013
</metadata>
<g transform="translate(0.000000,500.000000) scale(0.100000,-0.100000)"
fill="#000000" stroke="none">
<path d="M1876 2498 l627 -1253 623 1245 c342 685 623 1248 623 1253 1 4 -562
7 -1249 7 l-1250 0 626 -1252z m1134 838 c0 -2 -110 -228 -245 -502 -141 -286
-249 -494 -254 -488 -10 11 -501 978 -501 988 0 3 225 6 500 6 275 0 500 -2
500 -4z"/>
</g>
</svg>
