<?xml version="1.0" standalone="no"?>
<!DOCTYPE svg PUBLIC "-//W3C//DTD SVG 20010904//EN"
 "http://www.w3.org/TR/2001/REC-SVG-20010904/DTD/svg10.dtd">
<svg version="1.0" xmlns="http://www.w3.org/2000/svg"
 width="500.000000pt" height="500.000000pt" viewBox="0 0 500.000000 500.000000"
 preserveAspectRatio="xMidYMid meet">
<metadata>
Created by potrace 1.11, written by Peter Selinger 2001-2013
</metadata>
<g transform="translate(0.000000,500.000000) scale(0.100000,-0.100000)"
fill="#000000" stroke="none">
<path d="M990 4185 l0 -225 533 -2 532 -3 -642 -1680 c-354 -924 -643 -1681
-643 -1682 0 -2 119 -3 263 -3 l264 0 205 577 205 578 272 3 271 2 0 -580 0
-580 250 0 250 0 0 580 0 580 274 0 273 0 218 -580 218 -580 284 0 c267 0 285
1 281 18 -3 9 -305 762 -673 1672 -367 910 -669 1661 -672 1668 -4 9 105 12
526 12 l531 0 0 225 0 225 -1510 0 -1510 0 0 -225z m1257 -2022 c-2 -2 -92 -2
-199 -1 l-195 3 196 523 196 522 3 -521 c1 -287 1 -524 -1 -526z m712 493
c100 -263 181 -482 181 -487 0 -5 -88 -9 -195 -9 l-195 0 1 523 c0 444 2 517
14 487 7 -19 94 -250 194 -514z"/>
</g>
</svg>
