<?xml version="1.0" standalone="no"?>
<!DOCTYPE svg PUBLIC "-//W3C//DTD SVG 20010904//EN"
 "http://www.w3.org/TR/2001/REC-SVG-20010904/DTD/svg10.dtd">
<svg version="1.0" xmlns="http://www.w3.org/2000/svg"
 width="600.000000pt" height="600.000000pt" viewBox="0 0 600.000000 600.000000"
 preserveAspectRatio="xMidYMid meet">
<metadata>
Created by potrace 1.11, written by Peter Selinger 2001-2013
</metadata>
<g transform="translate(0.000000,600.000000) scale(0.100000,-0.100000)"
fill="#000000" stroke="none">
<path d="M1870 4270 l0 -170 336 0 c316 0 336 -1 331 -17 -2 -10 -219 -578
-481 -1261 -262 -684 -476 -1246 -476 -1248 0 -2 139 -4 309 -4 l309 0 30 83
c16 45 69 191 117 325 l87 242 189 0 189 0 0 -325 0 -325 190 0 190 0 0 325 0
325 196 -2 196 -3 122 -320 123 -320 311 -3 c172 -1 312 -1 312 1 0 2 -981
2453 -1007 2515 -4 9 68 12 341 12 l346 0 0 170 0 170 -1130 0 -1130 0 0 -170z
m940 -1295 l0 -275 -100 0 c-55 0 -100 3 -100 6 0 9 194 544 197 544 2 0 3
-124 3 -275z m489 -19 c50 -131 91 -242 91 -247 0 -5 -45 -9 -100 -9 l-100 0
1 268 c0 150 4 258 9 247 4 -11 49 -127 99 -259z"/>
</g>
</svg>
